<svg id="Layer_1" data-name="Layer 1" xmlns="http://www.w3.org/2000/svg" viewBox="0 0 131.7 80"><title>vela</title><path d="M64.45,18.49c3.19,0,5.79-.37,8.3.19A1.59,1.59,0,0,1,72,20.41c-2.5,1.74-3.69,4.29-4.66,7.08-3,8.53-6,17-9,25.54-.58,1.63-1.13,3.27-1.78,4.87-.33.86-.55,2-1.69,2.1-1.48.12-1.78-1.25-2.18-2.26-2.43-6.06-4.8-12.15-7.2-18.22-1.13-2.86-2.26-5.71-3.4-8.57-.86-2.14-1.75-4.27-2.58-6.42s-2.8-3.5-4.21-5.25c.55-.4.82-.77,1.1-.77,3.64,0,7.28,0,11.17,0,.56,2-1.45,3.64-.6,5.52s1.39,3.58,2.09,5.37c1.84,4.64,3.67,9.28,5.53,13.92.5,1.25,1,2.49,1.62,3.7a1.26,1.26,0,0,0,.88.56,1.11,1.11,0,0,0,.9-.47,20.58,20.58,0,0,0,1.16-2.63c2.11-6,4.23-12,6.29-17.94C66.76,22.76,66.72,22.75,64.45,18.49Z"/><path d="M131.7,59.45c-2.51.5-5,.77-7.35-.14a4.78,4.78,0,0,0-4.29.29c-2.93,1.39-6,1.13-9,.33-2.79-.74-4.88-2.23-5.49-5.22-.66-3.29,1-5.52,3.54-7.24A17.53,17.53,0,0,1,116,44.8c1.5-.26,3-.45,4.53-.73,2.65-.49,3.13-1.1,3-3.85a19.31,19.31,0,0,0-.36-2.85c-.63-3-2.36-4.26-5.31-3.92s-4.14,2.43-3,5.32a16.64,16.64,0,0,1,.78,1.51,1.63,1.63,0,0,1-.89,1.92,4.5,4.5,0,0,1-5.74-.78,4.72,4.72,0,0,1-.2-5.84,5.54,5.54,0,0,1,.37-.45c3.39-4.08,14.7-4.55,18.48-.16a9.21,9.21,0,0,1,2.26,6.32c0,3.83,0,7.66,0,11.49C130,55.9,130,55.9,131.7,59.45Zm-8.09-8.81c0-.56,0-.75,0-.94-.11-3.3-1.19-4.14-4.25-3.23a12.08,12.08,0,0,0-2.12.82,6.75,6.75,0,0,0-3.41,8.21,4,4,0,0,0,5.93,2.4A6.91,6.91,0,0,0,123.61,50.64Z"/><path d="M69.43,45.39a32.24,32.24,0,0,1,.62-4.21A11.9,11.9,0,0,1,81.21,32c6.22-.38,10.73,2.28,12.91,7.57,1.06,2.56.45,3.68-2.22,3.77-2.87.1-5.76,0-8.63.06-1.53,0-3.07.06-4.6.17a2,2,0,0,0-2,1.73,15.25,15.25,0,0,0,2.43,11,5.35,5.35,0,0,0,3.2,2.3,4.88,4.88,0,0,0,4.8-1.18c1.54-1.53,1.69-3.22.92-5.26-1-2.68,0-4,2.62-3.93a4.41,4.41,0,0,1,4.27,3.23,5,5,0,0,1-.44,3.89,8.31,8.31,0,0,1-2.73,2.92c-4.75,3.21-13.91,3.6-19-2.34C70.57,53.26,69.49,50.28,69.43,45.39Zm7.95-4.52a6.7,6.7,0,0,0,1.63.49c1.51.09,3,.13,4.56.09,3.4-.09,4-1,2.71-4.18a9.94,9.94,0,0,0-1.39-2.46,3.47,3.47,0,0,0-5.8.17A7.87,7.87,0,0,0,77.38,40.87Z"/><path d="M19.16,13.26c-.24,7.23,0,14.33-.25,21.4a50.15,50.15,0,0,1-3.3,16.87,19.56,19.56,0,0,1-5.07,7.58A10,10,0,0,1,6,61.52a5,5,0,0,1-6-4,2.44,2.44,0,0,1,.59-2.12c2.28-2.7,2.42-6,2.51-9.25.15-5.56.08-11.13.91-16.66.46-3,.88-6,2.48-8.59,1.51,0,1.18,1,1.18,1.64,0,3.46-.2,6.91-.18,10.36,0,7-.34,13.81-3.39,20.26-.64,1.37.15,2.2,1.64,2a9.08,9.08,0,0,0,7.8-5.95,20.92,20.92,0,0,0,1.28-7.33c.11-3.26.06-6.53.06-9.79a46.78,46.78,0,0,1,3.14-16.87A14.42,14.42,0,0,1,19.16,13.26Z"/><path d="M95.8,18.79c8.51-1,7.79-.3,7.81,6.79q.06,13.22,0,26.43c0,2.51,0,5,2.27,7.34a34.92,34.92,0,0,1-10.6.09c2.2-2.47,2.19-5.13,2.17-7.83,0-8,0-16.08,0-24.13a25.85,25.85,0,0,0-.12-4.58A25.86,25.86,0,0,0,95.8,18.79Z"/><path d="M30.62,47.88c-1.11-1.1-2.56-.43-3.8-.75-3.14-.81-4.52-3-3.61-6a22.68,22.68,0,0,1,4.47-8.63c2.09-2.39,4.94-2.19,6.8.4a9,9,0,0,1,1.62,6.55,35.79,35.79,0,0,1-6.55,16.39c-2.33,3.22-6,3.86-9.64,4.5a1,1,0,0,1-.79-.52,1.2,1.2,0,0,1,.39-1c1.38-1,2.83-2,4.24-3a26.08,26.08,0,0,0,5.91-5.43A3.14,3.14,0,0,0,30.62,47.88Z"/><path d="M10.27,4.38C8.54,4,7.81,3.24,7.69,1.92,7.6.84,8.34,0,9.3.32s1.88,1.22,2.58.49c1.79-1.88,3.5.14,5.22-.13.16,0,.57.48.58.74a1.72,1.72,0,0,1-.47,1,2,2,0,0,1-.85.72C14.22,3.83,11.85,3.2,10.27,4.38Z"/><path d="M28.49,72c-.08.37,0,.84-.25,1.07a11.62,11.62,0,0,1-2.07,1.9Q22.62,77.3,19,79.51c-.59.35-1.4.92-1.87-.05A1.68,1.68,0,0,1,17.61,78a54.66,54.66,0,0,1,10-6.44C27.77,71.45,28.18,71.81,28.49,72Z"/></svg>