<svg id="Layer_1" data-name="Layer 1" xmlns="http://www.w3.org/2000/svg" viewBox="0 0 498.35 150"><title>women-bags</title><path d="M392.83,85.22a40.56,40.56,0,0,1,18.38,3.71,18.85,18.85,0,0,1,6.71,5.2c3.87,4.72,5.26,10,3.69,16a34.72,34.72,0,0,1-9,16c-11.11,11.16-24.31,18.23-40.13,19.92a32.88,32.88,0,0,1-16.76-2.59c-7-3-10.75-8.65-12.24-15.93-.38-1.83-.57-3.75.87-5.38,1.11.75.64,1.76.71,2.59.85,9.42,6.06,15.55,15.29,17.68a37,37,0,0,0,19.74-.7c9.83-3.08,18.82-7.58,26.54-14.5a14.72,14.72,0,0,1,2.27-1.72c6.06-3.69,9.19-9.49,11.39-15.91,1.68-4.89.17-9.07-3.33-12.6-4.28-4.33-9.58-6.65-15.49-7.8-6.6-1.28-12.95-.16-19.24,1.71-1.37.4-2.72.84-4.12,1.13a1.44,1.44,0,0,1-1.55-.85,1.53,1.53,0,0,1,.53-2.07,11.62,11.62,0,0,1,1.66-.91c1.27-.64,2.58-1.23,3.84-1.89a217.63,217.63,0,0,0,25.42-15.91,49.45,49.45,0,0,0,9-8.43,20.39,20.39,0,0,0,2.05-3.19,1.36,1.36,0,0,0-.88-1.87,26.83,26.83,0,0,0-3.75-.68,44.31,44.31,0,0,0-11.38.8c-8.61,1.46-17.06,3.66-25.49,5.91a4.74,4.74,0,0,0-3.73,3.73c-5,17.89-10.94,35.5-14.84,53.68a13.35,13.35,0,0,1-.89,2.7,1.7,1.7,0,0,1-1.89,1.11,2.14,2.14,0,0,1-1.59-2.1,20.2,20.2,0,0,1,.54-2.3c.87-3.39,1.79-6.76,2.59-10.15a99.27,99.27,0,0,0,1.46-35.5,24.17,24.17,0,0,0-.56-2.79c-1.07-4.29-1.27-4-5.13-3.78a49.41,49.41,0,0,1-5.7-.18A9.75,9.75,0,0,1,343,65.6c-2.73-1.92-2.7-4.93.16-6.52a10.8,10.8,0,0,1,10.93-.17,9,9,0,0,1,3,2.32c1.59,2.22,3.47,2.33,5.83,1.55s4.9-1.31,7.37-1.87a3.64,3.64,0,0,0,2.83-2.86c.78-2.75,1.56-5.5,2.41-8.22.32-1,.46-2.28,1.92-2.37,1-.07,1.46,1.24,1,3.16s-1.21,4-1.74,5.93.09,2.56,2.22,2.11c1.55-.33,3.09-.72,4.63-1.11a153.55,153.55,0,0,1,22-4.1,81.34,81.34,0,0,1,8.56-.33,12.71,12.71,0,0,1,6.39,1.64c2.3,1.33,2.88,3.17,1.91,5.65a15.21,15.21,0,0,1-3.16,4.73,60.66,60.66,0,0,1-9,7.83c-4.72,3.5-9.67,6.66-14.69,9.74C394.67,83.23,393.53,83.55,392.83,85.22ZM370.56,66a2,2,0,0,0-1.92-.64c-1.71.29-3.41.58-5.11.93-2.36.49-2.55.74-2,3.21a65,65,0,0,1,1.74,13.1c0,1.1.13,2.21.26,3.31a.92.92,0,0,0,.48.7c.58.18.75-.31.88-.75Zm-15.41-1.81a6.63,6.63,0,0,0-.46-1.31,8.74,8.74,0,0,0-1.27-1.38A8.54,8.54,0,0,0,343,61.37a1.44,1.44,0,0,0,.06,2.38,3.8,3.8,0,0,0,1.22.65C347.81,65.1,351.38,65.49,355.15,64.21Z"/><path d="M231.73,89.39a2.46,2.46,0,0,1,1.62,2.15c.55,2.44,2.25,3.66,4.46,4.49a45.2,45.2,0,0,0,13.55,2.37c12.64.68,25-1.25,37.11-4.73a4.93,4.93,0,0,0,3.67-3.79,36,36,0,0,1,4.58-9.38,11.69,11.69,0,0,1,3.58-3.76A4.41,4.41,0,0,1,306.93,79a7.75,7.75,0,0,1,.43,4.21c-.26,1.4-.52,2.81-.74,4.22-.15,1,.35,1.56,1.29,1.44.63-.08,1.23-.31,1.86-.4,1.49-.22,2.05.28,2.07,1.68,0,1.58-.45,2.81-2,3.37-2.39.84-4.77,1.73-7.2,2.44a28,28,0,0,0-7.38,3.21c-11.23,7.23-23.66,10.48-36.88,11.31a100.48,100.48,0,0,1-16.64-.19,19.67,19.67,0,0,1-6.84-1.9c-3.13-1.56-5-4.09-4.79-7.58C230.27,97.06,230.37,93.23,231.73,89.39ZM300,89.25a5,5,0,0,0,3.54-1.7,2.05,2.05,0,0,0,.32-2.58c-1.22-2.24-3.45-2.9-5.55-1.56a8.25,8.25,0,0,0-2,1.93,1.87,1.87,0,0,0,.42,2.86A5,5,0,0,0,300,89.25Z"/><path d="M465.42,102.18c-2.13,1.43-3.68,2.52-5.27,3.53a10.88,10.88,0,0,1-5.33,1.89,4.92,4.92,0,0,1-5-2.92,13.82,13.82,0,0,1-1.12-5.16c-1.94.38-2.65,2-3.77,3a21.44,21.44,0,0,1-7.48,5c-3,1.06-5,.06-5.71-3a8,8,0,0,1,.46-5.58,22,22,0,0,1,7.7-8.88,7.17,7.17,0,0,1,4-1.23c1.65,0,3.22.3,4.17,1.82a2.5,2.5,0,0,0,2.65,1.27c2-.09,2.85,1.32,2.39,3.12-.26,1.08-.68,2.11-.94,3.19a8,8,0,0,0,.15,4.69,2.69,2.69,0,0,0,2.91,1.94,10.76,10.76,0,0,0,4-1.36,30.88,30.88,0,0,0,8.87-7.11,24.1,24.1,0,0,1,5.08-4.27,6.3,6.3,0,0,1,4.08-1,3.8,3.8,0,0,1,3.15,1.83c1.89,3,3.13,6.17,2.26,9.91-.53,2.25-.65,4.59-1,7.22,2-.53,3.09-1.74,4.29-2.7a38.08,38.08,0,0,0,9-10.35A25.13,25.13,0,0,1,497,94.27a.91.91,0,0,1,.87-.09.88.88,0,0,1,.47.71,9,9,0,0,1-.62,2.24,32.14,32.14,0,0,1-5.75,8.13,58.48,58.48,0,0,1-8.54,7.57,10.69,10.69,0,0,0-4,5.65c-2.06,6.16-4.3,12.27-6.64,18.34a55.73,55.73,0,0,1-3.75,7.69,11.26,11.26,0,0,1-5.93,5.27,2.87,2.87,0,0,1-4-2.17,10.64,10.64,0,0,1-.08-2.82,27.15,27.15,0,0,1,1.77-6.9,59.32,59.32,0,0,1,13.62-21.58,14.74,14.74,0,0,0,4.44-8.64,56.37,56.37,0,0,0,.92-7.06,1.77,1.77,0,0,0-.49-1.25c-.65-.47-1.17.08-1.58.55-1.17,1.29-2.26,2.66-3.5,3.9a18.51,18.51,0,0,1-3.26,2.74c-2.38,1.48-4.18.7-5-2A15.37,15.37,0,0,1,465.42,102.18Zm9.84,16.89a39.68,39.68,0,0,0-6,7A43.88,43.88,0,0,0,461,144a14.79,14.79,0,0,0-.35,2.8,1.85,1.85,0,0,0,.6,1.19,1.29,1.29,0,0,0,1.73-.16c1.93-1.5,3-3.64,4.06-5.76a125.24,125.24,0,0,0,8.19-21.17A9.73,9.73,0,0,0,475.26,119.07ZM433.2,104c.22,1,.19,1.85,1,2.26a2.39,2.39,0,0,0,2.24-.26,3.48,3.48,0,0,0,.39-.28,58,58,0,0,0,9.63-10.35,2,2,0,0,0-.85-2.82,3.14,3.14,0,0,0-3.16-.09A19.15,19.15,0,0,0,434,101,14.2,14.2,0,0,0,433.2,104Zm36.31-.25a2.91,2.91,0,0,0,.87-.33,38.49,38.49,0,0,0,6.74-7.94.94.94,0,0,0,0-.85.9.9,0,0,0-1.27-.22c-3.5,1.68-5.41,4.72-6.82,8.15-.1.24.07.6.15.9C469.24,103.55,469.39,103.63,469.51,103.73Z"/><path d="M23.68,109.05c2.49-2.64,5-5.3,7.48-7.91q2.32-2.39,4.78-4.65a10.31,10.31,0,0,1,2.3-1.65,3,3,0,0,1,4.59,2.32,23.08,23.08,0,0,1,.1,3.33c0,2.86,0,5.71-.11,8.57s.78,5.64,1.21,8.45c.22,1.46,2,2.12,3.39,1.59a6.52,6.52,0,0,0,2.73-1.87,35,35,0,0,0,3.46-4.51c6.12-10.3,11-21.11,12.67-33.11a64.11,64.11,0,0,0,.56-8.07,15.4,15.4,0,0,0-8-14.2c-.55-.32-1.1-.62-1.64-1-.09,0-.08-.28-.11-.41.22-.55.66-.58,1.12-.47,5.66,1.39,8.87,5.25,10.53,10.59a26.22,26.22,0,0,1,.56,10.4,79.93,79.93,0,0,1-7.51,25.94c-1.8,3.87-4,7.55-6.19,11.25A21.47,21.47,0,0,1,50,120.11a5.41,5.41,0,0,1-9-4.13,35.25,35.25,0,0,1,.33-6.16,42.06,42.06,0,0,0,.46-7.6,19,19,0,0,0-.58-3.74c-.41-1.54-1.6-1.94-2.9-1a31.67,31.67,0,0,0-3.23,2.79,119.61,119.61,0,0,0-9.87,11.59,12.56,12.56,0,0,1-3,3.09,2.66,2.66,0,0,1-3.1.24c-1-.62-1.29-1.42-.73-2.92,1.26-3.41,2.59-6.82,4-10.18A106.53,106.53,0,0,0,28.1,85.93a17.3,17.3,0,0,0,.43-7.08,2.58,2.58,0,0,0-3.06-2.29A10,10,0,0,0,21,78.11c-2,1.27-4,2.57-5.88,4-3.38,2.64-6.66,5.41-10,8.12-.86.7-1.69,1.45-2.57,2.13-.64.47-1.34.85-2.14.24s-.6-1.51.47-2.39c5.4-4.42,10.6-9.09,16.59-12.75a23.43,23.43,0,0,1,7.88-3.24c3.77-.69,5.77.91,6,4.72a25.27,25.27,0,0,1-1.52,9.82c-1.78,5.26-3.65,10.48-5.49,15.72-.46,1.33-.93,2.65-1.39,4Z"/><path d="M197.42,59.78c-.5,4.06-1,8.13-1.49,12.21-.65,5.67-1.53,11.32-1.53,17.05,0,1.44,0,2.87.11,4.29a6.62,6.62,0,0,0,1.86,4.27,3.81,3.81,0,0,0,5.83-.2,20.86,20.86,0,0,0,1.41-2.48c.36-.62.42-1.76,1.49-1.35.57.22.44,1.08.33,1.7a38,38,0,0,1-3,10.48,12.2,12.2,0,0,1-3.36,4.55,5.18,5.18,0,0,1-7.84-1.27,10.47,10.47,0,0,1-1.66-4.42,30.1,30.1,0,0,1-.24-6.64,303.48,303.48,0,0,1,4.11-30.16,30.55,30.55,0,0,1,3-8.3Z"/><path d="M394.93,0c-1,4.16-3.52,7.13-6.47,9.74a154.54,154.54,0,0,1-13.92,10.8c-9.9,6.92-20.11,13.35-30.47,19.53-1.91,1.14-3.82,2.27-5.75,3.36a1,1,0,0,1-.85-.15.86.86,0,0,1-.17-.8,18.56,18.56,0,0,1,5.19-6.12c1.26-1,2.58-1.84,3.9-2.74,12.09-8.2,24.22-16.36,36.26-24.61C386.84,6.14,390.84,3,394.93,0Z"/><path d="M98.22,88.32c.1-1,.9-1.26,1.61-1.55a2,2,0,0,1,2.83,1.54,15,15,0,0,1-.22,2.73c.33,0,.67.17.87.06,3.45-1.77,3.45-1.78,5.77,1,2,2.37,3.09,2.65,5.69,1.22a28.69,28.69,0,0,0,3.47-2.46c1.9-1.44,3.7-3,5.63-4.37s4-1.89,6,0a4.79,4.79,0,0,0,1.67.8A1.77,1.77,0,0,1,133,89.72a9.15,9.15,0,0,0-.45,3.74,1.86,1.86,0,0,0,2.61,1.81,15.67,15.67,0,0,0,6-3.73c.82-.75,1.51-1.62,2.31-2.39a2.3,2.3,0,0,1,2.09-.85c.94.16.91,1.22,1.73,1.7,1-.84,2.1-1.76,3.24-2.57a8.25,8.25,0,0,1,2.09-1.07A1.82,1.82,0,0,1,155,88.3c-.23,1.24-.63,2.44-.94,3.67a22.76,22.76,0,0,0-.49,2.32,1.06,1.06,0,0,0,1.47,1.19,9.77,9.77,0,0,0,4-2.47c.79-.77,1.5-1.63,2.23-2.47,1.62-1.88,2.12-2.21,2.36-1.48.43,1.31-.53,2.08-1.21,2.89a18,18,0,0,1-7.56,5.58c-2.27.84-3.86-.34-3.61-2.74.17-1.71.74-3.38,1.06-5.09.06-.37-.13-1-.38-1.16a1.56,1.56,0,0,0-1.29.25,25,25,0,0,0-5.37,6,20.19,20.19,0,0,1-1.44,1.87,1.1,1.1,0,0,1-.85.2,1,1,0,0,1-.9-.92c0-.77,0-1.54,0-2.29-1.13-.11-1.61.58-2.24,1a30.18,30.18,0,0,1-2.76,1.85c-3.63,2-5.19,1.35-6.86-2.57a5.21,5.21,0,0,0-.51-.78c-1-.31-1.37.56-2,1-1,.76-1.91,1.68-3,2.34-3.33,2-4.51,1.54-5.86-2.2-.11-.29-.24-.57-.37-.87-1.26-.25-2,.72-3,1.23-3.31,1.83-5.64,1.8-8-1.06a10.51,10.51,0,0,0-1.33-1.19c-2,.56-3.28,2.14-4.91,3.08a1.86,1.86,0,0,1-2.22,0,1.77,1.77,0,0,1-.51-2.15c.39-1,.8-2.06,1.14-3.11.43-1.31.35-1.39-1.65-2Zm30.36.65c.11-.59-1-1.48-1.6-1.35-2.76.6-6.2,4.35-6.6,7.28a1.87,1.87,0,0,0,.51,1.22.91.91,0,0,0,1.25.09,25.21,25.21,0,0,0,6.36-6.78C128.58,89.31,128.55,89.13,128.58,89Z"/><path d="M336.39,46.28c-1.28,6.27-.88,12.48-1,18.65a44.43,44.43,0,0,1-4.62,18.78A20.65,20.65,0,0,1,328.82,87c-1.13,1.53-2.65,2.4-4.54,1.4-2.72-1.44-4.85-.53-6.88,1.35a18.06,18.06,0,0,1-2.63,2,.72.72,0,0,1-1.11-.45c-.36-1.29-.38-2.6.69-3.53a43.42,43.42,0,0,0,6.49-6.92,2.3,2.3,0,0,1,3-.69c1.12.48,2.21,1.39,3.56.64s1.64-2.31,1.95-3.66a27.12,27.12,0,0,0,.49-4.24c.28-3.79.47-7.6.78-11.4C331,56,333,51,334.88,46c.13-.34.71-.51,1.09-.75C336.12,45.61,336.28,46,336.39,46.28Z"/><path d="M159.64,114.72a2.49,2.49,0,0,1-.06-2.75,33.91,33.91,0,0,1,6.58-9.21c2.25-2.25,4.83-3.54,8.1-3,.47.08,1,.06,1.42.11a6.35,6.35,0,0,0,6.49-3,11.29,11.29,0,0,1,1.48-1.83,1,1,0,0,1,.86-.21c.21.1.35.51.37.8a3.65,3.65,0,0,1-.11,1.4A31.6,31.6,0,0,1,179,107.84a9.19,9.19,0,0,1-8.34,3.57c-.63-.06-1.27-.08-1.89-.16a8.32,8.32,0,0,0-6.65,1.85C161.35,113.68,160.52,114.14,159.64,114.72Z"/><path d="M313.09,117.26c1.66-2.44,3.05-4.53,4.49-6.59a1.48,1.48,0,0,1,2.07-.5,8.75,8.75,0,0,1,3.49,3.12,4.42,4.42,0,0,1,.4,4.51,17.39,17.39,0,0,1-1.69,2.85c-3.14,4.06-3.67,3.54-6.71.94-.6-.52-1.26-1-1.89-1.43a1.33,1.33,0,0,0-2,.21c-1,1.19-2.06,2.39-3.17,3.52a1.63,1.63,0,0,1-2.17.11c-5.41-3.33-5.52-3.8-2.15-9l1.06-1.58c2.29-3.41,3.67-3.47,6.32-.34A13.47,13.47,0,0,1,313.09,117.26Z"/><path d="M98.14,88.23c-.13,1.08-1.09,1.47-1.77,2.09-2.32,2.13-4.83,4.08-6.38,6.94a1.43,1.43,0,0,1-2,.62,1.57,1.57,0,0,1-.82-2c.24-1.18.94-2.29.67-3.84-2.84,1.38-5.69,2-7.46,4.87-1.41,2.26-4,3-6.67,2.83s-4.37-1.87-4.28-4.64c.08-2.17.39-4.34.54-6.51.24-3.51,4.73-6.1,7.81-4.52A7.7,7.7,0,0,1,82,88.34c.36,1,.33,2.21,1.4,3.24a11.17,11.17,0,0,0,5.14-2.74,7.05,7.05,0,0,1,1.55-1c.69-.3,1.15.07,1.46.72.57,1.16-.35,2.49.41,3.63,1.33.07,1.85-1.09,2.73-1.69,1.14-.79,2-2.14,3.55-2.14C98.22,88.32,98.14,88.23,98.14,88.23ZM73.65,91.72a7.22,7.22,0,0,0,5.53.6,1.26,1.26,0,0,0,1-1.36,6.84,6.84,0,0,0-3.65-5.7c-2-1.11-4.36,0-5.16,2.36a1,1,0,0,0,.24.85c.11.11.55,0,.75-.09a4.2,4.2,0,0,0,.65-.68c.54-.53,1.09-1.31,1.91-.49A1.45,1.45,0,0,1,75,89C74.63,89.82,74.19,90.65,73.65,91.72Zm6,3.64c-2.26-.31-4.22-.58-6.17-.82a1.37,1.37,0,0,0-1.58,1.67,2.53,2.53,0,0,0,2.43,2.35A5.53,5.53,0,0,0,79.61,95.36Z"/><path d="M218.14,93.18c-1.17,6.71-2.27,13.42-4.5,19.89-.36,1.05-.74,2.09-1.17,3.11a9.28,9.28,0,0,1-5.61,5.47c-2.25.77-4.5,1.51-6.79,2.14-1.1.3-2.71,1.29-3.3-.07s1.19-2,2.1-2.82c2.28-2,4.64-3.85,7-5.76a20.68,20.68,0,0,0,7-10.5c.83-2.89,1.77-5.75,2.69-8.61.39-1.2.85-2.37,1.35-3.52a1,1,0,0,1,.78-.42c.16,0,.35.38.47.62A1.22,1.22,0,0,1,218.14,93.18Z"/><path d="M214.72,80.65a9.49,9.49,0,0,1-1.37-.71c-1.37-1-2.74-2.12-4.07-3.22a1.52,1.52,0,0,1-.48-2.08c1.78-2.79,3.6-5.54,5.44-8.29a1.42,1.42,0,0,1,2-.43,10.93,10.93,0,0,1,3.26,2.68,5.31,5.31,0,0,1,.66,6.55,14.72,14.72,0,0,1-3.91,4.68A11.33,11.33,0,0,1,214.72,80.65Z"/><path d="M202.3,49.77a61.35,61.35,0,0,1,6.13-9.67,1.3,1.3,0,0,1,1.7-.33,9.4,9.4,0,0,1,4.36,4.16,4.81,4.81,0,0,1,.17,4.11,13.81,13.81,0,0,1-4.58,5.88,2,2,0,0,1-2.6,0C205.77,52.58,204.07,51.19,202.3,49.77Z"/><path d="M173.43,74.89c1.87-2.83,3.82-5.86,5.84-8.83a1.61,1.61,0,0,1,2.49-.27,17.63,17.63,0,0,1,2.53,2.1,5.45,5.45,0,0,1,1,6.9,15.66,15.66,0,0,1-1.84,2.72c-2.64,3.19-3.49,3.28-6.81.57C175.54,77.22,174.14,76.65,173.43,74.89Z"/><path d="M283.14,59.28a11.22,11.22,0,0,1-5.2,7.27,1.55,1.55,0,0,1-1.77,0,7.06,7.06,0,0,1-.77-.54c-5.26-4.49-5.42-2.54-1.53-8.66.85-1.33,1.74-2.64,2.65-3.93.37-.52.93-1,1.59-.7A8,8,0,0,1,283,58.06,10.65,10.65,0,0,1,283.14,59.28Z"/></svg>