<svg id="Layer_1" data-name="Layer 1" xmlns="http://www.w3.org/2000/svg" viewBox="0 0 332.24 100"><title>women-bags</title><path d="M261.89,56.81a27,27,0,0,1,12.25,2.48,12.49,12.49,0,0,1,4.48,3.46,11.5,11.5,0,0,1,2.46,10.69,23.25,23.25,0,0,1-6,10.68c-7.4,7.44-16.21,12.15-26.75,13.28a22.09,22.09,0,0,1-11.18-1.72c-4.65-2-7.16-5.77-8.15-10.63a3.8,3.8,0,0,1,.57-3.58c.74.49.43,1.17.48,1.72.56,6.29,4,10.37,10.19,11.79a24.63,24.63,0,0,0,13.16-.47,46.88,46.88,0,0,0,17.69-9.66,9.87,9.87,0,0,1,1.51-1.15c4.05-2.46,6.13-6.32,7.6-10.61,1.12-3.26.11-6-2.22-8.4a19.18,19.18,0,0,0-10.33-5.2c-4.4-.85-8.63-.1-12.82,1.14-.91.27-1.82.57-2.75.76a1,1,0,0,1-1-.57,1,1,0,0,1,.35-1.38,7.46,7.46,0,0,1,1.11-.61c.85-.42,1.72-.81,2.56-1.26A144.68,144.68,0,0,0,272,47a33.13,33.13,0,0,0,6-5.62,14.26,14.26,0,0,0,1.36-2.13.91.91,0,0,0-.59-1.25,17.45,17.45,0,0,0-2.5-.45,29.64,29.64,0,0,0-7.58.53c-5.74,1-11.38,2.44-17,3.94a3.18,3.18,0,0,0-2.48,2.49c-3.33,11.92-7.29,23.67-9.9,35.79a8.82,8.82,0,0,1-.59,1.8,1.15,1.15,0,0,1-1.26.74,1.42,1.42,0,0,1-1.06-1.41,14.11,14.11,0,0,1,.36-1.53c.58-2.25,1.2-4.5,1.72-6.76a66.13,66.13,0,0,0,1-23.67,16.54,16.54,0,0,0-.37-1.86c-.72-2.86-.85-2.63-3.42-2.52a30.38,30.38,0,0,1-3.81-.12,6.42,6.42,0,0,1-3.23-1.21c-1.82-1.28-1.8-3.28.1-4.34a7.21,7.21,0,0,1,7.29-.12,6.07,6.07,0,0,1,2,1.55c1.06,1.48,2.31,1.55,3.89,1s3.26-.88,4.91-1.25a2.43,2.43,0,0,0,1.89-1.91c.52-1.83,1-3.67,1.61-5.48.2-.67.3-1.52,1.27-1.58.66-.05,1,.83.66,2.11s-.81,2.63-1.17,4,.07,1.71,1.49,1.41c1-.23,2.06-.48,3.08-.74a103.11,103.11,0,0,1,14.66-2.74,54.2,54.2,0,0,1,5.7-.22,8.49,8.49,0,0,1,4.26,1.1,2.71,2.71,0,0,1,1.28,3.76,10.19,10.19,0,0,1-2.11,3.15,41.13,41.13,0,0,1-6,5.23c-3.15,2.33-6.45,4.44-9.8,6.49A3.17,3.17,0,0,0,261.89,56.81ZM247,44a1.38,1.38,0,0,0-1.28-.43c-1.14.2-2.28.39-3.41.63-1.57.32-1.7.49-1.31,2.14a43.53,43.53,0,0,1,1.16,8.73c0,.73.08,1.47.17,2.2a.61.61,0,0,0,.32.47c.39.12.5-.2.59-.5Zm-10.27-1.2a3.94,3.94,0,0,0-.31-.87,5.38,5.38,0,0,0-7.81-1,1,1,0,0,0,0,1.59,2.27,2.27,0,0,0,.81.43A13.58,13.58,0,0,0,236.77,42.81Z"/><path d="M154.49,59.59A1.62,1.62,0,0,1,155.56,61a4.16,4.16,0,0,0,3,3,30,30,0,0,0,9,1.58,75,75,0,0,0,24.74-3.15,3.29,3.29,0,0,0,2.45-2.53,24.31,24.31,0,0,1,3.05-6.25,7.75,7.75,0,0,1,2.39-2.51,2.94,2.94,0,0,1,4.42,1.53,5.14,5.14,0,0,1,.29,2.8c-.18.94-.35,1.87-.5,2.82-.09.67.24,1,.87.95.41,0,.81-.2,1.23-.26,1-.15,1.37.18,1.39,1.12a2,2,0,0,1-1.37,2.25c-1.59.56-3.18,1.15-4.8,1.63a18.85,18.85,0,0,0-4.92,2.13c-7.49,4.82-15.77,7-24.59,7.54a67.32,67.32,0,0,1-11.09-.12,13,13,0,0,1-4.56-1.27,5.18,5.18,0,0,1-3.19-5.06A26.44,26.44,0,0,1,154.49,59.59ZM200,59.5a3.37,3.37,0,0,0,2.36-1.13,1.38,1.38,0,0,0,.22-1.73,2.48,2.48,0,0,0-3.7-1,5.65,5.65,0,0,0-1.33,1.3,1.24,1.24,0,0,0,.29,1.9A3.37,3.37,0,0,0,200,59.5Z"/><path d="M310.28,68.12c-1.42.95-2.45,1.68-3.51,2.35a7.18,7.18,0,0,1-3.55,1.26,3.26,3.26,0,0,1-3.33-2,9.09,9.09,0,0,1-.75-3.43c-1.29.25-1.77,1.31-2.51,2a14.29,14.29,0,0,1-5,3.31c-2,.71-3.3,0-3.81-2a5.37,5.37,0,0,1,.31-3.72A14.71,14.71,0,0,1,293.28,60a4.71,4.71,0,0,1,2.69-.82,2.93,2.93,0,0,1,2.77,1.21,1.67,1.67,0,0,0,1.78.85c1.29-.06,1.89.88,1.59,2.08-.18.72-.46,1.41-.63,2.13a5.36,5.36,0,0,0,.1,3.12,1.78,1.78,0,0,0,1.94,1.29,7,7,0,0,0,2.69-.9,20.43,20.43,0,0,0,5.91-4.74,16.19,16.19,0,0,1,3.39-2.85,4.2,4.2,0,0,1,2.72-.68,2.52,2.52,0,0,1,2.09,1.21c1.26,2,2.1,4.12,1.51,6.61-.35,1.5-.43,3.06-.66,4.82A7.26,7.26,0,0,0,324,71.52a25.34,25.34,0,0,0,6-6.89,14.84,14.84,0,0,1,1.28-1.78.61.61,0,0,1,.58-.07c.15.07.34.34.31.48a5.4,5.4,0,0,1-.41,1.49A21,21,0,0,1,328,70.17a38.51,38.51,0,0,1-5.7,5A7.1,7.1,0,0,0,319.62,79q-2.07,6.17-4.43,12.23a38.38,38.38,0,0,1-2.49,5.12,7.52,7.52,0,0,1-4,3.51,1.9,1.9,0,0,1-2.66-1.44,6.58,6.58,0,0,1-.06-1.88,17.79,17.79,0,0,1,1.18-4.6,39.52,39.52,0,0,1,9.08-14.39,9.81,9.81,0,0,0,3-5.76,35.7,35.7,0,0,0,.61-4.71,1.1,1.1,0,0,0-.33-.83c-.43-.31-.77.06-1,.36-.78.86-1.51,1.78-2.33,2.61A11.78,11.78,0,0,1,314,71c-1.59,1-2.79.47-3.36-1.36A11.71,11.71,0,0,1,310.28,68.12Zm6.56,11.26a26.41,26.41,0,0,0-4,4.68,29.26,29.26,0,0,0-5.49,12,9.94,9.94,0,0,0-.22,1.87,1.15,1.15,0,0,0,.4.79.86.86,0,0,0,1.15-.1,10.68,10.68,0,0,0,2.7-3.84,83.15,83.15,0,0,0,5.47-14.12A6.91,6.91,0,0,0,316.84,79.38Zm-28-10.06c.14.66.13,1.23.69,1.5a1.58,1.58,0,0,0,1.5-.17c.09-.05.17-.12.26-.18a38.58,38.58,0,0,0,6.42-6.91,1.32,1.32,0,0,0-.57-1.87,2.07,2.07,0,0,0-2.11-.06,12.71,12.71,0,0,0-5.68,5.71A8.9,8.9,0,0,0,288.8,69.32Zm24.2-.17a2.06,2.06,0,0,0,.59-.21,26.18,26.18,0,0,0,4.49-5.3.64.64,0,0,0,0-.57.6.6,0,0,0-.84-.14c-2.34,1.11-3.61,3.14-4.55,5.43-.07.16.05.4.1.6S312.93,69.09,313,69.15Z"/><path d="M15.79,72.7c1.66-1.76,3.3-3.53,5-5.27,1-1.07,2.09-2.1,3.18-3.1a6.82,6.82,0,0,1,1.53-1.1,2,2,0,0,1,3.06,1.55A14.76,14.76,0,0,1,28.62,67c0,1.91,0,3.81-.07,5.72a29.73,29.73,0,0,0,.8,5.63,1.65,1.65,0,0,0,2.27,1.06,4.26,4.26,0,0,0,1.81-1.24,24.55,24.55,0,0,0,2.31-3c4.08-6.87,7.34-14.08,8.44-22.08a40.31,40.31,0,0,0,.38-5.38,10.27,10.27,0,0,0-5.33-9.46c-.37-.22-.74-.42-1.09-.65-.07,0-.06-.18-.08-.28.14-.36.44-.38.75-.3,3.77.92,5.91,3.49,7,7A17.41,17.41,0,0,1,46.2,51a53.36,53.36,0,0,1-5,17.3c-1.2,2.58-2.68,5-4.12,7.5a14.44,14.44,0,0,1-3.72,4.3,3.61,3.61,0,0,1-6-2.76,23.5,23.5,0,0,1,.22-4.11,27.69,27.69,0,0,0,.31-5.06,13,13,0,0,0-.39-2.49A1.12,1.12,0,0,0,25.59,65a19.18,19.18,0,0,0-2.16,1.87,80.75,80.75,0,0,0-6.58,7.72,8.53,8.53,0,0,1-2,2.06,1.78,1.78,0,0,1-2.07.16c-.64-.42-.86-.94-.49-2,.84-2.27,1.73-4.54,2.68-6.78a70.89,70.89,0,0,0,3.72-10.79A11.37,11.37,0,0,0,19,52.57,1.72,1.72,0,0,0,17,51a6.64,6.64,0,0,0-3,1c-1.34.85-2.68,1.71-3.93,2.69-2.25,1.76-4.43,3.61-6.64,5.42-.57.46-1.12,1-1.72,1.41-.42.32-.89.57-1.42.17s-.4-1,.31-1.6c3.6-2.95,7.07-6.06,11.06-8.5a15.53,15.53,0,0,1,5.26-2.16c2.51-.46,3.85.6,4,3.15a16.76,16.76,0,0,1-1,6.54c-1.19,3.51-2.44,7-3.66,10.48l-.93,2.65Z"/><path d="M131.61,39.85c-.33,2.71-.68,5.43-1,8.15a100.29,100.29,0,0,0-1,11.36c0,1,0,1.91.07,2.86a4.4,4.4,0,0,0,1.25,2.85,2.53,2.53,0,0,0,3.88-.14,15.65,15.65,0,0,0,.94-1.65c.24-.41.28-1.17,1-.9.39.15.3.72.23,1.14a25.5,25.5,0,0,1-2,7,8.11,8.11,0,0,1-2.24,3,3.46,3.46,0,0,1-5.23-.84,6.91,6.91,0,0,1-1.1-3,19.9,19.9,0,0,1-.16-4.43A199.72,199.72,0,0,1,129,45.21a20.52,20.52,0,0,1,2-5.54Z"/><path d="M263.29,0A12.59,12.59,0,0,1,259,6.5a102.59,102.59,0,0,1-9.28,7.19c-6.6,4.62-13.4,8.9-20.31,13-1.28.75-2.55,1.51-3.83,2.24a.66.66,0,0,1-.57-.11.57.57,0,0,1-.11-.53,12.24,12.24,0,0,1,3.46-4.08c.84-.64,1.72-1.23,2.6-1.82C239,17,247.07,11.51,255.1,6,257.89,4.09,260.56,2,263.29,0Z"/><path d="M65.48,58.88c.07-.64.6-.84,1.07-1a1.3,1.3,0,0,1,1.89,1,9.38,9.38,0,0,1-.15,1.82c.22,0,.45.12.59.05,2.29-1.19,2.29-1.19,3.84.63,1.35,1.58,2.06,1.76,3.79.81a18.39,18.39,0,0,0,2.32-1.64c1.26-1,2.47-2,3.75-2.91s2.66-1.26,4,0a3.17,3.17,0,0,0,1.11.53,1.19,1.19,0,0,1,.92,1.68,5.91,5.91,0,0,0-.31,2.5,1.25,1.25,0,0,0,1.74,1.21,10.42,10.42,0,0,0,4-2.5c.55-.49,1-1.07,1.54-1.59a1.57,1.57,0,0,1,1.4-.57c.62.12.61.82,1.15,1.14.69-.56,1.4-1.17,2.16-1.71a5.91,5.91,0,0,1,1.39-.72,1.22,1.22,0,0,1,1.65,1.29c-.16.84-.43,1.64-.63,2.45a15.78,15.78,0,0,0-.33,1.55.71.71,0,0,0,1,.79A6.64,6.64,0,0,0,106.06,62c.52-.52,1-1.09,1.48-1.65,1.08-1.26,1.41-1.47,1.57-1,.29.87-.35,1.38-.8,1.92a12,12,0,0,1-5,3.72c-1.5.56-2.57-.22-2.4-1.82.12-1.15.5-2.26.71-3.4,0-.25-.09-.7-.26-.78a1,1,0,0,0-.86.17,16.82,16.82,0,0,0-3.58,4,13,13,0,0,1-1,1.25.71.71,0,0,1-.56.14.66.66,0,0,1-.6-.62c0-.51,0-1,0-1.52-.75-.08-1.07.38-1.49.67a18.39,18.39,0,0,1-1.83,1.24c-2.43,1.3-3.47.9-4.58-1.72a3.77,3.77,0,0,0-.34-.51c-.65-.21-.91.37-1.3.67-.67.51-1.28,1.13-2,1.57-2.22,1.34-3,1-3.91-1.47-.07-.19-.16-.38-.25-.58-.84-.17-1.34.48-2,.82-2.21,1.22-3.77,1.2-5.35-.71a7.38,7.38,0,0,0-.9-.79c-1.35.38-2.18,1.43-3.27,2.06a1.24,1.24,0,0,1-1.47,0,1.18,1.18,0,0,1-.35-1.43c.27-.69.54-1.38.76-2.08.29-.87.24-.92-1.1-1.33Zm20.24.43c.07-.39-.63-1-1.07-.89a6.87,6.87,0,0,0-4.39,4.85,1.19,1.19,0,0,0,.33.81.62.62,0,0,0,.84.06,16.91,16.91,0,0,0,4.24-4.52C85.72,59.54,85.7,59.42,85.72,59.31Z"/><path d="M224.26,30.85c-.86,4.18-.58,8.32-.68,12.44a29.57,29.57,0,0,1-3.08,12.52A15.36,15.36,0,0,1,219.22,58c-.76,1-1.78,1.59-3,.93-1.82-1-3.24-.35-4.59.9a11.7,11.7,0,0,1-1.75,1.33.48.48,0,0,1-.74-.3,2.12,2.12,0,0,1,.46-2.35,29,29,0,0,0,4.32-4.61,1.53,1.53,0,0,1,2-.46c.75.32,1.47.93,2.38.42s1.08-1.54,1.29-2.43a17.91,17.91,0,0,0,.33-2.83c.18-2.53.31-5.07.52-7.6.29-3.63,1.58-7,2.85-10.35.09-.23.47-.34.73-.5C224.08,30.41,224.19,30.67,224.26,30.85Z"/><path d="M106.43,76.48a1.63,1.63,0,0,1,0-1.83,23,23,0,0,1,4.38-6.15,6,6,0,0,1,5.41-2c.3.06.63,0,.94.08a4.22,4.22,0,0,0,4.33-2,7.6,7.6,0,0,1,1-1.22.65.65,0,0,1,.57-.14c.15.07.24.34.26.53a2.69,2.69,0,0,1-.08.94,20.94,20.94,0,0,1-3.87,7.18,6.1,6.1,0,0,1-5.56,2.38c-.42,0-.85,0-1.27-.11a5.51,5.51,0,0,0-4.42,1.24C107.56,75.79,107,76.1,106.43,76.48Z"/><path d="M208.73,78.17c1.1-1.63,2-3,3-4.39a1,1,0,0,1,1.38-.34,5.94,5.94,0,0,1,2.33,2.09,2.93,2.93,0,0,1,.26,3,12,12,0,0,1-1.12,1.9c-2.1,2.71-2.45,2.36-4.48.63-.4-.34-.83-.63-1.26-1a.88.88,0,0,0-1.36.14c-.69.79-1.37,1.59-2.11,2.34a1.07,1.07,0,0,1-1.44.08c-3.61-2.23-3.69-2.54-1.44-6,.24-.35.46-.7.7-1,1.53-2.27,2.45-2.32,4.22-.23A8.92,8.92,0,0,1,208.73,78.17Z"/><path d="M65.42,58.82c-.08.72-.72,1-1.17,1.39C62.7,61.63,61,62.93,60,64.84a.94.94,0,0,1-1.34.41,1.05,1.05,0,0,1-.55-1.32,6,6,0,0,0,.45-2.56c-1.9.92-3.8,1.34-5,3.25a4.53,4.53,0,0,1-4.44,1.89,2.79,2.79,0,0,1-2.86-3.1c0-1.44.26-2.89.36-4.34a3.84,3.84,0,0,1,5.21-3,5.08,5.08,0,0,1,2.79,2.84,4.4,4.4,0,0,0,.93,2.15A7.4,7.4,0,0,0,59,59.23a4.93,4.93,0,0,1,1-.7c.47-.21.77,0,1,.48.38.77-.23,1.66.27,2.41.89,0,1.24-.72,1.82-1.12.77-.52,1.3-1.43,2.37-1.43C65.48,58.88,65.42,58.82,65.42,58.82ZM49.1,61.15a4.84,4.84,0,0,0,3.68.4.84.84,0,0,0,.7-.91,4.58,4.58,0,0,0-2.43-3.8,2.4,2.4,0,0,0-3.45,1.58.7.7,0,0,0,.17.56c.07.08.36,0,.5-.06s.28-.31.43-.45c.36-.36.72-.88,1.27-.33A1,1,0,0,1,50,59.31C49.75,59.88,49.46,60.43,49.1,61.15Zm4,2.42L49,63a.92.92,0,0,0-1.05,1.12,1.69,1.69,0,0,0,1.62,1.57A3.68,3.68,0,0,0,53.07,63.57Z"/><path d="M145.43,62.12a84.81,84.81,0,0,1-3,13.26c-.24.7-.49,1.39-.78,2.08a6.15,6.15,0,0,1-3.74,3.64c-1.49.51-3,1-4.52,1.42-.74.21-1.81.87-2.2,0s.79-1.35,1.4-1.88c1.52-1.31,3.09-2.57,4.64-3.84a13.83,13.83,0,0,0,4.68-7c.55-1.93,1.17-3.83,1.79-5.74a24.65,24.65,0,0,1,.89-2.35.7.7,0,0,1,.53-.28c.1,0,.23.26.31.42A.79.79,0,0,1,145.43,62.12Z"/><path d="M143.14,53.77a6.28,6.28,0,0,1-.91-.48c-.91-.7-1.82-1.41-2.71-2.15a1,1,0,0,1-.32-1.38c1.19-1.86,2.4-3.69,3.62-5.52a1,1,0,0,1,1.37-.29,7.2,7.2,0,0,1,2.18,1.78,3.55,3.55,0,0,1,.43,4.37,9.78,9.78,0,0,1-2.6,3.12A7.62,7.62,0,0,1,143.14,53.77Z"/><path d="M134.86,33.18a40.9,40.9,0,0,1,4.1-6.45.86.86,0,0,1,1.13-.22,6.35,6.35,0,0,1,2.9,2.78,3.17,3.17,0,0,1,.12,2.74,9.17,9.17,0,0,1-3.05,3.91,1.31,1.31,0,0,1-1.74,0Z"/><path d="M115.62,49.93c1.24-1.89,2.55-3.91,3.9-5.89a1.07,1.07,0,0,1,1.65-.18,12,12,0,0,1,1.69,1.4,3.63,3.63,0,0,1,.65,4.6,10,10,0,0,1-1.23,1.81c-1.75,2.13-2.32,2.19-4.54.39C117,51.48,116.1,51.1,115.62,49.93Z"/><path d="M188.76,39.52a7.48,7.48,0,0,1-3.46,4.85,1.06,1.06,0,0,1-1.19,0c-.17-.12-.35-.23-.51-.36-3.51-3-3.61-1.69-1-5.77.57-.89,1.16-1.76,1.77-2.62.24-.35.62-.67,1.06-.47a5.31,5.31,0,0,1,3.28,3.59A5.59,5.59,0,0,1,188.76,39.52Z"/></svg>