<svg xmlns="http://www.w3.org/2000/svg" viewBox="0 0 78 24">
  <path d="M23.73,9.89a10.58,10.58,0,0,1,3.41.87c.92.38,1.78.75,2.7,1.19.38.16.49.1.71-.22.87-1.78,1.73-3.51,2.6-5.3a3.26,3.26,0,0,1,.38-.59A.86.86,0,0,1,35,5.78a3.36,3.36,0,0,1,.65,1.14,27.56,27.56,0,0,1,1.63,7.24,41.17,41.17,0,0,0,1.13,5.73,12.26,12.26,0,0,1,.22,1.46c.06.38,0,.76-.49.87s-.75-.17-.92-.6a16.05,16.05,0,0,1-.81-3.19,2.49,2.49,0,0,0-.92-1.67,42.48,42.48,0,0,0-4.33-2.65c-.33-.16-.38.05-.49.27A25.49,25.49,0,0,1,27.79,19a3.52,3.52,0,0,1-1.14,1c-.6.27-1.14.05-1.08-.49,0-.21.05-.43.27-.48a2.09,2.09,0,0,0,.92-.76,24.9,24.9,0,0,0,2.92-4.54c.11-.22.16-.43-.11-.54a22.17,22.17,0,0,0-5-2,2.87,2.87,0,0,0-1.51,0c-.38.11-.71.11-.87-.33s.05-.64.54-.86A3.85,3.85,0,0,1,23.73,9.89ZM35.91,15l-.33-2.11a26.26,26.26,0,0,0-1.19-5.08c0-.11,0-.33-.21-.33s-.22.17-.27.27c-.76,1.57-1.57,3.19-2.33,4.76a.26.26,0,0,0,.11.43c1.3.76,2.65,1.52,3.95,2.27C35.86,15.35,36,15.24,35.91,15Z"/>
  <path d="M10,24A9.9,9.9,0,0,1,6.07,5c1.36-.54,1.63-1.4.81-2.65A1.61,1.61,0,0,0,6.61,2c-.11-.17-.32-.22-.21-.44s.32-.1.54-.1A2.46,2.46,0,0,1,8.29,2c.22.22.33.16.44-.11A8.05,8.05,0,0,1,9.54.32c.32-.43.38-.43.7,0a7.66,7.66,0,0,1,.81,1.52c.11.27.22.32.49.11A2.9,2.9,0,0,1,13,1.35c.11,0,.33-.05.38.11s-.05.27-.16.38a2.73,2.73,0,0,0-.76,2,1,1,0,0,0,.81,1,9.61,9.61,0,0,1,6.23,7A10,10,0,0,1,10.84,24ZM7.86,2.43c-.06.27.11.49.16.71A1.67,1.67,0,0,1,6.83,5.46,9.14,9.14,0,0,0,1.09,16.32a9.26,9.26,0,0,0,10.29,6.82A9.15,9.15,0,0,0,12.89,5.41c-.81-.27-1-.6-1.08-1.46a3.78,3.78,0,0,1,.38-1.63c-.43.22-.54.6-.76.87,0,.11-.11.27-.21.27S11,3.3,11,3.14a6.83,6.83,0,0,0-.7-1.73c-.17-.33-.33-.33-.55,0A9,9,0,0,0,9.05,3c-.05.16,0,.38-.27.43s-.22-.22-.27-.32C8.29,2.86,8.18,2.59,7.86,2.43Z"/>
  <path d="M67.1,17.57a4.64,4.64,0,0,0,.6,2.81c.16.27.16.54-.11.7s-.49,0-.65-.27a7,7,0,0,1-.54-2.11,18,18,0,0,0-.49-1.89,1.1,1.1,0,0,0-1.08-.76,8.56,8.56,0,0,0-1.95.44,38.27,38.27,0,0,1-4,1.13,5.13,5.13,0,0,1-1.79.06c-1.4-.22-1.89-1.36-1.78-2.76a4.54,4.54,0,0,1,1.08-2.38,10,10,0,0,1,6.93-3.73,3.49,3.49,0,0,1,3.63,1.84.57.57,0,0,1,0,.65.57.57,0,0,1-.43.11.35.35,0,0,1-.27-.22,2.38,2.38,0,0,0-2.66-1.14,9.49,9.49,0,0,0-5.68,3.41,2.89,2.89,0,0,0-.76,1.84c0,.43.16.65.59.7a3.51,3.51,0,0,0,1.68-.16,34.33,34.33,0,0,1,4.17-1,8,8,0,0,1,1.57-.11,2,2,0,0,1,2,1.89A2,2,0,0,0,67.1,17.57Z"/>
  <path d="M39.21,8.92a1.56,1.56,0,0,1,.87.59,7.64,7.64,0,0,1,1.25,2.92,44.36,44.36,0,0,1,.86,4.49c.06.22,0,.59.22.65s.43-.27.59-.43a7.3,7.3,0,0,0,1.14-1.73,12.16,12.16,0,0,1,2.49-3.3,2.54,2.54,0,0,1,2.66-.65,4.46,4.46,0,0,1,2.81,2.22,21.94,21.94,0,0,1,1.57,3.73,3,3,0,0,0,.71,1.29.36.36,0,0,1,0,.6.45.45,0,0,1-.65.05,3.31,3.31,0,0,1-.92-1.19c-.43-.92-.81-1.89-1.19-2.81a4.11,4.11,0,0,0-2.33-2.11,1.48,1.48,0,0,0-1.41.11,5,5,0,0,0-1.68,1.46,28.52,28.52,0,0,0-1.78,2.65,7.33,7.33,0,0,1-1.63,1.95,1,1,0,0,1-1.62-.06,3.44,3.44,0,0,1-.87-2.27L40,12.54a3.77,3.77,0,0,0-1.25-2.92A.48.48,0,0,1,38.62,9,2,2,0,0,1,39.21,8.92Z"/>
  <path d="M71,13.24c.16-.38.27-.75.43-1.08a15.1,15.1,0,0,1,5.15-6,8.48,8.48,0,0,1,.7-.49.43.43,0,0,1,.6,0,.5.5,0,0,1,0,.65,3.77,3.77,0,0,1-.49.43,14.55,14.55,0,0,0-4.55,6.65,15.3,15.3,0,0,0-.43,6.06c0,.59.16,1.18.16,1.73a.88.88,0,0,1-.87,1,.91.91,0,0,1-.92-.87,48.64,48.64,0,0,0-1.3-8.43,11.24,11.24,0,0,0-1.24-3.13c-.16-.27-.33-.65,0-.87s.59.11.76.38A11.92,11.92,0,0,1,70.78,13C70.78,13.08,70.78,13.19,71,13.24Z"/>
  <path d="M7.37,11.51c1-.7,1-.7,1.57.38a.66.66,0,0,1,.16.22c.06-.54-.48-1,0-1.52a3,3,0,0,1,1.68,0c.49.44.06.92.06,1.46a8.49,8.49,0,0,1,.48-.7c.33-.43.55-.49.93-.11s.81.54.81,1.08-.71.54-.92,1c-.22.11-.44.16-.65.27a.77.77,0,0,1-.87-.76c-.32.16-.6.33-.92.11-.16-.11-.22,0-.27.11a.85.85,0,0,1-.76.54.68.68,0,0,1-.16,1.13A1.78,1.78,0,0,1,7.8,15c-.16,0-.27.05-.43.05s-.32.06-.49.06c-.48,0-.59-.33-.54-1.52.06-.43.22-.59.65-.54.22.06.49.11.76.16a1,1,0,0,0-.43-.38c-.54-.37-.54-.59-.11-1a.51.51,0,0,1,.16-.33Zm.22,1.08c.21,0,.86-.59.86-.81s-.1-.27-.21-.21a1.67,1.67,0,0,0-.76.75C7.37,12.43,7.43,12.54,7.59,12.59Zm4.06-1a.18.18,0,0,0-.16.27,1.49,1.49,0,0,0,.7.7c.16.05.27.05.33-.16S11.87,11.57,11.65,11.57ZM7.26,14.05c0-.16.17-.59-.27-.59s-.16.38-.21.65v.27c0,.16,0,.38.27.32s.16-.16.21-.32ZM10,11H9.7c-.16,0-.38-.06-.38.21s.22.22.33.22.16,0,.27,0,.59,0,.59-.22S10.19,11.14,10,11Z"/>
  <path d="M6.83,6.59c-.11-.81-.11-.86.7-1,.38-.11.87-.43,1.25,0,.05.06.11,0,.11,0,.43-.65,1.13-.38,1.68-.27a3.76,3.76,0,0,0,1.08.16,3,3,0,0,1,1.14.27c.38.11.38.43.38.76,0,0-.06.1-.06.16a11.77,11.77,0,0,1-.7,1c-.22.27-.44.49-.81.38a.76.76,0,0,1-.49-.7,9.1,9.1,0,0,0-.11-1c-.16.43-.33.76-.43,1.08a.64.64,0,0,1-.6.43.57.57,0,0,1-.54-.43c-.16-.38-.27-.81-.49-1.3,0,.54-.11.92-.11,1.36a.68.68,0,0,1-.48.64.61.61,0,0,1-.71-.32,8.21,8.21,0,0,0-.81-1.14Zm.7,0c.27-.16.76,0,.92-.43.06-.16-.1-.22-.27-.16s-.81,0-1,.43C7.15,6.54,7.37,6.54,7.53,6.54Zm3.9-.43c0,.11.06.21.17.21.32.11.65.38,1,.11a.12.12,0,0,0,0-.21,2.14,2.14,0,0,0-1-.27C11.49,5.89,11.43,6,11.43,6.11ZM10,6.22c.17-.11.6.1.55-.27s-.38-.22-.6-.22-.6-.16-.6.22S9.75,6.11,10,6.22Z"/>
  <path d="M6.83,21.68c.27-.33.49-.71.76-1a.66.66,0,0,1,.7-.33.56.56,0,0,1,.44.6c0,.43,0,.81.1,1.35.17-.49.33-.92.49-1.3a.57.57,0,0,1,.54-.43.64.64,0,0,1,.6.43,8.7,8.7,0,0,1,.43,1.14c.06-.49.11-.81.16-1.14a.65.65,0,0,1,.49-.59.7.7,0,0,1,.71.27l.81,1.13a.18.18,0,0,0,0,.11c.06.43-.16.7-.65.76s-.92.49-1.41,0c-.05-.06-.05,0-.1,0a1.63,1.63,0,0,1-2.06.05c-.06-.05-.11-.11-.16-.05-.6.49-1.14,0-1.68-.11s-.27-.54-.22-.86Zm1.62.43a.33.33,0,0,0-.37-.27c-.28-.06-.55-.27-.82-.06,0,.06,0,.22,0,.22a2.46,2.46,0,0,0,1.09.32C8.4,22.32,8.45,22.22,8.45,22.11Zm1.52.38c.16-.06.54.16.6-.22s-.44-.22-.65-.27H9.65c-.17,0-.38,0-.33.27s.22.16.33.16A.59.59,0,0,0,10,22.49Zm1.79-.17a4.94,4.94,0,0,0,.76-.21c.1-.06.21-.11.16-.27a.3.3,0,0,0-.27-.16,4,4,0,0,0-.81.21c-.11.06-.22.16-.17.27S11.6,22.32,11.76,22.32Z"/>
  <path d="M11.43,13.51c.22-.1.44-.16.65-.27,1.46-.27,1.46-.27,1.46,1.19,0,.65-.16.81-.81.71A2.45,2.45,0,0,0,12,15c.22.16.49.32.7.48a.51.51,0,0,1,.06.87c-1,1.08-1,1.08-2,0a.47.47,0,0,0,.06.38c.16.86.11,1-.76,1-1.3,0-1.41-.1-1-1.35,0-.16,0-.32.11-.48s.05-.17.11-.22c.27-.32.54-.54,1-.32.16.05.22.05.27-.11a.82.82,0,0,1,.76-.54C11,14.22,11,13.84,11.43,13.51Zm.17,3.19a1.83,1.83,0,0,0,.86-.81c0-.21-.16-.27-.27-.16a1.75,1.75,0,0,0-.7.7C11.38,16.54,11.43,16.65,11.6,16.7Zm1.46-2.54v-.32c0-.16,0-.33-.22-.33s-.22.22-.22.38v.54c0,.16,0,.38.22.38s.22-.22.27-.38A.62.62,0,0,1,13.06,14.16Zm-3.2,3h.33c.16,0,.38,0,.38-.22s-.22-.21-.33-.27H10c-.22.06-.65-.11-.65.27S9.7,17.14,9.86,17.19Z"/>
  <path d="M2.28,10.92l1.14.81c.21.16.43.38.32.65a.69.69,0,0,1-.59.48L1.79,13c.49.16.87.32,1.25.48a.57.57,0,0,1,.43.54.59.59,0,0,1-.43.6,6.9,6.9,0,0,1-1.41.43.65.65,0,0,1-.54-.16,2.42,2.42,0,0,1,.16-1.84c.06-.05.22-.11.11-.22-.49-.64,0-1.18.22-1.72,0-.28.38-.28.59-.28S2.23,10.92,2.28,10.92Zm-.76,3.13v.22c.06.16-.05.43.22.43s.22-.27.22-.48v-.11c-.06-.22.1-.65-.27-.65S1.63,13.89,1.52,14.05Zm.82-2.32c0-.16,0-.27-.17-.32s-.27.1-.27.21c0,.33-.32.6-.11,1,0,.06.17.06.17,0A1.28,1.28,0,0,0,2.34,11.73Z"/>
  <path d="M13.06,19.62a4.79,4.79,0,0,0-.92.38c-.44.22-.82.27-1.09-.32,0,.64-.32.7-.81.75-1.41,0-1.57-.16-1.08-1.51.16-.43.21-1,.81-1s.6.54.81,1a1.49,1.49,0,0,0,.22.38v-1a.64.64,0,0,1,.38-.64.55.55,0,0,1,.7.16l1,1h0c0,.27.16.54,0,.81Zm-.76-.76c-.27.11-.7.11-.87.55,0,.16.11.21.27.16.33,0,1-.38,1-.54S12.52,18.86,12.3,18.86Zm-2.38,1h.27c.16,0,.43.05.38-.22s-.22-.21-.44-.21H9.92c-.22.05-.6-.11-.6.21S9.75,19.78,9.92,19.84Z"/>
  <path d="M13.06,8.59a.75.75,0,0,1-.06.82,6.14,6.14,0,0,1-.92,1.08.67.67,0,0,1-.7.16.59.59,0,0,1-.38-.6A7.39,7.39,0,0,0,11,9c-.11.27-.28.59-.38.86a.59.59,0,0,1-.6.43.6.6,0,0,1-.6-.43,7,7,0,0,1-.43-1.35.51.51,0,0,1,.49-.65h.76c.48,0,.86.06.86.7.27-.64.65-.54,1.09-.32.27.11.59.22.92.32Zm-1.41.06c-.22,0-.33.16-.16.32a1.49,1.49,0,0,0,1,.44.18.18,0,0,0,.16-.17c-.11-.32-.49-.32-.71-.48A.44.44,0,0,0,11.65,8.65ZM10,8.38H9.75c-.16,0-.43-.06-.38.21s.22.22.44.22H10c.22-.05.6.11.6-.27S10.19,8.43,10,8.38Z"/>
  <path d="M3.2,8.92a.62.62,0,0,1,.22-.87,2.91,2.91,0,0,0,.43-.43c.33-.38.65-.48,1.08-.11.06,0,.06.06.11.06,0,.21.17.38.22.59a1.8,1.8,0,0,1,.32,1.41l0,0a1.61,1.61,0,0,1-1.41-.27c-.16,0-.38-.16-.54-.21A1,1,0,0,1,3.2,8.92Zm.49-.27c.05.16.16.21.27.16a1.69,1.69,0,0,0,.76-.76.18.18,0,0,0-.16-.27C4.34,7.84,3.63,8.49,3.69,8.65Z"/>
  <path d="M5.48,18.65a1.18,1.18,0,0,1-.06,1,5.9,5.9,0,0,0-.43,1H5c-.43.44-.81.33-1.14-.11S3,20,3.26,19.3l.37-.22a6,6,0,0,0,.87-.38.82.82,0,0,1,1-.05Zm-1,1.78c.16-.05.22-.16.16-.27a1.7,1.7,0,0,0-.75-.75.19.19,0,0,0-.28.16A2.25,2.25,0,0,0,4.5,20.43Z"/>
  <path d="M16.69,19.24c.37.81-.44,1-.76,1.46s-.54.27-.87.06L15,20.65c-.16-.33-.27-.6-.43-.92s-.38-.7-.16-1.14l.05-.05a1.17,1.17,0,0,1,1,.05,3.82,3.82,0,0,0,.87.38A.83.83,0,0,0,16.69,19.24Zm-.49.33c0-.16-.16-.27-.27-.16a1.77,1.77,0,0,0-.71.7c-.1.16,0,.27.17.27S16.2,19.78,16.2,19.57Z"/>
  <path d="M16.31,9.19a4.44,4.44,0,0,0-.71.32,1.33,1.33,0,0,1-1.19.17h0a1.25,1.25,0,0,1,.16-1.36,2.83,2.83,0,0,0,.33-.7l.16-.16a.59.59,0,0,1,.92.11l.49.48a.7.7,0,0,1,.22.87C16.52,9,16.41,9.14,16.31,9.19Zm-.11-.54a1.81,1.81,0,0,0-.81-.87c-.22,0-.27.17-.17.33a2,2,0,0,0,.65.65C16,8.92,16.2,8.86,16.2,8.65Z"/>
  <path d="M2.12,17.41a.71.71,0,0,1-.71-.6,1.64,1.64,0,0,1-.1-.49c-.22-.86-.11-1.08.86-1a6.71,6.71,0,0,1,1.09.11.62.62,0,0,1,.27,1.13c-.38.27-.82.54-1.19.81A.16.16,0,0,0,2.12,17.41Zm.22-.92c-.11-.27,0-.71-.44-.81-.16-.06-.21.16-.16.32.11.32.05.76.38.92C2.34,16.92,2.34,16.7,2.34,16.49Z"/>
  <path d="M16,15.89a2.49,2.49,0,0,1,2.43-.54c.06.06.17.11.17.16.27.49-.38,1.73-.87,1.84-.06,0-.11-.05-.22-.05L17,16.92c-.38-.27-.87-.49-1-1Zm1.46.65c0,.11,0,.27.16.32s.27-.1.27-.21c.06-.33.27-.6.11-1,0-.06-.16-.06-.16,0C17.55,15.89,17.61,16.22,17.5,16.54Z"/>
  <path d="M5.48,18.65h0a1.47,1.47,0,0,0-.11-.22c-.6-.75-.54-.92.32-1.35.49-.27,1-.65,1.63-.32h0A2.84,2.84,0,0,1,6.5,19a.49.49,0,0,1-.65,0C5.8,18.86,5.69,18.65,5.48,18.65Zm.86-.11c.16,0,.27-.11.22-.27a1.74,1.74,0,0,0-.76-.76c-.16-.05-.32.06-.27.22A1.68,1.68,0,0,0,6.34,18.54Z"/>
  <path d="M16.31,9.19c.1-.11.27-.16.38-.27.81-.11.86.65,1.19,1.08a.61.61,0,0,1-.11.86c-.06.06-.11.06-.16.11a1,1,0,0,0-.55.11,2.36,2.36,0,0,1-1.51,0h0a1.06,1.06,0,0,1,.27-1.19A2.35,2.35,0,0,0,16.31,9.19Zm1.13,1.19a2.09,2.09,0,0,0-.59-.92c-.16-.11-.33,0-.27.16a1.45,1.45,0,0,0,.54.92C17.28,10.7,17.39,10.59,17.44,10.38Z"/>
  <path d="M5.48,9.68l0-.06a1,1,0,0,0,.27-.21c.33-.33.65-.38,1,0,0,.05.16.1.21.16H7a1.58,1.58,0,0,0,.27.7,1.35,1.35,0,0,1,.17,1.19h0a2.41,2.41,0,0,1-2.22-.76.37.37,0,0,1,0-.59A.71.71,0,0,1,5.48,9.68Zm1.08.16c-.06-.16-.16-.27-.27-.16a4.27,4.27,0,0,0-.71.7c-.1.16,0,.27.17.27S6.56,10.05,6.56,9.84Z"/>
  <path d="M15.06,7.46l-.16.16c-.27.22-.54.43-.76.65a1.14,1.14,0,0,1-1.08.32h0A1.57,1.57,0,0,1,13,7.19c.05-.22.05-.43.11-.65,0,0,0-.11,0-.16A.56.56,0,0,1,14,6.22a2.14,2.14,0,0,0,.6.32A.7.7,0,0,1,15.06,7.46Zm-.49-.22c0-.21-.86-.7-1-.65a.2.2,0,0,0-.1.27,1.26,1.26,0,0,0,.92.55C14.52,7.46,14.57,7.41,14.57,7.24Z"/>
  <path d="M17.55,11c.06-.05.11-.05.16-.11a.71.71,0,0,1,.71.6l.16.65a.67.67,0,0,1-.32.92h0A8.31,8.31,0,0,1,17,13a1.07,1.07,0,0,1-1-.59h0a1,1,0,0,1,.49-.7C16.9,11.41,17.23,11.19,17.55,11Zm.6,1.3c-.16-.27.05-.76-.44-.86-.16-.06-.16.21-.16.32.06.32,0,.76.44.86C18.15,12.65,18.15,12.43,18.15,12.27Z"/>
  <path d="M17.55,17.3c.06,0,.11.05.22.05.54.6-.06,1-.27,1.46s-.44.6-.87.43a3.47,3.47,0,0,0-.38-.27,5,5,0,0,0-.49-.59,1.21,1.21,0,0,1-.32-1.24h0a1.49,1.49,0,0,1,.87-.11C16.74,17.14,17.17,17.24,17.55,17.3Zm-.32.32c-.33.16-.44.54-.6.87a.22.22,0,0,0,.11.32c.32.05.38-.27.49-.43a1,1,0,0,0,.21-.43C17.5,17.73,17.39,17.68,17.23,17.62Z"/>
  <path d="M15,20.7l.11.11c.21.92-.65.87-1,1.24a.54.54,0,0,1-.87-.16.22.22,0,0,0-.05-.11,7.09,7.09,0,0,0-.22-1,1.38,1.38,0,0,1,.16-1.13h0a1,1,0,0,1,1.08.27A3.49,3.49,0,0,0,15,20.7Zm-.44.27c0-.16-.1-.21-.21-.16a1.43,1.43,0,0,0-.92.54c-.06.11-.06.22.05.27.33.06.54-.16.76-.32S14.57,21.14,14.57,21Z"/>
  <path d="M14.68,17.3c-.32-.33-.65-.65-1-.92s-.38-.43-.22-.76a.73.73,0,0,1,.76-.43c.43.05.81.05,1.24.11a.67.67,0,0,1,.65.59h0a3.51,3.51,0,0,0-.54,1.3h0a1.38,1.38,0,0,1-.92.11Zm.49-1.68c-.33.22-.38.6-.49.92a.2.2,0,0,0,.11.27.25.25,0,0,0,.33-.11,6.76,6.76,0,0,1,.32-.75C15.44,15.78,15.39,15.68,15.17,15.62Z"/>
  <path d="M3.2,8.92c.11.05.22.16.33.22a2,2,0,0,0,.59.75A.92.92,0,0,1,4.34,11h0a2.78,2.78,0,0,1-1.46,0c-.22-.06-.38-.06-.6-.11,0,0-.11-.06-.16-.06A.65.65,0,0,1,2,10a3.57,3.57,0,0,0,.33-.6A.82.82,0,0,1,3.2,8.92Zm-.59,1.67c.27,0,.75-.86.65-1.08a.21.21,0,0,0-.33,0,2.74,2.74,0,0,0-.49.86A.19.19,0,0,0,2.61,10.59Z"/>
  <path d="M9.32,15.68c-.05.05-.05.16-.11.21-.16.27-.32.6-.48.87-.38.54-.55.59-1,.16a1.13,1.13,0,0,0-.27-.16h0c-.65-.92-.65-.92.32-1.62a.22.22,0,0,0,0-.11,1.78,1.78,0,0,0,.71-.33C9.16,14.76,9.27,14.92,9.32,15.68Zm-.92.75a1.74,1.74,0,0,0-.65-.75.2.2,0,0,0-.32,0c-.17.16-.06.27.05.37a2.58,2.58,0,0,0,.6.54C8.24,16.7,8.35,16.65,8.4,16.43Z"/>
  <path d="M16,12.32a.63.63,0,0,1-.55.54A4.23,4.23,0,0,1,14,13a.62.62,0,0,1-.59-.43.67.67,0,0,1,.16-.7,7.18,7.18,0,0,1,1-.87.68.68,0,0,1,.92,0h0A2.55,2.55,0,0,0,16,12.32Zm-.6,0c-.16-.27-.16-.7-.49-.91,0-.06-.21,0-.21.1-.11.38.16.65.27.92a.11.11,0,0,0,.11.11C15.28,12.65,15.39,12.59,15.44,12.32Z"/>
  <path d="M16.25,14.11c0,1-.27,1.19-1.19.92a7.78,7.78,0,0,1-1-.38.48.48,0,0,1-.33-.54.52.52,0,0,1,.38-.54,9.47,9.47,0,0,1,1.19-.43c.71-.17.92,0,.92.7Zm-.54-.06c-.16-.16.11-.59-.27-.59s-.22.38-.22.59-.1.6.22.6S15.6,14.32,15.71,14.05Z"/>
  <path d="M2.12,17.41c0-.06.11-.06.16-.11a9.94,9.94,0,0,0,1.19-.22,1.23,1.23,0,0,1,.87.11h0a.89.89,0,0,1-.22,1.13,2.43,2.43,0,0,0-.54.71c-.11,0-.27.16-.38.21-.38.11-.59,0-.76-.38a3.08,3.08,0,0,0-.38-.64A.55.55,0,0,1,2.12,17.41Zm1.19,1.08a1.81,1.81,0,0,0-.6-.87c-.1-.05-.21,0-.21.06-.11.32.16.54.32.81.06.05.06.1.11.16s.16.11.27.05S3.31,18.65,3.31,18.49Z"/>
  <path d="M6.83,19.62a.83.83,0,0,1,.11-.86,5.78,5.78,0,0,1,1-1.08.58.58,0,0,1,1,.37,3.72,3.72,0,0,1-.16,1.68.45.45,0,0,1-.71.32,7.28,7.28,0,0,1-1.19-.43Zm.7-.76c-.16,0-.27,0-.27.17s0,.16.11.21a1.63,1.63,0,0,0,1,.33c.1,0,.16-.16.1-.27A2.42,2.42,0,0,0,7.53,18.86Z"/>
  <path d="M4.93,20.7h0c.33-.27.6-.54.87-.75a.94.94,0,0,1,1-.27h0a1.6,1.6,0,0,1,.1,1.4c0,.22,0,.43-.1.6h0c-.22.37-.44.7-1,.37C4.66,21.35,4.66,21.35,4.93,20.7Zm.65.11c-.16,0-.21,0-.27.11a.23.23,0,0,0,.06.27,5.25,5.25,0,0,0,.76.43.18.18,0,0,0,.27-.05c0-.11,0-.16-.06-.27A1.29,1.29,0,0,0,5.58,20.81Z"/>
  <path d="M18.31,13c.43.11.54.33.54.76v.59c0,.76-.21.92-1,.76-.33-.11-.6-.22-.92-.32s-.55-.27-.55-.65.22-.54.55-.65.92-.32,1.35-.49Zm0,1.14v-.33c0-.16,0-.32-.22-.32s-.21.16-.21.32v.27c.05.27-.11.65.21.65S18.26,14.27,18.31,14.11Z"/>
  <path d="M5,7.62c-.06,0-.06,0-.11,0-.22-.71-.11-.81,1-1.41.54-.27.65.16.87.43h0c0,.33.1.6.16.92a1.28,1.28,0,0,1-.16,1.08h0a.93.93,0,0,1-1-.32C5.53,8.05,5.26,7.84,5,7.62Zm1.46-.81a.2.2,0,0,0-.22-.22,1.72,1.72,0,0,0-.92.55.19.19,0,0,0,.06.27C5.58,7.57,6.45,7.08,6.45,6.81Z"/>
  <path d="M4.34,11.08a.75.75,0,0,1,1,.06c.32.27.65.54,1,.86A.6.6,0,0,1,6,13a4.08,4.08,0,0,1-1.62-.17c-.38-.1-.43-.37-.33-.7a4.06,4.06,0,0,0,.33-1.08Zm.32,1.51c.22,0,.27-.21.38-.37s.33-.49.11-.76c-.05-.11-.16-.11-.22,0a1.8,1.8,0,0,0-.43,1S4.56,12.59,4.66,12.59Z"/>
  <path d="M6.83,8.59c.38-.16.76-.27,1.14-.43s.7-.05.81.38a3.7,3.7,0,0,1,.11,1.51.59.59,0,0,1-1,.38,6.67,6.67,0,0,1-.92-.92h0c-.06-.27-.33-.54-.11-.92Zm.7.76c.33-.11.71-.11.87-.54,0-.11-.11-.22-.22-.22-.32,0-1,.38-1,.55S7.37,9.41,7.53,9.35Z"/>
  <path d="M3.69,14.11v-.49c0-.43.22-.65.7-.54a6,6,0,0,1,1.41.49.61.61,0,0,1,0,1.13,13.26,13.26,0,0,1-1.3.44c-.59.1-.76-.06-.81-.65v-.38Zm.54,0c0,.16-.16.59.22.59s.21-.43.21-.65a.74.74,0,0,0,0-.32c0-.11-.05-.27-.22-.22s-.16.17-.16.27S4.23,14,4.23,14.11Z"/>
  <path d="M4.34,17.19a3.74,3.74,0,0,0-.33-1c-.16-.54-.1-.75.44-.86a5.81,5.81,0,0,1,1.4-.11.58.58,0,0,1,.6.43.59.59,0,0,1-.16.7c-.33.27-.6.54-.92.82a.91.91,0,0,1-1,.05Zm.32-1.57c-.1,0-.21.06-.21.16a1.6,1.6,0,0,0,.43,1c.16.16.33,0,.33-.17A2,2,0,0,0,5,16.05C4.93,15.89,4.88,15.68,4.66,15.62Z"/>
  <path d="M14.41,18.59l-.05.06c-.44.27-.87.7-1.36.11h0a4.47,4.47,0,0,0-.48-1.08c-.17-.33-.27-.65.05-.92s.6-.17.92,0a4.65,4.65,0,0,0,1.08.48h0a.66.66,0,0,1-.1,1.08C14.47,18.43,14.47,18.54,14.41,18.59Zm-.22-1.08a1.83,1.83,0,0,0-.86.81c0,.22.16.27.32.17l.65-.65C14.41,17.73,14.36,17.57,14.19,17.51Z"/>
  <path d="M14.41,9.68c.65.91.6,1-.43,1.56l-.71.33a.59.59,0,0,1-.7-.16.68.68,0,0,1-.11-.71,5.63,5.63,0,0,1,.6-1.13c.32-.54.59-.6,1.08-.11.11.11.22.16.27.22Zm-.87,0c-.16,0-.27.16-.16.27a1.4,1.4,0,0,0,.76.7c.16,0,.27-.06.27-.22A3.61,3.61,0,0,0,13.54,9.68Z"/>
</svg>
