<svg xmlns="http://www.w3.org/2000/svg">
    <symbol viewBox="0 0 18.4 15.11" id="triangle">
        <path d="M9.2,2.88l6.39,10.23H2.81L9.2,2.88M8.35.47.15,13.58A1,1,0,0,0,1,15.11H17.4a1,1,0,0,0,.85-1.53L10.05.47A1,1,0,0,0,8.35.47Z"/>
    </symbol>
    <symbol viewBox="0 0 22 15" id="eye">
        <path d="M11,0A11.83,11.83,0,0,0,0,7.5a11.82,11.82,0,0,0,22,0A11.83,11.83,0,0,0,11,0Zm0,12.5a5,5,0,1,1,5-5A5,5,0,0,1,11,12.5Zm0-8a3,3,0,1,0,3,3A3,3,0,0,0,11,4.5Z"/>
    </symbol>
    <symbol viewBox="0 0 20 20" id="wishlist">
        <path d="M19.41,9.58l-9-9A2,2,0,0,0,9,0H2A2,2,0,0,0,0,2V9a2,2,0,0,0,.59,1.42l9,9A2,2,0,0,0,11,20a2,2,0,0,0,1.41-.59l7-7A2,2,0,0,0,20,11,2,2,0,0,0,19.41,9.58ZM3.5,5A1.5,1.5,0,1,1,5,3.5,1.5,1.5,0,0,1,3.5,5Zm11.77,8.27-3.92,3.92a.5.5,0,0,1-.71,0L6.72,13.27a2.53,2.53,0,0,1-.67-2.34,2.49,2.49,0,0,1,4.2-1.19l.75.72.73-.73a2.5,2.5,0,0,1,3.54,3.54Z"/>
    </symbol>
    <symbol viewBox="0 0 18 12" id="menu">
        <path d="M1,12H17a1,1,0,0,0,0-2H1a1,1,0,0,0,0,2ZM1,7H17a1,1,0,0,0,0-2H1A1,1,0,0,0,1,7ZM0,1A1,1,0,0,0,1,2H17a1,1,0,0,0,0-2H1A1,1,0,0,0,0,1Z"/>
    </symbol>
    <symbol viewBox="0 0 16 16" id="user">
        <path d="M8,8A4,4,0,1,0,4,4,4,4,0,0,0,8,8Zm0,2c-2.67,0-8,1.34-8,4v1a1,1,0,0,0,1,1H15a1,1,0,0,0,1-1V14C16,11.34,10.67,10,8,10Z"/>
    </symbol>
    <symbol viewBox="0 0 20 20" id="cart">
        <path d="M6,16a2,2,0,1,0,2,2A2,2,0,0,0,6,16ZM0,1A1,1,0,0,0,1,2H2L5.6,9.59,4.25,12A2,2,0,0,0,6,15H17a1,1,0,0,0,0-2H6l1.1-2h7.45a2,2,0,0,0,1.75-1l3.58-6.49A1,1,0,0,0,19,2H4.21L3.54.57A1,1,0,0,0,2.64,0H1A1,1,0,0,0,0,1ZM16,16a2,2,0,1,0,2,2A2,2,0,0,0,16,16Z"/>
    </symbol>
    <!-- Socials -->
    <symbol id="twitter" viewBox="0 0 512 512">
        <path d="M459.37 151.716c.325 4.548.325 9.097.325 13.645 0 138.72-105.583 298.558-298.558 298.558-59.452 0-114.68-17.219-161.137-47.106 8.447.974 16.568 1.299 25.34 1.299 49.055 0 94.213-16.568 130.274-44.832-46.132-.975-84.792-31.188-98.112-72.772 6.498.974 12.995 1.624 19.818 1.624 9.421 0 18.843-1.3 27.614-3.573-48.081-9.747-84.143-51.98-84.143-102.985v-1.299c13.969 7.797 30.214 12.67 47.431 13.319-28.264-18.843-46.781-51.005-46.781-87.391 0-19.492 5.197-37.36 14.294-52.954 51.655 63.675 129.3 105.258 216.365 109.807-1.624-7.797-2.599-15.918-2.599-24.04 0-57.828 46.782-104.934 104.934-104.934 30.213 0 57.502 12.67 76.67 33.137 23.715-4.548 46.456-13.32 66.599-25.34-7.798 24.366-24.366 44.833-46.132 57.827 21.117-2.273 41.584-8.122 60.426-16.243-14.292 20.791-32.161 39.308-52.628 54.253z" />
    </symbol>
    <symbol id="youtube" viewBox="0 0 576 512">
        <path d="M549.655 124.083c-6.281-23.65-24.787-42.276-48.284-48.597C458.781 64 288 64 288 64S117.22 64 74.629 75.486c-23.497 6.322-42.003 24.947-48.284 48.597-11.412 42.867-11.412 132.305-11.412 132.305s0 89.438 11.412 132.305c6.281 23.65 24.787 41.5 48.284 47.821C117.22 448 288 448 288 448s170.78 0 213.371-11.486c23.497-6.321 42.003-24.171 48.284-47.821 11.412-42.867 11.412-132.305 11.412-132.305s0-89.438-11.412-132.305zm-317.51 213.508V175.185l142.739 81.205-142.739 81.201z" />
    </symbol>
    <symbol id="linkedin" viewBox="0 0 448 512">
        <path d="M100.28 448H7.4V148.9h92.88zM53.79 108.1C24.09 108.1 0 83.5 0 53.8a53.79 53.79 0 0 1 107.58 0c0 29.7-24.1 54.3-53.79 54.3zM447.9 448h-92.68V302.4c0-34.7-.7-79.2-48.29-79.2-48.29 0-55.69 37.7-55.69 76.7V448h-92.78V148.9h89.08v40.8h1.3c12.4-23.5 42.69-48.3 87.88-48.3 94 0 111.28 61.9 111.28 142.3V448z" />
    </symbol>
    <symbol id="pinterest" viewBox="0 0 384 512">
        <path d="M204 6.5C101.4 6.5 0 74.9 0 185.6 0 256 39.6 296 63.6 296c9.9 0 15.6-27.6 15.6-35.4 0-9.3-23.7-29.1-23.7-67.8 0-80.4 61.2-137.4 140.4-137.4 68.1 0 118.5 38.7 118.5 109.8 0 53.1-21.3 152.7-90.3 152.7-24.9 0-46.2-18-46.2-43.8 0-37.8 26.4-74.4 26.4-113.4 0-66.2-93.9-54.2-93.9 25.8 0 16.8 2.1 35.4 9.6 50.7-13.8 59.4-42 147.9-42 209.1 0 18.9 2.7 37.5 4.5 56.4 3.4 3.8 1.7 3.4 6.9 1.5 50.4-69 48.6-82.5 71.4-172.8 12.3 23.4 44.1 36 69.3 36 106.2 0 153.9-103.5 153.9-196.8C384 71.3 298.2 6.5 204 6.5z" />
    </symbol>
    <symbol id="facebook" viewBox="0 0 512 512">
        <path d="M504 256C504 119 393 8 256 8S8 119 8 256c0 123.78 90.69 226.38 209.25 245V327.69h-63V256h63v-54.64c0-62.15 37-96.48 93.67-96.48 27.14 0 55.52 4.84 55.52 4.84v61h-31.28c-30.8 0-40.41 19.12-40.41 38.73V256h68.78l-11 71.69h-57.78V501C413.31 482.38 504 379.78 504 256z" />
    </symbol>
    <symbol id="instagram" viewBox="0 0 448 512">
        <path d="M224.1 141c-63.6 0-114.9 51.3-114.9 114.9s51.3 114.9 114.9 114.9S339 319.5 339 255.9 287.7 141 224.1 141zm0 189.6c-41.1 0-74.7-33.5-74.7-74.7s33.5-74.7 74.7-74.7 74.7 33.5 74.7 74.7-33.6 74.7-74.7 74.7zm146.4-194.3c0 14.9-12 26.8-26.8 26.8-14.9 0-26.8-12-26.8-26.8s12-26.8 26.8-26.8 26.8 12 26.8 26.8zm76.1 27.2c-1.7-35.9-9.9-67.7-36.2-93.9-26.2-26.2-58-34.4-93.9-36.2-37-2.1-147.9-2.1-184.9 0-35.8 1.7-67.6 9.9-93.9 36.1s-34.4 58-36.2 93.9c-2.1 37-2.1 147.9 0 184.9 1.7 35.9 9.9 67.7 36.2 93.9s58 34.4 93.9 36.2c37 2.1 147.9 2.1 184.9 0 35.9-1.7 67.7-9.9 93.9-36.2 26.2-26.2 34.4-58 36.2-93.9 2.1-37 2.1-147.8 0-184.8zM398.8 388c-7.8 19.6-22.9 34.7-42.6 42.6-29.5 11.7-99.5 9-132.1 9s-102.7 2.6-132.1-9c-19.6-7.8-34.7-22.9-42.6-42.6-11.7-29.5-9-99.5-9-132.1s-2.6-102.7 9-132.1c7.8-19.6 22.9-34.7 42.6-42.6 29.5-11.7 99.5-9 132.1-9s102.7-2.6 132.1 9c19.6 7.8 34.7 22.9 42.6 42.6 11.7 29.5 9 99.5 9 132.1s2.7 102.7-9 132.1z" />
    </symbol>
    <symbol id="whatsapp" viewBox="0 0 448 512">
        <path d="M380.9 97.1C339 55.1 283.2 32 223.9 32c-122.4 0-222 99.6-222 222 0 39.1 10.2 77.3 29.6 111L0 480l117.7-30.9c32.4 17.7 68.9 27 106.1 27h.1c122.3 0 224.1-99.6 224.1-222 0-59.3-25.2-115-67.1-157zm-157 341.6c-33.2 0-65.7-8.9-94-25.7l-6.7-4-69.8 18.3L72 359.2l-4.4-7c-18.5-29.4-28.2-63.3-28.2-98.2 0-101.7 82.8-184.5 184.6-184.5 49.3 0 95.6 19.2 130.4 54.1 34.8 34.9 56.2 81.2 56.1 130.5 0 101.8-84.9 184.6-186.6 184.6zm101.2-138.2c-5.5-2.8-32.8-16.2-37.9-18-5.1-1.9-8.8-2.8-12.5 2.8-3.7 5.6-14.3 18-17.6 21.8-3.2 3.7-6.5 4.2-12 1.4-32.6-16.3-54-29.1-75.5-66-5.7-9.8 5.7-9.1 16.3-30.3 1.8-3.7.9-6.9-.5-9.7-1.4-2.8-12.5-30.1-17.1-41.2-4.5-10.8-9.1-9.3-12.5-9.5-3.2-.2-6.9-.2-10.6-.2-3.7 0-9.7 1.4-14.8 6.9-5.1 5.6-19.4 19-19.4 46.3 0 27.3 19.9 53.7 22.6 57.4 2.8 3.7 39.1 59.7 94.8 83.8 35.2 15.2 49 16.5 66.6 13.9 10.7-1.6 32.8-13.4 37.4-26.4 4.6-13 4.6-24.1 3.2-26.4-1.3-2.5-5-3.9-10.5-6.6z" />
    </symbol>
    <symbol id="telegram" viewBox="0 0 448 512">
        <path d="M446.7 98.6l-67.6 318.8c-5.1 22.5-18.4 28.1-37.3 17.5l-103-75.9-49.7 47.8c-5.5 5.5-10.1 10.1-20.7 10.1l7.4-104.9 190.9-172.5c8.3-7.4-1.8-11.5-12.9-4.1L117.8 284 16.2 252.2c-22.1-6.9-22.5-22.1 4.6-32.7L418.2 66.4c18.4-6.9 34.5 4.1 28.5 32.2z" />
    </symbol>
    <!-- Home Navs -->
    <symbol viewBox="0 0 168.13 80.23" id="homeNavLeather">
        <path d="M110.89,80.15a2.46,2.46,0,0,1-2.59-.76C100.76,71.55,93.15,63.79,85.59,56c-.75-.78-1.13-.59-1.79.06Q71.63,67.94,59.43,79.83c-.62.61-1.25.34-1.89.38-.33,0-.39-.24-.2-.48a5,5,0,0,1,.52-.51Q70.91,66.5,84,53.76c.56-.54.87-.72,1.51,0q12.48,12.87,25,25.7C110.67,79.59,111,79.72,110.89,80.15Z"/>
        <path d="M105.32,11a38.9,38.9,0,0,1-5.48,3.4,15.53,15.53,0,0,1-3,1.2c-.7.17-1.65.45-1.88-.39s.79-1,1.44-1.17a19.94,19.94,0,0,0,8.17-4.08,2.19,2.19,0,0,0,.88-1.84c.13-2.63.63-5.16,2.49-7.21a1.82,1.82,0,0,1,2-.77c.88.29.93,1.15.95,1.9a8,8,0,0,1-2.19,5.56,6.12,6.12,0,0,0-1.51,4.26,30.35,30.35,0,0,1-4.05,15.94c-.42.7-.23.91.52,1.08A57,57,0,0,1,113.58,32a6.67,6.67,0,0,1,1,.49c.49.31.77.72.44,1.3s-.81.83-1.4.46c-3.36-2.1-7.21-2.75-10.93-3.78a1.23,1.23,0,0,0-1.57.59c-3.91,5.38-9.31,8.49-15.65,10.13a8.11,8.11,0,0,1-3.57,0c-3.12-.6-4.28-3.19-2.67-6a10.78,10.78,0,0,1,3.41-3.31c3.82-2.64,8.18-3.49,12.7-3.74a30,30,0,0,1,4.55.1,1.53,1.53,0,0,0,1.7-.92,22.36,22.36,0,0,0,2.84-8.22C104.74,16.54,105,13.91,105.32,11ZM99.69,30.18a3.56,3.56,0,0,0-1.57-.28,49.2,49.2,0,0,0-9.07.73,15.49,15.49,0,0,0-6,2.59,6.36,6.36,0,0,0-2.23,2.46,2.63,2.63,0,0,0,2.17,4,9,9,0,0,0,3.1,0C89.77,39,92.79,37,95.7,34.77A14.24,14.24,0,0,0,99.69,30.18Z"/>
        <path d="M146.1,30.2c2-1.31,2.56-1.18,3.74.82a7.62,7.62,0,0,0,1.41,2.06c.4.35.58.79.15,1.25s-1,.16-1.31-.24c-.56-.72-1-1.53-1.51-2.3-.63-1-.87-1-1.52-.05a3.71,3.71,0,0,0-.67,2.26,9.51,9.51,0,0,1,0,1.07.94.94,0,0,1-.78.94c-.53.1-.81-.29-1-.71a12.69,12.69,0,0,1-.52-3.78c0-.71,0-1.43,0-2.19a4.27,4.27,0,0,0-.54.07c-.49.16-.91.07-1.08-.43A.73.73,0,0,1,143,28c1.3-.33,1.27-1.3,1.29-2.33a32.65,32.65,0,0,1,2.64-12.93,14.26,14.26,0,0,1,2-3.4c1.52-1.82,3.27-1.73,4.44.3a15.15,15.15,0,0,1,2,8.62c-.16,2.58-1.91,4.43-3.64,6.15a15.34,15.34,0,0,1-4.46,3.2A2,2,0,0,0,146.1,30.2Zm.06-3.71a19.13,19.13,0,0,0,5.41-4,7,7,0,0,0,1.67-7.41c-.36-1.06-.6-2.15-1-3.21-.23-.7-.31-1.76-1.13-1.79s-1.23.9-1.6,1.61C147.2,16.26,146.46,21.19,146.16,26.49Z"/>
        <path d="M35.67,42.2a61.48,61.48,0,0,1-.14-13.76A35.4,35.4,0,0,1,37.84,17.7a14,14,0,0,1,6.1-7.17,7.15,7.15,0,0,0,3-3.22c1.27-2.52,1.32-2.5,4.06-1.63,2.22.7,2.55,1.51,1.59,3.66s-2.28,3.44-4.66,3.6a8.64,8.64,0,0,0-1.87.39,11.14,11.14,0,0,0-8.49,9.24,122,122,0,0,0-1.75,17.16C35.79,40.55,35.73,41.38,35.67,42.2Z"/>
        <path d="M50.65,19.84c.21-2.88,2.59-5,5-4.28.53.16,1.08.28,1.62.43a5.23,5.23,0,0,0,2,.08c.64-.06,1.5-1.06,1.7-.45a2.57,2.57,0,0,1-.88,2.59c-1.69,1.16-2.45,2.91-3.37,4.58a9.4,9.4,0,0,1-4.79,4.65A4.06,4.06,0,0,0,49.64,30c-.49,1.27-1,2.54-1.51,3.78a4.94,4.94,0,0,1-3.77,3c-1.1.21-2.2.39-3.31.56-.42.06-1,.29-1.18-.22s.32-.85.7-1.12c1.08-.76,2.16-1.52,3.27-2.22a11.72,11.72,0,0,0,5.09-5.84,8.75,8.75,0,0,1,4.73-5c1.5-.67,2.29-2,3.13-3.37.33-.51,0-.68-.36-.88-2.17-1.09-3.45-.87-5.17.91C51.09,19.73,50.93,19.92,50.65,19.84Z"/>
        <path d="M16.45,11.68c-.28,2.17-.57,4.33-.83,6.5a74.59,74.59,0,0,0-.76,9.19,5.1,5.1,0,0,0,.53,2.55,2,2,0,0,0,1.84,1.13,1.79,1.79,0,0,0,1.66-1.18c.16-.32.27-.67.43-1s.17-.83.64-.7.24.54.19.85a16.08,16.08,0,0,1-1.94,6.12C17.49,36.33,16.56,37.3,15,37s-2-1.46-2.36-2.74a15.14,15.14,0,0,1,0-6c.43-3.37.92-6.73,1.38-10.09a21.81,21.81,0,0,1,2.07-6.65A1.89,1.89,0,0,0,16.45,11.68Z"/>
        <path d="M69.27,31.19c-.46.54-.93,1.08-1.38,1.63-.62.76-1.22.91-2,.16-.51-.5-1.14-.88-1.68-1.35s-.61-.25-.93.16c-1.84,2.39-1.83,2.34-4.29.54-.8-.59-.9-1-.3-1.78a24.11,24.11,0,0,0,1.9-2.9c.49-.88,1-.83,1.7-.29A3.52,3.52,0,0,1,64,30.78c.92-1.4,1.68-2.5,2.37-3.65.38-.62.72-.69,1.34-.3,1.71,1.09,2.15,2.06,1.72,4.11Z"/>
        <path d="M23.17,35.65a36.47,36.47,0,0,0,1.21-6.17c.21-2.43.5-4.85.62-7.28.14-3.06,1.63-5.64,2.75-8.36.05-.12.22-.19.45-.37-.24,2.08-.5,4-.69,5.94C27.25,22,27.08,24.5,26.8,27a19.82,19.82,0,0,1-2.3,7.14A3.09,3.09,0,0,1,23.17,35.65Z"/>
        <path d="M10.44,22.16A57.24,57.24,0,0,1,7.93,32.73,5.09,5.09,0,0,1,4.64,36,26.17,26.17,0,0,1,1,37c-.31.06-.73.22-.9-.07s.2-.64.45-.87a12.8,12.8,0,0,1,1.56-1.3A15.08,15.08,0,0,0,8.8,24.85,22.41,22.41,0,0,1,9.7,22c.08-.25.18-.61.53-.53S10.43,21.91,10.44,22.16Z"/>
        <path d="M120.93,34.75c-1.39,0-2.47-.24-2.74-1.64-.08-.43-.33-.48-.66-.52a3.15,3.15,0,0,1-1.27-.3c-.4-.24-.76-.52-.58-1a.78.78,0,0,1,1.07-.5,2.31,2.31,0,0,0,3.06-1.29,5.05,5.05,0,0,1,1.24-1.29,1.89,1.89,0,0,1,2.78,0c.51.69.21,1.75-.77,2.47a9.38,9.38,0,0,1-2.19,1.22c-.31.12-.8.18-.7.67s.62.38,1,.36a12.17,12.17,0,0,0,3.35-.87c.54-.18,1.16-.44,1.43.3s-.41.87-.85,1.09A11.3,11.3,0,0,1,120.93,34.75Z"/>
        <path d="M157,34.75c-1.49,0-2.54-.28-2.82-1.66-.09-.44-.36-.44-.68-.5a7.52,7.52,0,0,1-1.26-.33c-.43-.18-.74-.51-.54-1a.73.73,0,0,1,1-.48c1.53.54,2.47-.11,3.24-1.39a3.76,3.76,0,0,1,1.88-1.61,1.67,1.67,0,0,1,2.07.45,1.54,1.54,0,0,1-.27,2,7.16,7.16,0,0,1-2.69,1.73c-.34.16-.88.22-.7.78s.6.29.93.27a13,13,0,0,0,3.46-.9c.49-.16,1.06-.39,1.33.26s-.32.91-.78,1.13A11.73,11.73,0,0,1,157,34.75Z"/>
        <path d="M138.91,25.5c-.33,1.09.14,1.22,1.07.91a5.62,5.62,0,0,1,1.41-.23.78.78,0,0,1,.84.54c.13.42-.15.68-.46.88a8.41,8.41,0,0,1-2.52,1.09.94.94,0,0,0-.84,1.18c.06.59,0,1.2.08,1.79.22,1.84.35,2,2.19,2.26.48.08,1,.15,1,.77s-.53.72-1,.82a3.16,3.16,0,0,1-4.13-2.69,9.6,9.6,0,0,1-.1-2.62c.05-.57.14-1.05-.5-1.41a.58.58,0,0,1,.07-1.07c1.19-.44,1.05-1.47,1.21-2.36.12-.67-.1-1.66,1-1.53S138.82,24.87,138.91,25.5Z"/>
        <path d="M129.09,31.37a12.49,12.49,0,0,0,2.7-.57c1.21-.22,1.87.2,2,1.4a11,11,0,0,0,.32,1.88.73.73,0,0,1-.53.94c-.42.15-.68-.12-.88-.44a2.66,2.66,0,0,1-.23-.55c-.5-1.44-.5-1.44-2-1a4,4,0,0,1-.46.13c-1,.21-2,.48-2.71-.57s-.1-2,.6-2.82A5.11,5.11,0,0,1,131.42,28a2.13,2.13,0,0,1,2.28,1.2.73.73,0,0,1-.19,1,.72.72,0,0,1-.88.07C131.09,29.47,130.27,29.72,129.09,31.37Z"/>
        <path d="M24.67,6a5.9,5.9,0,0,1-2.75,4,.72.72,0,0,1-.76-.16c-.75-.59-1.49-1.2-2.26-1.77-.4-.3-.3-.57-.08-.91q1.32-2,2.62-4c.15-.23.3-.44.66-.36A4.39,4.39,0,0,1,24.67,6Z"/>
        <path d="M69.27,31.19l.14-.25a26.53,26.53,0,0,0,2.4-3.54c.42-.66.78-.76,1.42-.31,1,.71,2,1.52,1.91,2.83a5.74,5.74,0,0,1-2.4,3.71.52.52,0,0,1-.67,0C71.14,32.84,69.91,32.35,69.27,31.19Z"/>
        <path d="M164.39,29.18a9.72,9.72,0,0,1,2.6-2.52c.32-.22.63-.38.93,0a.71.71,0,0,1,0,1c-.36.43-.74.83-1.1,1.25a5.82,5.82,0,0,0-1.32,4.57c0,.28.06.55.08.83a1,1,0,0,1-.93,1.18c-.61.07-.93-.36-1-.94-.2-1.18-.37-2.36-.6-3.53a7.83,7.83,0,0,0-.51-1.71c-.21-.45-.31-.84.12-1.17s.89,0,1.22.34C164.05,28.67,164.19,28.9,164.39,29.18Z"/>
    </symbol>
    <symbol viewBox="0 0 137.43 80.5" id="homeNavStyle">
        <path d="M95.69.09,92,3.87Q81.09,15.09,70.18,26.31c-.7.72-1,.63-1.67,0Q55.4,13.46,42.23.66C42.08.53,42,.38,41.74.12a2.4,2.4,0,0,1,2.53.55c8.1,8,16.27,15.87,24.38,23.81.61.6.94.43,1.44-.09C77.76,16.5,85.45,8.64,93.08.71,93.82-.06,94.51-.06,95.69.09Z"/>
        <path d="M105.4,44.92c1.11.17,1.91,0,2.17-1.24a17.32,17.32,0,0,1,.79-2.26,1.21,1.21,0,0,1,1.72-.8c.74.27.63.87.42,1.51s-1,1.76-.63,2.32,1.56.14,2.38.13c4-.07,7.91-.21,11.87-.26.76,0,1-.32,1.25-1,.82-2.21,1.45-4.48,2.1-6.75a11.71,11.71,0,0,1,1-2.44c.37-.67,1-1.26,1.87-.88s.52,1.14.3,1.8c-1,2.72-1.88,5.44-2.85,8.15-.29.8-.13,1.06.73,1s1.65-.16,1.65,1c0,1-.59,1.43-1.58,1.36-.4,0-.8.06-1.2,0-.6-.06-.83.23-1,.75q-3,8.77-6.1,17.55c-.06.18-.1.36-.16.6.68-.22.83-.84,1.24-1.2s1-.7,1.61-.25.39,1,.09,1.5a12.39,12.39,0,0,1-4,3.91,1.47,1.47,0,0,1-1.7.08A1.42,1.42,0,0,1,116.9,68a9.76,9.76,0,0,1,.4-1.5l6.48-18.55c.44-1.26.43-1.27-.89-1.24-4.35.11-8.71.25-13.06.34a1.31,1.31,0,0,0-1.45,1c-2.6,7.39-5.14,14.8-7.55,22.25a16,16,0,0,0-.72,4,6.19,6.19,0,0,1-1,3.15c-.43.65-.9,1.35-1.81,1s-.68-1.24-.46-2c1.6-5.19,3.18-10.39,4.85-15.56,1.36-4.22,2.8-8.41,4.26-12.6.31-.89.1-1-.74-.91-1.22.2-2.46.3-3.68.5-.78.13-1.44,0-1.54-.85s.26-1.59,1.12-1.54c1.61.1,1.86-1,2.22-2.09a16.53,16.53,0,0,0,1.07-6.22,5,5,0,0,0-4.31-5c-3.78-.8-7.4,0-10.94,1.25a27.74,27.74,0,0,0-11.53,7.3,7.7,7.7,0,0,0-1.42,2.07,4.06,4.06,0,0,0,.9,4.74,21.91,21.91,0,0,0,7,4.67c3.32,1.57,6.69,3.05,10,4.59a17.62,17.62,0,0,1,3,1.79c2.61,1.93,2.45,4.9-.39,6.5a14,14,0,0,1-5.87,1.53,25.9,25.9,0,0,1-11.45-1.36,5,5,0,0,1-3.17-2.57c-.33-.77-.4-1.53.48-2s1.39.09,1.73.81A2.82,2.82,0,0,0,80.3,63a23.92,23.92,0,0,0,14,.47c.87-.23,2-.51,2.09-1.55s-.9-1.43-1.62-1.88c-3.06-1.92-6.48-3.1-9.74-4.62a41.14,41.14,0,0,1-8.13-4.57c-4.49-3.53-5-7.79-1-11.89a30.42,30.42,0,0,1,21.57-9.57,12.22,12.22,0,0,1,2.62.28c5.08,1,7.54,4.94,6.64,10.43A40.86,40.86,0,0,1,105.4,44.92Z"/>
        <path d="M25.49,37.5c.41-.45.33-1,.76-1.38,0,.74,0,1.48,0,2.21.07,1.14.38,2.16,1.68,2.46s2-.38,2.53-1.48a2.92,2.92,0,0,1,.25-.4c1,1.37,0,4.6-1.61,6-1.05.88-2.58-.07-3.45,1.13l-.44-.72c-.09,1.9-.15,3.59-.26,5.28-.36,5.68-1.41,11.18-4.17,16.24a20.23,20.23,0,0,1-5,6.23,12.63,12.63,0,0,1-7.35,2.89A7.71,7.71,0,0,1,0,68.23,24.51,24.51,0,0,1,2.28,57.77a39,39,0,0,1,2-4A2.69,2.69,0,0,1,4,55.51a29.44,29.44,0,0,0-2.11,6.61,6,6,0,0,0,4.31,7.07C12.39,71.35,20,67.25,21.83,60.7a31.35,31.35,0,0,0,1-7.71l.45-15.11c.09-3.07,1.44-5.77,2.35-8.59l.32,0C25.8,32,25.65,34.71,25.49,37.5Z"/>
        <path d="M108.17,76.25c3.3-6.65,5.59-13.68,8.14-21-1.58,1.19-2.54,2.55-3.9,3.46-.23.15-.44.35-.68.48-.85.48-1.76,1-2.68.32s-.75-1.63-.56-2.54a12.37,12.37,0,0,1,2-4.31c.36-.53.86-.87,1.53-.42a1.07,1.07,0,0,1,.26,1.66A8.27,8.27,0,0,0,111,57,25.22,25.22,0,0,0,115.4,53c.86-.94,1.68-1.92,2.53-2.88.49-.54,1-.9,1.78-.43s.6,1,.37,1.67c-2.92,8.45-6,16.86-9.43,25.11A13.66,13.66,0,0,1,109,79.5c-.47.61-1,1.19-1.9.94s-1-1-1.06-1.71a15.71,15.71,0,0,1,.51-5.46,21.79,21.79,0,0,1,3.35-8.14,3.91,3.91,0,0,1,1.14-1c.51-.32,1-.39,1.38.11s.16.93-.17,1.29a17.45,17.45,0,0,0-3.39,6.67A11.2,11.2,0,0,0,108.17,76.25Z"/>
        <path d="M37.88,39c-.43,3.57-.88,7.13-1.28,10.7a23.47,23.47,0,0,0-.18,6.21c.22,1.41.61,2.7,2.06,3.27a4.22,4.22,0,0,0,4.32-.52c.67-.51,1.27-1.1,1.9-1.65A2.07,2.07,0,0,1,47,56.68c1.73.72,2.32.56,3.48-.91.46-.58.79-1.24,1.79-1.07.68.12,1.15-.46,1.44-1.08s.44-1.06,1.3-1.13,1-1.11,1.36-1.82c.17-.36.14-1.1.67-.93s.09.77,0,1.16c-.61,3.79-3,6.12-6.35,7.63a6.38,6.38,0,0,0-1,.67c-1,.74-2,1.44-3.5,1a2.48,2.48,0,0,0-2.66,1c-.76,1-1.47,2-2.28,2.93C39,66.81,35.85,66.29,34.53,63a11.21,11.21,0,0,1-.62-5.65c.5-4,1-8,1.65-12a25.52,25.52,0,0,1,1.85-5.93,3.31,3.31,0,0,1,.29-.47Z"/>
        <path d="M126,57.37a13.23,13.23,0,0,1,2.38-5.49,2.26,2.26,0,0,1,2.48-1.08,2.49,2.49,0,0,1,1.82,2,2.62,2.62,0,0,1-1,2.78,2.87,2.87,0,0,1-1.89.64,2.29,2.29,0,0,0-.83.05.84.84,0,0,0-.53,1.07c.14.42.55.15.82,0a37.35,37.35,0,0,0,5.1-2.65l1.36-.76a1.06,1.06,0,0,1,1.5.2c.44.6.09,1.1-.39,1.43-2.54,1.73-5.1,3.46-8.16,4.18C127,60.2,126,59.34,126,57.37Z"/>
        <path d="M59.71,64.12c1.5-5,1.59-9.92,2-14.84.26-3.05,1.86-5.59,2.93-8.34L65,41c-.14.87-.31,1.74-.4,2.62-.41,4.05-.75,8.1-1.22,12.15a19.47,19.47,0,0,1-2.38,7A2.36,2.36,0,0,1,59.71,64.12Z"/>
        <path d="M42.3,34.22a20.2,20.2,0,0,0,2.41-3.53c.49-.8.9-.79,1.61-.3,2.11,1.44,2.42,3,.94,5-.32.45-.71.86-1.07,1.29a1,1,0,0,1-1.72.1,12.67,12.67,0,0,0-1.78-1.41.88.88,0,0,1-.35-1.22Z"/>
        <path d="M29,76.05c.91-1.36,1.84-2.69,2.7-4.08.42-.68.79-.73,1.42-.28,1.07.77,2.15,1.59,2,3a6,6,0,0,1-2.51,3.8.49.49,0,0,1-.66,0c-.95-.87-2.21-1.4-2.9-2.56Z"/>
        <path d="M29.06,76A21.76,21.76,0,0,1,27,78.64c-.49.45-.9.63-1.4,0-.13-.15-.31-.25-.45-.39-.63-.65-1.92-1-1.92-1.78s.86-1.55,1.36-2.32c.37-.57.79-1.11,1.11-1.71.41-.78.84-.91,1.59-.37,1.38,1,2.29,2.12,1.76,3.93Z"/>
        <path d="M42.32,34.19a15.7,15.7,0,0,1-2.27,3.05,1,1,0,0,1-1.46.07c-2.63-2-2.65-2-.83-4.73l.79-1.2c.85-1.3.84-1.28,2.07-.4a3.71,3.71,0,0,1,1.67,3.24Z"/>
    </symbol>
    <symbol viewBox="0 0 198.12 54.04" id="homeNavJewelry">
        <path d="M198,1.05c.22,1.2-.48,1.69-1,2.24L175.75,23.82c-2.68,2.6-2.68,2.62-.1,5.27q7.54,7.73,15.1,15.43c2.24,2.29,4.45,4.59,6.67,6.9a1.78,1.78,0,0,1,.54.77c.11.61.37,1.44-.18,1.78s-.77-.52-1.11-.86q-7.11-7.22-14.19-14.48c-3.63-3.72-7.25-7.45-10.92-11.14-.83-.83-.75-1.31.07-2.11q12.48-12.1,24.89-24.3c.11-.11.22-.24.34-.34s.46-.67.86-.53S197.93.93,198,1.05Z"/>
        <path d="M123.71,4.93a49.49,49.49,0,0,1-4.86,1.72,54.29,54.29,0,0,1-9.77,2.08c-5.53.79-11.08.42-16.62.4a60.87,60.87,0,0,1-7.71-.79c-1.07-.14-2.14-.16-3.21-.31-3.07-.44-6.15-.78-9.22-1.12S66.05,6.29,63,5.74c-6.2-1.1-12.42-.58-18.63-.55A78.55,78.55,0,0,0,30.93,6.61a58.69,58.69,0,0,0-11.63,3C13,12.12,7.21,15.56,2.81,21a19.08,19.08,0,0,1-1.58,1.79c-.25.24-.43.7-.85.43a.88.88,0,0,1-.19-1.29C.77,21,1.4,20.21,2.05,19.41a37,37,0,0,1,10.24-8.62,54.49,54.49,0,0,1,7.82-3.53A62.21,62.21,0,0,1,30.93,4.42c2.48-.47,5-.43,7.43-.94,4-.84,8-.69,12-.68a69.19,69.19,0,0,1,10.28.25,2.57,2.57,0,0,0,.48,0c3.33-.17,6.56.67,9.82,1.1s6.41.63,9.56,1.17c3.46.6,7,.64,10.41,1.21a50.84,50.84,0,0,0,9.56.36c2.43-.06,4.89,0,7.29-.29C112.35,6,117,5.5,121.25,3.72c2.24-.93,4.7-1.53,6.53-3.32.2-.19.44-.44.73-.33s1-.34,1.22.16-.32.68-.53,1c-2,2.72-4.09,5.39-6,8.15q-3.78,5.39-8,10.38a104.5,104.5,0,0,1-10.31,10.94c-3.49,3.09-7.16,5.94-11.8,6.9-3.37.7-6.88.75-9.78-1.68s-3.8-6.5-2.8-10.25a12.42,12.42,0,0,1,4.87-6.85,12.25,12.25,0,0,1,4.42-2A9.52,9.52,0,0,1,96,17a5.93,5.93,0,0,1,3.75,5.58.7.7,0,0,1-.76.75c-.54,0-.59-.38-.69-.8-.45-1.83-.89-3.76-3.11-4.22-4.63-.95-9.22.51-11.94,4.74a9.78,9.78,0,0,0-.91,8.88A5.92,5.92,0,0,0,87.47,36c5.13.82,9.28-1.24,13.18-4.26A78.23,78.23,0,0,0,113.22,18.9c3.33-4.09,6.43-8.37,9.61-12.58C123.12,5.89,123.62,5.63,123.71,4.93Z"/>
        <path d="M122.06,30.12l-1.52.92a11.57,11.57,0,0,1-4,1.6c-3.17.56-5.07-1.42-4.23-4.48a5,5,0,0,1,3.79-3.65,2.17,2.17,0,0,1,2.38.73,1.94,1.94,0,0,1,0,2.25,3.87,3.87,0,0,1-3.3,2.07c-.37,0-1-.38-1.06.33a1.13,1.13,0,0,0,1,1.17,5.77,5.77,0,0,0,2.74,0,12.5,12.5,0,0,0,6.44-4.16c.23-.28.44-.57.68-.84s.72-.83,1.32-.49.56.83.28,1.35c-.16.3-.21.49.22.58.92.2.94.83.73,1.57a4.19,4.19,0,0,0-.1.71c-.06.47-.22,1.05.32,1.28s1.07-.19,1.38-.67a3.5,3.5,0,0,0,.64-3.27c-.21-.58-.36-1.27.47-1.46s1.15.46,1.2,1.13c.09,1.3.92,1.79,2,2,2,.3,3-.05,3.59-1.3a5.23,5.23,0,0,1,3.47-2.9,2.24,2.24,0,0,1,2.41.67,1.94,1.94,0,0,1,0,2.35,3.83,3.83,0,0,1-3.56,2c-.26,0-.6-.19-.75.16s.08.69.32,1a1.7,1.7,0,0,0,1.19.48,9.3,9.3,0,0,0,6.24-2.07c.46-.32.55-.86.75-1.34A76.1,76.1,0,0,1,157.61,9.37a22.87,22.87,0,0,1,2-2.1,1.1,1.1,0,0,1,1.43-.2,1.17,1.17,0,0,1,.5,1.37,12.29,12.29,0,0,1-1.05,2.8,109,109,0,0,1-10.66,16.21,12.43,12.43,0,0,0-2.43,6.64c-.11,1,.3,1.12,1.09.66,2.78-1.62,4.82-4,7-6.38.34-.37.64-1.27,1.22-.79s-.18,1.05-.55,1.43c-2,2.09-3.89,4.36-6.12,6.25-.24.21-.47.44-.72.63-.87.65-1.8,1.44-2.92.72s-1-1.85-.86-2.94c.08-.71.28-1.41.4-2.12.05-.29.36-.64,0-.86s-.51.13-.75.27a12.77,12.77,0,0,1-3.62,1.55,6.92,6.92,0,0,1-2,.15,2.74,2.74,0,0,1-2.71-2.42c-.12-.86-.5-.84-1.12-.68a5.08,5.08,0,0,1-3.84-.41c-.58-.31-.77-.06-1,.42a6,6,0,0,1-1.72,2.28c-1.23,1-2.31,1-3.29-.27-.36-.45-.57-.44-.93-.09a9.06,9.06,0,0,1-1,.88c-.45.33-.93.7-1.52.33a1.41,1.41,0,0,1-.53-1.49C121.87,31,122,30.71,122.06,30.12Zm35.6-17.52a58.84,58.84,0,0,0-6,10.07A81,81,0,0,0,157.66,12.6Z"/>
        <path d="M62,30.78c-.9,0-1.65.06-2.39,0a2.59,2.59,0,0,1-2.44-3.54,14.7,14.7,0,0,1,2.39-4.8c1.58-2,3.48-1.82,4.72.41.28.52.23,1.45.77,1.51s1.08-.72,1.55-1.19c.68-.67,1.29-1.41,1.93-2.13.38-.43.5-.81-.17-1.11s-1.58-.78-2.39-1.1a2.86,2.86,0,0,0-3.65.86,4.12,4.12,0,0,1-.61.57.52.52,0,0,1-.66.09.49.49,0,0,1-.16-.64c.79-1.62,1.55-3.27,3.17-4.25a2.69,2.69,0,0,1,2.32-.17c1.1.37,2.18.8,3.29,1.09a4.37,4.37,0,0,0,3.9-.53c.26-.19.54-.41.88-.22a.75.75,0,0,1,.24,1,9.08,9.08,0,0,1-2.39,4.28c-2.82,2.64-5.37,5.59-8,8.47a7.78,7.78,0,0,0-.91,2.07c-.32.73-.69,1.44-1,2.18C61,37.09,58,38,54.65,38.54c-.24,0-.51.08-.64-.17s.12-.52.34-.67c1.25-.86,2.54-1.67,3.76-2.57A12.09,12.09,0,0,0,62,30.78Z"/>
        <path d="M46.84,16.32A8.06,8.06,0,0,1,39.09,24a7.63,7.63,0,0,0-3.74.65c-.54.29-.83.09-.87-.51-.06-.94-.49-.59-.9-.25a17.22,17.22,0,0,0-3.16,3.9c-2,3.14-4.17,6.16-7.24,8.4a29.31,29.31,0,0,1-5.28,3.07c-.35.16-.78.47-1.07,0s.11-.76.41-1c.92-.77,1.83-1.55,2.82-2.24a26.24,26.24,0,0,0,7.66-8.31,46.51,46.51,0,0,1,4.16-6.16,13.22,13.22,0,0,1,6.74-4.36,3.55,3.55,0,0,1,2.23.06,2.5,2.5,0,0,0,3.43-1.21,3.56,3.56,0,0,1,.32-.5c.39-.44.5-1.39,1.32-1.15S46.86,15.53,46.84,16.32Z"/>
        <path d="M54.3,12.62c-1,5.18-.81,10.63-1.78,16A22.48,22.48,0,0,1,50,35.39a5.26,5.26,0,0,1-.64.87c-.15.18-.34.39-.61.28s-.2-.4-.13-.62c1.43-4.76,1.56-9.69,1.92-14.58.24-3.29,1.79-6.1,3-9,.1-.25.25-.56.61-.42S54.31,12.26,54.3,12.62Z"/>
        <path d="M70.76,39.16a7,7,0,0,1-3.05,4.2.78.78,0,0,1-.91,0c-1-.73-2-1.47-2.93-2.25-.36-.29-.15-.66.05-1q1.47-2.25,3-4.48a.79.79,0,0,1,.89-.43A5,5,0,0,1,70.76,39.16Z"/>
        <path d="M43.24,27.67a37.49,37.49,0,0,0-2.49,5.2c-.43,1.3-.87,2.5.69,3.41a1.7,1.7,0,0,1,.69,1.59,2.56,2.56,0,0,1-2,2.41c-.86,0-1.46-.77-1.69-2.14a5.45,5.45,0,0,1,.14-2,21.91,21.91,0,0,1,3-7.27A2.26,2.26,0,0,1,43.24,27.67Z"/>
    </symbol>
    <symbol viewBox="0 0 185.13 70.44" id="homeNavDecor">
        <path d="M.27,70.44c-.48-.93,0-1.4.52-1.88L18.42,51.41c1.95-1.9,3.86-3.84,5.85-5.69.85-.79.83-1.3,0-2.12Q12.74,31.83,1.24,20l-.75-.77c-.4-.4-.72-1-.29-1.36s.7.33,1,.6Q13.43,31,25.64,43.54c1.12,1.15,1.12,1.16,0,2.23L1.25,69.55Z"/>
        <path d="M144.45,43.13A5.74,5.74,0,0,0,146.52,42a4.14,4.14,0,0,1,1.69-.84c.49,0,1.77-2.65,1.54-3s-.64-.28-1-.29c-2,0-4.08,0-6.12,0-.44,0-1.14.14-1.17-.5s.66-.67,1.17-.67c2.2,0,4.4-.05,6.6,0a1.64,1.64,0,0,0,1.84-1.15,20.46,20.46,0,0,1,.93-2,.84.84,0,0,1,1.1-.47c.51.18.4.62.33,1,0,.19-.11.38-.17.57-.66,2-.66,2,1.38,2q14.4,0,28.79,0c.61,0,1.62-.33,1.67.61s-1,.75-1.67.87c-1.24.24-2.42-.33-3.67-.32q-13,.06-26,0a2.32,2.32,0,0,0-2.56,1.68c-2.91,7.05-6,14.05-9,21.07a4.45,4.45,0,0,0-.52,1.94A2.48,2.48,0,0,1,141,64a1.19,1.19,0,0,1-1.57.49c-.73-.39-.31-1-.1-1.46q3.87-9.1,7.75-18.2a2.24,2.24,0,0,0,.36-1.33,6.06,6.06,0,0,0-1.65.88c-1.61.85-2.27.74-3.44-.65-.33-.39-.57-.07-.84,0-.9.28-1.78.55-2.5-.38-.34-.43-.64,0-.93.12-1.12.58-2.22,1.2-3.4.12-.42-.38-.55.11-.68.34-.64,1.15-1.25,2.33-1.87,3.49a4.81,4.81,0,0,1-.47.83.94.94,0,0,1-1.2.21c-.51-.23-.35-.65-.17-1,.47-1,1-2,1.43-3,.11-.24.36-.46.11-.88-1,.65-2.35.68-3.34,1.62s-2.34.53-2.61-.93c-.14-.79-.4-.72-.91-.33a10.44,10.44,0,0,1-3.32,1.89c-1.85.55-2.68.1-3.23-1.76a6.92,6.92,0,0,1-3.72,1.11c-1.2-.11-1.57-.67-1.29-1.84A6.54,6.54,0,0,1,115.79,40a2.17,2.17,0,0,1,1.69-.47,1.16,1.16,0,0,1,1.15.88,1,1,0,0,1-.65,1.16c-.6.31-1.24.55-1.86.82s-.93.6-.68,1.08.74.06,1-.14q2.3-1.47,4.54-3a3,3,0,0,1,2.68-.66,1.15,1.15,0,0,1,.94,1.1,1.13,1.13,0,0,1-.59,1.1,1,1,0,0,1-1.3-.23c-.42-.57-.67-.18-.92.12a8,8,0,0,0-1.15,2.09c-.09.21-.21.48,0,.65s.46,0,.67-.09a16.76,16.76,0,0,0,3.34-2.32c1-.87,2.38-1.16,3.48-2,.9-.66,1.92.28,1.95,1.6,0,.28-.35.67.1.84s.57-.22.82-.41A2.61,2.61,0,0,1,133,41.3c.84.06.51-.66.37-1.14-.38-1.34,0-2.14,1.07-2.32s2.06.59,1.71,1.65.79,1.55.87,2.44c0,.24.43,0,.6-.11,1.08-.82,2.53-1,3.55-1.92a1.54,1.54,0,0,1,1-.38,2.75,2.75,0,0,0,2.33-.93.75.75,0,0,1,1.09-.07c.35.28.23.64.09,1A15.22,15.22,0,0,0,144.45,43.13Z"/>
        <path d="M88.61,33a18.35,18.35,0,0,0-.27-2.87c-.25-1.25-.54-2.42-2-2.82a1.75,1.75,0,0,1-.8-.69,1.42,1.42,0,0,1-.12-1.78c.45-.64,1.12-.55,1.74-.36a2.54,2.54,0,0,1,1.55,1.42,1.56,1.56,0,0,0,1.75.91c2.93-.14,3.14-.29,3.82-3.14.34-1.4.65-2.8,1-4.2.14-.63.43-1.24,1.13-1.18s.66.79.73,1.33a2.49,2.49,0,0,1-.2,1.52,18.37,18.37,0,0,0-1.11,3.41c-.32,1.05.08,1.2,1,1,2.57-.6,5.14-1.19,7.71-1.74a30,30,0,0,1,7.82-1c3.88.21,5.54,2.45,4.78,6.28-.82,4.11-2.79,7.72-4.94,11.24a33.84,33.84,0,0,1-15,13.5c-2.78,1.27-5.67,2-8.73,1.12-2.46-.7-3.77-2.51-3.49-4.75,0-.34,0-.84.46-.84s.38.51.39.83a3.42,3.42,0,0,0,2.41,3.25,8.62,8.62,0,0,0,6.32-.16,29.2,29.2,0,0,0,11.16-7.48A40.55,40.55,0,0,0,116,28.23c.8-2.87-.8-4.5-3.7-4.18a125.46,125.46,0,0,0-15.85,3.13A2.17,2.17,0,0,0,94.56,29a178.35,178.35,0,0,1-5.82,18.89c-.2.56-.34,1.26-1.19,1a1.2,1.2,0,0,1-.83-1.52c.5-3,1.14-6,1.43-9.11C88.33,36.54,88.46,34.79,88.61,33Zm.88,7.22s.09,0,.1,0A113.3,113.3,0,0,0,93,28.67c.07-.25,0-.52-.29-.54a6.73,6.73,0,0,0-2.83.33c-.66.24-.21,1.07-.29,1.63a10,10,0,0,0-.1,1.55C89.48,34.49,89.49,37.35,89.49,40.25Z"/>
        <path d="M53,56.33c.95-.64,1.91-1.27,2.85-1.92a13.71,13.71,0,0,0,4-3.94c.21-.33.55-.71.38-1.09s-.71-.08-1.07-.1-.88,0-1.32,0a2.17,2.17,0,0,1-2.12-3A13.11,13.11,0,0,1,58,41.81c1.25-1.6,2.93-1.44,3.91.35.08.14.12.3.21.43.27.42.09,1.24.66,1.3s1.07-.63,1.43-1.15a7.6,7.6,0,0,0,1.07-4.48,37.46,37.46,0,0,1,2.19-12.93,1.12,1.12,0,0,1,.34-.53c-.08,1.36-.14,2.72-.25,4.08-.27,3.34,0,6.74-.7,10a17.31,17.31,0,0,1-4.6,8.93,2.94,2.94,0,0,0-.62,1c-.42,1-.9,2-1.28,3C59,55.12,56.36,56.22,53,56.33Z"/>
        <path d="M168.77,43a6.08,6.08,0,0,0,1.65-1.33c.47-.4,1-.66,1.5-.23s0,.93-.31,1.31A15,15,0,0,1,169.29,45a3.33,3.33,0,0,1-1.4.65c-1.42.27-1.84-.16-1.61-1.6.05-.3.29-.59.05-1-.61.26-.89.87-1.35,1.29-.89.82-1.38.72-2.28-.08s-1.58.12-2.34.38c-.24.08-.41.37-.62.56a1.9,1.9,0,0,1-2,.31c-.63-.24-.65-.87-.63-1.43,0-.88-.24-1-.94-.48a9.36,9.36,0,0,1-3.05,1.63c-1.29.37-2-.26-1.69-1.54s.85-2.82,1.35-4.2c.17-.47.69-.51,1.14-.39a.76.76,0,0,1,.5,1.06c-.28,1-.63,1.95-1,3.07a6.08,6.08,0,0,0,2.44-1.3c.5-.31.93-.77,1.62-.54.43.15.64-.25.87-.5.61-.65,1.32-1.2,2.2-.76a1.75,1.75,0,0,1,.74,2.1,2,2,0,0,0,.07.48c1-.63,2-1.21,2.93-1.82.27-.18.51-.45.85-.35a1.18,1.18,0,0,0,1.33-.54,2.2,2.2,0,0,1,.35-.33c.68-.52,1.42-1.13,2.26-.57s.34,1.44.15,2.19A4.75,4.75,0,0,0,168.77,43Z"/>
        <path d="M99.14,0a16.82,16.82,0,0,1-3.73,4.92C88.93,10.5,81.67,15,74.43,19.46c-1.53.95-3.07,1.88-4.61,2.81a2.68,2.68,0,0,1-1.42.58,10.94,10.94,0,0,1,3.69-4.15c5-3.39,10.1-6.77,15.12-10.19C91.24,5.77,95.29,3.06,99.14,0Z"/>
        <path d="M65.09,60.13c1.2-1.39,2.66-2.37,3.89-3.62,2.27-2.32,2.27-3.27,0-5.57-1.88-1.88-1.88-1.88-.79-4.33.32-.73.67-1.45,1-2.19s.64-.76,1.25-.28A6.9,6.9,0,0,1,73,51.81a19.85,19.85,0,0,1-2.37,5.47c-1,1.54-2.59,1.9-4.13,2.44C66,59.87,65.54,60,65.09,60.13Z"/>
        <path d="M54.8,34.51a67.39,67.39,0,0,1-2.55,11.24,5.51,5.51,0,0,1-3.88,3.87c-1.15.32-2.3.67-3.45,1-.24.07-.59.24-.73-.13s.15-.44.33-.59c1.1-.92,2.18-1.87,3.33-2.74a12.91,12.91,0,0,0,4.95-7.4c.34-1.35.79-2.68,1.23-4C54.17,35.35,54.16,34.87,54.8,34.51Z"/>
    </symbol>
</svg>