<svg xmlns="http://www.w3.org/2000/svg" viewBox="0 0 594.4 419.44">
    <g style="opacity:.5" class="uk-text-muted">
        <path d="M296.71,416.05c-4.39,0-8.8.14-13.18-.27-3.33-.31-6.65-.9-10-1.25a148.86,148.86,0,0,1-18-3.36c-4-.93-7.93-2.18-11.87-3.37-4.83-1.46-9.53-3.25-14.18-5.17-4.21-1.74-8.27-3.82-12.37-5.81a138.35,138.35,0,0,1-15-8.69,152.2,152.2,0,0,1-15-10.94c-3.87-3.28-7.72-6.58-11.37-10.09-2.51-2.4-4.82-5-7.22-7.51-2.24-2.33-4.27-4.85-6.3-7.37-2.62-3.27-5.21-6.57-7.6-10-3-4.26-5.73-8.66-8.26-13.19-2.26-4.05-4.5-8.11-6.41-12.34A173,173,0,0,1,130.18,290,143.72,143.72,0,0,1,126,269.49c-.32-2.66-.88-5.28-1.25-7.93a36.27,36.27,0,0,1-.37-4.65c0-6.56.08-13.12,0-19.68-.1-5.47.76-10.82,1.53-16.2A177.32,177.32,0,0,1,130,200.71c.94-3.55,2.12-7,3.27-10.52,1.36-4.15,3-8.18,4.7-12.18,2.09-4.85,4.42-9.57,6.94-14.22a169.19,169.19,0,0,1,13.46-20.95,177.85,177.85,0,0,1,12.34-14.64,168.74,168.74,0,0,1,14.62-13.81A161.22,161.22,0,0,1,203.52,101a169.35,169.35,0,0,1,15.66-8.82c4.71-2.29,9.44-4.54,14.35-6.35A63.32,63.32,0,0,1,241,83.22c3.43-.82,5.78-3.11,7.77-5.86a25.49,25.49,0,0,0,4.52-14.3,37.62,37.62,0,0,0-3.06-16.49A56.35,56.35,0,0,0,242,33.12a49.2,49.2,0,0,0-5.85-6.48c-.41-.34-1-.8-.61-1.41s.91-.35,1.42-.26a39.44,39.44,0,0,0,4.07.13,51.66,51.66,0,0,1,13.84,2.68,38.07,38.07,0,0,1,12.41,7.78,38.3,38.3,0,0,1,5.49,5.68c.74,1,1.66.81,2-.35,1.18-3.78,2.87-7.36,4.35-11A137.17,137.17,0,0,1,285,17.14,106.22,106.22,0,0,1,295.78.74c.84-1,1.29-1,2.14.12a115.32,115.32,0,0,1,9.59,14.32c2.28,4,4.13,8.21,6,12.41,1.71,3.84,3.22,7.75,4.78,11.65a14.29,14.29,0,0,1,.45,1.49c.13.47.28.94.83,1.06a1.29,1.29,0,0,0,1.35-.59,48.27,48.27,0,0,1,10.59-9.63,30.14,30.14,0,0,1,11.33-5c4.14-.88,8.3-1.74,12.58-1.52a10.28,10.28,0,0,0,1.54-.19,1.09,1.09,0,0,1,1.17.43c.29.52-.16.82-.48,1.09a53.31,53.31,0,0,0-7.26,8.26,49.56,49.56,0,0,0-9.05,17.71,31.06,31.06,0,0,0-.81,5.33c-.46,6-.27,11.87,2.75,17.26,1.65,3,3.66,5.63,6.74,7.28a21.23,21.23,0,0,0,3.15,1.15,176.08,176.08,0,0,1,17.54,7.08,183.92,183.92,0,0,1,18.4,10,146.63,146.63,0,0,1,12.5,8.68A197,197,0,0,1,418,123.39,169.89,169.89,0,0,1,430.45,137a150.82,150.82,0,0,1,11.28,15.34c3.24,5.09,6.28,10.3,9,15.67a177.59,177.59,0,0,1,9.43,22.16,152.94,152.94,0,0,1,5.09,18.47C467,216.25,468,224,469,231.78a11.39,11.39,0,0,1,0,1.43c0,7.36,0,14.73,0,22.08,0,4.91-1,9.69-1.63,14.52-.37,2.77-.94,5.51-1.43,8.26-.74,4.13-1.79,8.2-2.85,12.26a155,155,0,0,1-8.9,24.66,149.33,149.33,0,0,1-8.5,16.37,187.75,187.75,0,0,1-12.18,17.93,182.31,182.31,0,0,1-18.4,20.18,158.56,158.56,0,0,1-14.19,12,173.3,173.3,0,0,1-15.14,10.11c-3.47,2.06-7,3.95-10.55,5.91-2.43,1.35-5.07,2.33-7.6,3.52a137.18,137.18,0,0,1-15.61,6.11c-3.41,1.13-6.88,2.09-10.34,3.07-5,1.42-10.12,2.36-15.2,3.39s-10.06,1.34-15.08,2S301.63,416,296.71,416.05Zm-.87-12.73a144.29,144.29,0,0,0,17.15-.67,188.27,188.27,0,0,0,19.76-3.08A142.59,142.59,0,0,0,353.9,393,163.45,163.45,0,0,0,397,368.32c4.52-3.75,8.85-7.7,13.08-11.76,2.83-2.71,5.3-5.76,8-8.62,3-3.25,5.65-6.82,8.37-10.31a109.27,109.27,0,0,0,6.72-10.19,163.4,163.4,0,0,0,9.95-19,194.74,194.74,0,0,0,7.27-19.15,115.58,115.58,0,0,0,3.55-14.78c1-5.38,1.49-10.84,2-16.29.52-5.74.45-11.48.43-17.22a141.27,141.27,0,0,0-1-14.82c-.42-3.81-.82-7.62-1.55-11.39a136,136,0,0,0-3.5-14.19c-1.61-5.24-3.52-10.37-5.64-15.42a163.38,163.38,0,0,0-8.59-17.53c-2.37-4.13-4.74-8.26-7.49-12.13a124.48,124.48,0,0,0-8.48-11c-2.52-2.83-4.93-5.77-7.56-8.49a180.81,180.81,0,0,0-14.94-13.82,142.41,142.41,0,0,0-17.74-12.45c-4.94-3-10-5.61-15.26-8.06a163.71,163.71,0,0,0-24.41-9.24,3.91,3.91,0,0,1-2.33-1.58A47,47,0,0,1,334,83.6a42.07,42.07,0,0,1-3.43-14.27,45.39,45.39,0,0,1,2.84-18.48,52.36,52.36,0,0,1,8.33-14.76c.3-.38.69-.75.36-1.26s-.85-.4-1.3-.2c-2.51,1.14-5.17,1.93-7.46,3.54-5.05,3.55-8.29,8.58-11.24,13.82a46,46,0,0,0-3.38,7c-.12.37-.32.81-.81.77s-.7-.51-.76-.95a32.75,32.75,0,0,0-1.51-5.42c-1.79-5.77-3.71-11.5-6-17.1a71.26,71.26,0,0,0-6.17-12.55,63.45,63.45,0,0,0-5.74-7.51c-.8-.9-1.4-.86-2.19.05a60.07,60.07,0,0,0-8,11.63,124.7,124.7,0,0,0-7.7,19.36c-1.24,3.84-2.76,7.6-3.45,11.6-.07.4-.23.82-.7.88s-.84-.4-1-.85a52,52,0,0,0-3.41-7c-3.11-5.65-6.65-10.93-12.29-14.43a43,43,0,0,0-6.56-2.89.75.75,0,0,0-1,.24.83.83,0,0,0,0,.91,3.55,3.55,0,0,0,.55.78,26.85,26.85,0,0,1,3.61,5.07A52,52,0,0,1,262,57.2a40.65,40.65,0,0,1,.74,14.87,51.14,51.14,0,0,1-2.64,10.18,39.45,39.45,0,0,1-3.88,8.07,4.74,4.74,0,0,1-2.68,2.1,149.94,149.94,0,0,0-18.3,6.46,176.12,176.12,0,0,0-28,14.94,155.29,155.29,0,0,0-22.69,18.53c-3.33,3.23-6.43,6.67-9.49,10.15a137.21,137.21,0,0,0-13.9,18.73,162.92,162.92,0,0,0-8.89,16,171.77,171.77,0,0,0-9.65,25.14,55.53,55.53,0,0,0-2,7.14c-.77,5-2,10-2.41,15.14-.37,4.57-.92,9.14-1,13.73-.09,3.9-.2,7.81-.06,11.72.09,2.36.17,4.72.35,7.06.5,6.29,1.19,12.55,2.29,18.77a131.28,131.28,0,0,0,6,21.21A143,143,0,0,0,153,314.25c2,4,4.09,8,6.39,11.79a144.83,144.83,0,0,0,11.12,16.17c3.26,4.06,6.73,7.92,10.26,11.71a161.06,161.06,0,0,0,14.09,13.17A148.66,148.66,0,0,0,218.18,383a178,178,0,0,0,20.92,9.85c3.36,1.34,6.81,2.51,10.28,3.6a121.46,121.46,0,0,0,14.82,3.89C274.91,402.28,285.68,403.67,295.84,403.32Z"/>
        <path d="M235.27,244.25c.16-3-.24-6.72.24-10.38.27-2.06.86-3.83,2.94-4.72a2,2,0,0,1,.66-.24c2.64,0,5.29-.37,7.89.19a139.47,139.47,0,0,1,17.27,5.33,30,30,0,0,1,7.49,3.41,6.83,6.83,0,0,1,3.1,5.78c0,1.91.16,3.82-.77,5.63-1.34,2.61-3.79,3.69-6.24,4.74-3.75,1.59-7.64,2.82-11.52,4-5,1.59-10.08,3.35-15.54,3-2.95-.19-4.62-1.42-5.14-4.32a19,19,0,0,1-.38-3.92c0-1.32,0-2.64,0-4Zm5,.54c.18,3.06-.29,6.15.49,9.19.64,2.49,2.34,4.16,4.5,4.37a6.19,6.19,0,0,0,6-3.38,11.69,11.69,0,0,0,1-5c0-3.36,0-6.71,0-10.07a13.34,13.34,0,0,0-.66-4.25,6.14,6.14,0,0,0-4.51-4.09,4.74,4.74,0,0,0-5.21,1.8,6.67,6.67,0,0,0-1.14,2.48C240,238.79,240.48,241.81,240.28,244.79Z"/>
        <path d="M357.67,239.32c0,4.85,0,8.72,0,12.58a44.77,44.77,0,0,1-.31,4.78c-.26,2.65-2.11,4.16-4.86,4.34-4.61.3-8.94-.83-13.28-2.17-4.95-1.54-9.88-3.18-14.69-5.11-2.88-1.16-5.54-2.72-6.23-6.1-.58-2.92-.58-5.83,1.37-8.35a11.66,11.66,0,0,1,5.15-3.35A142.1,142.1,0,0,1,346,229.1a21,21,0,0,1,7.87-.1c2,.3,3.29,1.71,3.54,4.12A57,57,0,0,1,357.67,239.32Zm-5,5.6c-.05-2.83,0-5.54-.23-8.25-.42-4.17-4.18-6.43-7.85-4.63-2.42,1.18-3.36,3.25-3.69,5.77-.51,4,0,8-.18,11.93a9.85,9.85,0,0,0,1.26,5.54,5.5,5.5,0,0,0,10.49-2.46C352.61,250.14,352.58,247.47,352.64,244.92Z"/>
        <path d="M403.51,245.42c-.16,3.13.22,6.93-.22,10.72a5.08,5.08,0,0,1-5.2,4.87,30.4,30.4,0,0,1-9.94-1.23,186.77,186.77,0,0,1-18.59-6.36,13.14,13.14,0,0,1-3.63-2.32,5.71,5.71,0,0,1-1.85-4.87c.08-1.19,0-2.38,0-3.58a6.19,6.19,0,0,1,3.09-5,26.06,26.06,0,0,1,6.08-2.82,154.12,154.12,0,0,1,17.94-5.63,29.68,29.68,0,0,1,8.36-.26c1.86.1,3.43,2.13,3.68,4.18a36.63,36.63,0,0,1,.26,5C403.5,240.36,403.51,242.56,403.51,245.42Zm-5,0c0-2.73,0-4.93,0-7.13a8.24,8.24,0,0,0-1.51-4.84,4.63,4.63,0,0,0-4.54-2.09c-4.06.53-5.72,3.42-5.89,6.87-.22,4.3-.13,8.63,0,12.94A7.41,7.41,0,0,0,389,257c2.34,2,5.93,1.93,7.72-.35a7.41,7.41,0,0,0,1.55-3.33C398.73,250.49,398.33,247.69,398.47,245.44Z"/>
        <path d="M196.93,228.85c4.37-.23,8.44,1.16,12.49,2.49,4.28,1.41,8.62,2.67,12.76,4.48a15.72,15.72,0,0,1,4.9,2.94A6.14,6.14,0,0,1,229,243a20.55,20.55,0,0,1-.25,5.25,5.49,5.49,0,0,1-2.53,3.49c-3.28,2.24-7,3.41-10.73,4.65-2.39.8-4.77,1.59-7.18,2.33-3.89,1.19-7.76,2.3-11.92,2.32-5.09,0-6.77-1.92-6.9-6.64-.18-6.31-.07-12.62,0-18.94a11,11,0,0,1,.49-3.3,4.55,4.55,0,0,1,4.57-3.33Zm-2.46,16.09c0,1,0,2.08,0,3.12A18.7,18.7,0,0,0,195,254c.89,2.86,2.44,4.5,5.19,4.4a6.73,6.73,0,0,0,6.25-6.28,101.32,101.32,0,0,0,.19-12.32,10.72,10.72,0,0,0-1.25-5.42c-1.6-2.75-6.44-4.41-9-1.34a6.84,6.84,0,0,0-1.5,3.08A45.8,45.8,0,0,0,194.47,244.94Z"/>
        <path d="M290.86,93.69c4,.51,8,0,12,.07a34.41,34.41,0,0,1,5.36.45c3.24.52,4.33,2.52,4.6,5.4a18.06,18.06,0,0,1-.95,6.61c-1.34,4.73-2.69,9.46-4.32,14.09-1.13,3.21-2.09,6.53-4,9.43a6.37,6.37,0,0,1-5.35,3.1c-1.24,0-2.48,0-3.72,0a6.15,6.15,0,0,1-5.25-2.85,35.12,35.12,0,0,1-4.17-9.39c-1.51-4.51-2.89-9.06-4.26-13.61a21.69,21.69,0,0,1-1-7.8c.23-3.14,2.17-4.93,5.66-5.19A37.51,37.51,0,0,1,290.86,93.69Zm5.48,5.08h-1.92c-2.83.09-5.69,0-8.44.73a5,5,0,0,0-2.72,7.81c1.93,3,5.06,3.28,8.13,3.48,2.46.16,5-.16,7.41.06a15.67,15.67,0,0,0,8.13-1.5c3.09-1.42,4.33-6.22,1.36-8.74a6.76,6.76,0,0,0-4.18-1.56A61.1,61.1,0,0,0,296.34,98.77Z"/>
        <path d="M297.1,395.9c-4.07,0-8,.08-11.89-.24-3.22-.27-5.32-2.91-5-6.65.45-5.1,2.31-9.85,3.77-14.69,1.09-3.59,2.27-7.15,3.65-10.64a23.12,23.12,0,0,1,2.19-4.11,5.36,5.36,0,0,1,3.85-2.42,22.37,22.37,0,0,1,6.33,0c2.78.42,4.2,2.52,5.24,4.82,2.47,5.51,4.07,11.34,5.85,17.1a62.6,62.6,0,0,1,1.94,7,18.75,18.75,0,0,1,.18,4.9c-.22,2.76-2.2,4.42-5,4.66C304.45,396,300.69,395.83,297.1,395.9Zm-.28-5c1.61,0,3.09-.06,4.57,0a15.25,15.25,0,0,0,5.22-.51c1.79-.54,3.37-1.51,3.79-3.57a5.37,5.37,0,0,0-1.85-5.69,9.51,9.51,0,0,0-5.88-2c-2.26-.11-4.53-.07-6.8-.19-3.14-.16-6.31-.17-9.26,1.26a5.83,5.83,0,0,0-3.52,6.29c.38,2.18,2.49,3.79,5.24,4.19S294.08,390.72,296.82,390.88Z"/>
        <path d="M301,305.65c-3.47,0-6.94,0-10.4,0a42,42,0,0,1-4.9-.31c-3.81-.39-6-3.88-5.21-8.06a105.65,105.65,0,0,1,3.77-13.87,100.63,100.63,0,0,1,4.84-12.75,7.32,7.32,0,0,1,7.1-4.39,11.81,11.81,0,0,1,4.49.55c2.41,1,3.64,3,4.55,5.17a186.92,186.92,0,0,1,6.7,19.73,24.85,24.85,0,0,1,1.1,7.91c-.1,3.34-2,5.48-5.34,5.75-1.11.09-2.22.2-3.34.24S302.13,305.65,301,305.65Zm-4.07-17c-3.1.09-6.09-.15-9.07.48-4.14.89-5.79,5.33-4.66,7.81s3.29,3.18,5.66,3.45a105.14,105.14,0,0,0,13.52.23c2.25,0,4.55-.23,6.48-1.74s2.46-5,1.05-6.91a7.63,7.63,0,0,0-5.21-3.07A73,73,0,0,0,296.94,288.6Z"/>
        <path d="M448.87,245v9.72c0,4.09-2.07,6.21-6.18,6.28a30.36,30.36,0,0,1-9.54-1.6c-4.16-1.3-8.33-2.55-12.43-4-3.08-1.09-6.27-2-8.87-4.14a6,6,0,0,1-2.1-3.38,14.77,14.77,0,0,1-.15-5.38c.38-2.75,2.34-4.36,4.7-5.5,5.53-2.68,11.44-4.31,17.26-6.18a33,33,0,0,1,11.51-2c4.11.18,5.62,2.26,5.77,5.75S448.87,241.52,448.87,245Zm-5,.16c0-2.12,0-4.24,0-6.36a12.81,12.81,0,0,0-.46-3.55c-1.1-3.92-4.22-4.94-7.71-3.39-3,1.33-3.68,4.2-3.8,7.11-.15,3.87-.08,7.75,0,11.63a8.74,8.74,0,0,0,2.32,6.23,5.39,5.39,0,0,0,8.42-.52,7.61,7.61,0,0,0,1.23-4.32C443.86,249.71,443.83,247.44,443.83,245.16Z"/>
        <path d="M370.17,225.49c-2.35-.06-4.72.25-7-.6a5.8,5.8,0,0,1-3.31-3.1c-.46-1-.79-2-1.26-3-1.5-3.05-.28-5.53,1.68-7.77,4-4.59,8.91-8.21,13.57-12.08a67.13,67.13,0,0,1,7.14-5.43,10.62,10.62,0,0,1,4.84-1.61c2.59-.21,3.77.27,5.64,4.07,2.12,4.34,3.83,8.87,5.83,13.27a36,36,0,0,1,2.45,7.11,3.63,3.63,0,0,1-1.13,3.81,11.42,11.42,0,0,1-4.36,2.62,54.55,54.55,0,0,1-11.9,2C378.29,225.06,374.25,225.58,370.17,225.49Zm24-8.12a9.33,9.33,0,0,0-.57-3.07c-1.3-4.38-3.46-8.41-5.13-12.64a12,12,0,0,0-2.35-3.74c-1.17-1.23-2.54-2.54-4.34-2.06a6.94,6.94,0,0,0-4.94,4.16c-.69,1.68-.17,3.22.25,4.79.74,2.83,2.23,5.37,3.18,8.13a18.76,18.76,0,0,0,3.43,6.41c3,3.41,5.33,4,8.86,1.29A3.58,3.58,0,0,0,394.15,217.37Z"/>
        <path d="M402.1,194.05c-4,.17-6.1-2.24-7.64-5.47-.09-.18-.12-.39-.22-.56-1.69-2.76-.9-5.26.75-7.71a54.45,54.45,0,0,1,4.57-5.69c2.34-2.62,4.66-5.27,7.12-7.77a69,69,0,0,1,6.61-6.41,11.28,11.28,0,0,1,5.62-2.51,3.16,3.16,0,0,1,2.66.81,12.67,12.67,0,0,1,2.64,2.93c3.19,5.67,6.77,11.11,9.82,16.86a2,2,0,0,1,.1.21c1.89,4,.63,6.9-3.4,8.8-4.25,2-8.76,3-13.28,4-3.82.86-7.7,1.41-11.54,2.17A37,37,0,0,1,402.1,194.05Zm27.33-10.64a8.78,8.78,0,0,0-1-4.25c-2-4.16-4.52-8-6.81-12a10.45,10.45,0,0,0-4.85-4.5,2.66,2.66,0,0,0-2.09-.1c-4.08,1.56-5.6,4.46-4.05,8.55A64.25,64.25,0,0,0,418,184.36a8.4,8.4,0,0,0,4.73,3.51C425.74,188.68,429.43,186,429.43,183.41Z"/>
        <path d="M291.25,184.21h13.41a16.07,16.07,0,0,1,3.79.49c2.44.58,3.64,2.3,3.9,4.79.35,3.44-.51,6.65-1.45,9.87-1.66,5.72-3.51,11.37-5.64,16.93a16.58,16.58,0,0,1-3.06,5.23,6.12,6.12,0,0,1-4.08,1.79,5.72,5.72,0,0,1-.72,0c-6.22,0-8.18-1.41-10.37-7.27-2.39-6.4-4.47-12.89-6.38-19.44a19.69,19.69,0,0,1-.7-7.24,5,5,0,0,1,5-4.9,23.05,23.05,0,0,1,3.21-.28C289.17,184.25,290.21,184.21,291.25,184.21Zm5.07,17c1.55,0,3.11,0,4.67,0a13,13,0,0,0,5.57-1.18,6.09,6.09,0,0,0,3.57-6.1c-.18-1.93-1.91-3.6-4.35-4.2a19.71,19.71,0,0,0-4.39-.5c-3.43-.08-6.87-.1-10.3,0a18,18,0,0,0-5.2.66,4.9,4.9,0,0,0-3.47,6c.52,2.56,2.23,3.93,4.62,4.66C290.09,201.52,293.21,201.2,296.32,201.25Z"/>
        <path d="M206.66,298a4.19,4.19,0,0,1-3.89-2.1c-1.77-2.46-2.65-5.36-3.87-8.09-1.47-3.28-2.86-6.59-4.27-9.89a24.71,24.71,0,0,1-1.41-4.7,4,4,0,0,1,1.63-4.09c2.81-2.31,6.22-3.06,9.69-3.48,4.19-.51,8.41-.9,12.62-1.15,3.82-.24,7.64-.62,11.47.08a6,6,0,0,1,4.59,3.46,33.21,33.21,0,0,1,1.46,3.66c1.09,3-.39,5.32-2.28,7.47-3.63,4.13-8.08,7.35-12.24,10.89a52.27,52.27,0,0,1-8.31,6.26C210.26,297.16,208.63,298.08,206.66,298Zm-7.89-25.61a9.2,9.2,0,0,0,.58,2.94A110.92,110.92,0,0,0,204,286.72a15.71,15.71,0,0,0,3.86,6,3.87,3.87,0,0,0,4.18,1,7.74,7.74,0,0,0,2.95-2,5.27,5.27,0,0,0,1.54-4.49,22.47,22.47,0,0,0-1.13-4.16c-.86-2.28-2-4.46-2.83-6.73-1.09-2.79-2.32-5.54-4.67-7.58a5,5,0,0,0-5.59-.82C200.36,268.78,198.87,270,198.77,272.35Z"/>
        <path d="M191.2,194.22c-3.95-.05-7.17-.9-10.44-1.44A122.53,122.53,0,0,1,167,189.71c-2.91-.83-5.76-2-7.9-4.3a4.07,4.07,0,0,1-1.06-4.66,60.77,60.77,0,0,1,4.56-8.68c1.2-2.07,2.4-4.13,3.63-6.18a54.35,54.35,0,0,1,2.9-4.67c2.81-3.77,4.71-4.1,8.88-1.54,3.39,2.08,6,5.13,8.67,8,1.71,1.84,3.39,3.72,5.13,5.53a60.36,60.36,0,0,1,6.16,7.47c2,2.9,2,5.9-.17,9.17a13.82,13.82,0,0,1-2.15,2.86A7,7,0,0,1,191.2,194.22Zm-8.27-25.83c-.22-2.74-1.91-4.25-4.15-5.34a3.18,3.18,0,0,0-2.88,0,11.24,11.24,0,0,0-4.89,4.76c-1.29,2.11-2.54,4.24-3.78,6.38-1.4,2.4-2.95,4.75-3.63,7.51a5.32,5.32,0,0,0,6.24,6.43c2.57-.51,4.09-2.43,5.51-4.34,2.4-3.25,4-7,6.15-10.4A11.36,11.36,0,0,0,182.93,168.39Z"/>
        <path d="M222.44,225.73c-5.47-.2-10.91-.51-16.35-1.1a55,55,0,0,1-7.37-1.51,10,10,0,0,1-5.35-3.45,2.93,2.93,0,0,1-.64-2.58,32.25,32.25,0,0,1,2.62-7.68c2-4.11,3.58-8.37,5.42-12.54a14.71,14.71,0,0,1,2.16-3.43,3.64,3.64,0,0,1,2.71-1.32c2.51-.21,4.59.83,6.6,2.11a76,76,0,0,1,8.44,6.49c3.08,2.59,6.12,5.23,9.17,7.88a15.79,15.79,0,0,1,4.45,5.84,4.49,4.49,0,0,1,.16,2.95c-.68,2.28-1.31,4.61-3,6.44-1.57,1.65-3.62,1.72-5.64,1.88C224.68,225.8,223.55,225.73,222.44,225.73Zm-6.37-23.61a5,5,0,0,0-1.71-4.07c-2.32-1.92-4.05-2.72-6.14-1.36a8,8,0,0,0-2.34,2.2c-1.95,2.82-3,6.09-4.41,9.16a42,42,0,0,0-2.94,8.23,4.2,4.2,0,0,0,1.79,4.82c2.41,1.61,4.06,2.3,6.46.47a14,14,0,0,0,3.93-4.77c1.51-2.87,2.3-6,3.8-8.92A14.53,14.53,0,0,0,216.07,202.12Z"/>
        <path d="M309.36,264.88a9.3,9.3,0,0,1,3.89-6.23A21,21,0,0,1,316,257a5.47,5.47,0,0,1,4.31,0,66.47,66.47,0,0,1,10.45,4.49c3.51,1.83,7.06,3.56,10.55,5.42a21.32,21.32,0,0,1,7.18,5.69c1.46,1.93,1.6,3.44.25,5.47a23.44,23.44,0,0,1-2.64,3.25c-3.45,3.5-6.86,7-10.32,10.52a31,31,0,0,1-3.94,3.48c-2,1.43-3.43,1.48-5.5.11a21.07,21.07,0,0,1-6.52-7.4q-4.67-8.16-8.59-16.72A36.21,36.21,0,0,1,309.36,264.88Zm34.87,8.63c0-2.17-2.34-4.88-4.7-5.29-3.34-.57-5.64,1.42-7.7,3.55s-4.12,4.11-6.18,6.17a14.52,14.52,0,0,0-4.13,6.19c-.7,2.46.1,4.3,2.78,6.27,1.69,1.25,2.93,1.16,5.16-.25a44.63,44.63,0,0,0,6.83-6c1.26-1.22,2.34-2.64,3.66-3.77a19.47,19.47,0,0,0,3.28-3.94A4.59,4.59,0,0,0,344.23,273.51Z"/>
        <path d="M317.63,232.78a11.3,11.3,0,0,1-7.18-4.81,6.9,6.9,0,0,1-.72-6.27,70.76,70.76,0,0,1,4.6-10.38c1.76-3.41,3.54-6.8,5.43-10.14a19.58,19.58,0,0,1,7.2-7.69,3.28,3.28,0,0,1,3.62-.07,30.65,30.65,0,0,1,6.36,5.39c1.73,1.82,3.48,3.63,5.26,5.4a63.91,63.91,0,0,1,5.59,5.92c2.57,3.28,2.36,5.17-1.22,8.5-3.14,2.92-7,4.63-10.82,6.54-3.13,1.58-6.24,3.21-9.42,4.69a30.5,30.5,0,0,1-6.93,2.61C318.89,232.57,318.38,232.65,317.63,232.78Zm9.45-34.64c-4.25,0-7.08,4.48-5.54,7.9a21.42,21.42,0,0,0,5,6.49c2.59,2.49,4.87,5.34,7.88,7.35,3.82,2.52,7.5,1,9.39-2.55a2.74,2.74,0,0,0,.17-2.09,12.86,12.86,0,0,0-3.55-5.61c-3.09-3.13-6.11-6.33-9.45-9.2C329.73,199.31,328.34,198.27,327.08,198.14Z"/>
        <path d="M296.55,138.84c3,.16,6.43,0,9.83.18,5,.28,6.54,3.47,6.09,7.7-.47,4.47-2,8.7-3.32,13-1.16,3.61-2.32,7.22-3.68,10.76-1,2.46-2,4.9-4.26,6.52-.13.09-.24.21-.37.3-3.31,2.15-10,.52-11.92-2.83a55,55,0,0,1-4.31-10.49c-1.39-4.17-2.72-8.35-3.93-12.58a21,21,0,0,1-.74-7.23,5.32,5.32,0,0,1,5.25-5C288.86,138.77,292.53,138.91,296.55,138.84Zm-.86,5a62.55,62.55,0,0,0-7.5.25c-1.91.21-3.73.69-5,2.28-1.73,2.21-1,6,1.47,7.75a12.28,12.28,0,0,0,6.84,1.8c1.91.07,3.85-.24,5.72,0a22.77,22.77,0,0,0,6.9-.39,7.6,7.6,0,0,0,4.72-2.59,5.15,5.15,0,0,0-1.42-8,9.19,9.19,0,0,0-3.1-.87A75.78,75.78,0,0,0,295.69,143.89Z"/>
        <path d="M369.93,263.86c5.62.47,11.29.66,16.92,1.34a36.21,36.21,0,0,1,8.76,1.88,9.75,9.75,0,0,1,3.23,2c1.77,1.66,1.7,3.57,1,5.62a70.31,70.31,0,0,1-2.88,7.1c-1.82,3.95-3.49,8-5.23,12a10.55,10.55,0,0,1-.76,1.5,5,5,0,0,1-6.11,2.23,19.75,19.75,0,0,1-7.14-4.06c-3.93-3.26-7.89-6.49-11.79-9.79a41,41,0,0,1-6.26-6.44,5.75,5.75,0,0,1-1.06-5.21,22.69,22.69,0,0,1,1.48-4,6.57,6.57,0,0,1,5.61-3.76C367.11,264.05,368.51,264,369.93,263.86Zm19.12,3.4a4.6,4.6,0,0,0-2.81.88,12.76,12.76,0,0,0-4.31,5.63c-.86,2-1.64,4-2.49,6a41.17,41.17,0,0,0-2.28,6.39c-1,3.87,1.51,6.13,4.29,7.43a3.14,3.14,0,0,0,3.18-.34,11,11,0,0,0,4.12-5,136.92,136.92,0,0,0,5.34-13.2,7.84,7.84,0,0,0,.45-3.42C394.25,269.29,391.63,267.29,389.05,267.26Z"/>
        <path d="M283.55,224.69a7.34,7.34,0,0,1-2,4.7,12.59,12.59,0,0,1-4.85,3.43,4.55,4.55,0,0,1-2.58.23c-3.66-.7-6.94-2.36-10.23-4-4.26-2.11-8.51-4.22-12.69-6.48a18.71,18.71,0,0,1-7-5.85A4,4,0,0,1,244,212a27.73,27.73,0,0,1,4.1-5c2.95-3,6-5.9,8.87-9a17.62,17.62,0,0,1,5.66-4.35,3,3,0,0,1,2.55,0c2.86,1.12,4.73,3.41,6.38,5.78a91.14,91.14,0,0,1,6.24,10.92c1.28,2.53,2.49,5.09,3.71,7.65A23.13,23.13,0,0,1,283.55,224.69Zm-11.8-20.27c0-2.69-2.62-5.66-5.1-6a1.74,1.74,0,0,0-.82.07,13.32,13.32,0,0,0-4.14,2.36c-3.1,2.81-6,5.82-9,8.75a17.91,17.91,0,0,0-3.18,4.19c-.7,1.29-1.3,2.8-.39,4.2,2.65,4,6.27,4.79,10.22,1.54,2.07-1.7,3.82-3.75,5.81-5.53a26.54,26.54,0,0,0,6-7.36A5.18,5.18,0,0,0,271.75,204.42Z"/>
        <path d="M275.84,316.94c-.07,4.27-.43,8.52-.88,12.77a87.4,87.4,0,0,1-.84,8.7c-.48,2.34-1,4.7-2.49,6.67s-3,2.37-5.36,1.77c-4.06-1-7.78-2.89-11.65-4.39-2.76-1.07-5.54-2.06-8.22-3.34a13.45,13.45,0,0,1-2.55-1.55,4.18,4.18,0,0,1-1.68-4.52c.74-3.47,2.62-6.3,4.68-9.07a159.32,159.32,0,0,1,10.48-12.3,32.68,32.68,0,0,1,5.27-4.83,6.17,6.17,0,0,1,6.12-.82c2.72,1,5.44,2.09,6.58,5.1C276,313,275.83,315,275.84,316.94Zm-23.79,7.46c-2.26-.46-4,.71-5.18,2.71-.77,1.27-1.52,2.67-.76,4.18a7.86,7.86,0,0,0,2.9,3.11,41.49,41.49,0,0,0,8.4,3.74c3.07,1.08,5.9,2.87,9.25,3.21,2,.2,3.7-.28,4.77-2s1.88-3.48.73-5.51a11.62,11.62,0,0,0-6.31-5.05c-2.49-.95-5-2-7.43-3A13.28,13.28,0,0,0,252.05,324.4Z"/>
        <path d="M144.31,244.82V234.38c0-3.49,2-5.39,5.5-5.56,4.88-.23,9.4,1.25,13.92,2.67a127.41,127.41,0,0,1,12.32,4.31c1.17.5,2.29,1.14,3.47,1.63,5.19,2.15,5.07,10.26,2.24,13.29a13,13,0,0,1-4.89,3,172,172,0,0,1-20.4,6.6,16.85,16.85,0,0,1-8.29.39c-2.63-.65-3.76-2.26-3.84-4.94C144.23,252.09,144.31,248.45,144.31,244.82Zm16.8.67c0-2.49,0-4.49,0-6.48a9.52,9.52,0,0,0-1.64-5.42c-1.52-2.19-3.76-2.66-6.16-2.27-1.84.29-2.91,1.67-3.55,3.38a13.57,13.57,0,0,0-.61,4.72c0,4.67-.2,9.34.19,14a5.41,5.41,0,0,0,6.46,5,6.45,6.45,0,0,0,5.06-5.44C161.34,250.35,161,247.67,161.11,245.49Z"/>
        <path d="M187.56,276.87a7.21,7.21,0,0,1-2.44,5.22c-3.46,3.22-7.61,5.4-11.56,7.88-3.08,1.93-6.21,3.77-9.37,5.56a21.27,21.27,0,0,1-6.27,2.32,5.14,5.14,0,0,1-5.93-3.36,38.5,38.5,0,0,1-1.42-4.58c-1.29-5.16-2.63-10.3-3.92-15.46-1.35-5.36.51-7.55,6.38-8.56,4.86-.83,9.78-.26,14.69.08a108.28,108.28,0,0,1,13.19,1.53,13.13,13.13,0,0,1,2,.55,5.79,5.79,0,0,1,3.5,3.41A28.73,28.73,0,0,1,187.56,276.87Zm-20.44,10.7c0-.17-.05-.65-.13-1.12a118.49,118.49,0,0,0-2.82-11.88,14.36,14.36,0,0,0-2.82-5.49,5.63,5.63,0,0,0-6.58-1.34,5,5,0,0,0-3,4.79,33.5,33.5,0,0,0,.9,5.42c.79,3,1.53,6,2.27,8.94a12.65,12.65,0,0,0,3.31,6.42,3.37,3.37,0,0,0,2.78,1.18C164.59,293.85,167.08,292.16,167.12,287.57Z"/>
        <path d="M250.88,192.83a4.21,4.21,0,0,1-.86,3.06,14.24,14.24,0,0,1-5.68,5c-2,.9-3.94.1-5.8-.57a121.72,121.72,0,0,1-12.06-5.56q-5.07-2.47-9.92-5.33a12.71,12.71,0,0,1-5.53-5.79,2.92,2.92,0,0,1,.05-2.74,17.79,17.79,0,0,1,3.24-4.42c3-3.12,6.24-6.07,9.12-9.34a42.63,42.63,0,0,1,4.91-4.39,5,5,0,0,1,6.08-.07,25.35,25.35,0,0,1,6,7,155.28,155.28,0,0,1,8.18,15.73A19.1,19.1,0,0,1,250.88,192.83Zm-28.7-3.09a4,4,0,0,0,2.68-.84,53.52,53.52,0,0,0,12.95-12.66,5.61,5.61,0,0,0,.7-6.33c-1-1.91-3.7-4.16-6.24-2.87a15,15,0,0,0-3.79,2.51q-4.57,4.47-9,9a13.39,13.39,0,0,0-2.94,4.34,3.37,3.37,0,0,0-.3,2.21A6.92,6.92,0,0,0,222.18,189.74Z"/>
        <path d="M283.77,265.4a23.32,23.32,0,0,1-2,6.62A152.79,152.79,0,0,1,273,289a20.83,20.83,0,0,1-6.52,7.07,4.1,4.1,0,0,1-4.92-.22,39.17,39.17,0,0,1-5.45-5c-2.79-2.92-5.72-5.7-8.54-8.59a21.25,21.25,0,0,1-3.46-4.42,3.36,3.36,0,0,1-.16-3.41,14.43,14.43,0,0,1,4.73-5.15c2.67-1.94,5.76-3.12,8.62-4.69s6-3,9-4.55a41.48,41.48,0,0,1,7.15-2.73,6.08,6.08,0,0,1,4.84.61,10.77,10.77,0,0,1,5.12,5.48A4.72,4.72,0,0,1,283.77,265.4ZM249,273.74a6.29,6.29,0,0,0,1.36,3.63,47.34,47.34,0,0,0,5.42,5.9,49.64,49.64,0,0,0,7.72,7.12c2.68,1.81,4.07,1.78,6.5-.36a5.17,5.17,0,0,0,1.53-6.17,15.21,15.21,0,0,0-3.22-4.86c-2.23-2.4-4.74-4.51-7-6.92a12.88,12.88,0,0,0-4.69-3.26C253.49,267.57,249,270.47,249,273.74Z"/>
        <path d="M158.59,224.84c-3.05-.38-6-.19-8.83-1.46s-3.82-3.08-3.38-6a85.29,85.29,0,0,1,2.51-10.47c.78-2.73,1.31-5.52,2.08-8.25a24.69,24.69,0,0,1,1.09-3.17c1.21-2.75,3.34-3.66,6.65-3a23.24,23.24,0,0,1,7,3c3.64,2.07,7.21,4.27,10.76,6.49,3.18,2,6.44,3.86,9.12,6.56a5.72,5.72,0,0,1,1.88,4.84c-.27,2.29-.42,4.64-1.89,6.59a7.09,7.09,0,0,1-4.53,2.66c-5.17,1-10.44,1.29-15.67,1.83C163.09,224.71,160.76,224.44,158.59,224.84Zm8.52-22.52a6.25,6.25,0,0,0-5.35-6.52,3.51,3.51,0,0,0-2.94.68,7.79,7.79,0,0,0-2.79,3.8,99.23,99.23,0,0,0-4.16,16.57,5.11,5.11,0,0,0,2.75,5.49,5.71,5.71,0,0,0,6.32-.93,11.94,11.94,0,0,0,2.16-3c1.55-3.33,2.17-6.92,3-10.44A21.66,21.66,0,0,0,167.11,202.32Z"/>
        <path d="M402.36,295.51c3.19.45,6.44.81,9.66,1.39q5.53,1,11,2.29a26.86,26.86,0,0,1,9.28,3.74c3.11,2.15,3.67,4.21,2.05,7.72a58.41,58.41,0,0,1-3.5,6.28c-2.22,3.6-4.14,7.38-6.5,10.9a22.49,22.49,0,0,1-2.48,2.92c-1.13,1.19-3.82,1.15-5.75,0a34.24,34.24,0,0,1-8.15-7c-1.73-1.93-3.61-3.74-5.32-5.68-2.65-3-5.5-5.89-7.71-9.29a7.06,7.06,0,0,1-.35-7.79,18.62,18.62,0,0,1,2.33-3.49C398.37,296,400.35,295.8,402.36,295.51Zm7.88,25.71c-.18,2.55,1.53,3.89,3.26,5.13a3.68,3.68,0,0,0,4.29.09,13.17,13.17,0,0,0,4.28-4.44c.93-1.48,1.76-3,2.62-4.56,1.62-2.88,3.48-5.64,4.59-8.79,1.4-3.95-.82-6-4.43-7.07a3.36,3.36,0,0,0-2.47.2,12.06,12.06,0,0,0-5,4.52c-1.82,2.95-3.52,6-5.23,9A11.12,11.12,0,0,0,410.24,321.22Z"/>
        <path d="M317.83,316.78a31.28,31.28,0,0,1,.15-4.27,6.88,6.88,0,0,1,3.57-5,16.53,16.53,0,0,1,5.26-1.95,5.09,5.09,0,0,1,3.92,1.12,47.79,47.79,0,0,1,7.57,7.13c3.09,3.5,6.17,7,8.94,10.79a23.1,23.1,0,0,1,4.13,7.77c.66,2.57.21,4.12-2.07,5.54a48.53,48.53,0,0,1-8.15,3.76q-4.53,1.74-9,3.62a34.91,34.91,0,0,1-5.71,1.77c-2,.46-4-.81-5.21-3.2a20.2,20.2,0,0,1-2-7.38c-.51-4.71-.9-9.44-1.25-14.18C317.89,320.52,317.86,318.73,317.83,316.78Zm8.79,24.63a8.42,8.42,0,0,0,2.36-.48c3.36-1.27,6.68-2.64,10.06-3.85a26.17,26.17,0,0,0,6.37-3.29c1.43-1,2.78-2.34,2.27-4.4-.57-2.3-1.67-4.4-4.21-4.89a11.6,11.6,0,0,0-6.61.59c-3.71,1.49-7.45,2.93-11.05,4.63-3.2,1.51-5.67,4.13-4.44,7.94A4.93,4.93,0,0,0,326.62,341.41Z"/>
        <path d="M296.75,350.79c-3.47-.14-7.11-.05-10.74-.18a5.75,5.75,0,0,1-5.6-5.82,22.8,22.8,0,0,1,1.24-7.54c.64-2.05,1.15-4.15,1.84-6.19,1.45-4.31,2.74-8.69,4.53-12.87,1.17-2.73,2.51-5.62,5.92-6.26,3.24-.61,6.48-.7,9.09,1.87a8.33,8.33,0,0,1,1.87,2.76c1.1,2.7,2.3,5.36,3.14,8.16,1.07,3.6,2.25,7.16,3.43,10.72A26.9,26.9,0,0,1,313,345.92a5.16,5.16,0,0,1-4.73,4.62C304.5,350.92,300.7,350.68,296.75,350.79Zm.63-16.82c-2.35,0-4.27,0-6.19,0a12.63,12.63,0,0,0-4.34.76,6.64,6.64,0,0,0-4,6c.05,2.16,2.18,4.34,4.72,4.73,4.85.75,9.73.49,14.6.44a26.15,26.15,0,0,0,4-.45c2.9-.48,4.35-2.41,4.49-5.31s-2.89-5.54-5.7-6A69.43,69.43,0,0,0,297.38,334Z"/>
        <path d="M351,155.66a13.28,13.28,0,0,1-1.87,5.75,83.8,83.8,0,0,1-9.61,12.35,96.59,96.59,0,0,1-7.16,7.56c-1.65,1.49-3.42,3.18-5.84,2.83-3.12-.44-6.09-1.5-8.11-4.15-1.15-1.5-1.09-3.39-1.2-5.17a48.13,48.13,0,0,1,.18-6.68c.29-3.41.54-6.83.83-10.25a46.29,46.29,0,0,1,1.33-9.22,13.83,13.83,0,0,1,1.88-4c1.31-1.93,3.05-2.22,5.14-1.88,2.24.37,4.22,1.45,6.3,2.25,4.29,1.65,8.56,3.34,12.79,5.11,1.8.75,3.6,1.57,4.72,3.33A3.26,3.26,0,0,1,351,155.66Zm-9.82,9.87c2.88.31,4.5-1.75,5.54-4a3.8,3.8,0,0,0-.84-4.61,14,14,0,0,0-3.74-2.56c-2.92-1.5-6-2.53-9.07-3.76a25.18,25.18,0,0,0-5.51-2,7,7,0,0,0-4.46.3c-2.52,1.35-3.41,5.55-1.8,7.91a11.37,11.37,0,0,0,4.49,3.48c2.13,1.12,4.42,1.85,6.62,2.8C335.05,164.25,337.76,165.53,341.14,165.53Z"/>
        <path d="M158,307.17a3.69,3.69,0,0,1,1.33-2.7c1.84-2,4.25-3,6.7-3.84A77.61,77.61,0,0,1,177.17,298c3.33-.68,6.65-1.38,10-1.77a24.75,24.75,0,0,1,6.08-.09,5.59,5.59,0,0,1,3.84,2.63,26.13,26.13,0,0,1,2.06,3.92,5.52,5.52,0,0,1-.39,5.38,38.06,38.06,0,0,1-5.52,7.36q-4.29,4.67-8.62,9.31a35,35,0,0,1-7.41,6.21c-3.06,1.85-6,1-8.22-2.63-1.7-2.71-3.31-5.47-4.93-8.22s-3.33-5.64-4.91-8.5A9.1,9.1,0,0,1,158,307.17Zm5.54-.6a8.87,8.87,0,0,0,.86,3.46c1.51,3.37,3.57,6.42,5.36,9.62a22.37,22.37,0,0,0,4.38,6.1c1.27,1.1,2.66,1.92,4.36,1.37a6.93,6.93,0,0,0,4-3.23,5.36,5.36,0,0,0,.07-5.07c-2.38-5.33-4.92-10.63-9-14.87-2.67-2.78-4.49-3.28-8.12-.73A3.79,3.79,0,0,0,163.51,306.57Z"/>
        <path d="M275.39,172.66c-.11,1.47-.16,3-.34,4.41a6.51,6.51,0,0,1-3.31,5,17.33,17.33,0,0,1-5,2c-2.81.63-4.78-1.1-6.67-2.79a117.54,117.54,0,0,1-10.71-11.6,58.11,58.11,0,0,1-5.93-8.11,18.9,18.9,0,0,1-1.88-4.65c-.61-2.25.09-3.79,2.3-5.25a34.6,34.6,0,0,1,7.3-3.33c3.78-1.39,7.49-3,11.24-4.47a23.47,23.47,0,0,1,3.08-1c3.22-.81,5.15.48,6.68,3.92s1.59,7,2,10.55c.51,4.52.54,9.08,1.14,13.59a13.44,13.44,0,0,1,0,1.68Zm-23.79-7.18a9.24,9.24,0,0,0,3.65-.58c3.58-1.05,6.82-2.92,10.34-4.11a12,12,0,0,0,4.77-3.13,5.57,5.57,0,0,0,0-7.86,3.81,3.81,0,0,0-2.46-1.34,11.46,11.46,0,0,0-5.75.92c-3.2,1.45-6.54,2.55-9.75,4-2.19,1-4.41,1.91-6,3.8a3.58,3.58,0,0,0-1.11,2.81C245.6,162.52,247.91,166,251.6,165.48Z"/>
        <path d="M350.37,200.77a4.4,4.4,0,0,1-2.47-.58,14.19,14.19,0,0,1-5.52-5.35,4.94,4.94,0,0,1-.44-3.38,28.73,28.73,0,0,1,2.75-7.64c2.34-5,4.88-9.88,7.68-14.63a25.5,25.5,0,0,1,5.41-6.52c2.39-2,4.58-2.1,7.09,0,5.49,4.67,10.25,10.07,15.21,15.26a9,9,0,0,1,1.43,2.21,3.94,3.94,0,0,1-.21,4,16,16,0,0,1-6.17,5.55c-2.88,1.64-5.82,3.17-8.78,4.66a123,123,0,0,1-12,5.5A10.44,10.44,0,0,1,350.37,200.77Zm26.27-16.71a8.25,8.25,0,0,0-1.7-4c-1.38-2-3.33-3.45-4.91-5.25a43.94,43.94,0,0,0-8-7.36c-3.07-2.12-5.15-1.47-7.54,1.84a4.24,4.24,0,0,0-.75,3.88,13,13,0,0,0,2.4,4.38,53.35,53.35,0,0,0,4.46,4.68c2.25,2.14,4.31,4.46,7,6.13,3.26,2,5.34,1,8.05-1.76A3.28,3.28,0,0,0,376.64,184.06Z"/>
        <path d="M231.69,328.68a4.59,4.59,0,0,1-2.54-1c-3-1.77-5.16-4.4-7.48-6.87-1.78-1.9-3.64-3.71-5.48-5.54s-4-3.83-5.07-6.45a2.37,2.37,0,0,1,0-1.95,11,11,0,0,1,3.78-4.85,64.25,64.25,0,0,1,9.77-5.59c3.74-1.88,7.46-3.83,11.28-5.57a22.73,22.73,0,0,1,6.64-1.94,4.75,4.75,0,0,1,3.26,1,16.24,16.24,0,0,1,4.36,4.23c1.29,1.94,1.13,3.89.45,5.95a92.78,92.78,0,0,1-6.23,13.6,67.51,67.51,0,0,1-5.84,9.9A16.74,16.74,0,0,1,233,328.4,2.65,2.65,0,0,1,231.69,328.68Zm7.66-11a4.78,4.78,0,0,0-.57-2.34,21.27,21.27,0,0,0-4.39-5.77,104.66,104.66,0,0,0-7.8-7.39c-3.49-2.79-8.35-1.75-9.93,2.11a3.55,3.55,0,0,0,0,2.68,17.08,17.08,0,0,0,3.94,5.66c2,2.11,4.08,4.14,6.15,6.18a20.06,20.06,0,0,0,5.93,4.4,3.38,3.38,0,0,0,2.44.23A6.54,6.54,0,0,0,239.35,317.65Z"/>
        <path d="M342.06,297.19a5.9,5.9,0,0,1,1.15-3.62,21.37,21.37,0,0,1,3.5-3.61c2.36-1.91,4.94-1.62,7.59-.64a115,115,0,0,1,13.43,6.34c3,1.55,6,2.93,8.88,4.73a14.26,14.26,0,0,1,5.36,5.67c.91,1.8-.2,3.18-1.09,4.51-1.91,2.89-4.63,5-7.05,7.45-1.85,1.87-3.66,3.79-5.47,5.7a18.72,18.72,0,0,1-5,4c-2.27,1.15-4.08-.09-5.68-1.41a24.61,24.61,0,0,1-5.6-7.12q-3.15-5.59-6-11.31a41.52,41.52,0,0,1-3.79-9.56C342.13,297.91,342.1,297.47,342.06,297.19ZM353.83,317a6.15,6.15,0,0,0,2.56,5,3.73,3.73,0,0,0,4.43.69,15.11,15.11,0,0,0,2.92-1.87c3.32-2.77,6.15-6,9.28-9a16.48,16.48,0,0,0,2.85-3.69c1.56-2.68,1.45-4.13-.8-6.26-1.71-1.62-3.76-2.46-6.13-1.41a13.43,13.43,0,0,0-3,1.79,69.27,69.27,0,0,0-5.09,4.9,46,46,0,0,0-5.44,5.89A8.56,8.56,0,0,0,353.83,317Z"/>
        <path d="M446.73,270.7a36.41,36.41,0,0,1-1.81,9.13c-1.22,4.31-2,8.71-3.46,13a8.82,8.82,0,0,1-.41,1.12c-1.42,3.06-2.93,3.85-6.3,3.35a19.86,19.86,0,0,1-7.21-2.8c-4.12-2.46-8.24-4.9-12.29-7.45a39.58,39.58,0,0,1-8-6.05,6,6,0,0,1-1.69-5.48,26.68,26.68,0,0,1,.94-4.09,6.51,6.51,0,0,1,4.9-4.12,67.75,67.75,0,0,1,11.25-1.51c4.33-.35,8.67-.59,13-.64a25.28,25.28,0,0,1,5.93.68,8.72,8.72,0,0,1,3.15,1.42C446.07,268.15,446.93,269.33,446.73,270.7ZM441.14,272a4.74,4.74,0,0,0-2.74-4.52c-2.31-.93-5.07-.6-6.4.84a11.8,11.8,0,0,0-2.81,4.69A99.22,99.22,0,0,0,426,286.21c-.61,4,1.19,6.59,5.1,7.72a3.54,3.54,0,0,0,3.51-.95,11.11,11.11,0,0,0,2.92-4.59,65,65,0,0,0,1.78-6.71C440.1,278.49,441.13,275.32,441.14,272Z"/>
        <path d="M349.49,347.73c-.26-2.11,1.13-4,3-5.3,2.35-1.64,4.76-3.61,8-2.31a17.13,17.13,0,0,1,4.18,2.33c5.9,4.58,11.78,9.19,16.9,14.66a17.37,17.37,0,0,1,3.94,6,4.45,4.45,0,0,1-1.1,5.24,37.38,37.38,0,0,1-7.74,5.18c-2.92,1.67-5.79,3.41-8.69,5.09a43.91,43.91,0,0,1-4.16,2.12c-2.9,1.26-4.91.18-6.89-2.78-1.75-2.61-2.49-5.61-3.22-8.6-1.25-5.21-2.48-10.41-3.6-15.64A28.59,28.59,0,0,1,349.49,347.73ZM361,375.51a12.69,12.69,0,0,0,5.58-1.88c2-1.25,4.05-2.4,6.09-3.57a29.65,29.65,0,0,0,7.46-5.34,5.06,5.06,0,0,0,1.56-3.29c0-1.83-2.82-5.49-5.29-5.42a14.12,14.12,0,0,0-5.63,1.43c-3.6,1.66-6.83,4-10.21,6a10.63,10.63,0,0,0-4,3.91c-1.09,2-.64,3.86.39,5.68A4.58,4.58,0,0,0,361,375.51Z"/>
        <path d="M382.64,320.11c3.08-.07,5.77,1.21,8.43,2.5,4.88,2.37,9.76,4.76,14.55,7.3,3,1.58,6,3.23,8,6.14,1.44,2.08,1.47,3.31.14,5.5-1.72,2.85-4.27,4.91-6.6,7.2-.31.3-.65.58-1,.9-2.42,2.49-4.81,5-7.24,7.46a12.32,12.32,0,0,1-3.25,2.22c-1.55.79-2.88.36-4.24-.53a21.14,21.14,0,0,1-6.09-6.68c-3.71-5.85-6.52-12.17-9.44-18.43a16.07,16.07,0,0,1-1.36-5.44,4.8,4.8,0,0,1,1.38-3.49,20.25,20.25,0,0,1,4.32-3.94A4.78,4.78,0,0,1,382.64,320.11Zm20.79,11.46c-1.83-.08-3.31,1-4.66,2.05a93.66,93.66,0,0,0-9.08,8.85,15,15,0,0,0-2.93,4.36c-.94,2.2-.34,4.42,1.75,6.34,1.94,1.77,3.2,1.92,5.6.62a13.61,13.61,0,0,0,2.37-1.62c3.14-2.73,6-5.75,8.91-8.7a16.41,16.41,0,0,0,3.26-4.27,4.36,4.36,0,0,0,.7-3.19A6.8,6.8,0,0,0,403.43,331.57Z"/>
        <path d="M434.07,224.42c-4.3-.34-8.59-.71-12.89-1a54.13,54.13,0,0,1-9.48-1.26c-2.91-.75-5.15-2.62-5.56-5.57-.13-.9-.37-1.79-.56-2.69a5.89,5.89,0,0,1,1.85-5.77,50,50,0,0,1,8.3-6.09c3.68-2.31,7.42-4.55,11.17-6.74a22.44,22.44,0,0,1,8.3-3.29c2.54-.34,4.24.41,5.46,2.67a14.42,14.42,0,0,1,1.28,3.22q2.31,9.06,4.56,18.12c1.11,4.51-1.18,6.53-5.06,7.51A26,26,0,0,1,434.07,224.42Zm1.2-1.8c3.3-.15,6.44-2.37,5.8-6.28a52.08,52.08,0,0,0-1.4-7.14c-1.09-3.54-1.55-7.27-3.24-10.64-1-1.92-3.09-3.61-4.74-3.25-3.34.72-5.63,2.4-5.85,6.1a8.58,8.58,0,0,0,.16,2.26q1.25,5.87,2.87,11.63a12.32,12.32,0,0,0,2.2,4.6A6.53,6.53,0,0,0,435.27,222.62Z"/>
        <path d="M243.94,348.39a41.8,41.8,0,0,1-1.55,10.11c-1.17,4.44-1.95,9-3.28,13.37a22.6,22.6,0,0,1-3,7,9,9,0,0,1-2.56,2.32c-1.49.93-2.94.24-4.36-.25a26.5,26.5,0,0,1-4.66-2.44q-6.56-3.86-13.07-7.78a12.49,12.49,0,0,1-2.94-2.44,3.92,3.92,0,0,1-1-3.54,13,13,0,0,1,3.59-6.52,130,130,0,0,1,17.37-15.18,25.07,25.07,0,0,1,4.14-2.38,4.66,4.66,0,0,1,3.7-.29,15,15,0,0,1,6,3.78A5,5,0,0,1,243.94,348.39Zm-26.24,7.88a6.39,6.39,0,0,0-5.09,3.27c-1.18,2-1.14,3.42.31,5.17a12.61,12.61,0,0,0,2.52,2.37c3.78,2.63,7.85,4.78,11.8,7.13a11.36,11.36,0,0,0,5.4,1.84c2.78.06,5.6-4.19,4.81-6.88-.73-2.47-2.58-4.06-4.57-5.36-3.17-2.07-6.48-3.94-9.8-5.78A17.34,17.34,0,0,0,217.7,356.27Z"/>
        <path d="M374.5,160.89a13.44,13.44,0,0,1,1.48-5.75c1.92-4.25,4-8.44,6.18-12.57a51.71,51.71,0,0,1,4.93-8,15.73,15.73,0,0,1,5.06-4.48,3.28,3.28,0,0,1,2.66-.24c2.49.78,4.14,2.64,5.89,4.39,3.56,3.55,7.08,7.14,10.62,10.72a16.31,16.31,0,0,1,2.83,3.83c.91,1.7.16,3.19-.76,4.59-1.67,2.52-4.2,4-6.77,5.41-5.87,3.15-11.75,6.29-17.88,8.94-2.33,1-4.8,2.13-7.37,1.27a11.68,11.68,0,0,1-6.76-6.41,1.4,1.4,0,0,1-.1-.46C374.5,161.69,374.5,161.29,374.5,160.89Zm11.73-20.46a9.12,9.12,0,0,0,2.31,5.4c2.47,3,5.38,5.57,8.1,8.33a13.21,13.21,0,0,0,4.29,3,6.11,6.11,0,0,0,7.82-2.86,3.59,3.59,0,0,0,.28-2.78,9.21,9.21,0,0,0-2-3.5,106.88,106.88,0,0,0-11.32-11.3c-1.47-1.19-3.09-2.25-5.13-1.85C388.84,135.2,385.82,138.12,386.23,140.43Z"/>
        <path d="M218.46,161.41a6.08,6.08,0,0,1-.79,2.74,14.35,14.35,0,0,1-6,5.2,4.33,4.33,0,0,1-2.57.26c-4.34-.84-8.21-2.85-12.09-4.82-2.14-1.08-4.24-2.21-6.39-3.27a43.94,43.94,0,0,1-9.83-6.11,6.14,6.14,0,0,1-.51-.51c-2.77-3.23-2.82-4.47-.23-7.87a41.15,41.15,0,0,1,4.29-4.47c2.6-2.53,5-5.2,7.6-7.78a24.33,24.33,0,0,1,4.2-3.72c2.5-1.54,4.19-1.28,6.4.62a31.93,31.93,0,0,1,7.73,10.68c1.61,3.3,3.37,6.53,5,9.83,1.34,2.71,2.72,5.43,3.07,8.51C218.38,160.94,218.42,161.17,218.46,161.41Zm-11.73-20.72a6.38,6.38,0,0,0-3.26-4.89,4.29,4.29,0,0,0-5.24.5A94.05,94.05,0,0,0,185.33,149c-1.24,1.42-2.14,3.2-1.45,5.21.88,2.55,4.84,5.38,8.37,3.29a25.72,25.72,0,0,0,5.37-4.35,96.63,96.63,0,0,0,6.74-7A9.79,9.79,0,0,0,206.73,140.69Z"/>
        <path d="M349.05,140.65a58.45,58.45,0,0,1,1.63-9.65c.82-3,1.42-6.15,2.22-9.2,1-3.67,1.72-7.38,3.83-10.65,1.88-2.91,4.2-3.63,7.37-2.22,2.67,1.2,5.09,2.84,7.63,4.27,2.19,1.23,4.33,2.55,6.53,3.77a40.42,40.42,0,0,1,5.45,3.69,4.33,4.33,0,0,1,1.59,4.91,15.65,15.65,0,0,1-4.12,6.65,133.48,133.48,0,0,1-17.4,15,16.44,16.44,0,0,1-3.78,2.05,5.66,5.66,0,0,1-5.16-.62c-1.06-.63-2.11-1.28-3.11-2C349.88,145.28,349,143.43,349.05,140.65Zm11.62-26.76a4,4,0,0,0-1.88.29c-2.34,1.17-4.84,5.46-2.11,8.68a16.24,16.24,0,0,0,4.6,3.77c3.26,1.79,6.22,4.1,9.63,5.59,2.68,1.17,5.45,2.19,8.13-.31s2.81-5.38.32-7.71a23.24,23.24,0,0,0-2.53-2c-3.84-2.61-7.94-4.77-11.93-7.12A8.22,8.22,0,0,0,360.67,113.89Z"/>
        <path d="M243.48,141.07c.48,3.36-1.45,5.33-4,6.93-.74.47-1.53.86-2.3,1.29a5.59,5.59,0,0,1-5.81-.17,60.4,60.4,0,0,1-11-8.22c-2.2-2-4.57-3.76-6.66-5.83-2.76-2.76-5.59-5.5-6.53-9.55a3.47,3.47,0,0,1,.56-3,10.58,10.58,0,0,1,3-2.88q8-4.82,16.1-9.48a14.52,14.52,0,0,1,3.56-1.38c2.28-.6,3.85.7,5.09,2.34a19.2,19.2,0,0,1,3.2,7.3c1.61,6.72,3.55,13.36,4.58,20.2C243.42,139.39,243.42,140.24,243.48,141.07Zm-25.89-7.29c.61-.13,1.47-.3,2.32-.49,2-.46,3.69-1.71,5.44-2.74,3.25-1.93,6.65-3.61,9.54-6.14a5.94,5.94,0,0,0,0-9.1,4.41,4.41,0,0,0-4.24-1,26.16,26.16,0,0,0-6.55,3.19c-3.55,2.15-7.32,4-10.49,6.69-1.26,1.09-2.39,2.38-2.28,4.16C211.52,131.16,214.59,133.83,217.59,133.78Z"/>
        <path d="M210.25,320.53c2.34-.19,3.79,1.58,5.45,2.9a13.74,13.74,0,0,1,1.49,1.56c2,2.21,1.56,4.68.8,7.22a58.67,58.67,0,0,1-3.83,8.52c-1.94,4-3.94,7.95-6.26,11.72-1.8,2.92-3.88,5.58-7,7.23a3.65,3.65,0,0,1-3.55,0,20.16,20.16,0,0,1-5.33-4.42c-3.36-3.48-6.82-6.86-10.23-10.29a18.21,18.21,0,0,1-2.83-3.84,3.5,3.5,0,0,1,.18-3.94,16.2,16.2,0,0,1,6.09-5.48A198,198,0,0,1,204.61,322,12.81,12.81,0,0,1,210.25,320.53ZM207,349.36a4.23,4.23,0,0,0-.33-1.65,18.63,18.63,0,0,0-4.25-6.16c-1.17-1.2-2.47-2.27-3.62-3.48a27.08,27.08,0,0,0-5-4.56c-4.17-2.6-5.68-1.94-8.76,1a3.8,3.8,0,0,0-.85,4.23A16.06,16.06,0,0,0,188,344c1.86,2,4,3.77,5.86,5.76a29.36,29.36,0,0,0,4.79,4.12c1.31.89,2.73,1.69,4.34.84A6.78,6.78,0,0,0,207,349.36Z"/>
        <path d="M318.31,107.66a22.75,22.75,0,0,1,.89-7.34,7.84,7.84,0,0,1,1.91-3.15c1.28-1.32,2.91-1.11,4.51-.94A46.82,46.82,0,0,1,332.84,98c3.55,1,7.15,1.75,10.68,2.76a35.08,35.08,0,0,1,4,1.39c2.59,1.11,3.6,3.09,3.14,5.9a25.73,25.73,0,0,1-4.11,9.64,161,161,0,0,1-10.44,15.2,16.69,16.69,0,0,1-3.76,3.5,4.87,4.87,0,0,1-3.9.73A25.91,25.91,0,0,1,323,135.4a6,6,0,0,1-3-4.13,45.65,45.65,0,0,1-1.17-8.77C318.52,117.56,318.48,112.61,318.31,107.66Zm1.68.18a6.11,6.11,0,0,0,3,4.26,20.21,20.21,0,0,0,6.25,2.31c3.54.77,6.89,2.2,10.56,2.56s6.66-1.49,7.47-5a4.19,4.19,0,0,0-1.66-4.42,13.09,13.09,0,0,0-2.72-1.49,91.89,91.89,0,0,0-16.63-4.36C322.72,101.13,320,103.68,320,107.84Z"/>
        <path d="M318.83,381.32c.39-7,.19-14,1.18-21a11.35,11.35,0,0,1,.74-2.9,6.51,6.51,0,0,1,4-3.82,33.67,33.67,0,0,1,4-1.1,5.65,5.65,0,0,1,5.24,1.7c3.43,3.18,5.95,7.08,8.5,10.94,2.11,3.2,4.2,6.42,6.07,9.78a20.11,20.11,0,0,1,2.52,7.68,4.13,4.13,0,0,1-1.52,3.73,9.54,9.54,0,0,1-3.92,2c-4.44,1.16-8.9,2.26-13.33,3.48a50.1,50.1,0,0,1-6.74,1.62c-3.22.42-4.54-.65-5.88-3.82a14.69,14.69,0,0,1-.92-4.07A39.21,39.21,0,0,1,318.83,381.32Zm22.1-8.68a11.44,11.44,0,0,0-4.4.58c-2.27.62-4.56,1.18-6.82,1.85s-4.66,1.15-6.65,2.61A5.88,5.88,0,0,0,321,384.9c.92,2.24,3.38,3.38,6.2,3,3.17-.46,6.17-1.6,9.3-2.25a27.59,27.59,0,0,0,7.92-2.65c3.14-1.75,4.68-3.62,2.3-7.62A5.51,5.51,0,0,0,340.93,372.64Z"/>
        <path d="M274.64,382.6a18.57,18.57,0,0,1-1,7.26c-1,2.61-2.67,3.93-4.78,3.79a27.17,27.17,0,0,1-6.7-1.26c-4.56-1.49-9.29-2.35-13.87-3.74-.27-.08-.55-.12-.82-.21-5.25-1.65-6-4.1-4.41-9.2,1.67-5.31,5.09-9.74,8.12-14.34a72.71,72.71,0,0,1,5.75-7.95c1.44-1.64,2.78-3.43,5-4.16a4.48,4.48,0,0,1,2.46-.16c1.21.27,2.4.6,3.6.91a6.7,6.7,0,0,1,5.08,5.63,52,52,0,0,1,1.08,8.9C274.26,372.5,274.65,376.92,274.64,382.6Zm-21.88-9.75c-2.43,0-3.08.14-4.37.89a5.28,5.28,0,0,0-.82,8.61,10.36,10.36,0,0,0,2.84,1.52,91.23,91.23,0,0,0,10.26,2.86,49.59,49.59,0,0,0,5.8,1.43,5.3,5.3,0,0,0,5.65-2.53,5.54,5.54,0,0,0-.26-6.22,9.21,9.21,0,0,0-4.83-3.16c-2.63-.82-5.26-1.62-7.94-2.26C256.9,373.46,254.75,372.59,252.76,372.85Z"/>
        <path d="M242,107c-.18-2.24,1-3.7,3.1-4.62a39.81,39.81,0,0,1,8.11-2.49c3.77-.76,7.38-2.1,11.14-2.88,1.05-.22,2.11-.44,3.18-.56,3-.33,5.11,1.23,5.88,4.21a30.71,30.71,0,0,1,.83,9.47c-.22,4-.35,8.06-.59,12.08-.2,3.38-.26,6.79-1.37,10.06a5.67,5.67,0,0,1-3.25,3.6,29.55,29.55,0,0,1-4.45,1.43c-3.05.75-5.24-.85-7-3a122.55,122.55,0,0,1-13.51-20.16A13.88,13.88,0,0,1,242,107Zm10.17,10.29a10,10,0,0,0,2-.2c3.52-.57,6.8-2,10.3-2.7a15.51,15.51,0,0,0,5.57-2.39c2.05-1.32,2.87-3.95,2.09-6.71a4.88,4.88,0,0,0-5-3.34,18.78,18.78,0,0,0-5.3.82c-1.7.55-3.44,1-5.19,1.42a37.86,37.86,0,0,0-8.28,2.71c-2.49,1.19-3.69,3.42-3,5.67C246.46,115.79,248.51,117.25,252.16,117.25Z"/>
    </g>
    <g>
        <path d="M308.53,325.19c-.68.72-1.33,1.47-2,2.16-1.84,1.79-3,1.83-5,.14-.36-.31-.56-.12-.83.05a13,13,0,0,1-2.88,1.45c-2.64.89-4.43-.6-4-3.33a18.54,18.54,0,0,1,1.14-4.15,1.75,1.75,0,0,0-1.38.79,26,26,0,0,0-4.1,5.3c-.86,1.52-2.26,1.61-3.13.12-.41-.72-.68-.47-1-.07a16.48,16.48,0,0,1-3.47,2.75,8.41,8.41,0,0,1-3.13,1.16c-2.48.41-3.87-.72-3.89-3.24a26.93,26.93,0,0,1,.33-3.1c-.86.52-1.59,1-2.34,1.43-3,1.71-5.11,1.4-7.32-1.19-.63-.74-1.06-.76-1.75-.2s-1.64,1.27-2.48,1.88a2.27,2.27,0,0,1-3,0,2.2,2.2,0,0,1-.55-2.72c.33-.85.65-1.7,1-2.65a1.91,1.91,0,0,0-1.35.67,57.66,57.66,0,0,0-4.62,4.36,3.9,3.9,0,0,0-.8,1.45,1.82,1.82,0,0,1-2.48,1.23,2,2,0,0,1-1.51-2.58,5.4,5.4,0,0,0,.44-2c-1.53.84-3.2.94-4.24,2.68a7,7,0,0,1-7.79,3.12,4.37,4.37,0,0,1-3.21-5.57,11.91,11.91,0,0,0,.37-3.86c-.25-3.18,3.2-6,6.34-5.35a6.6,6.6,0,0,1,5.56,5.41c.27,1.23.49,1.33,1.59.72a10.58,10.58,0,0,0,2.79-2.05,2.07,2.07,0,0,1,2.45-.75c1,.4,1.18,1.32,1.16,2.29,0,.28,0,.55,0,.93a6.2,6.2,0,0,0,2.06-1.5,25.4,25.4,0,0,1,3-2.17,2.66,2.66,0,0,1,2.94-.27,2.61,2.61,0,0,1,1.19,2.69,1.23,1.23,0,0,0,.07.32c.11,0,.19,0,.25,0,2.74-1.15,3-1.09,4.66,1.39l.4.6c1,1.38,1.44,1.48,3,.82,1.82-.75,3.14-2.17,4.62-3.38.8-.66,1.51-1.42,2.34-2,.47-.35.42-.52.11-.92-.82-1.09-.77-1.8.1-2.46a2.34,2.34,0,0,1,3.24.28,1.94,1.94,0,0,1-.46,2.84c-.43.3-.65.48-.35,1a1.84,1.84,0,0,1-.23,1.82,39.63,39.63,0,0,0-2.22,4.65c-.12.34-.26.67-.35,1-.15.57-.44,1.26.07,1.69s1.15,0,1.65-.32c2.95-1.61,5.07-4.11,7.08-6.71a6.46,6.46,0,0,1,1.87-2,1.93,1.93,0,0,1,2.73.51c.39.53.55.24.8,0a9.65,9.65,0,0,1,2.79-2c1-.44,2.08-.81,3,.06a2.69,2.69,0,0,1,.51,3c-.32,1.11-.64,2.22-.95,3.34-.08.31-.18.67.11.9s.61,0,.89-.1a12.26,12.26,0,0,0,4.59-4.31,7.34,7.34,0,0,1,4-2.71c1.82-.58,3.06.17,4.07,1.78a8.14,8.14,0,0,1,.9,6.12c-.06.35-.4.86.05,1.06s.68-.33,1-.58a20.33,20.33,0,0,0,4.58-5.65c.09-.18.21-.35.31-.52.44-.72,1-1.17,1.89-.78s.95,1.22.65,2a15.31,15.31,0,0,1-2.91,4.65,34.87,34.87,0,0,1-5.76,5.23,3.6,3.6,0,0,0-1.35,1.89,114.46,114.46,0,0,1-4.74,12.69,11.4,11.4,0,0,1-2.81,4,5.39,5.39,0,0,1-1.83,1.11,2.4,2.4,0,0,1-3.41-2.32,15.53,15.53,0,0,1,1.46-6.13,33.41,33.41,0,0,1,7.4-11.25,7,7,0,0,0,1.91-4c.13-.86.3-1.72.45-2.58Zm-3.25,12.73a19.61,19.61,0,0,0-4.91,10.69A35.19,35.19,0,0,0,305.28,337.92ZM239,318.42c1,1.54.45,2.7-.26,3.86-.18.29-.66.73,0,.94a5.13,5.13,0,0,0,3.17,0c.32-.1.36-.39.35-.69A5.58,5.58,0,0,0,239,318.42Zm2.25,8.55c-1.34-.25-2.54-.05-3.67-.42-.3-.1-.73-.35-.94.12a1.16,1.16,0,0,0,.19,1.24,1.66,1.66,0,0,0,1.53.49A4.45,4.45,0,0,0,241.27,327Z"/>
        <path d="M368.07,335.4a3.23,3.23,0,0,0-1.78-1c-2.83-1-5.8-1.12-8.75-1.33a55.94,55.94,0,0,0-12.18.76c-3.74.56-7.53,1.14-11.31.16a14.35,14.35,0,0,1-6.22-3c-2.65-2.37-3.07-4.34-1.63-7.6a24.28,24.28,0,0,1,4.9-6.77,62.54,62.54,0,0,1,21.39-14.3c5.14-2.15,10.32-4.13,15.87-5a11.93,11.93,0,0,1,5.47.31,3.27,3.27,0,0,1,2.38,4.2c-.53,2.34-2.18,3.89-3.91,5.32a97.59,97.59,0,0,1-13.92,9.57L358,317c-1.7.91-2.75.78-3.29-.41a3,3,0,0,1,1.48-3.95,1.93,1.93,0,0,1,.34-.11c5.21-.71,8.86-4.21,12.77-7.21a13.45,13.45,0,0,0,3.2-3.23c.64-1,.48-1.43-.71-1.62a13.43,13.43,0,0,0-5.35.3,77.62,77.62,0,0,0-22.12,9.66,54.87,54.87,0,0,0-11.84,10.06,17.59,17.59,0,0,0-2.91,4.38c-.85,1.77-.52,3,1.05,4.18a11.28,11.28,0,0,0,7,2c4.31,0,8.62-.37,12.93-.53a60.84,60.84,0,0,1,16,1.17,10,10,0,0,1,3.2,1.33,3.74,3.74,0,0,1,1.15,5.76,12.72,12.72,0,0,1-3.07,3A35.06,35.06,0,0,1,354.15,348a7.42,7.42,0,0,1-3.91-.11c-2-.69-2.55-2.31-1.43-4.08a9.37,9.37,0,0,1,3-2.72,34.34,34.34,0,0,1,15.6-5.43C367.62,335.67,367.89,335.76,368.07,335.4Zm-2.41,3.44c-3.77.09-12.13,4.15-12.9,6.27C357.8,344.39,361.72,341.61,365.66,338.84Z"/>
        <path d="M405.59,321.53a18.1,18.1,0,0,0-5.17,5.93c-.55,1-1.13,1.54-2.27,1.19a2,2,0,0,1-1.09-2.49c.05-.31.11-.62.23-1.22-1.53.84-3.07.95-4,2.57a7.09,7.09,0,0,1-7.77,3.22,4,4,0,0,1-3.32-3.49c-.09-.52.17-1.43-.6-1.5a2.09,2.09,0,0,0-2,1.07,7.81,7.81,0,0,1-3,3.15,7.2,7.2,0,0,1-5.33.74c-2.56-.65-3.87-2.93-3.17-5.69a10.22,10.22,0,0,0,.34-3.62c-.32-3.18,3.09-6.11,6.22-5.5a6.64,6.64,0,0,1,5.66,5.32c.1.45-.05,1.25.71,1.16s1.45-.38,1.55-1.38a5.42,5.42,0,0,1,4.2-5c3-.89,6.6,1.29,7.54,4.54.63,2.19.62,2.17,2.59,1a19.33,19.33,0,0,1,2.57-1.74c1-.39,2-.64,2.71.57.37.66.59.09.79-.09a9.75,9.75,0,0,1,3.15-2.15,2.34,2.34,0,0,1,2.69.28,2.52,2.52,0,0,1,.55,2.67c-.35,1.19-.7,2.38-1,3.57-.09.34-.24.74.13,1s.62,0,.9-.15a11.58,11.58,0,0,0,4.22-3.83c.24-.31.46-.65.69-1,.55-.77,1.24-1.25,2.14-.68s.78,1.45.31,2.23a15.29,15.29,0,0,1-8.26,6.79c-2.42.81-4.12-.81-3.75-3.34C404.86,324.32,405.3,323,405.59,321.53Zm-17.29-3a3.11,3.11,0,0,1,.05,2.92c-.24.57-1.22,1.05-.64,1.7s1.36.29,2.07.26a9.47,9.47,0,0,0,1.07-.13.55.55,0,0,0,.51-.76A5.2,5.2,0,0,0,388.3,318.52Zm-14.39-.08c1,1.48.48,2.6-.23,3.73-.19.31-.76.8,0,1.05a4.92,4.92,0,0,0,3.17,0c.32-.1.35-.39.34-.69A5.49,5.49,0,0,0,373.91,318.44Zm16.58,8.46a17.47,17.47,0,0,1-4.13-.43c-.53-.17-.71.14-.71.63a1.18,1.18,0,0,0,1.16,1.27A4.48,4.48,0,0,0,390.49,326.9Zm-14.36.05a25.31,25.31,0,0,1-3.64-.4c-.31-.1-.74-.35-.95.12a1.12,1.12,0,0,0,.19,1.23,1.41,1.41,0,0,0,1.17.51A4.21,4.21,0,0,0,376.13,327Z"/>
        <path d="M192.85,337.65c0-4.69,1.54-9,3.28-13.29,2-5,5.44-9,8.75-13.12a56.45,56.45,0,0,1,11.73-11.42,18.89,18.89,0,0,1,7-3.2c3.86-.74,6.49,1.15,6.85,5a17.66,17.66,0,0,1-.89,7.21c-.34,1-.94,1.82-2.16,1.69a2.18,2.18,0,0,1-1.72-2.4,6.78,6.78,0,0,1,.87-3.55,4.14,4.14,0,0,0,.09-3.48,1.63,1.63,0,0,0-1.54-1,6.32,6.32,0,0,0-3,.61,32.5,32.5,0,0,0-9.58,6.26,53.44,53.44,0,0,0-15.41,24.85,18.87,18.87,0,0,0-.7,6.17c.21,5.64,3.42,8.2,9,7.08a33.66,33.66,0,0,0,10.43-4.44,57.83,57.83,0,0,0,14.3-12.29,3.73,3.73,0,0,1,.32-.36,1.27,1.27,0,0,1,1.71-.36c.66.42.61,1.07.3,1.71a19,19,0,0,1-2.92,4.23,51.94,51.94,0,0,1-15.64,12.3,30.69,30.69,0,0,1-8.47,3c-7.18,1.3-12.51-3.1-12.59-10.39C192.84,338.21,192.85,337.93,192.85,337.65Z"/>
    </g>
    <g>
        <path d="M154.45,273.49c0-4.1,1.19-7.95,2.5-11.76a80.74,80.74,0,0,1,5.42-12.39c1.41-2.59,2.81-5.21,5.22-7.07.13-.1.24-.22.37-.31.33-.26.72-.49,1.08-.2s0,.73-.17,1a82.29,82.29,0,0,0-4.5,8,61.18,61.18,0,0,0-4.92,14.35,1.24,1.24,0,0,0,.72,1.45,14.6,14.6,0,0,1,4.27,3.62c3.06,4.13.31,9.25-2.55,11.12-2.11,1.38-4.26.86-5.81-1.15a8.92,8.92,0,0,1-1.37-3.29A13.82,13.82,0,0,1,154.45,273.49Z"/>
        <path d="M205.57,190.7c-.35,2-.7,3.87-1,5.72-1,6.51-1.64,13.06-2.15,19.63-.47,6-.86,12.1-1.55,18.13a113.69,113.69,0,0,1-2.08,13.12,77.28,77.28,0,0,1-5.93,16,35.5,35.5,0,0,1-3.13,5.37,10.82,10.82,0,0,1-1.32,1.39.92.92,0,0,1-1.11.16c-.45-.26-.34-.68-.24-1.07.65-2.51,1.59-4.94,2.12-7.49,1.13-5.44,1.87-10.94,2.48-16.46.4-3.57.79-7.14,1.09-10.72.2-2.27.2-4.55.37-6.82.44-6.08.64-12.22,2.61-18.07.81-2.38,1.9-4.66,2.88-7q2.38-5.62,4.8-11.24a5.16,5.16,0,0,1,.65-1.14.91.91,0,0,1,1.1-.19A.63.63,0,0,1,205.57,190.7Z"/>
        <path d="M246.16,292.48a75.89,75.89,0,0,0-8.08-6.56c-2.25-1.52-2.58-1.59-1-4,3.26-4.93,6.47-9.89,9.74-14.81,1-1.5,1.38-1.55,2.94-.59A21.27,21.27,0,0,1,257,273a8.89,8.89,0,0,1,.11,9.85,26,26,0,0,1-7.69,8.91,3.92,3.92,0,0,0-.64.7Z"/>
        <path d="M297.77,185.3l.37-.18c-2.58-.7-5.39-.47-8-1-2-.44-4.06-.07-5.89-.7s-4-.28-5.84-.76c-2.24-.57-4.52-.33-6.75-.75-4.72-.91-9.51-1.46-14.27-2.12-3.35-.46-6.71-.88-10.1-1-.78,0-1.56-.2-2.43-.32l.87-.39c-2.05,0-3.8,0-5.54,0-.42,0-1,.3-1.16-.53-.06-.29-.65-.17-1-.18-1.76,0-3.52-.12-5.28-.05-1,.05-1.81-.67-2.79-.74-2.31-.18-4.61,0-6.91,0-2.9-.05-5.86.24-8.68-.25-1.47-.26-2.85.12-4.33-.19-2.08-.43-4.39,0-6.57.36-1.88.28-3.72-.1-5.6,0s-3.9.13-5.84.08c-3.26-.1-6.51.05-9.76.08-.2,0-.45-.07-.6,0-1.83,1.08-3.86.6-5.8.68-1.6.07-3.2,0-4.8,0-.76,0-1.67-.39-2.21.62-.08.15-.6.08-.92.08a55.18,55.18,0,0,0-5.74.22h3.63c-.19.17-.24.24-.28.24-4-.27-7.87.62-11.82.82-2.33.11-4.62.88-7,1.16-1.93.24-3.74,1.15-5.75,1-.45,0-.93.39-1.42.53-1.15.33-2.37.42-3.5.71-1.77.47-3.67.58-5.32,1.5a1.5,1.5,0,0,1-.71.08,5.13,5.13,0,0,0-2.41.55c-1.75.86-3.74.85-5.59,1.35-1.5.4-3.07.5-4.35,1.52a1.59,1.59,0,0,1-.92.18,2.4,2.4,0,0,0-1.37.35c-1.32,1-3,.95-4.39,1.65-1.11.57-2.57.48-3.34,1.75-.4.65-1.26.44-1.87.59a18.23,18.23,0,0,0-4.42,2c-1.06.59-2.23,1-3.28,1.59a54.32,54.32,0,0,1-4.82,2.93c-2,.89-3.62,2.32-5.53,3.32-2.42,1.27-4.36,3.21-6.61,4.72a41.21,41.21,0,0,0-5.49,4.36c-3,2.86-6.28,5.48-8.94,8.71-2,2.39-4,4.75-5.93,7.13a4.11,4.11,0,0,0-.71,1.11c-.36,1-1.14.84-1.9.79s-.73-.73-.83-1.25A5.51,5.51,0,0,1,59,222.78c2.23-2.54,4.18-5.35,6.5-7.79,1.5-1.58,2.89-3.27,4.42-4.82,1.68-1.7,3.6-3.1,5.27-4.81a28.65,28.65,0,0,1,5-4.12c2-1.28,3.81-2.86,5.79-4.17a34.58,34.58,0,0,1,4.12-2.67c1.75-.83,3.32-2.05,5-3,1.47-.81,3.1-1.34,4.52-2.2a12.14,12.14,0,0,1,2.89-1.48,17.54,17.54,0,0,0,2.81-1,22.61,22.61,0,0,1,2.83-1.41,20,20,0,0,0,4.13-1.6c1.1-.65,2.35-.78,3.43-1.48a7.54,7.54,0,0,1,3.46-1.09c.56,0,1.13,0,1.48-.57.08-.12.23-.28.36-.29,1.38-.08,2.51-.92,3.88-1.13a49,49,0,0,0,7.45-2c2-.64,4.14-1.06,6.22-1.57,2.33-.57,4.7-.91,7.05-1.34a19.23,19.23,0,0,1,2.15-.11c.67-.05,1.49.26,1.78-.75,0-.12.44-.21.65-.18,2.91.36,5.64-.85,8.48-1,3.38-.18,6.71-.77,10.11-.82a15.87,15.87,0,0,0,5.63-.74c1.4-.54,3.15-.13,4.74-.32,10.47-1.27,21-1,31.49-1,5.56,0,11.12,0,16.68,0a10.06,10.06,0,0,1,5.33,1,2.51,2.51,0,0,0,1.77.13,20.57,20.57,0,0,1,6.55.24c3.72.48,7.46.74,11.17,1.27,2.4.35,4.84.31,7.21,1a16.48,16.48,0,0,0,4.05.14c.52,0,1.11-.17,1.35.64.11.4.7.34,1.08.3,2.93-.26,5.77.72,8.7.55a3.14,3.14,0,0,1,1.91.55,5.22,5.22,0,0,0,2.57.34,8.29,8.29,0,0,1,3.76.54c1.88,1,3.9.63,5.88.67.44,0,.94-.22,1.19.46.15.4.63.28,1,.26,3.14-.18,6.19.63,9.29.88,2.58.22,5.18.27,7.75.59a82.2,82.2,0,0,0,10.4.48c.33,0,.75-.16.84.54,0,.31.91.41,1.4.37,5.17-.47,10.23,1,15.39.78,3.16-.16,6.32,0,9.48-.05,1.67,0,3.37.27,5,.16,4.11-.3,8.21.11,12.32-.3a54.77,54.77,0,0,1,9.23-.58,2.69,2.69,0,0,0,2.53-.75,1.17,1.17,0,0,1,.79-.18,20.19,20.19,0,0,0,5.61-.32c2.47-.6,5.08-.26,7.48-1.23a3.77,3.77,0,0,1,1.53-.22c1.88.08,3.59-.76,5.4-1a17.87,17.87,0,0,0,4.43-1.36c1.44-.66,2.93-.57,4.34-1a17.21,17.21,0,0,0,2.34-1.07,18.91,18.91,0,0,1,3.65-1.07,15,15,0,0,0,3-1c2.34-1.19,4.87-1.94,7.17-3.2,1.8-1,3.73-1.72,5.5-2.76a28.72,28.72,0,0,0,3.46-2.94,3,3,0,0,1,2.17-.74c.91,0,1.84,0,2.76,0,.41,0,.83.06.91.58s.19,1-.28,1.2c-1.41.58-1.91,2-2.83,3a146,146,0,0,0-10,13.36c-2.53,3.59-5.19,7.08-7.75,10.64-1.36,1.89-2.68,3.85-4.25,5.63a54.37,54.37,0,0,0-3.36,4.57c-1.41,2-3,3.86-4.5,5.82-1.94,2.57-4.12,4.95-5.95,7.62-.94,1.37-2.3,2.46-3.27,3.85a40.64,40.64,0,0,1-3.87,4.73c-1.78,1.86-3.21,4.05-5.2,5.71-.09.08-.25.12-.28.21-.51,1.5-2,2.18-2.84,3.4a32.28,32.28,0,0,1-4.5,4.9c-2,1.94-3.89,4-5.79,6a49.8,49.8,0,0,1-5.2,4.87c-.78.64-1.22,1.54-2.05,2.15-1.29.94-2.41,2.12-3.67,3.12-2.48,2-4.66,4.39-7.32,6-3.16,1.92-6,4.33-9.35,6-1.33.65-2.76,1.15-4,1.91-2.27,1.41-4.79,2-7.25,2.81a28,28,0,0,0-3,.77c-2.46,1.28-5,.29-7.45.66-2.63.4-5.26-.05-7.9,0-.8,0-1.6-.08-2.39,0-1.65.18-3-.73-4.41-1.22a14.52,14.52,0,0,1-4.69-2.29,33.14,33.14,0,0,1-4-3.15,47.68,47.68,0,0,1-4-5.52,11.15,11.15,0,0,1-2-4.16,6.92,6.92,0,0,0-.5-2.31c-1.47-2.07-.48-4.39-1.08-6.54v4h-.17v-9.53h.18v3.54h.24c0-1.59,0-3.18,0-4.77a1.91,1.91,0,0,1,.6-1.73.93.93,0,0,0,.34-.74c.09-2.64,1.24-4.86,2.42-7.17a33.7,33.7,0,0,1,2.89-4.67,41.56,41.56,0,0,1,5.28-5.91,46.19,46.19,0,0,1,6.84-4.94,14,14,0,0,1,4.61-2,1.84,1.84,0,0,0,.75-.31,10.11,10.11,0,0,1,3.2-1.21c2-.67,4-.48,6-.64.29,0,.83,0,.34-.59-.15-.19.2-.27.39-.25a63,63,0,0,0,6.59.17c.24,0,.69-.25.5.46-.08.31.67.24,1,.24a12,12,0,0,1,6,1.86,21.45,21.45,0,0,1,6.29,5.66,7.22,7.22,0,0,1,1.67,3.51,7,7,0,0,0,1,1.89,1.91,1.91,0,0,1,.19.79c.07,1.11.11,2.23.14,3.34s-.36,1.95-1.36,2.13c-1.79.34-2.9-.42-3.15-1.86-.06-.36,0-.72,0-1.08-.36-4.15-1.93-7.68-5.39-10.16a7.68,7.68,0,0,0-3.76-1.4c-2.71-.23-5.42-1.17-8.1-.75-2.5.39-5,.39-7.51,1a12.7,12.7,0,0,0-3.46,1c-1.06.61-2.33.65-3.28,1.5s-2.43,1.14-3.48,2-2.36,1.67-3.37,2.62a36.17,36.17,0,0,0-7,9,37.32,37.32,0,0,0-1.64,4.41c-.64,1.62-.24,3.54-1,4.75-1.09,1.8-.55,3.49-.77,5.21a4.19,4.19,0,0,0,.17,1.3c0,.19-.07,1,.44.16.08-.14.26.11.28.26a4.73,4.73,0,0,1,0,.84,17.27,17.27,0,0,0,2.57,9.37,17.46,17.46,0,0,0,6.35,6.45,9,9,0,0,0,3.67,1.49,1.23,1.23,0,0,1,.63.32,4.35,4.35,0,0,0,4.14.92c.48-.1,1-.33,1.2.49.1.42.67.36,1.06.36,1.72,0,3.61.46,5.12-.1,2.62-1,5.59.08,8-1.78.9-.68,2.27-.46,3.42-.81a26.91,26.91,0,0,0,5.85-2.52c.57-.33,1.2-.38,1.75-.73a88.26,88.26,0,0,0,8.84-5.78c2.11-1.68,4.44-3.08,6.44-4.9,3.39-3.1,7-6,10.14-9.33,2.57-2.69,5.26-5.27,7.75-8.05,2.72-3,5.39-6.13,8.23-9.07,1-1.08,1.76-2.44,2.87-3.48a42,42,0,0,0,3.45-4.08c1.15-1.41,2.27-2.84,3.34-4.31.85-1.17,1.85-2.25,2.75-3.41,1.4-1.78,2.65-3.69,4.15-5.36,1.31-1.45,2.42-3,3.63-4.56s2.55-3.27,3.71-5c1.29-1.86,2.81-3.53,4-5.43s2.43-3.56,3.72-5.28,2.72-3.49,4.14-5.18c.69-.82,1-1.92,1.91-2.52-.18-.25-.34-.18-.46-.08-1.3,1.08-3,1.32-4.42,2-.85.41-2.14.34-2.49.74-1.17,1.39-3,.51-4.24,1.59-.69.59-2,.64-3,.88-2,.49-3.84,1.46-5.87,1.85-.62.12-1.26.2-1.85.34a40.44,40.44,0,0,1-4.65,1c-.57.08-1.31.68-2.2.83l.66.27c-.08,0-.16.12-.21.11-2-.53-3.9.5-5.87.57-4.51.15-8.91,1.38-13.44,1.4a8.67,8.67,0,0,0-3.27.62c-1.45.59-3,.24-4.5.27-5,.1-10,.1-15,0-4.41-.07-8.79.24-13.19.26-3.64,0-7.25-.41-10.87-.65-4.94-.33-9.87-.84-14.8-1.29A88.58,88.58,0,0,0,297.77,185.3Z"/>
        <path d="M483.25,248.65c-2.2,1.3-4.14,2.48-6.1,3.62a28,28,0,0,1-11.38,3.88,10.88,10.88,0,0,1-7-1.28c-2.67-1.62-3.74-4.17-3.85-7.17,0-1-.23-1.28-1.25-.95a19.48,19.48,0,0,1-9.13.66,11.64,11.64,0,0,1-4.85-2c-.79-.54-1.21-.44-1.56.52a17.92,17.92,0,0,1-5.76,8.25,8.49,8.49,0,0,1-4.64,1.74c-2.06.16-4-1.33-4.8-3.82-.38-1.17-.63-1-1.42-.33-1.74,1.58-3.3,3.41-5.41,4.52s-3.9.2-4.18-2.33a9.65,9.65,0,0,1,1.24-5.18c.18-.39.54-.71.45-1.26a2.79,2.79,0,0,0-1.22.66c-4.22,2.78-8.42,5.57-13.33,7a18.33,18.33,0,0,1-8.16.83,8.21,8.21,0,0,1-7.27-7.71,14.73,14.73,0,0,1,11.82-15.52,6.93,6.93,0,0,1,2.27-.06c2.72.44,5.73,2.54,4.36,6.76-1.77,5.43-7.71,8.65-13,6.94-.66-.21-.84,0-.89.63-.25,2.9,1.87,5.07,5.09,5.31a25.32,25.32,0,0,0,14-3.35,50.48,50.48,0,0,0,10.72-8,52.75,52.75,0,0,0,3.71-4.54,2.08,2.08,0,0,1,3.07-.44,1.86,1.86,0,0,1,.69,2.8,30.24,30.24,0,0,1-4,5.8,87.68,87.68,0,0,0-5.89,8.17,1.13,1.13,0,0,0-.28,1.13,16.57,16.57,0,0,0,3.93-3.3,22.88,22.88,0,0,0,4.22-6.8c.11-.29.27-.57.41-.86a2.09,2.09,0,0,1,2.75-1.24,2.15,2.15,0,0,1,1.52,2.83,17.1,17.1,0,0,0-.85,5.31c.08,2.38,1.59,3.3,3.71,2.19a7.49,7.49,0,0,0,3.2-3.78c1.27-2.79,1.92-5.62.66-8.68-.89-2.16.05-3.61,2-3.55a3,3,0,0,1,2.4,2.48c0,.2,0,.4,0,.6.08,3.3,1.07,4.72,4.23,5.81a15.9,15.9,0,0,0,10.69-.39,1.94,1.94,0,0,0,1.2-1.51,15,15,0,0,1,8.28-9.31c2.28-1.08,4.71-1.6,7.17-.38a4.52,4.52,0,0,1,2.58,5.76,10.52,10.52,0,0,1-13,7.35c-.74-.2-.9,0-.94.69-.18,2.89,1.87,5,5,5.24,5.17.4,9.82-1.16,14.36-3.47a14.31,14.31,0,0,0,7.57-8.66c2.53-7.43,6.42-14.28,10.09-21.21a205.68,205.68,0,0,1,18.33-28.53A50.76,50.76,0,0,1,521.6,183c1.82-1.6,3.54-1.55,4.89.13a3.4,3.4,0,0,1,.33,3.22,34.62,34.62,0,0,1-2.28,6.3,181.37,181.37,0,0,1-11,19.12c-5.38,8.13-10.66,16.34-16.49,24.17-1.72,2.31-3.48,4.6-5.37,6.76a18.94,18.94,0,0,0-3.34,6.3,44.1,44.1,0,0,0-2.87,13.55c-.07,1.86.26,2.05,2,1.29a31,31,0,0,0,8.58-5.64,132,132,0,0,0,15.16-15.84c.92-1.16,1.75-1.19,2.2-.15.29.67-.09,1.13-.52,1.59-1.71,1.85-3.39,3.72-5.12,5.55-3.61,3.8-7.17,7.64-10.89,11.32a47.42,47.42,0,0,1-7.77,6.57,8.48,8.48,0,0,1-2.4,1.07,4.19,4.19,0,0,1-5.54-3.29,20.64,20.64,0,0,1,.34-9.15C482.05,253.55,482.62,251.24,483.25,248.65ZM495,233.57c9-13.19,17.55-26.69,24.57-41.09C509.61,205.14,501.79,219.06,495,233.57ZM391,243.76c3.61,0,6.81-2.52,7.35-5.45.23-1.26,0-1.49-1.25-1.51-2.72,0-6.88,3-7.73,5.68a.8.8,0,0,0,.65,1.16A5,5,0,0,0,391,243.76Zm71.48,0c3.29,0,6.54-2.46,7.12-5.29.29-1.45.09-1.73-1.41-1.65-3.19.16-5.13,2.28-6.93,4.58a1.69,1.69,0,0,0-.32,1.89C461.3,244,462,243.68,462.5,243.76Z"/>
        <path d="M271.34,204.14a5.4,5.4,0,0,1-.47,2.86c-1.16,2.8-2,5.73-3.44,8.43a5.34,5.34,0,0,1-2.67,2.59c-2.08.9-3.42,2.73-4.91,4.33-2.72,2.92-5.32,6-8,8.88-4.27,4.59-8.4,9.32-12.75,13.82a16.57,16.57,0,0,0-3.21,5.71A91,91,0,0,1,228.28,266a18.52,18.52,0,0,1-10.61,7.71,72.86,72.86,0,0,1-11.75,2.83c-.56.07-1.2.26-1.51-.36s.32-1,.77-1.41c3.12-2.52,6.67-4.4,9.94-6.7,5.62-4,10.87-8.28,14.45-14.29.41-.69.75-1.41,1.1-2.13.13-.28.34-.62.11-.9s-.6-.06-.89,0a17.78,17.78,0,0,1-8.54.4c-2.95-.61-6.82-3.45-7-7.45a13.35,13.35,0,0,1,1.18-5.47c2-4.9,4-9.76,7.37-13.92a20.44,20.44,0,0,1,2.75-2.83c2.25-1.9,5.28-1.89,8,.07a14.29,14.29,0,0,1,5.57,9.59c.06.38-.1.88.33,1.08s.76-.29,1.07-.56a95.47,95.47,0,0,0,11.44-11.92c1.92-2.44,1.54-2.29-.6-3.45-3.73-2-7.47-4-11.73-4.73a7.73,7.73,0,0,0-7.12,2.19c-1.28,1.2-2.21,2.74-3.68,3.76-.5.36-1,.76-1.62.38s-.68-1.15-.52-1.82a9.77,9.77,0,0,1,1.32-2.81c1.41-2.33,2.72-4.72,4.32-6.91,3.71-5.1,7.57-6.46,13.54-4.34,3.42,1.22,6.72,2.8,10.31,3.54,3.41.7,6.75.7,9.91-1,.56-.3,1.08-.68,1.61-1,.23-.16.42-.37.65-.52a2.33,2.33,0,0,1,2.34-.56C271.75,202.86,271.22,203.77,271.34,204.14Z"/>
        <path d="M181.34,203.88a23.67,23.67,0,0,1-2.18,8.22,61.14,61.14,0,0,1-6.49,11,14.74,14.74,0,0,1-10.26,5.75c-2.63.37-5.27.15-7.9.26-3.4.15-6.78.46-9.89,2-.49.26-1,.56-1.47.8-.82.4-1.3.16-1.38-.78s-.19-2-.26-3c-.09-1.19-.29-1.32-1.24-.68a33.13,33.13,0,0,0-8.51,8.68c-3.24,4.66-6.39,9.38-9.57,14.08a70.52,70.52,0,0,1-10.83,12.92A84.82,84.82,0,0,1,94.9,275.14c-2.7,1.47-5.53,2.68-8.24,4.13a3.21,3.21,0,0,1-.67.26c-.57.13-1.29.51-1.66-.11a1.76,1.76,0,0,1,.2-2.12,30.62,30.62,0,0,1,5-4.46c6.15-4.64,12.51-9,17.91-14.59a76.14,76.14,0,0,0,9.94-12.74c4.39-7,8.53-14.19,13.52-20.79a46.16,46.16,0,0,1,13.73-12.52,37,37,0,0,1,12.59-4.77,7.54,7.54,0,0,1,5.7,1.26,2.2,2.2,0,0,0,1.79.38,29.55,29.55,0,0,1,4.27-.56,2.92,2.92,0,0,0,2.72-1.6c1.21-2.11,2.5-4.18,3.75-6.27l.06-.11c1.61-2.65,3.51-2.59,5,.17A7.51,7.51,0,0,1,181.34,203.88Z"/>
    </g>
    <path class="uk-text-primary" d="M594.4,250.24c-1.34.94-1.9,2.46-2.69,3.77-4.31,7.11-8.81,14.1-13.63,20.88-4.16,5.85-8.58,11.53-13.05,17.16-4.11,5.16-8.35,10.2-12.79,15.06-5.92,6.5-12,12.83-18.42,18.88-6.1,5.81-12.46,11.34-19,16.7C507.16,349,499.17,354.9,491,360.56q-8.58,5.93-17.51,11.29c-8,4.78-16.21,9.15-24.56,13.26q-9.36,4.61-18.93,8.72c-7,3-14.07,5.7-21.27,8.11-4.8,1.61-9.63,3.16-14.51,4.58-3.83,1.13-7.68,2.2-11.55,3.17-6.66,1.67-13.35,3.28-20.09,4.58-7,1.34-14.08,2.41-21.16,3.37-5.22.71-10.48,1.06-15.73,1.58a9.63,9.63,0,0,0-1,.22H270.16c-1.9-.24-3.79-.55-5.69-.69-5.83-.42-11.59-1.25-17.37-2s-11.68-1.85-17.48-3c-9.17-1.79-18.23-4.11-27.22-6.66-4.84-1.37-9.63-2.93-14.41-4.53-6.67-2.24-13.29-4.6-19.79-7.3-3.61-1.49-7.2-3.06-10.78-4.65-5.08-2.24-10-4.75-15-7.17-3.09-1.49-6.07-3.21-9.12-4.8-6.77-3.53-13.3-7.47-19.75-11.55-4.31-2.73-8.48-5.7-12.71-8.57-3.73-2.54-7.32-5.28-11-8-4.55-3.33-8.9-6.9-13.21-10.53-4.83-4.07-9.58-8.23-14.16-12.58Q54.63,320,47.16,312.08q-6.76-7.14-13.1-14.65-3.81-4.55-7.45-9.24c-2.67-3.43-5.27-6.93-7.86-10.43-4.13-5.6-8-11.39-11.67-17.28-1.93-3.08-3.91-6.12-5.68-9.3A11.84,11.84,0,0,0,.53,250a2.29,2.29,0,0,1-.1-2.8c2.12-2.78,3.64-5.92,5.5-8.85,3.66-5.77,7.36-11.52,11.31-17.09s8.05-10.83,12.19-16.16c4.87-6.25,10-12.24,15.37-18.06,2.86-3.11,5.89-6.07,8.79-9.14,3.65-3.86,7.48-7.55,11.4-11.12q6.24-5.7,12.7-11.15c3.66-3.1,7.38-6.13,11.18-9,4.72-3.62,9.62-7,14.47-10.45,4.1-2.92,8.33-5.66,12.59-8.33,6.07-3.81,12.26-7.37,18.55-10.79,5.76-3.13,11.62-6.06,17.53-8.87q10-4.75,20.34-8.79c7.49-2.91,15.08-5.51,22.73-8,6.13-2,12.32-3.71,18.55-5.27,7.21-1.79,14.42-3.58,21.78-4.7,2.6-.39,5.15-1.14,7.76-1.43,4.57-.5,9.08-1.39,13.65-1.89,4.25-.46,8.52-.63,12.75-1.3a10.41,10.41,0,0,1,1.67-.11c17.44-.12,34.88-.14,52.32,0,2.31,0,4.6.49,6.91.68,5.3.44,10.56,1.1,15.82,1.87Q357,80.86,367.52,83c5,1,10,2.23,14.93,3.46C389,88.13,395.42,90,401.8,92c5.25,1.7,10.47,3.47,15.64,5.42q10.32,3.89,20.35,8.46c5.38,2.46,10.67,5.08,15.93,7.75,6.16,3.13,12.22,6.43,18.16,10,7.56,4.49,15,9.2,22.11,14.34,3.95,2.84,7.95,5.63,11.82,8.59q7,5.35,13.65,11.12c4.19,3.65,8.39,7.28,12.42,11.1q6.71,6.36,13.08,13c3.85,4,7.66,8.13,11.33,12.35,4,4.59,7.76,9.34,11.52,14.11q6.62,8.39,12.63,17.19c4.52,6.64,8.83,13.41,12.85,20.38a1.81,1.81,0,0,0,1.11,1ZM297.75,417c4.37.14,9.21-.1,14-.31,5.94-.26,11.87-.82,17.8-1.27,6.22-.47,12.38-1.41,18.55-2.21,5.47-.7,10.88-1.78,16.29-2.85,7.69-1.53,15.3-3.37,22.86-5.41,3.86-1,7.68-2.22,11.5-3.4,4.85-1.5,9.65-3.13,14.43-4.82,4.41-1.56,8.77-3.25,13.09-5q6-2.48,12-5.15c3.53-1.58,7-3.28,10.47-5,5.74-2.9,11.46-5.85,17-9.06,4.26-2.44,8.47-5,12.65-7.56,3.13-1.93,6.22-3.93,9.24-6,3.62-2.49,7.16-5.1,10.73-7.65,3.77-2.69,7.48-5.47,11.08-8.39,4.49-3.65,8.89-7.42,13.25-11.23,5.6-4.89,11.05-9.94,16.25-15.25s10.56-11,15.55-16.8c3.86-4.48,7.57-9.07,11.23-13.71,4.45-5.65,8.74-11.43,12.72-17.42,4.18-6.29,8.34-12.6,12.1-19.15a1.28,1.28,0,0,0,0-1.45c-1.88-3.07-3.7-6.17-5.6-9.22-2.19-3.53-4.48-7-6.77-10.46q-5.07-7.65-10.68-14.9c-5.56-7.16-11.18-14.27-17.29-21q-6.5-7.14-13.28-14c-5.51-5.58-11.33-10.81-17.21-16-4.17-3.67-8.42-7.25-12.79-10.67-5-3.94-10.19-7.72-15.42-11.41q-8.14-5.73-16.6-11-5.61-3.46-11.38-6.65c-7.91-4.35-15.91-8.52-24.09-12.33-5-2.3-10-4.45-15.07-6.51S414,99.8,408.75,98c-5-1.75-10.07-3.43-15.17-4.92-6.59-1.92-13.24-3.71-19.95-5.21-5.92-1.33-11.88-2.5-17.86-3.58-6.89-1.25-13.83-2-20.76-3-4.87-.66-9.79-.77-14.68-1.22-7.17-.66-14.37-.76-21.55-.85-7.59-.09-15.18.23-22.76.68-3.71.22-7.41.53-11.11.81-5.33.4-10.65,1.15-15.94,1.92q-11.68,1.68-23.24,4.16c-8,1.72-16,3.81-23.93,6.1-6.18,1.79-12.29,3.8-18.35,6q-9.7,3.47-19.21,7.46c-8,3.37-15.8,7.12-23.48,11.13-4.61,2.41-9.2,4.83-13.67,7.5s-9.06,5.4-13.5,8.23c-3.77,2.41-7.44,5-11.09,7.55-4.76,3.37-9.46,6.82-14.07,10.4s-9.29,7.56-13.8,11.51c-5.11,4.48-10.15,9-15,13.73-3.86,3.71-7.45,7.7-11.14,11.58-3.24,3.42-6.35,7-9.4,10.55-2.44,2.86-4.71,5.85-7.09,8.75-2.54,3.09-5,6.27-7.37,9.44-3.68,4.84-7.07,9.87-10.4,15Q9,239.53,4.2,247.7a1.57,1.57,0,0,0,0,1.77c3.32,5.74,6.94,11.3,10.58,16.84,3.51,5.35,7.23,10.55,11.11,15.63,2.13,2.79,4.36,5.51,6.53,8.28,2.86,3.64,5.84,7.19,8.9,10.67,2.64,3,5.35,5.93,8.07,8.85,4.94,5.3,10,10.45,15.32,15.37,4.77,4.43,9.7,8.69,14.66,12.9q7,5.89,14.28,11.32,7.5,5.58,15.25,10.8c3.59,2.4,7.2,4.77,10.89,7,6.23,3.74,12.51,7.4,19,10.74,6.65,3.42,13.3,6.8,20.15,9.8s13.52,5.75,20.42,8.29q7.48,2.76,15.09,5.17,11.93,3.79,24.14,6.64c6.15,1.44,12.31,2.76,18.52,3.88,5.67,1,11.37,1.77,17.06,2.6,6.85,1,13.74,1.49,20.62,2C282.25,416.81,289.77,417.07,297.75,417Z"/>
    <path class="uk-text-primary" d="M297.2,78.62A168.49,168.49,0,1,1,178.05,128,167.4,167.4,0,0,1,297.2,78.62m0-3a171.5,171.5,0,1,0,171.49,171.5A171.5,171.5,0,0,0,297.2,75.62Z"/>
</svg>