<svg xmlns="http://www.w3.org/2000/svg" viewBox="0 0 518.26 517.84">
    <path class="uk-text-primary" d="M259.13,517.77c-4.56,0-9.13.19-13.68,0-5.81-.31-11.63-.79-17.41-1.48a252.49,252.49,0,0,1-31.12-5.65,259,259,0,0,1-99.66-49.23,260.65,260.65,0,0,1-53.13-57.64A258.1,258.1,0,0,1,7.93,322.9a244.37,244.37,0,0,1-6-32.53C1.2,284.18.76,278,.38,271.74c-.45-7.36-.47-14.72-.21-22.06A257.58,257.58,0,0,1,6.5,201,261.29,261.29,0,0,1,24,149.8a255,255,0,0,1,16-29.24A259.32,259.32,0,0,1,183.85,11a260.88,260.88,0,0,1,40.49-8.77C230,1.41,235.76.9,241.51.51,252.14-.22,262.77,0,273.4.26a200.72,200.72,0,0,1,23.82,2.35,256.93,256.93,0,0,1,121,51.76c6.88,5.36,13.41,11.11,19.76,17.11a257.51,257.51,0,0,1,77,145.88c1.28,8,2.15,16,2.69,24A305.65,305.65,0,0,1,518,273.3a228.18,228.18,0,0,1-3.68,31.89,253.48,253.48,0,0,1-9.1,35.78,257.11,257.11,0,0,1-36.11,70.12,270,270,0,0,1-22.3,26.66,258,258,0,0,1-100.84,65.52,255.21,255.21,0,0,1-45,11.49c-5.91,1-11.86,1.63-17.83,2.22A203.6,203.6,0,0,1,259.13,517.77Zm.25-1.79c70-1.06,130.84-25.4,180.71-74.94C488.47,393,513.29,334.15,516,266q1.44-109.3-74.49-187.93C392.83,30.24,334.55,4.16,266.21,2.39,193.1.51,130.49,26.27,78,76.91,29.26,127,3.18,186.67,2.61,256.75,2,328.29,28,389.34,77.51,440.61Q153.32,514.4,259.38,516Z"/>
    <g class="uk-text-muted">
        <path d="M251.39,325.93c-2.35-.46-4.71-.88-7-1.38a66.9,66.9,0,0,1-45.45-35.28,67.35,67.35,0,0,1-6.1-19.12,60.63,60.63,0,0,1-.37-17.32A65.08,65.08,0,0,1,207.2,218.5,67.4,67.4,0,0,1,230,200.76a39.8,39.8,0,0,1,6.44-2.6c2.94-.83,4.28-2.93,4.79-5.7a15,15,0,0,0-2.65-11.38,22.36,22.36,0,0,0-3.41-4.17c-.26-.24-.63-.49-.47-.89s.66-.34,1.05-.35a16.27,16.27,0,0,1,13,5.48c.87.94.89.92,1.35-.29A55.56,55.56,0,0,1,258,166.23c.32-.41.61-.71,1-.09,1.26,2.08,2.86,3.94,4,6.1a75.55,75.55,0,0,1,4,8.86c.3.8.48,1,1.13.24a16,16,0,0,1,13.07-5.67c.42,0,1-.19,1.2.3s-.33.72-.62,1c-3.73,3.9-6.48,8.23-6.14,13.94a10.23,10.23,0,0,0,.42,2.59,6.61,6.61,0,0,0,4.41,4.64,66.11,66.11,0,0,1,43.46,50.71c.27,1.53.61,3,.92,4.58v13.68c-.09.3-.19.61-.26.92-.52,2.66-.92,5.36-1.59,8a66.59,66.59,0,0,1-50.16,48.46c-2.41.53-4.85,1-7.27,1.43ZM241.57,180a21,21,0,0,1,2.91,4.9,16.82,16.82,0,0,1-1,15.86,3,3,0,0,1-1.81,1.46,61.43,61.43,0,0,0-28.28,17.52,59.71,59.71,0,0,0-14.56,52.1,57.75,57.75,0,0,0,14.52,28.75,59.27,59.27,0,0,0,34.58,18.94,60.49,60.49,0,0,0,28.35-1.66,59.74,59.74,0,0,0,33.55-25.31,57.34,57.34,0,0,0,9.43-30.06,59.11,59.11,0,0,0-2.84-20.91,60.58,60.58,0,0,0-40.87-39.32,2.48,2.48,0,0,1-1.52-.89c-2.33-3.75-3.55-7.76-2.72-12.22a20.72,20.72,0,0,1,4.21-9.13,9.14,9.14,0,0,0-3.94,2.19,19.68,19.68,0,0,0-4.24,6.75c-.14.34-.24.72-.68.73s-.53-.39-.64-.75c-.78-2.43-1.51-4.89-2.37-7.29a28.45,28.45,0,0,0-3.4-7c-1.62-2.27-1.86-2.27-3.41,0-2.88,4.28-4.24,9.19-5.66,14.06-.11.38-.1.85-.6.93s-.72-.39-.86-.81a22.52,22.52,0,0,0-2.47-4.65A10,10,0,0,0,241.57,180Z"/>
        <path d="M278.14,253.66c3.18,0,3.88.49,4,2.93a43.5,43.5,0,0,1,0,7.74c-.19,1.64-1,2.26-2.62,2.35-2.48.15-4.7-.81-7-1.53a21.93,21.93,0,0,1-4.12-1.59,3.67,3.67,0,0,1-2.16-3.2,3.38,3.38,0,0,1,2-3.42A34.75,34.75,0,0,1,278.14,253.66Zm1.31,6.58h0c0-1.08,0-2.16,0-3.23a1.48,1.48,0,0,0-1.35-1.58,1.68,1.68,0,0,0-2,1.11,14.51,14.51,0,0,0,0,7.23,1.67,1.67,0,0,0,2,1.14,1.52,1.52,0,0,0,1.39-1.67C279.48,262.24,279.45,261.24,279.45,260.24Z"/>
        <path d="M295.67,253.65c3.16,0,3.86.52,4,2.86a45.08,45.08,0,0,1,0,7.88,2.3,2.3,0,0,1-2.56,2.28,10.67,10.67,0,0,1-3.33-.35,66,66,0,0,1-7.37-2.52,3.74,3.74,0,0,1-2.55-3.68,3.48,3.48,0,0,1,2.34-3.44C289.49,255.3,292.83,254,295.67,253.65Zm1.26,6.51c0-1.07.05-2.15,0-3.22a1.44,1.44,0,0,0-1.5-1.53,1.75,1.75,0,0,0-2,1.38,17.67,17.67,0,0,0,0,6.76,1.73,1.73,0,0,0,2,1.37,1.46,1.46,0,0,0,1.5-1.54C297,262.32,296.93,261.24,296.93,260.16Z"/>
        <path d="M258.24,201.87a23.28,23.28,0,0,1,4.36.2c1.74.37,2.75,1.53,2.4,3.26a46,46,0,0,1-3.3,10.36,3.86,3.86,0,0,1-6.89-.21,47,47,0,0,1-3.11-9.67c-.5-2.28.46-3.45,2.78-3.81A31.94,31.94,0,0,1,258.24,201.87Zm.1,2.89v0c-1,0-2.08,0-3.12,0a1.62,1.62,0,0,0-1.82,1.39,1.72,1.72,0,0,0,1.35,2,14.55,14.55,0,0,0,7.24,0,1.65,1.65,0,0,0,1.14-2,1.44,1.44,0,0,0-1.56-1.35C260.5,204.73,259.42,204.76,258.34,204.76Z"/>
        <path d="M217.12,260.17a22.33,22.33,0,0,1,.13-4.55,2.15,2.15,0,0,1,2.2-2,10,10,0,0,1,3.22.24,55.84,55.84,0,0,1,7.82,2.66,3.65,3.65,0,0,1,2.48,3.69,3.54,3.54,0,0,1-2.55,3.52c-3.31,1.26-6.56,2.8-10.2,2.88-2.12,0-2.89-.64-3.08-2.78C217,262.65,217.12,261.4,217.12,260.17Zm6.41.06h0c0-1,.07-2.07,0-3.1a1.77,1.77,0,0,0-1.94-1.71c-1,0-1.49.61-1.62,1.55a23,23,0,0,0,0,6.31c.14,1,.57,1.75,1.77,1.65a1.79,1.79,0,0,0,1.82-1.83C223.57,262.15,223.53,261.19,223.53,260.23Z"/>
        <path d="M234.59,260.1c0-1.24-.05-2.48,0-3.71a2.55,2.55,0,0,1,2.92-2.72,26.18,26.18,0,0,1,11.55,3.59c1.91,1,2,4.21.3,5.63a7,7,0,0,1-2.4,1.31c-3.06,1-6,2.45-9.33,2.47-2.08,0-3-.87-3.06-3,0-1.19,0-2.39,0-3.59Zm6.43.09a12.87,12.87,0,0,0-.1-3.34,1.78,1.78,0,0,0-2-1.42,1.52,1.52,0,0,0-1.54,1.52,26.24,26.24,0,0,0,0,6.2c.11,1,.48,1.79,1.68,1.78a1.84,1.84,0,0,0,1.94-1.87A27.48,27.48,0,0,0,241,260.19Z"/>
        <path d="M258.47,318.27c-1.32,0-2.64.05-4,0-1.81-.08-2.66-1-2.66-2.85a4.27,4.27,0,0,1,.1-1.07,57.14,57.14,0,0,1,2.91-9.11,3.77,3.77,0,0,1,3.88-2.6,3.83,3.83,0,0,1,3.54,2.74,63,63,0,0,1,2.84,8.89c.65,2.58-.51,4-3.19,4-1.15,0-2.31,0-3.47,0Zm.12-2.67h0c1,0,2,0,3,0s1.67-.3,1.79-1.37a1.7,1.7,0,0,0-1.38-2.06,15,15,0,0,0-6.87,0,1.72,1.72,0,0,0-1.46,1.92c.08,1.07.85,1.48,1.82,1.53S257.55,315.6,258.59,315.6Z"/>
        <path d="M258.26,219.14a23.71,23.71,0,0,1,4.48.2,2.44,2.44,0,0,1,2.13,2.51,7.72,7.72,0,0,1-.28,2.49,59.86,59.86,0,0,1-2.64,8c-.62,1.4-1.48,2.58-3.23,2.66a3.52,3.52,0,0,1-3.9-2.36,43.9,43.9,0,0,1-3.1-9.81,2.82,2.82,0,0,1,2.53-3.53A28.51,28.51,0,0,1,258.26,219.14Zm0,2.89h0c-1.08,0-2.15,0-3.23,0s-1.64.41-1.71,1.45a1.68,1.68,0,0,0,1.36,2,16.48,16.48,0,0,0,7,.05,1.82,1.82,0,0,0,1.53-2.1c-.16-1-.92-1.34-1.83-1.36S259.33,222,258.3,222Z"/>
        <path d="M317.15,260.2c0,1.2,0,2.4,0,3.6a2.62,2.62,0,0,1-2.94,2.86,19.17,19.17,0,0,1-6.15-1.4c-1.48-.5-2.95-1-4.38-1.62a3.55,3.55,0,0,1-2.39-3.28,3.38,3.38,0,0,1,2.16-3.52,37.1,37.1,0,0,1,9.78-3.13c2.8-.41,3.92.68,3.92,3.5Zm-2.64.53a30.26,30.26,0,0,0-.15-3.9c-.17-.87-.59-1.47-1.58-1.46s-1.75.36-1.91,1.41a21.65,21.65,0,0,0,0,6.77c.16,1.05.92,1.41,1.91,1.42a1.48,1.48,0,0,0,1.57-1.47C314.47,262.44,314.48,261.36,314.51,260.73Z"/>
        <path d="M199.77,260.06c0-1.23,0-2.47,0-3.71a2.49,2.49,0,0,1,2.7-2.69,11.83,11.83,0,0,1,4,.67,35.68,35.68,0,0,1,7.28,2.73,3.5,3.5,0,0,1,.15,6.17,19.13,19.13,0,0,1-4.43,1.79,30.16,30.16,0,0,1-5.76,1.59c-2.82.37-3.95-.59-4-3.43v-3.12Zm2.69.06h0c0,1,0,2.08,0,3.12s.36,1.65,1.44,1.72,1.88-.23,2.09-1.35a18.83,18.83,0,0,0,0-6.9c-.21-1.13-1.08-1.4-2.1-1.34s-1.36.76-1.41,1.63C202.42,258,202.46,259.08,202.46,260.12Z"/>
        <path d="M310.8,252.74a73.8,73.8,0,0,1-8-.86,3.64,3.64,0,0,1-3-3.16,3,3,0,0,1,1.39-3.3,48,48,0,0,1,8.65-5.36c2.4-1.17,3.89-.4,4.59,2.18.6,2.2,1.18,4.4,1.7,6.62.42,1.79,0,2.56-1.72,3.3a5.81,5.81,0,0,1-1,.34A10.52,10.52,0,0,1,310.8,252.74Zm2.53-3.45a34.86,34.86,0,0,0-1.37-6.07c-.27-1-.86-1.72-2.08-1.5a1.71,1.71,0,0,0-1.54,2.17,30.82,30.82,0,0,0,1.33,5.58,2.66,2.66,0,0,0,.46.84,1.81,1.81,0,0,0,2.18.79C313.24,250.8,313.37,250.11,313.33,249.29Z"/>
        <path d="M205.82,267.63c2.58.27,5.19.19,7.74.68a3.65,3.65,0,0,1,3.28,2.69,3.55,3.55,0,0,1-1.48,4.18,53.69,53.69,0,0,1-8.69,5.25c-2,1-3.38.41-4-1.69-.82-2.58-1.44-5.23-2-7.87-.27-1.19.43-2.14,1.7-2.69A11.68,11.68,0,0,1,205.82,267.63Zm2.61,8.35a21.57,21.57,0,0,0-1.67-5.88,1.77,1.77,0,0,0-2.34-.89c-.94.31-1.09,1.09-1,2a39.79,39.79,0,0,0,1.44,5.91c.29.94.74,1.84,2,1.62S208.45,277.88,208.43,276Z"/>
        <path d="M258.52,283.7c-1.28,0-2.56.05-3.84,0a2.63,2.63,0,0,1-2.74-3.17,39.48,39.48,0,0,1,3.35-10.59,3.35,3.35,0,0,1,3.44-1.91,3.26,3.26,0,0,1,3.12,2,39.64,39.64,0,0,1,3.17,9.66c.53,2.77-.59,4-3.39,4h-3.11Zm-.4-2.62a26.5,26.5,0,0,0,3.86-.17c.78-.17,1.5-.44,1.5-1.41a1.76,1.76,0,0,0-1.48-2,19.86,19.86,0,0,0-6.92,0,1.73,1.73,0,0,0-1.48,1.9c0,1,.71,1.41,1.56,1.51C256.26,281.05,257.39,281.05,258.12,281.08Z"/>
        <path d="M206,252.73c-.88-.08-2.47.31-3.93-.53s-1.76-1.45-1.41-2.93c.56-2.42,1.14-4.83,1.83-7.2s2-2.94,4.13-2a42.87,42.87,0,0,1,9.55,5.92c1.81,1.47.62,5.49-1.67,5.93A37.28,37.28,0,0,1,206,252.73Zm2.43-8.15c0-2-.34-2.55-1.52-2.77-1-.19-1.65.28-2,1.7a40.44,40.44,0,0,0-1.41,5.82,1.68,1.68,0,0,0,2.3,1.94,2.53,2.53,0,0,0,1.39-1.58A35.06,35.06,0,0,0,208.43,244.58Z"/>
        <path d="M310.17,267.57a15,15,0,0,1,3.8.25c2,.54,2.68,1.57,2.21,3.53-.58,2.41-1.2,4.81-1.92,7.17-.59,1.94-1.85,2.65-3.7,1.85a35.85,35.85,0,0,1-9.75-6,3.52,3.52,0,0,1,1.4-5.9C304.94,267.59,307.82,267.78,310.17,267.57Zm3.18,3.46c0-.86,0-1.72-1.08-2a1.83,1.83,0,0,0-2.34,1.13,21.32,21.32,0,0,0-1.59,6.46,1.78,1.78,0,0,0,1.59,1.94c1,.22,1.53-.4,1.83-1.18A31.58,31.58,0,0,0,313.35,271Z"/>
        <path d="M250.41,311.71a10.58,10.58,0,0,1-.32,3.8c-.57,1.6-1.44,2.15-3.1,1.84a52.58,52.58,0,0,1-7.63-2c-2-.69-2.55-1.91-1.7-3.85a31.38,31.38,0,0,1,6.16-9.35,3.56,3.56,0,0,1,6,1.72c.59,2.1.35,4.29.6,6.42A13.83,13.83,0,0,1,250.41,311.71Zm-8.33-2.11c-1.87,0-2.52.39-2.67,1.48s.32,1.66,1.7,2.05c1.8.5,3.62.95,5.44,1.37.94.22,1.88.22,2.33-.86a2,2,0,0,0-1.25-2.61A22.4,22.4,0,0,0,242.08,309.6Z"/>
        <path d="M258.38,236.62c1.19,0,2.39,0,3.59,0,2,.07,2.95,1.05,2.9,3.12a16.66,16.66,0,0,1-1,4.31,39.33,39.33,0,0,1-2.19,6.08,3.56,3.56,0,0,1-3.66,2.17,3.34,3.34,0,0,1-3.08-2.1,39.72,39.72,0,0,1-3.26-10.37,2.66,2.66,0,0,1,2.72-3.2c.68,0,1.36,0,2,0s1.28,0,1.92,0Zm-.5,6.47a19.1,19.1,0,0,0,3.71-.2,1.86,1.86,0,0,0,1.66-2c0-1.11-.87-1.51-1.79-1.54q-3.16-.1-6.33,0a1.6,1.6,0,0,0-1.78,1.56,1.81,1.81,0,0,0,1.58,2A12,12,0,0,0,257.88,243.09Z"/>
        <path d="M258.5,301c-1.28,0-2.56,0-3.83,0a2.61,2.61,0,0,1-2.73-3.16,38.2,38.2,0,0,1,3.34-10.47,3.38,3.38,0,0,1,3.62-2,3.55,3.55,0,0,1,3.1,2.29,53.73,53.73,0,0,1,3,9.09,6.78,6.78,0,0,1,.1,1.91,2.28,2.28,0,0,1-2.28,2.32c-1.43.08-2.87,0-4.31,0Zm-.88-2.48a24.2,24.2,0,0,1,3.68-.18c1,0,1.95-.21,2.19-1.4.2-1-.48-1.88-1.78-2.14a17.06,17.06,0,0,0-6.41,0,2.6,2.6,0,0,0-.88.36,1.65,1.65,0,0,0-.8,1.84,1.42,1.42,0,0,0,1.37,1.28C255.81,298.39,256.65,298.44,257.62,298.52Z"/>
        <path d="M266.46,312.29c.43-2.54.12-5.11.53-7.64a3.78,3.78,0,0,1,2.38-3.29,3.24,3.24,0,0,1,4.16,1,39.19,39.19,0,0,1,5.82,9c.88,2,.26,3.32-1.84,4s-4.52,1.32-6.81,1.86-3.58-.25-4-2.75C266.56,313.72,266.53,313,266.46,312.29Zm3.92,2.13a29.63,29.63,0,0,0,6.36-1.77,1.38,1.38,0,0,0,1-1.38,1.82,1.82,0,0,0-1.07-1.62,2.21,2.21,0,0,0-1.28-.23,27,27,0,0,0-6.13,1.61,1.86,1.86,0,0,0-1.19,2.34C268.29,314.48,269.2,314.41,270.38,314.42Z"/>
        <path d="M229.78,253.21c-3-.33-6-.05-8.89-1.06a4.88,4.88,0,0,1-1.83-1.09,2,2,0,0,1-.57-2.28c1-2.54,2-5.05,3.21-7.49.92-1.86,2.18-2.18,4.06-1.13a36.28,36.28,0,0,1,5.29,4.12,30.05,30.05,0,0,1,2.84,2.58,3.29,3.29,0,0,1,.81,3.91,3.62,3.62,0,0,1-3.48,2.44ZM227.21,244c0-.94-.21-1.7-1.19-2a1.71,1.71,0,0,0-2.19,1,32.42,32.42,0,0,0-2.43,5.84c-.23.84-.26,1.6.62,2.09a1.76,1.76,0,0,0,2.45-.48A19.54,19.54,0,0,0,227.21,244Z"/>
        <path d="M279.5,207.54a3.93,3.93,0,0,1-.56,2,42,42,0,0,1-5.54,8.37,3.09,3.09,0,0,1-3.58,1.22,3.73,3.73,0,0,1-2.91-3.12,46.18,46.18,0,0,1-.37-10.17c.15-2.32,1.59-3.29,3.87-2.76s4.5,1.12,6.72,1.77C278.82,205.32,279.5,206.16,279.5,207.54Zm-4.89,3.19c1.93,0,2.65-.38,2.85-1.42.24-1.34-.78-1.74-1.72-2.06a34.2,34.2,0,0,0-5.89-1.52,1.53,1.53,0,0,0-1.94,1.15,1.74,1.74,0,0,0,1,2.27A22.56,22.56,0,0,0,274.61,210.73Z"/>
        <path d="M230.19,267.14c3.1,0,4.31.88,4.95,3.31a2.38,2.38,0,0,1-.43,2.24c-2,2.53-4.59,4.3-7,6.33a9.53,9.53,0,0,1-2.42,1.53,2.23,2.23,0,0,1-3.18-1,63.35,63.35,0,0,1-3.51-8.12,2,2,0,0,1,.89-2.41,6.52,6.52,0,0,1,3-1.16C225.11,267.39,227.79,267.38,230.19,267.14Zm-2.76,9.41a20.72,20.72,0,0,0-2.87-6.76,1.61,1.61,0,0,0-1-.59,1.64,1.64,0,0,0-2.08,1.88,22.55,22.55,0,0,0,2.74,6.59,1.44,1.44,0,0,0,1.81.8A1.92,1.92,0,0,0,227.43,276.55Z"/>
        <path d="M287,267.08a65.13,65.13,0,0,1,7.61.75,8.4,8.4,0,0,1,1.84.52c2,.94,2.46,1.93,1.6,4-.94,2.25-1.91,4.49-3,6.69-.89,1.88-2.14,2.3-3.89,1.19a39.83,39.83,0,0,1-8.68-7.33c-1.7-1.93-.3-5.28,2.3-5.7C285.56,267.09,286.29,267.12,287,267.08Zm2.61,9A2,2,0,0,0,291,278.4a1.54,1.54,0,0,0,1.89-.89,25.71,25.71,0,0,0,2.6-6.28,1.5,1.5,0,0,0-.87-2,1.8,1.8,0,0,0-2.26.59A20.75,20.75,0,0,0,289.64,276.08Z"/>
        <path d="M286.24,253.2c-1.32-.18-2.87,0-3.77-1.61-1.29-2.25-1.21-3.22.65-5.08a58.94,58.94,0,0,1,6.94-5.88,6.48,6.48,0,0,1,1.25-.71c1.71-.75,2.79-.5,3.6,1.16,1.19,2.44,2.24,4.95,3.23,7.48.53,1.33.15,2.13-1.11,2.92a8.24,8.24,0,0,1-3.62,1.18C291.07,252.91,288.71,253,286.24,253.2Zm4.92-11.42a4.38,4.38,0,0,0-.87.35,2,2,0,0,0-.66,2.47,21.5,21.5,0,0,0,2.22,5.39,2.07,2.07,0,0,0,.48.54,2,2,0,0,0,2.45.24c.84-.46.7-1.23.49-2a37.26,37.26,0,0,0-2.34-5.75A2,2,0,0,0,291.16,241.78Z"/>
        <path d="M251,288.39c-.24,2.39-.49,5.05-.78,7.71a5.4,5.4,0,0,1-.8,2.24,2.21,2.21,0,0,1-2.93,1.11,62.9,62.9,0,0,1-7.54-3.05c-1.74-.84-2.07-1.85-1.29-3.62a16.75,16.75,0,0,1,2.85-4.12,35.72,35.72,0,0,1,4.34-4.61,3.69,3.69,0,0,1,6,2.39A19.15,19.15,0,0,1,251,288.39Zm-4.17,8.26c1.78,0,2.54-1.19,1.92-2.45a2.38,2.38,0,0,0-1.2-1.14,32.09,32.09,0,0,0-5.11-2,3.49,3.49,0,0,0-1.54-.08,1.72,1.72,0,0,0-1.35,1.37,1.27,1.27,0,0,0,.47,1.5A26.65,26.65,0,0,0,246.79,296.65Z"/>
        <path d="M250.67,231.58c0,3.6-.67,4.65-3.11,5.53a2.32,2.32,0,0,1-2.17-.21,7.84,7.84,0,0,1-1.68-1.35c-2.14-2.37-4.43-4.62-6-7.43-1.21-2.12-.91-3.35,1.29-4.34s4.64-1.94,7-2.8c1.72-.62,2.78-.06,3.5,1.67a12.08,12.08,0,0,1,.73,3.63C250.38,228.26,250.55,230.25,250.67,231.58Zm-9.07-2.17a20.17,20.17,0,0,0,6.27-2.59,1.6,1.6,0,0,0,.76-1.64c-.17-1.33-.94-1.82-2.58-1.38a30.39,30.39,0,0,0-5.75,2.33,1.55,1.55,0,0,0-1,1.91C239.53,229,240.24,229.45,241.6,229.41Z"/>
        <path d="M269.61,220.7a7.86,7.86,0,0,1,1.13.29q3.3,1.27,6.58,2.59a5.31,5.31,0,0,1,1.13.66c1.33,1,1.51,1.68.82,3.19-1.1,2.45-3,4.33-4.71,6.32-.8.93-1.73,1.76-2.62,2.63a2.77,2.77,0,0,1-3.29.61c-1.37-.58-2.54-1.34-2.61-3a43.82,43.82,0,0,1,.81-10.6C267.19,221.71,268.32,220.68,269.61,220.7Zm.15,2.93c-.63.05-1.27,0-1.58.69a2,2,0,0,0,.16,2.16,2.21,2.21,0,0,0,.82.67c1.49.68,3,1.35,4.52,1.94a4.73,4.73,0,0,0,2.12.32,1.72,1.72,0,0,0,1.52-1.33,1.26,1.26,0,0,0-.52-1.58A24,24,0,0,0,269.76,223.63Z"/>
        <path d="M266.24,288.65c0-.7,0-1.14,0-1.57-.17-2.67,1.85-3.59,3.89-4.06a2.07,2.07,0,0,1,1.74.68,37.38,37.38,0,0,1,7.24,8.43c1.4,2.33,1,3.44-1.44,4.52-2.19,1-4.42,1.86-6.67,2.69-1.83.68-3.06.06-3.72-1.81a9.35,9.35,0,0,1-.56-2.68C266.6,292.69,266.2,290.56,266.24,288.65Zm3.64,8.05a23.34,23.34,0,0,0,7.16-2.83,1.25,1.25,0,0,0,.54-1.66,1.75,1.75,0,0,0-1.82-1.27,15.87,15.87,0,0,0-6.94,2.67,1.78,1.78,0,0,0-.49,2.18C268.57,296.52,269.18,296.67,269.88,296.7Z"/>
        <path d="M217.49,241.13a42.51,42.51,0,0,1-10.07-2.26,5.06,5.06,0,0,1-1.32-.83c-1.33-1.06-1.49-1.67-.72-3.2a65.44,65.44,0,0,1,3.88-6.62c1.29-2,2.44-2.09,4.39-.65a32.83,32.83,0,0,1,3.64,3.63,31.09,31.09,0,0,1,3.73,4.37,2.81,2.81,0,0,1,.11,3.26C220.4,240.08,219.58,241.19,217.49,241.13Zm-7.88-3.06a1.87,1.87,0,0,0,1.58-.76,21,21,0,0,0,3.29-5.81,1.69,1.69,0,0,0-1-2.19,1.55,1.55,0,0,0-2.11.55,24.61,24.61,0,0,0-3.45,6C207.49,237.07,208.23,238,209.61,238.07Z"/>
        <path d="M299.34,241.05c-2.34.23-3.42-1.16-4.19-3.51a2.61,2.61,0,0,1,.79-2.31,50.38,50.38,0,0,1,7.18-7.7c1.83-1.55,3.21-1.32,4.47.69,1.35,2.17,2.62,4.4,3.85,6.64.73,1.32.55,1.9-.57,2.94a5.34,5.34,0,0,1-1.84,1.1A45.26,45.26,0,0,1,299.34,241.05Zm3-10a1.49,1.49,0,0,0,.1.66,20.92,20.92,0,0,0,3.18,5.44,3,3,0,0,0,1,.69,1.64,1.64,0,0,0,1.79-.25,1.26,1.26,0,0,0,.59-1.45,21.52,21.52,0,0,0-3.74-6.61,1.46,1.46,0,0,0-1.86-.37A1.8,1.8,0,0,0,302.29,231.09Z"/>
        <path d="M250.2,209.65a35.23,35.23,0,0,1-.43,6.32,3.77,3.77,0,0,1-3.05,3.26c-1.64.45-2.69-.32-3.61-1.46a40.61,40.61,0,0,1-5.36-8.2c-1.21-2.56-.55-4,2.17-4.79q3.11-.9,6.26-1.62c2.48-.57,3.81.43,4,3C250.27,207.33,250.2,208.49,250.2,209.65Zm-8.47,1.27a30.39,30.39,0,0,0,6.05-1.7,1.8,1.8,0,0,0,.93-2.42c-.36-1-1.13-1.12-2-1a45.75,45.75,0,0,0-5.88,1.53c-1,.31-1.79.79-1.58,2C239.39,210.4,240.18,210.93,241.73,210.92Z"/>
        <path d="M299.2,279.18c3.46.6,7.19.94,10.63,2.48,2.1.94,2.52,2.23,1.42,4.23-1.19,2.17-2.44,4.31-3.79,6.39-1.15,1.76-2.34,1.91-4,.61a48,48,0,0,1-7.4-7.81,2.85,2.85,0,0,1-.39-3.54A4,4,0,0,1,299.2,279.18Zm9.8,4.67a1.34,1.34,0,0,0-.91-1.41,2,2,0,0,0-2.47.66,19.29,19.29,0,0,0-3.19,5.57,1.81,1.81,0,0,0,.88,2.34c.94.6,1.65.08,2.17-.59a24.2,24.2,0,0,0,3.42-6A2.82,2.82,0,0,0,309,283.85Z"/>
        <path d="M266.77,264.31a7,7,0,0,1,2.5.79,49.83,49.83,0,0,1,8.13,4.32c2.07,1.52,2.24,2.64.54,4.53s-3.53,3.69-5.4,5.43c-1.31,1.22-2.09,1.13-3.41-.11a9,9,0,0,1-1.43-1.6,41.21,41.21,0,0,1-4.42-8.61A3.83,3.83,0,0,1,266.77,264.31ZM270,277.44a2.47,2.47,0,0,0,1.79-.84q1.86-1.78,3.64-3.64a3.66,3.66,0,0,0,.76-1.2,1.71,1.71,0,0,0-1.94-2.32,2.8,2.8,0,0,0-1.49.73c-1.19,1.18-2.39,2.35-3.54,3.56a3.21,3.21,0,0,0-.87,1.68A1.7,1.7,0,0,0,270,277.44Z"/>
        <path d="M233.49,227.93a2.67,2.67,0,0,1,1.68.79,12.7,12.7,0,0,1,2.49,3.21A54.53,54.53,0,0,1,241,238.7a3.1,3.1,0,0,1-.79,3.71c-1.16,1.11-2.34,1.87-4.06,1.08a88.86,88.86,0,0,1-8.65-4.39,5.38,5.38,0,0,1-.85-.66c-1.77-1.62-1.85-2.59-.2-4.32s3.5-3.52,5.25-5.27A2.88,2.88,0,0,1,233.49,227.93Zm2.54,4.42a1.48,1.48,0,0,0-.75-1.44,1.71,1.71,0,0,0-2,.2,25.48,25.48,0,0,0-4.8,4.82,1.51,1.51,0,0,0,0,2.09,1.68,1.68,0,0,0,2.35.4,20.45,20.45,0,0,0,4.87-4.73A2.08,2.08,0,0,0,236,232.35Z"/>
        <path d="M278.3,300.05c0-2.61,3.4-4.7,5.4-3.4a34.53,34.53,0,0,1,8.26,7.22c1.7,2.13,1.56,3.07-.72,4.58s-4.37,2.65-6.59,3.9a2,2,0,0,1-2.88-.55,4.4,4.4,0,0,1-.87-1.28A56.22,56.22,0,0,1,278.3,300.05Zm10.41,3a14.92,14.92,0,0,0-6.75,3.79,1.78,1.78,0,0,0,0,2.33,1.5,1.5,0,0,0,2,.4,29.16,29.16,0,0,0,5.85-3.44,1.57,1.57,0,0,0,.63-1.89A1.74,1.74,0,0,0,288.71,303.08Z"/>
        <path d="M291.75,288.62c1.95.18,3.59,1.34,5.36,2.14,1.53.68,2.95,1.58,4.42,2.39a6.17,6.17,0,0,1,.6.39c2.35,1.81,2.45,3,.36,5.15q-2.22,2.26-4.48,4.49c-1.79,1.75-3,1.7-4.62-.21a17.44,17.44,0,0,1-2.48-3.81,39.31,39.31,0,0,1-2.78-6.09C287.6,291.21,289.72,288.55,291.75,288.62Zm1.46,11.32a1.64,1.64,0,0,0,2.41,1.57,18.39,18.39,0,0,0,5.4-5.36c.58-.84.18-1.63-.65-2.12a2.25,2.25,0,0,0-2.75.5,40.18,40.18,0,0,0-3.2,3.06A4,4,0,0,0,293.21,299.94Z"/>
        <path d="M238.64,300.8a47.69,47.69,0,0,1-2.63,10c-.92,2.12-2.26,2.51-4.23,1.38s-3.94-2.27-5.88-3.46c-2.19-1.36-2.49-2.73-.86-4.72a38,38,0,0,1,8.17-7.16,2.54,2.54,0,0,1,3.11-.12C237.59,297.59,238.82,298.4,238.64,300.8Zm-10.21,2.42c-.93.07-1.59.34-1.88,1.1a1.56,1.56,0,0,0,.52,1.94,25.67,25.67,0,0,0,6.19,3.58,1.4,1.4,0,0,0,1.66-.29,1.85,1.85,0,0,0,.46-1.89,2.54,2.54,0,0,0-1.16-1.47c-1.4-.84-2.8-1.69-4.24-2.47A7.67,7.67,0,0,0,228.43,303.22Z"/>
        <path d="M250.23,264.48c2.23,0,4.18,2.68,3.45,4.67a41.31,41.31,0,0,1-4.74,9.11,3.11,3.11,0,0,1-.23.28c-2,2.32-3.06,2.4-5.19.26a60.74,60.74,0,0,1-5-5.18c-1-1.34-1-2,.13-3.26a6.36,6.36,0,0,1,1.75-1.44c2.62-1.36,5.19-2.83,7.92-4A5.51,5.51,0,0,1,250.23,264.48Zm-1.59,11.36a1.34,1.34,0,0,0-.07-.39,12.17,12.17,0,0,0-5.78-5.79,1.54,1.54,0,0,0-1.81.62,1.39,1.39,0,0,0-.16,1.78,18.44,18.44,0,0,0,5.38,5.36A1.65,1.65,0,0,0,248.64,275.84Z"/>
        <path d="M278.19,219.93c.64-3.48,1.11-7.05,2.59-10.3,1.17-2.57,2.43-2.62,4.37-1.45s4.15,2.42,6.16,3.72,2,2.25.73,4.1a24.62,24.62,0,0,1-4.66,4.63c-1.07.9-2.2,1.73-3.32,2.57a3,3,0,0,1-3.56.33C279.11,222.72,278,221.78,278.19,219.93Zm12.27-4.6a1.81,1.81,0,0,0-.82-1.39,37.65,37.65,0,0,0-5.63-3.35c-.82-.4-1.64-.48-2.22.41a1.77,1.77,0,0,0,.17,2.5,16.29,16.29,0,0,0,6.39,3.6A1.89,1.89,0,0,0,290.46,215.33Z"/>
        <path d="M238.5,220.29c.2,1.9-1.12,2.7-2.46,3.49a2.8,2.8,0,0,1-3.25-.32,39.83,39.83,0,0,1-7.8-6.86c-1.76-2-1.56-3.38.71-4.8q3.09-2,6.32-3.67c1.64-.88,2.48-.58,3.52,1a4.44,4.44,0,0,1,.42.73A50.83,50.83,0,0,1,238.5,220.29Zm-10.42-3.08c1.36,0,6.19-2.62,6.9-3.8a2,2,0,0,0-.13-2.36,1.5,1.5,0,0,0-2-.34,28.61,28.61,0,0,0-6,3.51,1.44,1.44,0,0,0-.58,1.79A1.7,1.7,0,0,0,228.08,217.21Z"/>
        <path d="M304,224a3.05,3.05,0,0,1-1.07,1.89c-1.42,1.47-3.33,2.18-5.08,3.13a32.91,32.91,0,0,1-5.34,2.41c-1.69.56-2.64-.53-3.64-1.47a2.61,2.61,0,0,1-.74-3,41,41,0,0,1,4.82-9.21,7.55,7.55,0,0,1,1-1.14c1.35-1.17,2.14-1.22,3.44,0,1.92,1.82,3.75,3.71,5.58,5.61A3.13,3.13,0,0,1,304,224Zm-2.89.71a1.8,1.8,0,0,0-.5-1.32,36.38,36.38,0,0,0-4.29-4.31c-.82-.6-1.67-1-2.56-.15a1.91,1.91,0,0,0-.08,2.71,22.67,22.67,0,0,0,4.16,4.26,2.39,2.39,0,0,0,1.43.53A1.66,1.66,0,0,0,301.07,224.7Z"/>
        <path d="M291.48,236.1a3.12,3.12,0,0,1-1.28,2.09,40.09,40.09,0,0,1-10.63,5.41c-1.77.59-4.68-2.29-4.06-4.09,1.37-4,3.08-7.81,6.07-10.88,1.12-1.15,2.11-1.2,3.26-.11,1.94,1.83,3.81,3.75,5.67,5.67A3,3,0,0,1,291.48,236.1Zm-9.1-5.65a1.85,1.85,0,0,0-1.34,3,19.12,19.12,0,0,0,4.39,4.54,2.09,2.09,0,0,0,2.93-.16c.6-.68.48-1.66-.47-2.67-1.22-1.32-2.51-2.57-3.8-3.82A3,3,0,0,0,282.38,230.45Z"/>
        <path d="M217.71,279.33c1.64-.16,2.61.72,3.38,2a3.09,3.09,0,0,1-.19,3.79A52,52,0,0,1,214,292.6c-2.14,1.86-3.41,1.58-4.91-.85-1.11-1.8-2.22-3.61-3.26-5.45-1.3-2.29-.79-3.72,1.65-4.73A40.14,40.14,0,0,1,217.71,279.33Zm-3.08,10.14c0-1.38-2.75-6.13-3.88-6.81a2.83,2.83,0,0,0-.43-.2,1.85,1.85,0,0,0-1.91.33,1.33,1.33,0,0,0-.38,1.63,22.75,22.75,0,0,0,3.59,6.32,1.42,1.42,0,0,0,1.83.44A1.75,1.75,0,0,0,214.63,289.47Z"/>
        <path d="M228.87,228c0,2.06-2.64,4.18-4.39,3.62a38.77,38.77,0,0,1-10.31-5.26c-1.76-1.24-1.79-2.55-.29-4.12q2.6-2.75,5.33-5.35c1.48-1.42,2.24-1.34,3.78.08,2.15,2,3.12,4.7,4.44,7.2A10,10,0,0,1,228.87,228Zm-5.32-7.65a1.64,1.64,0,0,0-1-1.64,1.55,1.55,0,0,0-1.78.29,30.23,30.23,0,0,0-4.74,4.72,1.62,1.62,0,0,0-.15,2.11,1.78,1.78,0,0,0,2.14.65,3.26,3.26,0,0,0,1.26-.67c1.21-1.15,2.39-2.35,3.54-3.57A2.54,2.54,0,0,0,223.55,220.33Z"/>
        <path d="M279.39,276.5a6.54,6.54,0,0,1,.88.22,49.36,49.36,0,0,1,9.46,4.84c2.23,1.49,2.36,2.81.55,4.8-1.56,1.71-3.21,3.34-4.9,4.92s-2.61,1.57-4.14-.17a28.82,28.82,0,0,1-5.61-10.33C275.09,279.11,277.39,276.5,279.39,276.5Zm9.39,6.82A1.5,1.5,0,0,0,288,282a2,2,0,0,0-2.26.1,18.82,18.82,0,0,0-4.53,4.55,1.86,1.86,0,0,0,.15,2.6,1.72,1.72,0,0,0,2.49-.11,29.07,29.07,0,0,0,4.47-4.47A2.08,2.08,0,0,0,288.78,283.32Z"/>
        <path d="M253.81,252.41c0,2-2.62,4-4.46,3.44a40.22,40.22,0,0,1-9.93-5c-2.14-1.45-2.18-2.79-.4-4.63s3.34-3.44,5.08-5.09c1.55-1.46,2.32-1.38,3.88.12a15,15,0,0,1,2.53,3.62,47.57,47.57,0,0,1,2.9,5.91A5,5,0,0,1,253.81,252.41Zm-5.31-7.66a1.79,1.79,0,0,0-.85-1.72,1.71,1.71,0,0,0-2,.28,27,27,0,0,0-4.37,4.24c-.66.8-1.11,1.74-.3,2.71a2.16,2.16,0,0,0,2.94,0,22.21,22.21,0,0,0,4-3.95A2.42,2.42,0,0,0,248.5,244.75Z"/>
        <path d="M266.79,255.83c-2.38,0-4.43-2.7-3.6-4.72,1.46-3.54,2.91-7.12,5.61-10,1.52-1.59,2.38-1.6,4-.09,1.78,1.72,3.53,3.48,5.23,5.27,1.46,1.53,1.39,2.78-.28,4a44,44,0,0,1-9.7,5.16A7,7,0,0,1,266.79,255.83Zm7.63-5.1a1.73,1.73,0,0,0,1.39-2.82,22.83,22.83,0,0,0-5-4.94,1.41,1.41,0,0,0-1.79,0,1.68,1.68,0,0,0-.79,1.74,2.9,2.9,0,0,0,.45,1.22,22.12,22.12,0,0,0,4.37,4.38A2.42,2.42,0,0,0,274.42,250.73Z"/>
        <path d="M241.36,280.63a5.84,5.84,0,0,1-.27,1.13,44.6,44.6,0,0,1-4.52,8.56,8.32,8.32,0,0,1-1.2,1.32c-1.32,1.2-2.08,1.22-3.46.07a69.22,69.22,0,0,1-5.71-5.78c-1.28-1.35-1.17-2.17.14-3.5,1.58-1.6,3.7-2.34,5.6-3.4a23,23,0,0,1,4.8-2.16C238.77,276.29,241.36,278.27,241.36,280.63Zm-11.3,1.18c-1.44,0-2.4,1.32-1.67,2.45a17.13,17.13,0,0,0,5.38,5.37,1.38,1.38,0,0,0,1.68-.08,1.74,1.74,0,0,0,.74-1.67,2.58,2.58,0,0,0-.47-1.22,24.57,24.57,0,0,0-4.09-4.19A2.84,2.84,0,0,0,230.06,281.81Z"/>
        <path d="M221.24,304.59a2.41,2.41,0,0,1-1.69-.75c-1.93-1.91-3.89-3.79-5.74-5.77-1.34-1.43-1.27-2.53.3-3.75a37.72,37.72,0,0,1,10.47-5.45c1.55-.56,2.52.62,3.49,1.58a2.48,2.48,0,0,1,.72,2.92,40.11,40.11,0,0,1-5,9.48A3.8,3.8,0,0,1,221.24,304.59Zm-3.73-10.72a1.72,1.72,0,0,0-1.5,2.67,21,21,0,0,0,5.05,5,1.63,1.63,0,0,0,2.59-.91,2.34,2.34,0,0,0-.54-2.12,25.46,25.46,0,0,0-3.61-3.8A3.59,3.59,0,0,0,217.51,293.87Z"/>
    </g>
    <path d="M208,375.62a8,8,0,0,1,.38-3.66,1.82,1.82,0,0,0,0-1.06,4.63,4.63,0,0,1,4.92-5.37,5.53,5.53,0,0,1,5,4.17c.37,1.34.44,1.39,1.64.64a14.1,14.1,0,0,0,1.81-1.37c1.53-1.37,2.8-1,3.27,1,0,.18.09.36.16.64,1.13-.85,2.15-1.68,3.23-2.4,2.14-1.42,3.27-1,4.1,1.39.13.38.23.39.58.3,1.86-.48,2.15-.36,3.22,1.1,1.58,2.17,2.11,2.28,4.27.66a44.24,44.24,0,0,0,3.5-2.91c.35-.32,1-.67.54-1.39a1.38,1.38,0,0,1,.44-2.07,2,2,0,0,1,2.65.11,1.65,1.65,0,0,1,.25,2.29c-1,1.11-.49,2.65-1.38,3.81a10.3,10.3,0,0,0-1.63,3.72c-.08.29-.25.64,0,.9s.69.08,1-.08a18.32,18.32,0,0,0,5.62-5.15c.4-.5.74-1.05,1.17-1.52a2.1,2.1,0,0,1,2.89-.45.83.83,0,0,0,1.15-.12,7.34,7.34,0,0,1,2.34-1.43,2,2,0,0,1,2.15.22,2.17,2.17,0,0,1,.64,2.3c-.22.89-.52,1.77-.77,2.65-.08.3-.23.68.08.89s.61-.07.87-.24a16.64,16.64,0,0,0,3.44-3.47,5.14,5.14,0,0,1,4.45-2.13c1.57.16,3,2.09,3.1,4.2.06,1,0,2,0,3a12.8,12.8,0,0,0,3.41-3.65c.35-.53.65-1.1,1-1.64a1.3,1.3,0,0,1,1.74-.62,1.27,1.27,0,0,1,.65,1.72,10.69,10.69,0,0,1-2.26,3.79,27.32,27.32,0,0,1-4.82,4.48,3.32,3.32,0,0,0-1.21,1.71c-1,3.16-2.13,6.29-3.42,9.35a11.12,11.12,0,0,1-2.73,4.18,4.35,4.35,0,0,1-1.74,1,2.15,2.15,0,0,1-2.91-2,7.47,7.47,0,0,1,.42-3,25.77,25.77,0,0,1,6.65-11.23c1.43-1.42,1.68-3.06,2-5.08-.76.69-1.3,1.26-1.92,1.74-1.4,1.08-2.22,1.07-3.62-.07-.38-.32-.6-.2-.94,0a14.81,14.81,0,0,1-2,1c-2.31.82-4-.53-3.62-2.93.13-.86.36-1.71.63-2.92a17.27,17.27,0,0,0-3.75,4.49c-.86,1.5-1.47,1.67-2.82.56-.64-.53-.94-.08-1.3.24a10.57,10.57,0,0,1-4.39,2.6c-2.74.7-4.32-.72-3.94-3.52a2,2,0,0,0,0-1.14,5.61,5.61,0,0,0-1.63.84c-2.49,1.24-4,1-5.89-1-.55-.58-1-.59-1.51-.13s-1.28,1-1.92,1.45a2,2,0,0,1-2.56,0,1.92,1.92,0,0,1-.59-2.37c.15-.48.51-.91.41-1.48-.53-.06-.82.32-1.1.62-1.34,1.45-3,2.57-3.91,4.48a1.5,1.5,0,0,1-2.18.61,1.79,1.79,0,0,1-1.18-2.21c.09-.36.49-.82.1-1.1s-.74.18-1.12.28a3,3,0,0,0-1.76,1.51,6.17,6.17,0,0,1-6.6,2.56,4.09,4.09,0,0,1-2.76-2.45Zm5.65-7.26a3.42,3.42,0,0,1-.51,2.41c-.36.58-.21.92.48.94s1.32.21,1.7-.29-.1-1.14-.36-1.65A2.8,2.8,0,0,0,213.6,368.36ZM263.39,392a20,20,0,0,0,3.32-7.31A19,19,0,0,0,263.39,392Z"/>
    <path d="M318.3,381.56a10,10,0,0,0-3.82-1.15,47.55,47.55,0,0,0-15.15.33c-4,.66-8,.82-11.71-1.18a10.77,10.77,0,0,1-1.52-.95c-2.57-2-3.08-3.85-1.78-6.82a21.36,21.36,0,0,1,5.24-6.8c8.08-7.62,17.83-12,28.54-14.45a11.33,11.33,0,0,1,4.64-.1c2.63.48,3.64,2.28,2.6,4.75A8.11,8.11,0,0,1,323,358.3a80.62,80.62,0,0,1-12,8.34l-.42.23c-1.44.75-2.42.6-2.88-.44-.6-1.37,0-3.21,1.35-3.45,4.58-.83,7.83-3.82,11.27-6.54a9.33,9.33,0,0,0,1.75-1.8c.68-1,.57-1.26-.56-1.34a10.9,10.9,0,0,0-3.69.2c-10.58,2.77-20,7.62-27.6,15.63a16,16,0,0,0-2.78,4,2.29,2.29,0,0,0,.86,3.31,9.28,9.28,0,0,0,5.34,1.52c3.8.09,7.58-.37,11.38-.45a50.13,50.13,0,0,1,12.4.95,7.88,7.88,0,0,1,3.35,1.53,3,3,0,0,1,.95,3.85,6.62,6.62,0,0,1-2.11,2.57,28.29,28.29,0,0,1-12.34,5.86,5.22,5.22,0,0,1-3.52-.32,2.14,2.14,0,0,1-1-3.21,5.75,5.75,0,0,1,1.88-2,28.09,28.09,0,0,1,13.1-5l.47-.08A1.23,1.23,0,0,0,318.3,381.56Zm-2.44,3.36a19.67,19.67,0,0,0-8.95,4.25C310.36,388.73,313.12,386.85,315.86,384.92Z"/>
    <path d="M352,373.66a8,8,0,0,0,3.57-2.8c.42-.48.75-1,1.17-1.52a1.3,1.3,0,0,1,1.72-.36,1.27,1.27,0,0,1,.55,1.66,5.31,5.31,0,0,1-1.21,1.91,13.2,13.2,0,0,1-5.43,4c-2.42.91-4.11-.49-3.7-3,.13-.82.35-1.62.61-2.78a13.23,13.23,0,0,0-2.6,2.77,24.46,24.46,0,0,0-1.36,2.11,1.39,1.39,0,0,1-1.46.82,1.76,1.76,0,0,1-1.46-1.25c-.16-.47.33-1.34-.51-1.35a2.22,2.22,0,0,0-2,1.13,6.26,6.26,0,0,1-4.21,3.1c-2.89.65-4.84-.51-5.51-3.39-.18-.78-.51-.75-1.09-.51s-.82.84-1.16,1.33a6.33,6.33,0,0,1-6.51,2.54c-2.38-.64-3.45-2.66-2.7-5.27a5.77,5.77,0,0,0,.17-2.34,4.66,4.66,0,0,1,5.52-4.87,5.56,5.56,0,0,1,4.47,4c.12.42,0,1.13.62,1.14s.91-.66,1-1.27a4.52,4.52,0,0,1,1.72-2.93,5.29,5.29,0,0,1,8.23,3c.46,1.52.45,1.5,1.83.71a20.28,20.28,0,0,1,2.18-1.47,1.84,1.84,0,0,1,2,.11c.51.45.84.22,1.24-.1a7.62,7.62,0,0,1,2.24-1.38,2.09,2.09,0,0,1,2.25.24,2.16,2.16,0,0,1,.59,2.31c-.26,1-.57,1.92-.83,2.88A4.32,4.32,0,0,0,352,373.66Zm-27.78-5.31a3.87,3.87,0,0,1-.53,2.51c-.35.55-.06.82.49.84s1.27.21,1.68-.32,0-1.05-.28-1.53A2.82,2.82,0,0,0,324.2,368.35Zm12.12,3.38c1.44,0,1.64-.32,1-1.62a2.68,2.68,0,0,0-.35-.62c-.25-.33-.39-.92-.89-.81s-.15.63-.26.95-.17.53-.29.78C335,371.58,335.06,371.73,336.32,371.73Z"/>
    <path d="M207.94,375.61a4.69,4.69,0,0,1-1.45,3.32c-5,6.22-11.05,11-18.71,13.45a12.28,12.28,0,0,1-5.79.67c-4.4-.73-7.14-4.18-7.13-9.15,0-3.86,1.23-7.45,2.64-11,1.63-4.13,4.41-7.51,7.15-10.88a45.64,45.64,0,0,1,10.44-10,15.22,15.22,0,0,1,4.78-2.17c3.65-.84,6.11.9,6.35,4.61a14.94,14.94,0,0,1-.83,5.66c-.31.91-.9,1.58-2,1.4a1.82,1.82,0,0,1-1.52-2,5.56,5.56,0,0,1,.63-3,1.63,1.63,0,0,0,.28-.65c.08-.82.32-1.73-.37-2.39a2.24,2.24,0,0,0-2.49-.22,23.91,23.91,0,0,0-7.31,4.27,43.43,43.43,0,0,0-13.85,21.43,13.7,13.7,0,0,0-.37,6.64,4.81,4.81,0,0,0,5.65,4.13,18.88,18.88,0,0,0,5.51-1.56,46.12,46.12,0,0,0,15.78-12.08c1-1.21,1.39-1.28,2.58-.45Z"/>
    <path d="M312.4,285.15c-7.43-.14-14.78-.8-21.76-3.62a13.25,13.25,0,0,1-6.37-4.51,6,6,0,0,1-1.22-3.2,2.63,2.63,0,0,1,5.05-1.2,5.82,5.82,0,0,0,3.35,3.38A34.25,34.25,0,0,0,302,279a62.18,62.18,0,0,0,22.06-.37,18.43,18.43,0,0,0,5.63-2c3.25-1.9,3.38-3.84.45-6.17a38.75,38.75,0,0,0-8-4.75c-7.23-3.33-14.52-6.52-21.73-9.87a74.89,74.89,0,0,1-15.95-9.48,21.35,21.35,0,0,1-7.2-9.54c-2-5.76-.21-10.79,3.12-15.45,3.45-4.81,8-8.49,12.8-11.84a77.89,77.89,0,0,1,32.46-13.32c6.05-1,12.11-1.06,18,.89,8.33,2.74,12.94,9.15,13.11,17.94.11,6-1.47,11.7-3.46,17.3-.51,1.41-.44,1.48,1.06,1.3.95-.12,1.91-.22,2.86-.28a1.4,1.4,0,0,0,1.35-1.12q1.35-3.92,2.76-7.81a2.89,2.89,0,0,1,3.44-1.6,2,2,0,0,1,1.31,2.64q-1.05,3-2.14,6c-.37,1,0,1.33,1,1.3,6.31-.21,12.62-.43,18.93-.61,5.2-.14,10.4-.27,15.59-.33a1.88,1.88,0,0,0,2.08-1.46c1.91-5.48,3.79-11,5.18-16.6a35.23,35.23,0,0,1,2.24-6.19,4.78,4.78,0,0,1,3-2.55c1.36-.46,2.26.17,2.43,1.61A5,5,0,0,1,414,209q-3.67,10.53-7.34,21.07c-.54,1.53-.52,1.55,1.05,1.51,1.16,0,2.32-.14,3.47-.16a1.85,1.85,0,0,1,2,1.76,2.79,2.79,0,0,1-2.72,3.26c-1.64,0-3.27.19-4.91.18a1.48,1.48,0,0,0-1.62,1.2q-3.68,10.66-7.41,21.3l-7.8,22.31a1.93,1.93,0,0,0-.11.34c-.11.41-.47.95-.05,1.22s.85-.26,1.17-.58c.53-.54,1-1.14,1.5-1.71.26-.31.5-.63.78-.92,1.25-1.24,2.44-1.45,3.51-.64s1,1.82.15,3.36c-1.68,2.94-4.24,5.08-6.73,7.27a10.68,10.68,0,0,1-3.69,2.41c-2.47.81-3.9-.25-3.89-2.87a8.5,8.5,0,0,1,.46-2.7q2.75-7.94,5.51-15.87,5.67-16.26,11.35-32.5c.48-1.35.45-1.4-1-1.36l-30.21.79c-1.44,0-2.88.2-4.31.16a1.8,1.8,0,0,0-2,1.41c-2.69,7.79-5.44,15.55-8.14,23.33-3.59,10.4-7,20.84-10.45,31.29a41.14,41.14,0,0,0-1.89,10.35,14.88,14.88,0,0,1-3.23,8.38,2.68,2.68,0,0,1-2.68,1.23c-1.57-.28-2.26-1.54-1.75-3.32,1.18-4.11,2.41-8.21,3.65-12.3,5.87-19.37,12.26-38.57,18.91-57.68.08-.23.17-.45.24-.68.32-1.08.15-1.33-1-1.22-3.42.33-6.86.58-10.24,1.24l-.23.05c-1.16.16-2.4.45-3.14-.78s-.23-2.48.41-3.63a1.56,1.56,0,0,1,1.3-.76,9,9,0,0,1,1.78-.17c1.71.19,2.34-.78,2.86-2.2,1.77-4.82,3.35-9.67,3.71-14.84.68-9.64-3.89-14.9-12.82-16.12-6.87-.94-13.55.23-20.13,2.13A71.14,71.14,0,0,0,287.74,221a22.38,22.38,0,0,0-4.93,6.75,9.27,9.27,0,0,0,.66,9.47,27.19,27.19,0,0,0,7.7,7.3c5.73,3.94,12.05,6.76,18.36,9.6,6.46,2.9,13.05,5.5,19.25,9a27.62,27.62,0,0,1,6.32,4.52c3.71,3.75,3.44,9-.67,12.29-3.08,2.5-6.79,3.51-10.58,4.24A57.83,57.83,0,0,1,312.4,285.15Z"/>
    <path d="M360.17,310.25c.55-1.13,1.11-2.27,1.64-3.41C367.5,294.64,372,282,376.4,269.28l3.24-9.29c.11-.3.22-.6.3-.91s.23-.74-.19-1-.6.12-.83.34c-1.12,1.07-2.23,2.17-3.37,3.24a57.07,57.07,0,0,1-5.92,5.06,10.48,10.48,0,0,1-4.12,1.86,3.27,3.27,0,0,1-4.18-2.85,9.56,9.56,0,0,1,.33-4.51,35.37,35.37,0,0,1,4.78-9.63,2.34,2.34,0,0,1,3.38-.64,2.23,2.23,0,0,1,.55,3.19,26.27,26.27,0,0,0-3.4,7c-.12.42-.55.94,0,1.29s.81-.19,1.14-.46A105.86,105.86,0,0,0,380,250.42c1.55-1.72,3.08-3.46,4.63-5.19a2.66,2.66,0,0,1,2.44-1,2.35,2.35,0,0,1,2.08,3.28q-2.31,6.75-4.69,13.48c-4.92,13.91-10.06,27.74-15.63,41.41a115.85,115.85,0,0,1-5,11.42,19.36,19.36,0,0,1-1.91,2.9,5.27,5.27,0,0,1-1.86,1.49,2.68,2.68,0,0,1-3.8-1.35,8.52,8.52,0,0,1-.68-3.15c-.28-5.84.92-11.46,2.54-17a47.62,47.62,0,0,1,6-13.68,11.44,11.44,0,0,1,3.17-3.4,6.42,6.42,0,0,1,1.16-.61,1.93,1.93,0,0,1,2.18.6,1.64,1.64,0,0,1,0,2.12c-.49.72-1.16,1.32-1.68,2C365,289,362.76,295.05,361,301.29A20.16,20.16,0,0,0,360.17,310.25Z"/>
    <path d="M403.75,263.54a11.19,11.19,0,0,1,.68-3.71,42.28,42.28,0,0,1,4.55-9.49,6.77,6.77,0,0,1,1.89-2,4.94,4.94,0,0,1,7.71,2,6.36,6.36,0,0,1-.28,6.73A6.73,6.73,0,0,1,412,260c-2.07-.12-3,.62-3.15,2.64-.09.85.26,1.19,1.09,1.1a10,10,0,0,0,3.17-1c4.14-1.92,8-4.3,12-6.53a25.66,25.66,0,0,1,2.55-1.32,2.21,2.21,0,0,1,2.76.77,2.09,2.09,0,0,1-.71,2.75c-5.51,3.79-11.15,7.35-17.5,9.62a18.32,18.32,0,0,1-2.55.65C405.83,269.4,403.69,267.59,403.75,263.54Z"/>
    <path d="M159.71,315.85a1.8,1.8,0,0,0-.79-1,68.2,68.2,0,0,0-5.47-4.28,1.1,1.1,0,0,1-.35-1.73c2.32-3.49,4.62-7,6.92-10.5.41-.62.93-.94,1.61-.52a15.36,15.36,0,0,1,5.09,4.29,5.73,5.73,0,0,1,.77,5.47c.52,0,.58-.36.74-.6,2-3.08,4-6.18,6-9.26.82-1.26,1.16-1.32,2.41-.51a18.83,18.83,0,0,1,3.68,2.86,6.36,6.36,0,0,1,1,8.12,24.31,24.31,0,0,1-4.38,5.67c-1.37,1.28-1.95,1.3-3.39.16-2-1.61-4.08-3.2-6.11-4.82-.26-.2-.46-.39-.65,0-1.34,2.59-3.46,4.55-5.4,6.66Z"/>
    <path d="M254.51,224.89c-.81,1.22-.72,2.66-.92,4-1.19,8.06-1.5,16.2-2.23,24.3a57.4,57.4,0,0,1-6.61,23.1A13.84,13.84,0,0,1,243,279c-.31.35-.69.77-1.23.47s-.27-.81-.13-1.19a61.42,61.42,0,0,0,2.68-13q.9-7.12,1.37-14.29c.33-4.93.27-9.94,2.13-14.63,1.59-4,3.35-8,5-11.92.31-.75.75-1.34,1.69-1.23Z"/>
    <path d="M159.35,213.22c.13-.62.26-1.24.4-1.85.06-.25.2-.46.5-.41a.45.45,0,0,1,.35.44c0,.31.05.63.07.95.08,1.92.13,3.83.26,5.75a5,5,0,0,0,6.27,4.83,3.86,3.86,0,0,0,2.6-2c.37-.61.69-1.26,1-1.91.19-.39.29-.88.87-.81s.7.5.83.92a9,9,0,0,1,.14,3,14.77,14.77,0,0,1-4.23,10,7.47,7.47,0,0,1-6.68,2.2c-1.05-.14-1.75,0-1.79,1.24,0,.34,0,.81-.49.82s-.46-.48-.61-.79,0-.73-.5-1c-.11,1.12-.24,2.16-.3,3.22-.18,3.66-.23,7.35-.52,11-1.13,14-4,27.43-11.37,39.62a45.22,45.22,0,0,1-12.92,14.32c-6.37,4.37-13.46,6.57-21.13,5-7.45-1.53-12.65-6.07-14.5-13.69-1.13-4.67-.77-9.45,0-14.16A76.22,76.22,0,0,1,105,258.59c.65-1.29,1.27-2.59,1.9-3.88.2-.42.32-1.06.94-.85s.38.78.27,1.24a45,45,0,0,1-2.23,6.07c-1.82,4.53-3.6,9.09-4.17,14-.6,5.11.44,9.75,4.51,13.26A17.85,17.85,0,0,0,116,292.5c9.73,1.18,18.35-1.35,25.63-8.09,6.15-5.69,8.8-13,9.71-21.07.65-5.85.84-11.71,1-17.58.19-6.11.28-12.23.47-18.34.18-5.3.06-10.63.88-15.9.65-4.15,2.4-8,3.66-11.9.4-1.26.85-2.5,1.3-3.74.18-.47.36-1.08,1-.92s.53.75.48,1.19c-.39,3.7-.59,7.41-.84,11.11a59,59,0,0,1-.28,6Z"/>
    <path d="M189.13,283.71a8.53,8.53,0,0,1-7.56-4.62,23.4,23.4,0,0,1-2.74-9.34c-.57-4.66.55-9.12,1-13.65.66-6.61,1.71-13.16,2.66-19.72a65.54,65.54,0,0,1,5-17.09,2,2,0,0,1,.16-.33c.22-.36.35-.94.89-.81s.48.77.42,1.22c-.57,4.28-1.21,8.55-1.72,12.83-.69,5.71-1.41,11.42-1.86,17.15-.11,1.44-.35,2.87-.35,4.3a26.21,26.21,0,0,0,1.4,10c1.12,2.82,3.41,4,6.31,4.48,4,.6,7.15-1.05,9.92-3.72.78-.74,1.6-1.45,2.41-2.16a5,5,0,0,1,6.28-.69c2.55,1.39,4.59,1.1,6.62-1a22.89,22.89,0,0,0,2.52-3.2,1.79,1.79,0,0,1,2-.86c2.06.34,3.4-.46,4.36-2.39.27-.54.51-1.09.76-1.63.35-.8.8-1.3,1.84-1.1s1.71-.52,2.28-1.27a13.67,13.67,0,0,0,1.88-4.13,4.52,4.52,0,0,1,.74-1.49.81.81,0,0,1,1-.3.82.82,0,0,1,.62.92c-1.28,5.63-2.31,11.42-7.35,15.17-1.83,1.36-3.28,3.25-5.32,4.24a70.68,70.68,0,0,0-8.23,4.76,6.54,6.54,0,0,1-5.87.87c-2.79-.83-5.3.56-7.2,2.9s-3.22,4.87-5.27,7S192.51,283.76,189.13,283.71Z"/>
    <path d="M199.42,207.4q1.52-2.34,3-4.67c1.15-1.77,2.33-3.53,3.47-5.31.54-.85,1.12-.94,2-.42a18.37,18.37,0,0,1,4.19,3.36,6.17,6.17,0,0,1,1.08,7.09,21.14,21.14,0,0,1-5,6.52c-1.17,1.07-1.74,1.07-3,.07-2-1.52-3.92-3-5.81-4.62-.68-.57-.94-.4-1.35.25a23.53,23.53,0,0,1-3.92,5c-1.46,1.36-2.07,1.41-3.56.17a66.57,66.57,0,0,0-5.5-4.25c-.82-.55-.86-1.1-.34-1.89,2.2-3.33,4.37-6.69,6.56-10,.79-1.2,1.22-1.25,2.45-.57a13,13,0,0,1,4.75,4.29,4.93,4.93,0,0,1,.82,4.32C199.19,206.89,199.06,207.14,199.42,207.4Z"/>
</svg>