<svg id="Layer_1" data-name="Layer 1" xmlns="http://www.w3.org/2000/svg" viewBox="0 0 695.82 603">
    <g onclick="location.href='https://anarleather.com/jewel/rings';">
        <polygon points="694.32 1.5 521.11 301.5 347.91 1.5 694.32 1.5"/>
        <path d="M487.74,156.6a2,2,0,0,1-.8-1.8c0-2.7-.1-5.4-.1-8,0-1.1-.3-1.5-1.4-1.5-2.4.1-4.9,0-7.3,0a4.87,4.87,0,0,1-1.2-.1,1.24,1.24,0,0,1-1.2-1.3,1.3,1.3,0,0,1,1.2-1.3,15.48,15.48,0,0,1,2.2-.1h6.6c.8,0,1.1-.3,1.2-1.1,0-1.6.1-3.1.1-4.7a2.14,2.14,0,0,0-.9-1.8,28.47,28.47,0,0,1-10.8-13.9c-3.9-10.9-2.4-21,5-29.9,6.6-8,15.4-11.5,25.7-10.7a28.93,28.93,0,0,1,14.1,5,1.72,1.72,0,0,0,2.4,0,18.72,18.72,0,0,1,4.1-2.5c.9-.4,1-.8.3-1.5l-5.4-5.4c-1-1-1-1.5-.1-2.6,1.9-2.3,3.8-4.5,5.7-6.8a2.32,2.32,0,0,1,1.9-.9h21c1.4,0,1.9,1,2.6,1.8,1,1.1,3.9,1.9,5.3,1.3.5-.2.4-.6.4-1v-6c.1-.6.3-1,1-1a1,1,0,0,1,1,1.1v5.4c0,1.6,0,1.6,1.6,1.6h5.6c.6.1,1.1.3,1.1,1s-.6.9-1.2.9h-4.2c-2.8,0-2.8,0-2.8,2.8v4.1c0,.7-.2,1.4-1,1.4s-1-.7-1-1.3c0-1.8-.1-3.6,0-5.4,0-.9-.3-1.3-1.3-1.4-1.7-.1-3.4-.1-5.2-.1s-2.1-.4-1.4-2c-.3-.3-.6-.1-.9.1-1.7,1.2-3.4,2.4-5.1,3.5-.3.2-.6.3-.5.7s.6.4.9.4c3.8,0,7.5.1,11.3-.2.8-.1,1.6-.1,1.9.8s-.3,1.3-.8,1.8c-1.7,1.7-3.4,3.5-5.1,5.2-1,1-1,1.1.3,1.7,7.5,3.9,12.8,9.8,15.1,17.9,2.9,10.1,1.1,19.4-5.7,27.4-6.6,7.8-15.2,11.2-25.4,10.4a27,27,0,0,1-12.9-4.5,1.67,1.67,0,0,0-2.2,0,30.13,30.13,0,0,1-18.8,6.2,27.12,27.12,0,0,1-9.8-1.9c-.8-.3-1.6-.7-1.3-1.7s1.2-.8,2-.5a27.49,27.49,0,0,0,25.6-3.2c.5-.3,1.6-.5.9-1.5s-1.4-1.2-2.5-.5c-9.7,6.4-21.2,6-30.3-1.3a25.19,25.19,0,0,1-2.5-36.8,25.23,25.23,0,0,1,35.6-1.3,24.25,24.25,0,0,1,8,16.1,25.08,25.08,0,0,1-4.5,17c-.7,1-.5,1.3.6,2.1.8.6,1.2-.1,1.5-.6a27.77,27.77,0,1,0-50.2-20c-1.5,10.4,2.1,19.1,10.2,25.9.4.4.9.7,1.2-.2a1,1,0,0,1,1.4-.6c.7.2.9.7.9,1.4,0,2.8.2,5.5.1,8.3,0,1.1.4,1.5,1.5,1.5,2.6-.1,5.3,0,7.9,0,1.2,0,1.9.6,1.7,1.5s-.9,1.1-1.7,1.1c-2.6,0-5.2.1-7.8,0-1.2,0-1.6.4-1.6,1.6,0,2.6-.1,5.2-.1,7.8a2.24,2.24,0,0,1-.8,1.9C488.44,156.6,488.14,156.6,487.74,156.6Zm15.4-69.1a16.68,16.68,0,0,0-3.8.3,22.89,22.89,0,0,0-19.1,23,22.37,22.37,0,0,0,8.4,17.5,23.14,23.14,0,0,0,27.3,1.5c1.3-.8,1.3-.9.4-2.1a29.12,29.12,0,0,1-1-35c.9-1.3.9-1.4-.5-2.2A20.9,20.9,0,0,0,503.14,87.5Zm35.6-.7a24.35,24.35,0,0,0-11.2,3.3c-.8.5-.9.8-.3,1.6a30.37,30.37,0,0,1,.9,36.1c-.6.8-.5,1.2.4,1.6a21.83,21.83,0,0,0,14.1,2.5,22.62,22.62,0,0,0,19.1-25.8C560.14,95.1,550.54,86.8,538.74,86.8Zm27.7,22.7a26.21,26.21,0,0,0-3.8-13.9,25.83,25.83,0,0,0-12.4-10.9c-.9-.4-1.6-.2-1.9.6s.6.8,1,1.1a2.47,2.47,0,0,0,.9.4,25.3,25.3,0,0,1,14.1,26.5c-1.8,13.4-14.7,23.2-28.2,21.4a25.32,25.32,0,0,1-21.4-31.4,24.57,24.57,0,0,1,3.8-8.2c.3-.5.7-.9.2-1.5s-1.1-.6-1.8.4a27.18,27.18,0,0,0,25.9,42.5C556.84,134.5,566.74,122.6,566.44,109.5Zm-50.1-.3a23.71,23.71,0,0,0,4.1,13.6c1,1.5,1.4,1.4,2.2,0a23.1,23.1,0,0,0,3.4-14.3,24,24,0,0,0-4.2-11.6c-.8-1.1-1.1-1.1-1.9,0A23.49,23.49,0,0,0,516.34,109.2Zm13.4-35.5h4.2c.3,0,.7.1.9-.3s-.2-.6-.5-.8c-1.6-1.1-3.3-2.2-4.9-3.4a1.08,1.08,0,0,0-1.7.2c-.9,1-1.7,2.1-2.6,3.1-.2.2-.5.5-.3.8a.87.87,0,0,0,.9.4Zm15.2,11a1.14,1.14,0,0,0,.8-.3l5-5c.2-.2.4-.4.2-.6s-.5-.2-.8-.1a11,11,0,0,1-2.3.9c-2.3.4-2.9,2.3-3.5,4.1C544.14,84.4,544.34,84.7,544.94,84.7Zm-16.5-5.8c-.2,0-.4,0-.4.2a.56.56,0,0,0,.2.6c.8.8,1.6,1.6,2.4,2.5l2.2,2.2a1.12,1.12,0,0,0,1.3.3c.6-.3.2-.8.1-1.2a4.47,4.47,0,0,0-3.1-3.4C530.24,79.8,529.34,79.3,528.44,78.9Zm6.8-10.8h-1.7c-.3,0-.8-.2-.9.3s.3.6.6.8c1.2.9,2.5,1.7,3.7,2.6.3.2.5.5.8.3s.3-.6.3-1C538.14,67.5,538.44,68.1,535.24,68.1Zm8,0c-2.9.1-2.7-.6-2.7,3.1v.5c.1.5.4.7.8.4,1.4-1,2.9-2,4.3-3a.49.49,0,0,0,.3-.6c-.1-.4-.4-.3-.7-.3A10.93,10.93,0,0,0,543.24,68.1Zm-12.7,17.3a1.55,1.55,0,0,0-1.8-.9,19.48,19.48,0,0,0-4.5,2.4c-.4.3-1,.5-.6,1.2s.9.9,1.6.4a43.09,43.09,0,0,1,4.7-2.6C530.24,85.9,530.54,85.8,530.54,85.4Zm1.8-9.5h-3.2c-.2,0-.5,0-.6.3s.2.4.4.5c1.4.6,2.8,1.2,4.3,1.9a1,1,0,0,0,1.2-.3c.4-.5.9-.9,1.3-1.4.2-.2.4-.4.3-.7s-.4-.3-.7-.3Zm8.2,4.9h0a20.85,20.85,0,0,0,0,2.5c0,.4,0,.8.6.9s.7-.2.9-.6c.4-1,.8-2,1.3-3a.91.91,0,0,0-.2-1.1,19.2,19.2,0,0,1-1.5-1.4c-.2-.2-.4-.4-.7-.2s-.2.4-.2.6A9.34,9.34,0,0,0,540.54,80.8Zm-2.4.4V78.9c0-.3,0-.7-.5-.7s-2.2,2.1-2,2.7c.3.9.8,1.8,1.2,2.8.2.4.4.6.9.5s.5-.4.5-.8A16.2,16.2,0,0,1,538.14,81.2Zm8.2-5.2h-2.7c-.3,0-.7,0-.6.5s2,2,2.6,1.7c1.3-.5,2.5-1,3.8-1.5.2-.1.4-.2.3-.4a.55.55,0,0,0-.5-.3Z"/>
        <path d="M513.54,55.5h4.1c.9,0,1.2-.4,1.2-1.2,0-2.5.1-5,.1-7.5V45.7c.1-.8.4-1.3,1.2-1.3s1.3.5,1.3,1.4c0,2.8.2,5.5.1,8.3,0,1.1.3,1.6,1.5,1.5,2.4-.1,4.7,0,7.1,0h1c.8,0,1.6.2,1.6,1.2s-.7,1.4-1.6,1.4h-6.8c-3,.1-2.6-.3-2.7,2.6-.1,2.2-.1,4.5-.1,6.7,0,.9-.1,1.9-1.3,1.9s-1.2-.9-1.2-1.8c0-2.6-.1-5.3-.1-7.9,0-1.1-.3-1.5-1.4-1.5-2.7.1-5.4,0-8.1,0-.8,0-1.6-.3-1.5-1.3s.7-1.3,1.5-1.3h.8c1-.1,2.1-.1,3.3-.1Z"/>
    </g>
    <g onclick="location.href='https://anarleather.com/jewel/bracelets';">
        <polygon points="347.91 1.5 174.71 301.5 1.5 1.5 347.91 1.5"/>
        <path d="M192.7,149.1c-1-1.1-.5-2.5-.7-3.8a13.09,13.09,0,0,1,0-2.8c.1-.8-.2-1.1-1-1.1h-4.8c-.7,0-1.6,0-1.6-.9s.9-1,1.6-1c1.4,0,2.9-.1,4.3,0,1.1,0,1.6-.3,1.6-1.5-.1-1.6.1-3.1.1-4.7,0-.7.11-1.4.9-1.4s.9.7.9,1.4v4.6c0,1.6,0,1.6,1.6,1.6H200c.7,0,1.5,0,1.5,1s-.8,1-1.5,1c-1.6,0-3.1.1-4.7,0-1.1-.1-1.5.4-1.4,1.5.11,1.5,0,3,0,4.4a2.33,2.33,0,0,1-.6,1.8C193.2,149.1,192.9,149.1,192.7,149.1Z"/>
        <path d="M225.3,76.7c0-1.4-.1-2.9,0-4.3.1-1.1-.4-1.5-1.5-1.4h-9.1c-.8-.1-1.4-.5-1.4-1.4a1.33,1.33,0,0,1,1.2-1.4c1.4-.1,1-.7.5-1.4a31.79,31.79,0,0,0-9.3-8.2c-1-.6-1.6-.2-1.6,1A28.46,28.46,0,0,1,201.5,70a75.31,75.31,0,0,1-8.8,14.7,140.73,140.73,0,0,1-14.3,16.6,124.78,124.78,0,0,1-23.6,18.6,39.65,39.65,0,0,1-14.5,5.7c-.8.1-1.7.1-2.5.2s-1.3.7-.8,1.5c3.7,6.1,8.4,11.1,15.6,13,5.4,1.4,10.6.3,15.6-1.9,6.4-2.7,12-6.7,17.4-11a143.23,143.23,0,0,0,12.1-11.2,106.69,106.69,0,0,0,15.5-19.3A40.69,40.69,0,0,0,219,82.6a30,30,0,0,0,.1-6.7c-.1-1.3.3-1.9,1.2-1.9s1.4.7,1.6,1.9c.9,7.5-1.7,14.1-5.2,20.4A95.58,95.58,0,0,1,202.6,115a142.85,142.85,0,0,1-19,17.5,60.38,60.38,0,0,1-16.8,9.4c-7.5,2.6-14.8,2.6-21.7-1.9a33.5,33.5,0,0,1-11.4-12.8,49.42,49.42,0,0,1-2.6-5.7c-1.1-2.9-.7-5.9.1-8.8a53.39,53.39,0,0,1,7.1-14.6A104.61,104.61,0,0,1,145.7,88a6.39,6.39,0,0,1,6.6-2.1,22.66,22.66,0,0,1,14.5,9.8c.1.2.3.4.4.6a1.41,1.41,0,0,1-.5,2.1,1.28,1.28,0,0,1-1.9-.6,22.94,22.94,0,0,0-6.4-6.4,24.09,24.09,0,0,0-5.7-2.5c-2.4-.8-4.2,0-5.7,1.9a99.06,99.06,0,0,0-9.7,14.5,35.36,35.36,0,0,0-3.9,10.4,10.87,10.87,0,0,0,0,3.6c.6,2.7,3.1,3.9,6.3,3.4,5.6-.9,10.5-3.6,15.2-6.5A115.5,115.5,0,0,0,172.1,103a136.67,136.67,0,0,0,18.1-19.9c4-5.4,7.6-11,9.8-17.4.8-2.3,1.6-4.7,1.1-7.3a4.16,4.16,0,0,0-4.3-3.7,19.81,19.81,0,0,0-7.6,1.5c-7.1,2.8-13.3,7-19.3,11.8-3.3,2.6-3.5,3.2-2.2,7.3a19.52,19.52,0,0,0,7.9,10.4l.9.6a1.4,1.4,0,0,1,.4,1.8,1.31,1.31,0,0,1-1.8.5,10.9,10.9,0,0,1-3.5-2.4,21.73,21.73,0,0,1-7.4-13.7,6.17,6.17,0,0,1,2.5-5.7,96,96,0,0,1,15.5-10.5A34.86,34.86,0,0,1,194,52a11.4,11.4,0,0,1,5.8.4,39.93,39.93,0,0,1,14.9,9.3,24.58,24.58,0,0,1,3.7,4.8,2,2,0,0,0,2.2,1.2,19.29,19.29,0,0,1,3.4,0c1,0,1.4-.3,1.3-1.3V57.5c0-.9.3-1.7,1.4-1.7s1.3.8,1.4,1.8c0,2.9.1,5.8.1,8.8,0,1,.3,1.4,1.4,1.4h8.5q2.1.15,2.1,1.5c0,.9-.7,1.4-2.1,1.4-2.8,0-5.7.1-8.5,0-1,0-1.3.3-1.3,1.3v8.2a4.87,4.87,0,0,1-.1,1.2,1.37,1.37,0,0,1-1.5,1.3,1.34,1.34,0,0,1-1.3-1.4c-.1-1.4-.1-3-.1-4.6Z"/>
        <path d="M118.2,87.9v-3c0-.8.1-1.7,1.1-1.7s1.1.9,1.1,1.7c0,2,.1,3.9,0,5.9,0,1.1.4,1.5,1.5,1.4,2-.1,3.9,0,5.9,0,.8,0,1.6.1,1.6,1.1s-.8,1-1.6,1h-5.3c-2,0-2,0-2,2v5.6c-.1.7-.3,1.4-1.2,1.3s-1-.7-1-1.4c0-2-.1-4.1,0-6.1,0-1.2-.4-1.5-1.5-1.5-2,.1-4,0-6,0-.8,0-1.6-.1-1.6-1.1s.8-1.1,1.5-1.1c2.1,0,4.2-.1,6.2,0,1,0,1.3-.4,1.3-1.3Z"/>
    </g>
    <g onclick="location.href='https://anarleather.com/jewel/earings';">
        <polygon points="521.11 301.5 521.11 301.51 174.71 301.51 174.71 301.5 347.91 1.5 521.11 301.5"/>
        <path d="M347.92,254.24a3.54,3.54,0,0,1-1-2.6c.1-1.4,0-2.9,0-4.3,0-.9-.4-1.2-1.2-1.2H341c-.9,0-1.8,0-1.9-1.3-.1-.9.6-1.4,2-1.4h4.7c.5,0,1.2.1,1.1-.7s-.6-.6-1.1-.6h-57.1c-.6,0-1.2.1-1.6-.5s0-1.1.3-1.6c2.7-4.7,5.4-9.4,8.1-14,3-5.3,6.1-10.5,9.1-15.8a2.19,2.19,0,0,1,.3-.5c.4-.6.9-1.1,1.7-.7a1.36,1.36,0,0,1,.5,2c-1,1.8-2.1,3.6-3.1,5.4-3.8,6.6-7.7,13.1-11.5,19.7a1.78,1.78,0,0,0-.4,1c.5.2.8-.2,1.1-.4l22.8-13.2a5.16,5.16,0,0,0,1.8-1.8c3.1-5.4,6.3-10.9,9.4-16.3a5.74,5.74,0,0,0,.8-2.9v-27.3a.37.37,0,0,1-.3-.1c-.9,1.5-1.7,3-2.6,4.5-2.2,3.8-4.4,7.6-6.6,11.5-.6,1.1-.6,1.2.7,1.2a4.87,4.87,0,0,1,1.2.1,1.25,1.25,0,0,1,0,2.4,4.87,4.87,0,0,1-1.2.1h-7.9c-.9,0-1.2.3-1.2,1.2.1,1.4,0,2.8.2,4.2.4-.7.9-1.5,1.3-2.2s.9-1.2,1.7-.8.9,1.3.4,2.1c-.9,1.6-1.9,3.3-2.8,4.9-.3.6-.7,1.1-1,1.6a1.34,1.34,0,0,1-1.4.7,1.15,1.15,0,0,1-1-1.3v-9.2c0-.9-.3-1.3-1.3-1.3h-7.7a4.87,4.87,0,0,1-1.2-.1,1.13,1.13,0,0,1-1.1-1.2,1.22,1.22,0,0,1,1.1-1.3,7.08,7.08,0,0,1,1.4-.1h7c1.7,0,1.7,0,1.7-1.7v-7.6a3.18,3.18,0,0,1,.2-1.4,1.2,1.2,0,0,1,1.3-.6,1.22,1.22,0,0,1,1,1.4V190c0,1.9,0,1.7,1.9,2,2.2.2,3.3-.7,4.4-2.6,3.4-6.3,7.1-12.4,10.7-18.6a5.19,5.19,0,0,0,.7-2.7v-5.5c0-1-.2-1.5-1.2-1.8-5.5-2.1-7.2-8.2-3.6-12.7a7.94,7.94,0,0,1,8.3-2.7,8.19,8.19,0,0,1,5.9,7.2c.2,3.3-1.6,6.7-4.7,7.8-1.8.6-2,1.6-2.1,3.2a17.9,17.9,0,0,0,2.9,11c7.9,13.3,15.5,26.7,23.2,40.1,4.8,8.4,9.7,16.7,14.6,25.1a1.41,1.41,0,0,1-1.2,2.3c-5.3,0-10.6,0-15.8-.1-.9,0-1.6-.3-1.5-1.3s.7-1.3,1.6-1.3h9.7a2.09,2.09,0,0,0,1.3-.2c-2.3-1.3-4.6-2.6-6.9-4-5.6-3.2-11.3-6.4-16.9-9.6a5.19,5.19,0,0,0-2.7-.7h-19.1a4.75,4.75,0,0,0-2.4.6c-7.8,4.5-15.7,9-23.5,13.5-.1.1-.2.1-.3.2.2.4.6.2.8.2h51.4c1.2,0,1.6-.4,1.5-1.5a4.87,4.87,0,0,1,.1-1.2,1.27,1.27,0,0,1,1.4-1.2,1.18,1.18,0,0,1,1.2,1.3,38.44,38.44,0,0,1,0,4.8c0,1.6.1,1.7,1.6,1.7h4a4.1,4.1,0,0,1,1.1.1c.8.1,1.4.6,1.3,1.4a1.32,1.32,0,0,1-1.4,1.2h-4.6c-2,0-2,0-2,2v4a2.1,2.1,0,0,1-1,2.1A2,2,0,0,1,347.92,254.24Zm-17.4-79.5a2.81,2.81,0,0,0-.1.5c0,9.3.1,18.6.1,27.9a3,3,0,0,0,.5,1.5c3.3,5.6,6.6,11.3,9.8,16.9a5.16,5.16,0,0,0,1.8,1.8c7.7,4.5,15.4,9,23.1,13.6.2.1.5.4.9.3C354.52,216.44,342.62,195.64,330.52,174.74Zm4.9,47.7h1.7c.9.1,1.1-.2.6-1-2.7-4.6-5.3-9.2-8-13.8-.5-.9-.8-.7-1.2,0-2.6,4.5-5.3,8.9-7.9,13.4-.7,1.1-.6,1.1.6,1.2C325.92,222.34,330.62,222.24,335.42,222.44Zm-6.4-64c3,.4,5.5-2.4,5.4-5.2a5.21,5.21,0,0,0-5.3-5.3,5.4,5.4,0,0,0-5.4,5.2C323.72,156.24,326.32,158.74,329,158.44Z"/>
        <path d="M399.32,228.94c-2.6-1.4-5-2.8-7.3-4.1-5.2-3-10.5-6-15.7-9a7.63,7.63,0,0,0-4.2-1.2c-4.1.1-8.2,0-12.2,0a2.48,2.48,0,0,1-2.5-2c-.1-.7.3-.6.7-.6h4c3.1,0,6.2.1,9.2.1.8,0,1.1-.2.6-1-2.7-4.5-5.3-9-7.9-13.6-.5-.8-.7-.8-1.2,0-2,3.6-4,7.1-6.1,10.6-.3.5-.3,1.3-1.1,1.2-.5,0-1.2-2-.9-2.5l2.7-4.8c1.4-2.5,2.9-5,4.3-7.5a2.69,2.69,0,0,0,.5-1.5v-28.6a2,2,0,0,1-.1-.5c-1.7,3-3.3,5.8-4.9,8.6-3.4,6-6.8,12-10.3,18-.3.5-.3,1.4-1.1,1.3s-1.2-2.1-.8-2.7c1.3-2.2,2.5-4.4,3.8-6.7,4.3-7.4,8.5-14.8,12.8-22.1a4.38,4.38,0,0,0,.6-2.3v-5.9a1.54,1.54,0,0,0-1.2-1.7,7.84,7.84,0,0,1-5.5-7.6,8,8,0,0,1,5.6-7.6,8,8,0,0,1,10.4,8.8,7.83,7.83,0,0,1-5.7,6.5,1.2,1.2,0,0,0-1,1.3v6.7a5.58,5.58,0,0,0,1,2.7l16.2,27.9c7.5,13,15,25.9,22.6,38.9l.9,1.5c.7,1.2.1,2.2-1.3,2.1-5.4,0-10.7-.1-16.1-.1h-18.6c-.6,0-1.3.1-1.7-.7-.2-.5-.9-1.1-.6-1.6s1.1-.3,1.6-.3h29A1.35,1.35,0,0,0,399.32,228.94Zm1-2.2.2-.2c-11.9-20.6-23.7-41.3-35.6-61.9-.3.2-.2.4-.2.6V193a2,2,0,0,0,.3,1.1c3.3,5.7,6.7,11.4,9.9,17.1a4.36,4.36,0,0,0,1.6,1.7c6.1,3.5,12.1,7,18.1,10.6C396.62,224.54,398.52,225.64,400.32,226.74Zm-37-78.6c3,.4,5.5-2.4,5.4-5.2a5.21,5.21,0,0,0-5.3-5.3,5.4,5.4,0,0,0-5.4,5.2C358,145.84,360.62,148.44,363.32,148.14Z"/>
        <path d="M394.12,191.34V187c0-1-.3-1.4-1.4-1.4h-8.3a4.87,4.87,0,0,1-1.2-.1c-.7-.2-1.2-.6-1.2-1.3a1.39,1.39,0,0,1,1.1-1.4,5.7,5.7,0,0,1,1.3-.1c2.7,0,5.4-.1,8.2,0,1.1,0,1.4-.4,1.4-1.5-.1-2.7,0-5.4,0-8v-1.1c.1-.8.5-1.4,1.4-1.3a1.34,1.34,0,0,1,1.3,1.4c.1,1.6.1,3.3.2,4.9,0,1.4.1,2.7,0,4.1-.1,1.2.4,1.5,1.5,1.5,2.6-.1,5.2,0,7.8,0a6.15,6.15,0,0,1,1.4.1c.7.2,1.3.6,1.2,1.4a1.34,1.34,0,0,1-1.4,1.3h-4.2c-1.6,0-3.2.1-4.8,0-1.3-.1-1.6.4-1.5,1.6.1,2.6,0,5.3,0,7.9a4.87,4.87,0,0,1-.1,1.2,1.43,1.43,0,0,1-1.5,1.3,1.34,1.34,0,0,1-1.3-1.4,38.46,38.46,0,0,0,.1-4.8Z"/>
    </g>
    <g onclick="location.href='https://anarleather.com/jewel/necklaces';">
        <polygon points="521.11 301.51 347.91 601.5 174.71 301.51 521.11 301.51"/>
        <path d="M341.76,483a2,2,0,0,1-.8-1.9c0-2.7-.1-5.4-.1-8,0-1.1-.4-1.4-1.4-1.3h-8.2c-.8,0-1.6-.3-1.5-1.3s.7-1.3,1.5-1.3h1c2.4,0,4.7-.1,7.1,0,1.3,0,1.6-.4,1.5-1.6,0-2.6.1-5.2.1-7.8v-.5c.1-.8.4-1.3,1.3-1.3a1.24,1.24,0,0,1,1.3,1.4c0,2.8.2,5.5.1,8.3,0,1.2.4,1.5,1.5,1.5,2.7-.1,5.4,0,8.2,0,.8,0,1.5.3,1.4,1.3s-.6,1.3-1.5,1.4h-1.1c-2.3,0-4.6.1-7,0-1.2,0-1.6.4-1.6,1.6,0,2.6-.1,5.2-.1,7.8a2.24,2.24,0,0,1-.8,1.9C342.46,483,342.16,483,341.76,483Z"/>
        <path d="M283,388.89a2.28,2.28,0,0,1,1.9-.7h5.2c.9,0,1.3-.3,1.3-1.2-.1-1.8,0-3.6,0-5.4a1.37,1.37,0,0,1,.4-1.2.78.78,0,0,1,1-.2c.5.2.6.7.6,1.2v5.3c0,1.6,0,1.6,1.6,1.6h5c.5,0,1,0,1.3.4a.73.73,0,0,1,.2.9,1.08,1.08,0,0,1-1.1.7H296c-2.6,0-2.6,0-2.6,2.6v4c0,.7,0,1.6-1,1.6s-1-.9-1-1.7v-5.3c0-.8-.3-1.1-1.1-1.2-1.9-.1-3.7-.1-5.6-.1a1.62,1.62,0,0,1-1.6-.8A.9.9,0,0,1,283,388.89Z"/>
        <path d="M306.76,408.19v-9.5a2.41,2.41,0,0,1,.7-1.8c3.5-3.6,6.9-7.2,10.4-10.8a3.19,3.19,0,0,1,2.4-1.1h17.3a3.24,3.24,0,0,1,2.3.8c2.8,2.7,5.6,5.3,8.4,8,.3.3.5.8.9.6s.1-.7,0-1.1c-1.5-6.2-3.1-12.3-4.7-18.5a3.59,3.59,0,0,1-.2-1.1c-.2-1.4.3-2,1.7-2h11.8c1.6,0,2,.6,1.7,2.1-.8,3.2-1.6,6.4-2.3,9.5-.8,3.3-1.5,6.5-2.3,9.8-.1.3-.2.6.1.8s.6-.2.8-.4c2.7-2.6,5.5-5.1,8.2-7.7a3,3,0,0,1,2.3-1h17.5a2.66,2.66,0,0,1,2,.9c3.6,3.8,7.2,7.5,10.8,11.3a2.41,2.41,0,0,1,.7,1.8v18.5a2.81,2.81,0,0,1-1,2.1c-8.5,8.5-16.9,16.9-25.3,25.4-5.8,5.9-11.7,11.8-17.5,17.6-1.2,1.2-1.2,1.2-2.3,0l-37.8-37.5c-1.8-1.8-3.7-3.7-5.6-5.4a2.57,2.57,0,0,1-.8-2C306.76,414.49,306.76,411.29,306.76,408.19Zm43.6,46.8c.4-.4.3-.7.3-1.1v-36.2a1.44,1.44,0,0,0-1.1-1.6c-1.4-.5-2.9-1-4.3-1.6l-14.1-5.4c-.3-.1-.6-.4-.9-.1s0,.6.2.9c.5,1.2,1,2.4,1.5,3.5,5.7,13.1,11.4,26.2,17.2,39.3A7.24,7.24,0,0,0,350.36,455Zm2.6-32.8h.2v7.9c0,7.3,0,14.5.1,21.8,0,.8-.5,2.1.3,2.4.5.2.8-1.3,1.2-2l11.1-25.5c2.4-5.5,4.7-10.9,7.1-16.4.1-.3.5-.7.1-1.1s-.6,0-.9.1c-6,2.2-12.1,4.4-18.1,6.6a1.51,1.51,0,0,0-1.1,1.6Zm2.9,33.9c.5.1.7-.2.9-.5,8.1-8,16.3-16,24.4-23.9a1.71,1.71,0,0,0,.5-2l-5.7-18.3c-.1-.2-.1-.6-.4-.6s-.4.3-.6.6a4.88,4.88,0,0,0-.3.7c-5.9,13.8-11.9,27.5-17.8,41.3A7.23,7.23,0,0,0,355.86,456.09Zm-7.6.5a7.6,7.6,0,0,1-.4-1.1c-2.7-6.1-5.3-12.2-8-18.2-3.7-8.4-7.4-16.8-11.1-25.3-.2-.4-.2-.9-.7-.9s-.5.6-.6.9c-1.7,5.9-3.5,11.8-5.2,17.7a1.86,1.86,0,0,0,.6,2.1c8,8,16,16,24.1,24A2.09,2.09,0,0,0,348.26,456.59Zm-28.6-27.9c.5-.1.6-.4.7-.8,1.7-5.8,3.5-11.6,5.2-17.4.1-.3.3-.7,0-.9s-.6.1-.9.2c-4.8,2.7-9.7,5.5-14.5,8.2-.7.4-.7.7-.2,1.3l9,9A1,1,0,0,1,319.66,428.69Zm33.2-19.7v3.8c0,1,.2,1.3,1.2.9,5.6-2.1,11.3-4.2,16.9-6.3.3-.1.8-.1.8-.6s-.5-.5-.8-.6c-5.6-1.9-11.1-3.8-16.7-5.7-1-.3-1.2,0-1.2.9C353.16,403.89,352.76,406.39,352.86,409Zm41.1,9.1c-.1-.4-.4-.5-.7-.6-4.8-2.5-9.6-5.1-14.4-7.6-.3-.1-.6-.4-.9-.1s0,.5.1.8c1.8,5.7,3.5,11.4,5.3,17.1.3.9.5,1.2,1.3.4,3-3.1,5.9-6.2,8.9-9.2C393.76,418.59,394,418.39,394,418.09Zm-85.2-6.6h-.2v3.2c0,1.2.1,1.3,1.1.7l14.7-8.1c.3-.2.8-.2.7-.7s-.5-.4-.8-.6c-4.7-1.8-9.5-3.7-14.2-5.5-.9-.4-1.3-.2-1.3.8Zm55.9-22.9c-.1.1-.3.2-.4.3l-9.5,8.6c-.6.5-.4.8.3,1,5.8,1.9,11.6,3.9,17.4,5.8.3.1.6.4.9,0s0-.5-.2-.8c-2.6-4.8-5.2-9.6-7.7-14.5C365.26,388.89,365.16,388.59,364.66,388.59Zm-34.2,15.8c.3.2.6,0,.9-.1,5.6-1.9,11.1-3.7,16.7-5.6,1.4-.5,1.4-.6.4-1.6-3-2.7-5.9-5.5-8.9-8.2-.7-.7-1-.3-1.4.4-2.5,4.7-4.9,9.4-7.4,14.1A1.21,1.21,0,0,0,330.46,404.39Zm64.6,3.9v-6.6c0-.8-.3-1.1-1.1-.8-4.8,1.8-9.6,3.6-14.5,5.5-.3.1-.8.2-.8.6s.4.5.7.6c4.8,2.6,9.7,5.3,14.5,7.9.9.5,1.1.3,1.1-.7C395,412.69,395.06,410.49,395.06,408.29Zm-20-21h0c-2.2,0-4.3-.1-6.5,0-1.3,0-1.3.1-.7,1.3,2.4,4.7,4.8,9.3,7.2,14,.2.3.2.8.6.8s.5-.5.7-.9c2-4.6,4.1-9.3,6.1-13.9.4-.9.2-1.2-.8-1.2C379.46,387.29,377.26,387.29,375.06,387.29Zm-24.4,22.5h-.2v-8.1c0-.8-.3-1.1-1.1-.8-5.5,1.8-10.9,3.6-16.4,5.5-.3.1-.8.2-.8.6s.5.4.7.5c2.8,1.1,5.6,2.1,8.4,3.2,2.6,1,5.3,2,7.9,3,1.1.4,1.3.3,1.3-.9A16.17,16.17,0,0,0,350.66,409.79Zm-24-22.3v-.2h-4c-1.3,0-1.4.1-.9,1.3,1.9,4.6,3.8,9.3,5.6,13.9.1.3.2.8.6.8s.5-.5.7-.8c2.3-4.6,4.6-9.2,7-13.8.5-.9.2-1.2-.8-1.2ZM394,398c-.1-.1-.2-.3-.3-.4-2.7-2.8-5.4-5.6-8.2-8.4-.6-.6-.9-.2-1.1.3-2.1,4.7-4.2,9.4-6.2,14.1a.88.88,0,0,0-.1.7c.2.3.5.1.8,0,4.9-1.8,9.7-3.7,14.5-5.5C393.66,398.59,394,398.49,394,398Zm-68.4,5.9c-.1-.2-.1-.4-.2-.5-2.1-4.7-4.1-9.4-6.2-14.1-.4-.8-.8-.6-1.2-.1-2.6,2.7-5.1,5.4-7.7,8-.7.7-.6,1,.3,1.3,2,.7,4,1.5,5.9,2.3,2.8,1.1,5.5,2.1,8.3,3.2C325.06,404.29,325.56,404.59,325.56,403.89Zm26.3-29.4h-3.2c-1.4,0-1.6.2-1.3,1.5,1.3,5.6,2.7,11.2,4.1,16.8.1.2.1.5.4.5s.4-.4.4-.6c.6-2.3,1.2-4.6,1.8-7,.8-3.1,1.6-6.2,2.4-9.4.4-1.4,0-1.9-1.5-1.9C354,374.49,353,374.49,351.86,374.49Z"/>
        <path d="M407,379.29h-4c-.9,0-1.3.3-1.3,1.3,0,2.6-.1,5.1-.1,7.7v.8c-.1.8-.4,1.4-1.3,1.4s-1.2-.6-1.2-1.4c0-2.5-.1-4.9-.1-7.4,0-2.3,0-2.3-2.2-2.3-2.5,0-5,0-7.4-.1-.8,0-1.5-.3-1.4-1.3a1.29,1.29,0,0,1,1.4-1.3h1.1c2.4,0,4.8-.1,7.2,0,1.1,0,1.5-.4,1.4-1.5,0-2.6.1-5.2.1-7.8v-.5a1.36,1.36,0,0,1,1.2-1.5c1,0,1.3.6,1.3,1.5,0,2.5.1,4.9.1,7.4,0,2.2,0,2.2,2.2,2.2h7.2c.8,0,1.7.2,1.7,1.2s-.7,1.4-1.7,1.4a29.54,29.54,0,0,1-4.2.2Z"/>
        <path d="M324.46,362.69c0,.9-.9,1.2-1.6.7-1-.7-2-1.4-3-2.2l-9.6-7.2a5.72,5.72,0,0,1-.8-.7.78.78,0,0,1,0-1.1.82.82,0,0,1,1.2-.2,3.51,3.51,0,0,0,.8.5c4,3,8.1,6,12.1,9C324,361.89,324.46,362.19,324.46,362.69Z"/>
        <path d="M394,353.29a1.36,1.36,0,0,1-.7,1.1c-4.2,3.2-8.5,6.3-12.7,9.5-.6.4-1.2.6-1.7-.1s.1-1.1.6-1.5c4.2-3.2,8.4-6.3,12.7-9.5.4-.3.8-.6,1.3-.3A.89.89,0,0,1,394,353.29Z"/>
        <path d="M327.86,365.29a3.51,3.51,0,0,1,.8.5c4.2,3.1,8.3,6.2,12.5,9.3.5.4,1.2.8.6,1.5s-1.2.4-1.8,0c-4.2-3.1-8.3-6.2-12.5-9.3a1.17,1.17,0,0,1-.7-1.4A1.36,1.36,0,0,1,327.86,365.29Z"/>
        <path d="M376.46,366.29c0,.5-.4.8-.7,1.1-4.2,3.2-8.5,6.3-12.7,9.5-.5.4-1.1.6-1.6,0s-.1-1.1.4-1.5c4.3-3.2,8.5-6.4,12.8-9.5.4-.3.8-.6,1.3-.3C376.26,365.59,376.46,365.89,376.46,366.29Z"/>
    </g>
</svg>