<svg xmlns="http://www.w3.org/2000/svg" viewBox="0 0 603 703">
    <g id="carpet"><polygon class="cls-1" points="601.5 176.5 301.5 349.71 1.5 176.5 301.5 1.5 601.5 176.5"/><path class="cls-2" d="M301.5,351.21a1.53,1.53,0,0,1-.75-.2L.75,177.8a1.51,1.51,0,0,1,0-2.6l300-175a1.53,1.53,0,0,1,1.52,0l300,175a1.51,1.51,0,0,1,0,2.6L302.25,351A1.53,1.53,0,0,1,301.5,351.21ZM4.49,176.49,301.5,348l297-171.49L301.5,3.24Z"/><g id="_Anar_Carpet_Image" data-name="   Anar Carpet Image"><path class="cls-3" d="M431.7,204.91a26.77,26.77,0,0,1-4.3,6.1c-1.6,1.5-2,1.6-3.7.2-1.5-1.1-2.8-2.5-4.4-3.5a1,1,0,0,1-.3-1.5c2-3,4-6.1,5.9-9.1.5-.7,1-.7,1.8-.3a12.18,12.18,0,0,1,5.1,5.2C431.7,203,431.7,204,431.7,204.91Z"/><path class="cls-3" d="M171.2,204a60.11,60.11,0,0,1,6.4-23.5c.2-.4.4-1,.9-.8s.3.8.2,1.3c-.9,3.3-1.8,6.6-2.7,10a15,15,0,0,0-.3,7.6c1.3,5.3,5,9.3,11.6,10a7.76,7.76,0,0,0,4-.4,5.28,5.28,0,0,1,3.5-.2,7.44,7.44,0,0,0,3.9-.3c7.5-2.6,12.9-7.7,16.8-14.4a32.42,32.42,0,0,0,4.2-16.7c0-2.4.1-4.8.2-7.2a4.53,4.53,0,0,1,.3-1.6,3.09,3.09,0,0,1,3.8-2.5,26.46,26.46,0,0,0,18.6-3.9,66.12,66.12,0,0,0,9.6-7.9,59,59,0,0,1,9.2-7.3,17.07,17.07,0,0,1,2.7-1.4c.9-.4,1.4.1,1.1.9a22.74,22.74,0,0,1-3.4,7,4.81,4.81,0,0,1-1.6,1.2c-3.8,1.5-6.6,4.4-9.2,7.3-4.9,5.4-10.1,10.1-17.3,12.1a52.24,52.24,0,0,1-7.9,1.4c-1.8.2-1.9.4-2.1,2.2a64.71,64.71,0,0,1-4.4,17.3,55.25,55.25,0,0,1-10.8,16.6c-1,1.1-1,1,.3,1.6,2,1,4,1.9,6.1,2.9,1.4.7,1.4.6,2-.7,2.6-5.5,5.2-11,7.9-16.5a22.18,22.18,0,0,1,2.5-4.2c.9-1.3,1.7-1.4,2.9-.4a7.65,7.65,0,0,1,2.2,3.1,71.09,71.09,0,0,1,2.9,8.9c.4,1.6.5,1.6,1.7.4a106.39,106.39,0,0,0,13.6-15.6c3.2-4.2,6.4-8.4,10.6-11.7a31.22,31.22,0,0,1,11.1-5.5,13.32,13.32,0,0,0,2.8-1,2,2,0,0,0,.8-2.8c-.2-.4-.5-.8-.7-1.3a1.76,1.76,0,0,0-2.5-.9,5.22,5.22,0,0,1-2.1.4,4,4,0,0,1-4-5.4,34.53,34.53,0,0,1,5.7-10.5,2.67,2.67,0,0,1,3.2-1c3.5.9,5.2,3.5,6.3,6.7,1.5,4.5.6,8.8-1,13a23.56,23.56,0,0,1-6.1,9.4,17.55,17.55,0,0,1-4.7,2.5,36.46,36.46,0,0,1-3.5,1.4c-4.1,1.2-7.2,3.9-10,7-3.9,4.2-7.4,8.8-11.5,12.9a44.81,44.81,0,0,1-7.6,6.2,1.56,1.56,0,0,0-.8,1.8c1.3,6.7,2.1,13.4,2.9,20.2a14.62,14.62,0,0,0,.5,2,41.43,41.43,0,0,1,2.5,12v1.1a1.27,1.27,0,0,1-1,1.2,1.28,1.28,0,0,1-1.4-.5,5.31,5.31,0,0,1-.8-1.7,56.27,56.27,0,0,1-2.5-10.6,8,8,0,0,0-3.1-5.2c-2.9-2.5-6.4-4.2-9.7-6.2-1.9-1.2-3.9-2.2-5.8-3.4-.9-.5-1.2-.3-1.6.5a80.64,80.64,0,0,1-9.1,14.8,23,23,0,0,1-3.3,3.7,5.51,5.51,0,0,1-2.3,1.4,1.13,1.13,0,0,1-1.5-.8c-.2-.7.2-1.1.8-1.3a4.89,4.89,0,0,0,2.5-2,83.79,83.79,0,0,0,10.7-17c.4-.8.3-1.2-.5-1.6-2.5-1.2-5-2.4-7.4-3.6a1.4,1.4,0,0,0-1.9.3c-4.2,3.8-9,6.6-14.7,7.2-6.5.7-13.2-1.4-16.5-7.8A22.14,22.14,0,0,1,171.2,204Zm64.5,23.2a1.11,1.11,0,0,0,.1-1.1c-.7-4.3-1.3-8.6-2-12.9-.2-1.4-.3-1.4-1.6-.7-1.5.8-3.1,1.7-4.7,2.4-.4.2-1.1.4-1.4-.2s.3-.7.7-1c1.8-1.3,3.5-2.6,5.3-3.9a1.48,1.48,0,0,0,.7-1.6,76,76,0,0,0-2.7-9.3c-.3-.8-.3-2.2-1.1-2.2s-1.2,1.3-1.5,2.1c-2.8,5.7-5.7,11.5-8.5,17.2-.4.9-.2,1.3.6,1.7A138.59,138.59,0,0,1,235.7,227.21Z"/><path class="cls-3" d="M321.8,178.71c9.2.4,17-3.2,24.2-8.5,5.9-4.3,11.5-9,17.3-13.5a30,30,0,0,1,6.7-3.9,8.25,8.25,0,0,1,7.5.2,3.61,3.61,0,0,0,2.7.3c5.3-.9,9.5-3.9,13.6-7,.8-.6,1.6-1.3,2.5-1.9a5.32,5.32,0,0,1,3.8-1.1,4.46,4.46,0,0,0,4.1-1.5,6.89,6.89,0,0,0,1.1-1.3c.7-1.2,1.5-2,3.1-1.7.9.2,1.6-.6,2.2-1.3a22,22,0,0,0,2.1-3.2c.2-.3.5-.8,1-.5s.3.7.2,1.1a22.82,22.82,0,0,1-7,10.8,6.77,6.77,0,0,1-2.5,1.4c-.5.1-.7.4-1,.8a17.27,17.27,0,0,1-2.8,2.6,4.49,4.49,0,0,1-2.7,1c-2.9-.4-4.8,1.2-6.6,3a62.65,62.65,0,0,1-5.3,5,5.25,5.25,0,0,1-3.9,1.4c-.5-.1-.7.2-1.1.4-.6.5-1.2,1-1.9,1.5a3.07,3.07,0,0,1-3.3.4c-4.3-2-7.9-.6-11.4,2a115.73,115.73,0,0,0-10.7,9,83.69,83.69,0,0,1-15.7,12,36.57,36.57,0,0,1-15.5,4.5c-2.5.2-5,.4-7.5.5a14.15,14.15,0,0,1-13-7.5,14.91,14.91,0,0,1-1.6-9.8,51.39,51.39,0,0,1,6.4-17.8c.2-.3.3-.8.7-.6s.1.6,0,1c-.9,2.9-1.8,5.8-2.5,8.8a13.07,13.07,0,0,0-.3,5.2c.6,3.3,2.8,5.2,5.6,6.6s5.8,1.6,8.9,1.7A21.75,21.75,0,0,1,321.8,178.71Z"/><path class="cls-3" d="M424.7,140.51c0,2.8.1,5.5,0,8.3a24,24,0,0,1-3.2,10,30.28,30.28,0,0,1-6.1,8.1,2.47,2.47,0,0,0-.8,1.6,28.06,28.06,0,0,1-7.9,14.5,16.48,16.48,0,0,1-8.4,4.5c-1.1.2-2.3.5-3-.7-.5-.8-.1-2.3.9-3.4A7.94,7.94,0,0,1,398,182a69.25,69.25,0,0,0,8.3-5.9,10.88,10.88,0,0,0,2.9-3.5,1.5,1.5,0,0,0,0-1.8c-.5-.5-1,0-1.4.1a5.83,5.83,0,0,1-4.3-.6,2.48,2.48,0,0,1-1.3-2.7,28.23,28.23,0,0,1,2.8-7.5,39.58,39.58,0,0,1,2.5-4.5c1.5-2.1,3.5-2.4,5.5-.6a7.12,7.12,0,0,1,1.8,2.7c.2.6.5.7,1.1.5a12.65,12.65,0,0,0,3.1-2,4.47,4.47,0,0,0,1.2-4.5,14.6,14.6,0,0,1,1-8c.9-2.4,1.7-4.9,2.5-7.4.1-.4.2-.9.7-.8s.6.6.6,1v4.1A.37.37,0,0,0,424.7,140.51Z"/><path class="cls-3" d="M322.1,194.81a22.72,22.72,0,0,1,8,1.1c.8.2,1.7.4,1.3,1.6s-1.2,1-2,.8a33.87,33.87,0,0,0-9.5-.7,29.12,29.12,0,0,0-14.3,4.3,15.75,15.75,0,0,0-7.5,12.7,28.31,28.31,0,0,0,4.1,17.5c2.9,4.5,7.2,5.9,12.3,5.5a31.76,31.76,0,0,0,13.1-4h.1c.6-.3,1.3-.6,1.8.2s0,1.5-.8,1.8c-1.8.8-3.6,1.6-5.4,2.3a29.57,29.57,0,0,1-11,2.2c-6,0-10.5-2.5-13.4-7.9-3.3-6.5-4.9-13.3-3.8-20.5.8-5.1,4-8.8,8-11.7C308.2,196.41,314.3,194.81,322.1,194.81Z"/><path class="cls-3" d="M359.1,230.41a15,15,0,0,1,5-6.1,9.28,9.28,0,0,1,7.9-1.4,4.4,4.4,0,0,1,3.3,3.5c.2,1.8-.9,3.2-2.2,4.3a25,25,0,0,1-9,4.3c-.7.2-1.4.3-1.7-.6s.3-1.3,1-1.6a34.52,34.52,0,0,0,7.5-3.6c.9-.6,2-1.3,1.5-2.7s-1.8-1.2-2.9-1a8.81,8.81,0,0,0-7.5,5.7,16.81,16.81,0,0,0-1.2,6.3v9.6c0,1-.2,1.8-1.3,1.8s-1.5-.6-1.5-1.9c-.1-2.7-.1-5.4-.3-8s-.1-5.5-.9-8.2a5.63,5.63,0,0,0-1.4-2.9.89.89,0,0,1,0-1.4,1,1,0,0,1,1.4-.2,4.18,4.18,0,0,1,1.7,2A3.94,3.94,0,0,0,359.1,230.41Z"/><path class="cls-3" d="M279.8,120.51c-.1,2.4-1.5,4.2-2.9,5.9a11.49,11.49,0,0,1-3,2.8,1.56,1.56,0,0,1-2.1-.2,40.94,40.94,0,0,0-5.1-4,1,1,0,0,1-.3-1.7c2.1-3.2,4.2-6.4,6.2-9.5.3-.5.7-.9,1.3-.5,2.2,1.3,4.2,2.7,5.4,5.2A3.51,3.51,0,0,1,279.8,120.51Z"/><path class="cls-3" d="M247.4,109.31a4.56,4.56,0,0,1-.5,2.3,20.19,20.19,0,0,1-4.1,5.6c-1.1,1.1-1.8,1.1-3,.1-1.6-1.2-3-2.6-4.7-3.7a1,1,0,0,1-.3-1.7c2-3,3.9-6,5.9-9a1.06,1.06,0,0,1,1.6-.4,12.83,12.83,0,0,1,4.3,3.7A5.75,5.75,0,0,1,247.4,109.31Z"/><path class="cls-3" d="M327.3,132.41a32.72,32.72,0,0,1-3.5,4.8,5.66,5.66,0,0,1-1.5,1.2,1.27,1.27,0,0,1-1.8-.1c-1.8-1.4-3.5-2.9-5.4-4.2a.71.71,0,0,1-.2-1.2c2-3.1,4.1-6.2,6.1-9.3a.9.9,0,0,1,1.3-.4c2.2,1.3,4.3,2.7,5.2,5.3.5,1.4,0,2.7-.2,3.9Z"/><path class="cls-3" d="M424.6,219.61a4.55,4.55,0,0,1-.5,2,18.94,18.94,0,0,1-4.5,6c-1.1,1-1.6,1-2.7,0a57.12,57.12,0,0,0-4.8-3.8c-.8-.5-.8-1-.3-1.7,2-3,3.9-6,5.8-8.9.3-.5.7-.9,1.4-.6,2.4,1.2,4.4,2.8,5.3,5.4A11,11,0,0,1,424.6,219.61Z"/><path class="cls-3" d="M327.3,132.41c2-3.1,4-6.1,6-9.2.8-1.3,1-1.3,2.2-.5,2,1.3,3.9,2.7,4.6,5.1a4.28,4.28,0,0,1-.3,3.5,18.94,18.94,0,0,1-4.5,6,1.67,1.67,0,0,1-2.5.1,52.09,52.09,0,0,0-5.2-4.1,1.3,1.3,0,0,1-.3-.9Z"/><path class="cls-3" d="M239.9,127.61c2-3,4-6.1,6-9.1,1-1.5,1.1-1.5,2.8-.6a10.78,10.78,0,0,1,3.2,2.8,5.2,5.2,0,0,1,.8,5.7,18.65,18.65,0,0,1-4.3,5.8,1.81,1.81,0,0,1-2.7.1,64,64,0,0,0-5.1-4,1.58,1.58,0,0,1-.7-.7Z"/><path class="cls-3" d="M419,204.21a5.66,5.66,0,0,1-.3,1.8,18.75,18.75,0,0,1-4.8,6.6,1.48,1.48,0,0,1-2.2,0,52.09,52.09,0,0,0-5.2-4.1.85.85,0,0,1-.2-1.4c2-3,4-6.1,6-9.1.3-.5.7-.9,1.4-.5a11.33,11.33,0,0,1,5,4.7A12,12,0,0,1,419,204.21Z"/><path class="cls-3" d="M240,127.61a30,30,0,0,1-4.1,5.3c-1.3,1.2-1.7,1.2-3.1.2-1.6-1.2-3.1-2.5-4.7-3.7a1,1,0,0,1-.3-1.7l5.7-8.7a1.29,1.29,0,0,1,2.2-.4c.5.4,1.2.7,1.7,1.1,2.6,2,3.8,4.6,2.6,7.9Z"/><path class="cls-3" d="M383.8,236.31c-3,0-4-.7-4.6-3.1a1,1,0,0,0-1.1-.7,4.94,4.94,0,0,1-2.4-.5c-.6-.3-1-.8-.7-1.5s.8-.8,1.5-.7a6.15,6.15,0,0,0,1.9.2,3.12,3.12,0,0,0,3-1.6,12.18,12.18,0,0,1,2.8-3.2,3.69,3.69,0,0,1,1.4-.7,2.45,2.45,0,0,1,3,.8,2.42,2.42,0,0,1-.4,3,10.26,10.26,0,0,1-4.2,2.9c-.8.3-2.1.4-1.7,1.7.4,1,1.5.7,2.3.6a20,20,0,0,0,5.3-1.5l1.2-.3a1,1,0,0,1,1.2.6,1,1,0,0,1-.5,1.3C388.9,234.91,386.3,236.21,383.8,236.31Z"/><path class="cls-3" d="M394.3,229.51v-1.4c.1-.9.2-1.6-.9-1.9a1,1,0,0,1,0-1.7c2.1-.8,1.8-2.5,2.1-4.1.1-.4.1-.9.2-1.3.1-.7.4-1.3,1.2-1.2s1,.8,1,1.5c-.1.9-.2,1.8-.3,2.6s.2.9.9.8c1.2-.2,2.3-.5,3.5-.7.7-.1,1.3-.1,1.6.7s-.2,1.2-.9,1.5c-1.4.6-2.9,1.2-4.3,1.7-.8.3-1.2.6-1.3,1.5a13.55,13.55,0,0,0,.6,6,2.18,2.18,0,0,0,2.4,1.7,5.54,5.54,0,0,1,1.8.2c.6.2.9.5.8,1.1a1.06,1.06,0,0,1-.9,1,20.55,20.55,0,0,1-3.5.2,3.5,3.5,0,0,1-3-2A9.89,9.89,0,0,1,394.3,229.51Z"/><path class="cls-3" d="M259.6,231.21a2.49,2.49,0,0,1,.1-.8c.7-3.1,5.5-6,8.6-5.2a3,3,0,0,1,2.3,2,1,1,0,0,1-.4,1.3.92.92,0,0,1-1.3-.1c-1-1.2-2.1-.9-3.3-.3a5.78,5.78,0,0,0-2.5,1.9c-.2.2-.5.5-.2.8s.5.1.8.1c1-.2,1.9-.5,2.9-.8,2.9-.6,4.1.3,4.2,3.3a4.15,4.15,0,0,0,.3,1.6c.3.7.2,1.3-.6,1.6a1.13,1.13,0,0,1-1.5-.8,11.7,11.7,0,0,1-.5-2c-.2-1-.7-1.3-1.7-1s-2.1.7-3.1.9a4.71,4.71,0,0,1-3.1-.1A2.61,2.61,0,0,1,259.6,231.21Z"/><path class="cls-3" d="M331.1,231.11a2.25,2.25,0,0,1,.1-.7c.8-3.1,5.5-5.9,8.5-5.1a3,3,0,0,1,2.4,2.1,1.25,1.25,0,0,1-.3,1.2.92.92,0,0,1-1.2.1c-1.6-1.7-3-.7-4.5.2a7.41,7.41,0,0,0-1.3,1.2c-.2.2-.5.5-.3.8s.6.2.9.1c1-.2,2-.6,3-.8,2.8-.5,4,.4,4,3.3a5.84,5.84,0,0,0,.4,1.8,1.14,1.14,0,0,1-.5,1.5,1.07,1.07,0,0,1-1.5-.8,16,16,0,0,1-.5-2.1c-.2-1-.7-1.3-1.6-1a21.72,21.72,0,0,1-2.4.7,6.88,6.88,0,0,1-2.5.3C332,233.91,331.1,233,331.1,231.11Z"/><path class="cls-3" d="M247.6,231.41c.8-.9,1.3-1.9,2.1-2.8,2-2.2,4.1-1.4,5.6.2s1.7,3.6,2.6,5.4a.89.89,0,0,1-.5,1.1,1,1,0,0,1-1.3-.1,4.39,4.39,0,0,1-1.2-1.8c-.3-.6-.5-1.2-.8-1.8-.7-1.5-1.8-1.6-2.9-.4-.6.7-1.1,1.5-1.7,2.3a6.42,6.42,0,0,1-1,1.3c-1.3,1.4-2.8,1.1-3.5-.8a15.83,15.83,0,0,1-.5-3.8,5,5,0,0,0-1-3.3,1,1,0,0,1,.1-1.5,1.06,1.06,0,0,1,1.4,0,4.21,4.21,0,0,1,1.6,2.5C247,229.11,247.3,230.21,247.6,231.41Z"/><path class="cls-3" d="M275.9,237.61c-.9-.1-1.3-.6-1.5-1.5a32,32,0,0,0-.8-5.4,14.49,14.49,0,0,0-1.2-3.5c-.3-.6-.5-1.3.3-1.8s1.3.1,1.7.7c1,1.3,1,1.3,2.1,0a19.28,19.28,0,0,1,3.3-3.1c.6-.4,1.2-.7,1.7,0s.3,1.2-.3,1.8-1.2,1.1-1.8,1.8a9.7,9.7,0,0,0-2.2,7.7,14.77,14.77,0,0,1,.1,2.1C277.4,237.11,276.9,237.61,275.9,237.61Z"/><path class="cls-3" d="M347.7,237.61c-.9,0-1.4-.6-1.5-1.6a29,29,0,0,0-.9-5.9,15.36,15.36,0,0,0-1.1-3c-.3-.6-.4-1.3.3-1.7s1.2,0,1.6.5.4,1.4,1.2,1.3c.4-.1.7-.9,1.1-1.3a17.5,17.5,0,0,1,3.2-2.9c.5-.4,1.1-.7,1.7-.1s.3,1.2-.2,1.8a15.91,15.91,0,0,0-2.4,2.7,9.64,9.64,0,0,0-1.6,6.8,17.7,17.7,0,0,1,.1,2.3C349.1,237.21,348.6,237.61,347.7,237.61Z"/></g></g>
    <g id="decoration"><polygon class="cls-1" points="601.5 176.5 601.5 526.5 301.5 701.5 301.5 349.71 601.5 176.5"/><path class="cls-2" d="M301.5,703a1.53,1.53,0,0,1-.75-.2,1.51,1.51,0,0,1-.75-1.3V349.71a1.51,1.51,0,0,1,.75-1.3l300-173.21a1.49,1.49,0,0,1,1.5,0,1.51,1.51,0,0,1,.75,1.3v350a1.51,1.51,0,0,1-.74,1.3l-300,175A1.6,1.6,0,0,1,301.5,703ZM303,350.58V698.89L600,525.64V179.1Z"/><g id="decoration-2" data-name="decoration"><path d="M500.58,507.2a8.44,8.44,0,0,0,3.78-2.9c.41-.49.74-1,1.15-1.53a1.27,1.27,0,0,1,1.71-.38,1.16,1.16,0,0,1,.45,1.67,11.94,11.94,0,0,1-7.32,6c-1.78.5-3.14-.91-2.87-2.77.16-1,.44-2.09.66-3.17-.61,0-.86.49-1.16.83a21.65,21.65,0,0,0-2.94,3.93,1.36,1.36,0,0,1-1.56.82c-.78-.15-1.07-.7-1.3-1.4-.15-.45.52-1.27-.23-1.28a2.57,2.57,0,0,0-2.11,1c-.26.35-.46.74-.73,1.1a6.13,6.13,0,0,1-6.51,2.2,3.21,3.21,0,0,1-2.12-1.64c-.34-.71-.63-.64-1.13-.17a9.89,9.89,0,0,1-3.52,2.24c-2.56.89-3.66.42-4.73-2.09A12.56,12.56,0,0,0,468,512a28.59,28.59,0,0,1-3.82,4c-2.26,1.75-5,.94-5.79-1.8s-.39-5.55.23-8.3a4.11,4.11,0,0,0,.16-1.34c-.59.86-1.15,1.74-1.78,2.57-1.67,2.21-3.8,2.09-5.12-.31-.34-.62-.6-.74-1.14-.26-.81.72-1.65,1.41-2.49,2.08-1.37,1.09-2.8,1.78-4.45.53-.51-.39-.71.07-1,.32a5.62,5.62,0,0,1-2.14,1.5,2.49,2.49,0,0,1-3.51-2.25,8.87,8.87,0,0,1,.25-2.62,1.19,1.19,0,0,0-.44-1.37c-.5-.37-.79,0-1.16.21-1.6.87-3,2.12-4.82,2.61-.61.17-.77.78-1.08,1.24a6.14,6.14,0,0,1-6.71,2.54,3.11,3.11,0,0,1-2.07-1.51c-.41-.82-.74-.54-1.23-.12a15.9,15.9,0,0,1-7.3,3.69,11.56,11.56,0,0,1-3,.16A3.9,3.9,0,0,1,406,511c-.39-1-.81-.9-1.54-.42a11.2,11.2,0,0,1-4.11,1.58c-3.56.68-5.79-1.42-5.13-5a12.14,12.14,0,0,1,3.87-6.89,5.72,5.72,0,0,1,2.66-1.32,2.28,2.28,0,0,1,2.74,3c-.89,2.48-2.85,4-5.1,5.16-.21.11-.45.16-.67.26a1.44,1.44,0,0,0-.69,1.85c.16.71.82.63,1.39.57a7.86,7.86,0,0,0,4.52-2.29,19.62,19.62,0,0,0,2.86-3.38,20,20,0,0,1,4.48-4.28,4.07,4.07,0,0,1,4.22-.47,2.09,2.09,0,0,1,1.06,3,1.61,1.61,0,0,1-2.62.47.9.9,0,0,0-1.42-.08,12.38,12.38,0,0,0-4.16,6.16c-.4,1.23.21,2,1.54,2.15a6.92,6.92,0,0,0,4.71-1,28.78,28.78,0,0,0,6-5.14,1.33,1.33,0,0,0,.36-1.08,4.6,4.6,0,0,1,6.08-4.7,5.36,5.36,0,0,1,3.8,4c.35,1.33.44,1.36,1.64.65.28-.16.53-.36.81-.52a1.56,1.56,0,0,0,.81-2.16,6.56,6.56,0,0,1,0-4.13,4.3,4.3,0,0,1,.87-1.7c.71-.77,1.52-1.41,2.62-.95a2.36,2.36,0,0,1,1.37,2.57,10.41,10.41,0,0,1-.82,3.49,1.4,1.4,0,0,0,.67,2.07,5.58,5.58,0,0,1,.95.73,2.28,2.28,0,0,1,.74,2.79,3.68,3.68,0,0,0-.24.68c-.08.6-.71,1.38-.06,1.73s1.09-.49,1.53-.93a15.59,15.59,0,0,0,2.48-3.23,10.81,10.81,0,0,1,3.35-3.18,3.11,3.11,0,0,1,3.09-.31c1.16.46,2,1.39,3.14,1.93.68.32.57,1.16.6,1.85,0,.45-.22,1.12.33,1.27s.75-.51,1-.87a24.37,24.37,0,0,0,2.41-4c1-2.07,2-4.17,3-6.27.13-.27.43-.59.19-.87s-.61,0-.9,0c-1.32.32-2.63.68-3.95,1a3.45,3.45,0,0,1-1.19.12,1.15,1.15,0,0,1-1.16-1,1.1,1.1,0,0,1,.85-1.27c.79-.26,1.6-.5,2.41-.72a14.31,14.31,0,0,1,2.91-.69c2.39-.13,3.48-1.6,4.11-3.64a13.84,13.84,0,0,0,1-4.66c0-.67.17-1.32.92-1.5s1.14.4,1.5.95a4.16,4.16,0,0,1,.28,3.15c-.16.94-.43,1.87-.66,2.8-.35,1.38-.35,1.39,1.1,1.16a41.8,41.8,0,0,1,6.3-.74,6.79,6.79,0,0,1,1.43.11c.66.15,1.25.51,1.21,1.28a1.29,1.29,0,0,1-1.39,1.22,32.65,32.65,0,0,0-3.83.21c-1.69.29-3.39.53-5.09.79-.57.08-1.1.2-1.32.85-1.84,5.54-4.09,10.94-5.21,16.7a7.63,7.63,0,0,0-.13,3.33c.33,1.35,1.09,1.62,2.15.72a40.17,40.17,0,0,0,5.66-6.35c1.5-2,2.88-4,4.36-6a.65.65,0,0,0,0-.93,1.24,1.24,0,0,1,.36-2,2,2,0,0,1,2.56,0,1.63,1.63,0,0,1,.25,2.29,1.93,1.93,0,0,0-.58,1.74c.11.61-.38,1.2-.7,1.75a19.53,19.53,0,0,0-1.75,4.07c-.1.33-.21.75.1,1s.69,0,1-.12a17.6,17.6,0,0,0,5.18-4.58,1.24,1.24,0,0,0,.21-.9c0-2.72,1.21-4.4,3.69-5a5.39,5.39,0,0,1,5.63,2.74,8.57,8.57,0,0,1,.67,1.92c.14.61.46.72.94.43.71-.44,1.38-.94,2.08-1.4,1-.66,2-1.26,3.13-.19.37.36.56.06.79-.13a8.7,8.7,0,0,1,2.18-1.47A2.18,2.18,0,0,1,501,501a2.28,2.28,0,0,1,.5,2.55A16.21,16.21,0,0,0,500.58,507.2Zm-16.18-5.87a3.11,3.11,0,0,1-.36,2.79c-.52.77-.14,1,.59,1h1.08c.75,0,1-.3.77-1A5,5,0,0,0,484.4,501.33Zm-58.35.23a3,3,0,0,1-.44,2.49c-.63.88-.19,1.11.65,1.05.61,0,1.42.28,1.77-.32s-.2-1.2-.49-1.75A2.67,2.67,0,0,0,426.05,501.56Z"/><path d="M358.1,520.14a4.47,4.47,0,0,1,.22-1.66,1,1,0,0,1,1.15-.65.82.82,0,0,1,.81.88c0,1.66.36,3.13,2,3.92a7.84,7.84,0,0,0,4.53.82,21.82,21.82,0,0,0,9.06-3.6c7.78-4.92,13.14-11.92,17.11-20.09a36,36,0,0,0,2.34-5.9,7.48,7.48,0,0,0,.33-2.25c-.05-1.92-1.11-3-3-2.88a63.26,63.26,0,0,0-8.66,1.19c-3.83.8-7.65,1.66-11.45,2.63A1.85,1.85,0,0,0,371,494.1a223.22,223.22,0,0,1-7.08,23c-.34,1-.77,1.69-1.94,1.49a1.79,1.79,0,0,1-1.6-2.26c.36-2.61.89-5.2,1.28-7.81a66.85,66.85,0,0,0,.88-10.86,11.79,11.79,0,0,0-.27-2.37c-.24-1.17-.54-2.29-1.94-2.57a.88.88,0,0,1-.21-.12c-1.55-.93-2.1-2.63-1.26-3.86.72-1.05,2.36-1.11,3.77-.14a3.66,3.66,0,0,1,1.23,1.45,1.35,1.35,0,0,0,1.64.86l.23,0c3-.38,3-.38,3.75-3.36q.61-2.57,1.19-5.14c.23-1,.76-1.72,1.83-1.75s1.34.9,1.53,1.8a3.58,3.58,0,0,1-.42,2.76,13.28,13.28,0,0,0-1.06,3.17c-.3.94,0,1.09.9.89q5.07-1.18,10.18-2.27a34.67,34.67,0,0,1,8.56-.87c4.95.19,6.4,3.76,5.93,7.37-.56,4.23-2.45,8-4.45,11.7-4.3,8-10.23,14.36-18.38,18.51-3.41,1.74-6.95,3.08-10.91,2.48a8.86,8.86,0,0,1-3.8-1.38A5.26,5.26,0,0,1,358.1,520.14Zm6.81-15.69q1.41-5.13,2.81-10.25c.06-.19,0-.52-.14-.52a13.07,13.07,0,0,0-2.25.2c-.57.12-.44.69-.45,1.11,0,1.76,0,3.52-.12,5.28A13.41,13.41,0,0,0,364.91,504.45Z"/><path d="M435.89,480.62a3.27,3.27,0,0,1-.34-4.83,12.53,12.53,0,0,1,3.21-2.49c4-2.57,8-5.13,11.4-8.54a9.31,9.31,0,0,0,2.54-3.87c.15-.56.28-1.12-.21-1.57s-1-.16-1.45,0a6.44,6.44,0,0,1-5.86-.66,3.12,3.12,0,0,1-1.55-3.58,33.58,33.58,0,0,1,2.85-7.88c1-2.09,2.12-4.13,3.2-6.18a7.42,7.42,0,0,1,1.25-1.76,3.94,3.94,0,0,1,5.77-.34,7.5,7.5,0,0,1,2.82,4.21c.23,1,.75,1.06,1.55.58a11.52,11.52,0,0,0,5.21-7.2,26.86,26.86,0,0,0,.82-5.8c.4-7.18.21-14.43,1.68-21.49a154.32,154.32,0,0,1,5.6-19c.13-.36.25-.93.71-.83.61.13.3.71.25,1.11-.75,6.16-1,12.34-1.33,18.53-.3,6.38-.09,12.81-1.17,19.13a50.49,50.49,0,0,1-11,24.43,15.3,15.3,0,0,0-3.12,6A35.54,35.54,0,0,1,450.05,474a23,23,0,0,1-10.28,6.15c-.42.12-.83.29-1.24.44Z"/><path d="M555.89,326.3a35.79,35.79,0,0,1-4.69,7.78,72.26,72.26,0,0,1-15.47,14.42c-13.59,9.1-27.49,17.71-41.44,26.26-5.5,3.37-10.55,7.37-15.7,11.23a7.5,7.5,0,0,1-2.09,1.15c-.36.13-.76.44-1.09,0s-.06-.77.1-1.13a22.6,22.6,0,0,1,3.66-5.46c6-6.77,13.11-12.17,20.28-17.53s14.88-9.83,22.43-14.57c6.33-4,12.86-7.64,18.77-12.26,4.86-3.78,9.56-7.75,14.16-11.84.32-.29.59-.67,1.08-.71Z"/><path d="M398.46,444.43c-.43-3.2,1.58-4.9,3.2-6.71,5.42-6.06,12.49-9,20.33-10.36a46.24,46.24,0,0,1,9.9-.74H432c3.41.17,4.57,2,3,5a47.37,47.37,0,0,1-15,17.75,50,50,0,0,1-17.84,7.72c-4.62,1.05-7.33-.22-9.77-5.7a16.19,16.19,0,0,1-1.15-6.09c-.34-8.65,2.09-16.67,5.52-24.46a30.82,30.82,0,0,1,3.53-6.38,5,5,0,0,1,.45-.56c.47-.42,1-1,1.66-.57s.38,1.09.2,1.65c-.93,3-2.27,5.81-3.11,8.82a34.55,34.55,0,0,0-1.27,9.34c0,2.9-.32,5.82-.24,8.74A5.77,5.77,0,0,0,398.46,444.43Zm11.65,1.4c.5-.15,1-.27,1.42-.43,2.66-1,5.34-1.89,7.93-3a13.41,13.41,0,0,0,5.46-3.76c.66-.84,1.9-1.57,1.41-2.83s-1.95-1.32-3.1-1.39a31.24,31.24,0,0,0-11.5,1,24.31,24.31,0,0,0-8.17,3.88c-1.08.87-1.27,1.94-.44,2.91C405,444.3,407.59,445,410.11,445.83Z"/><path d="M492.07,445c.28,4.6-1.27,9.05-3.24,13.36-1.78,3.9-3.69,7.74-6.61,10.94a22.69,22.69,0,0,1-12,7,4.35,4.35,0,0,1-1,.13c-1.53,0-2.19-1.09-1.4-2.4a19.67,19.67,0,0,1,4.26-4.52c3.19-2.79,6.74-5.13,9.73-8.16,3.46-3.49,3.59-7,.41-10.86a22.93,22.93,0,0,0-4.12-3.82c-.57-.41-.79-.8-.45-1.5,1.95-4,3.7-8.06,6-11.85.19-.3.43-.58.6-.89.48-.84,1.05-.82,1.78-.31a13,13,0,0,1,5.95,10.66C492.09,443.49,492.07,444.13,492.07,445Z"/><path d="M368.1,455.42a10.24,10.24,0,0,1-4.67-1.74,4.52,4.52,0,0,0-4.12-.17,34.4,34.4,0,0,0-8.34,5.14c-.86.66-1.69,1.35-2.53,2-.31.24-.61.61-1.05.29s-.3-.7-.21-1.1a7.38,7.38,0,0,1,1.64-3,64.19,64.19,0,0,1,15.4-14.1,16.57,16.57,0,0,1,3.38-1.52,8.33,8.33,0,0,1,6.94.55c2.82,1.49,3.86,1.23,6.12-1.05a29.53,29.53,0,0,0,3.22-4.17c.21-.29.4-.6.63-.87a.72.72,0,0,1,.75-.28c.37.11.45.42.46.75a6.7,6.7,0,0,1-.37,2.48c-2.42,7.19-6.83,12.67-13.77,16A10.16,10.16,0,0,1,368.1,455.42Z"/><path d="M409.22,477c-.07-1.72.95-2.92,2.24-3.94a36.81,36.81,0,0,1,4.42-2.88c4.43-2.59,8.68-5.45,11.8-9.63A50.65,50.65,0,0,0,433.25,450c.83-1.91,1.65-3.81,2.49-5.71a4.11,4.11,0,0,1,.59-.9c.19-.25.41-.57.78-.42s.39.56.34.93-.09.63-.17.94c-2.23,7.77-4.81,15.42-9,22.4a31.09,31.09,0,0,1-10.21,10.93c-2.08,1.28-4.3,2.14-6.82,1.53C409.64,479.31,409.2,478.73,409.22,477Z"/><path d="M387.86,410.71a5.76,5.76,0,0,1-.55,2.22,15.83,15.83,0,0,1-6.84,7,1.54,1.54,0,0,1-2.12-.3,62,62,0,0,0-5.33-5.17.92.92,0,0,1-.1-1.46q4-4.87,8-9.74c.39-.47.87-.81,1.45-.38,2.52,1.84,4.85,3.84,5.42,7.15C387.8,410.26,387.83,410.5,387.86,410.71Z"/><path d="M431.8,397.71a4.74,4.74,0,0,1-.56,2.67,16.87,16.87,0,0,1-6.55,6.67,1.8,1.8,0,0,1-2.45-.38,48.43,48.43,0,0,0-5-4.82A1.09,1.09,0,0,1,417,400c2.6-3.14,5.16-6.31,7.75-9.46.4-.48.89-.92,1.54-.48,2.5,1.69,4.65,3.67,5.36,6.78A6.3,6.3,0,0,1,431.8,397.71Z"/></g></g>
    <g id="chair"><polygon class="cls-1" points="301.5 349.71 301.5 701.5 1.5 526.5 1.5 176.5 301.5 349.71"/><path class="cls-2" d="M301.5,703a1.6,1.6,0,0,1-.76-.2l-300-175A1.51,1.51,0,0,1,0,526.5v-350a1.51,1.51,0,0,1,.75-1.3,1.49,1.49,0,0,1,1.5,0l300,173.21a1.51,1.51,0,0,1,.75,1.3V701.5a1.51,1.51,0,0,1-.75,1.3A1.53,1.53,0,0,1,301.5,703ZM3,525.64,300,698.89V350.58L3,179.1Z"/><g id="chair-2" data-name="chair"><path d="M185.64,497.62c.63-.8,1-1.32,1.44-1.86a4.27,4.27,0,0,1,1.65-1.36,1.91,1.91,0,0,1,2.89,1.72,12.25,12.25,0,0,1-.23,2.63c-.12.89.22,1.09,1,.65a5.78,5.78,0,0,0,2.65-2.52,8,8,0,0,1,2.94-3.06,3.74,3.74,0,0,1,4.84.07,3,3,0,0,0,1,.35,2,2,0,0,1,1.42,2.77c-.33.94-.93,2.11-.08,2.8s1.77-.32,2.55-.8a16.7,16.7,0,0,0,4.34-4.25c.3-.4.42-.7.12-1.16a1.25,1.25,0,0,1,.39-1.88,2,2,0,0,1,2.57,0,1.45,1.45,0,0,1,.47,2,5,5,0,0,0-.85,2.57,4.93,4.93,0,0,1-.71,1.51,17.41,17.41,0,0,0-1.61,3.86c-.08.3-.26.65,0,.91s.68.09,1-.07a14.5,14.5,0,0,0,4.09-3.29c.46-.51.89-1,1.33-1.55,1.08-1.28,2-2.49,1.37-4.44a5.51,5.51,0,0,1,.77-4.61,2.53,2.53,0,0,1,2.82-1.33c1.23.45,1.44,1.47,1.42,2.62a10.14,10.14,0,0,1-.84,3.73c-.29.71-.23,1.2.46,1.59a9.09,9.09,0,0,1,1,.8,2.34,2.34,0,0,1,.9,3.05,7,7,0,0,0-.43,1.37c-.07.32-.37.75,0,1s.67-.17.94-.39a18.44,18.44,0,0,0,3.39-4.17c.16-.23.29-.48.45-.71a1.09,1.09,0,0,1,1.48-.37.92.92,0,0,1,.38,1.35c-1.45,2.54-3,5.06-5.59,6.6-2,1.21-3.9,0-4-2.31a9.13,9.13,0,0,1,.21-2.5,1,1,0,0,0-.51-1.22c-.54-.36-.85.08-1.12.36-.91,1-1.77,2-2.64,2.94a14.26,14.26,0,0,1-4.42,3.45,6.14,6.14,0,0,1-2.29.65c-1.91.12-2.84-.72-2.92-2.63a2.76,2.76,0,0,0-.16-1.48c-.66.4-1.27.83-1.93,1.18-2.55,1.39-4,1-5.56-1.39-.37-.58-.63-.31-.94,0a10.85,10.85,0,0,1-3,2c-1.66.7-2.32.57-3.57-.79-.27-.29-.48-.36-.81-.18a9.71,9.71,0,0,1-1.3.63c-2.31.84-4-.32-4.06-2.78,0-.39,0-.78,0-1.24-.66.05-.8.52-1,.86a15.57,15.57,0,0,0-1.78,4.56c-.18.79-.29,1.72-1.36,1.66a2,2,0,0,1-2-1.57c-.05-.18-.09-.37-.18-.72a33.26,33.26,0,0,1-7.83,8.71,35.84,35.84,0,0,1-13.67,7.23c-6.74,1.71-12.08-2.5-11.38-10.13a32.79,32.79,0,0,1,7.11-17.29,74.13,74.13,0,0,1,9.87-10.92,18.85,18.85,0,0,1,8.2-4.55c3.51-.77,5.84,1.05,5.95,4.62a16,16,0,0,1-.68,5.45c-.31.93-.82,1.74-1.95,1.58s-1.53-1-1.53-2.11a5.3,5.3,0,0,1,.65-2.89,2.3,2.3,0,0,0,.27-.65c.53-2.26-.62-3.38-2.85-2.66a21.24,21.24,0,0,0-7.13,4.08,43.26,43.26,0,0,0-14.28,22.25,14.72,14.72,0,0,0-.37,5.12c.33,3.75,2.77,5.63,6.49,5a22.3,22.3,0,0,0,7-2.5,47.36,47.36,0,0,0,13.72-11.1c.34-.39.66-1,1.2-.89,1.12.13,1.15-.47,1.23-1.32a79.54,79.54,0,0,1,5-20,18.54,18.54,0,0,1,1.34-2.81,2.72,2.72,0,0,1,3.05-1.38,1.76,1.76,0,0,1,1.44,1.91,1.21,1.21,0,0,1-1.7,1,.61.61,0,0,0-.77.39,7.65,7.65,0,0,0-.52,1.08,79.79,79.79,0,0,0-4.27,16.08A8.57,8.57,0,0,0,185.64,497.62Zm15.11-1.19c0-.33-.26-.46-.63-.25a7.86,7.86,0,0,0-3.35,3.45c-.11.24-.26.58,0,.77s.51-.1.69-.29c1-1.1,2-2.21,3.06-3.33A2.19,2.19,0,0,0,200.75,496.43Z"/><path d="M58.42,519.94a61.12,61.12,0,0,1-7.54-1.89,21.12,21.12,0,0,1-6.43-3.65,4.52,4.52,0,0,1-1.11-1.4,2.24,2.24,0,0,1,1.15-3.37,11,11,0,0,1,4.55-.95c2.72,0,5.44,0,8.16,0a107.88,107.88,0,0,0,30.13-4.51,123.44,123.44,0,0,0,33.4-15.76,108.07,108.07,0,0,0,11.9-9.67c5.14-4.58,9.84-9.6,14.55-14.61,5.3-5.66,10.35-11.54,15.57-17.28a112.26,112.26,0,0,1,15.72-14.38,2.82,2.82,0,0,1,2.19-.76c.59.09,1-.38,1.5-.69a17.62,17.62,0,0,1,3.63-1.82,6.52,6.52,0,0,1,3.42-.35c1.85.31,2.43,0,3.2-1.7a15.31,15.31,0,0,0,1.12-6.09c.18-7.38,1.28-14.56,4.29-21.37.34-.77.71-1.52,1.11-2.26.13-.25.26-.68.67-.53s.2.49.2.75a84.51,84.51,0,0,1-.3,9.94c-.57,5.21-1.52,10.36-2.35,15.53A25.42,25.42,0,0,1,192,434.19a29.4,29.4,0,0,1-6,5.87,5.22,5.22,0,0,1-3.56,1.18c-1.53-.08-1.62-.1-1.66-1.63a2.36,2.36,0,0,0-.19-.92c-.23,2.47-2.15,2.92-3.93,3.65-2.68,1.12-4.57,3.34-6.67,5.23-4.8,4.31-8.87,9.29-13,14.21s-8.21,9.59-12.38,14.33c-4.56,5.2-9.16,10.36-14.19,15.12a116.25,116.25,0,0,1-25.39,18.53,96.91,96.91,0,0,1-26.78,9.55,22.12,22.12,0,0,0-3.53.63Z"/><path d="M260,426.34a2.75,2.75,0,0,0-.56,1.3,22.32,22.32,0,0,1-10.56,13.43,13.12,13.12,0,0,1-11.11,1,4,4,0,0,1-1.87-1.25c-.51-.62-.91-.66-1.36.07-.68,1.08-1.41,2.13-2.1,3.2a4.3,4.3,0,0,1-5.14,2.06c-3.26-.86-5.8.15-7.75,2.94a24.2,24.2,0,0,1-5.23,6.05,10.34,10.34,0,0,1-7.52,2.2,7.47,7.47,0,0,1-6.52-5.09,8.83,8.83,0,0,1-.28-6.57l-.29-.1c-1.18,1.36-2.33,2.75-3.55,4.07-3.91,4.24-8.18,8-13.73,10-3.12,1.13-6.15,1.41-9.07-.53-.5-.33-1.09-.63-1.09-1.33s.66-1.06,1.23-1.33c2.33-1.08,4.85-1.61,7.24-2.54,8.77-3.43,16.07-8.68,21.09-16.8.36-.59.61-1.54,1.43-1.45s.73,1.12,1,1.74c.44.94.62,2,1,2.93a6.33,6.33,0,0,0,5,4,12.5,12.5,0,0,0,11.8-3.44,14.59,14.59,0,0,1,2.3-1.71,4.93,4.93,0,0,1,4.37-.32c2.5.86,3.29.71,4.86-1.47.65-.91,1.25-1.86,1.87-2.79,1-1.51,1.57-1.74,3.31-1.35,2.55.59,2.51.56,4-1.58a76.15,76.15,0,0,1,6.93-9.18,16.18,16.18,0,0,1,3.09-2.63c2.53-1.63,5-1.2,6.88,1.15a2.73,2.73,0,0,0,.35.33ZM257,427a4.3,4.3,0,0,0-.31-.37c-1.55-1.38-5.1-1.34-6.73.12a31.55,31.55,0,0,0-5,6.09c-.15.22-.42.47-.22.74s.52.13.79.07a26.47,26.47,0,0,0,6.35-2.11,11.71,11.71,0,0,0,4.63-3.7C256.63,427.57,256.78,427.3,257,427Z"/><path d="M220.84,402.9a8,8,0,0,1-1.55,4,14.43,14.43,0,0,1-3.81,4.09,1.66,1.66,0,0,1-2.27-.06,51.71,51.71,0,0,0-4.89-3.85c-.62-.4-.57-.87-.21-1.43q3-4.5,5.91-9a1,1,0,0,1,1.33-.47c2.6,1.46,4.9,3.2,5.46,6.41A1.82,1.82,0,0,1,220.84,402.9Z"/></g></g>
</svg>