<?xml version="1.0" encoding="utf-8"?>
<!-- Generator: Adobe Illustrator 23.0.1, SVG Export Plug-In . SVG Version: 6.00 Build 0)  -->
<svg version="1.1" id="Layer_1" xmlns="http://www.w3.org/2000/svg" xmlns:xlink="http://www.w3.org/1999/xlink" x="0px" y="0px"
	 viewBox="0 0 1201.41 1201.41" style="enable-background:new 0 0 1201.41 1201.41;" xml:space="preserve">
<style type="text/css">
	.st0{fill:none;stroke:#000000;stroke-miterlimit:10;}
</style>
<circle id="smallCircle_sc3" class="st0" cx="600.71" cy="818.37" r="108.55"/>
<circle id="smallCircle_sc2" class="st0" cx="600.71" cy="600.94" r="108.55"/>
<circle id="smallCircle_sc1" class="st0" cx="600.71" cy="383.51" r="108.55"/>
<path id="eye" class="st0" d="M600.75,490.62c123.01,0,188.5,110.5,188.5,110.5s-76.25,110.5-188.5,110.5s-188.5-110.5-188.5-110.5
	S477.74,490.62,600.75,490.62z"/>
<path id="innerCirclea" class="st0" d="M789.05,601.1c19.11-33.04,29.15-70.54,29.09-108.71C818.14,372.3,720.79,275,600.71,275
	s-217.43,97.3-217.43,217.39c-0.06,38.17,9.98,75.67,29.09,108.71l0,0c-19.11,33.04-29.15,70.55-29.09,108.72
	c0,120.08,97.34,217.42,217.43,217.42s217.43-97.34,217.43-217.42c0.04-38.18-10.01-75.68-29.14-108.72H789.05z"/>
<circle id="bigCircle" class="st0" cx="600.71" cy="600.94" r="325.98"/>
<polygon id="hexagon" class="st0" points="600.71,162.15 980.52,381.43 980.52,820.01 600.71,1039.29 220.89,820.01 220.89,381.43 
	"/>
<polygon id="triangleBig" class="st0" points="600.71,1038.59 221.49,381.77 979.92,381.77 "/>
<polygon id="triangleSmall" class="st0" points="600.71,383.33 789.17,709.75 412.25,709.75 "/>
<rect id="square" x="176.45" y="176.44" transform="matrix(0.7071 -0.7071 0.7071 0.7071 -248.8188 600.7086)" class="st0" width="848.53" height="848.53"/>
<g id="logoShape">
	<path d="M491.94,604.1c-0.01-0.04-0.01-0.08,0-0.12c-0.18-0.58,0.07-1.19-0.14-1.76v-2.35c0.16-0.23,0.05-0.48,0.08-0.72
		c-0.03-0.33-0.01-0.67,0.06-1c0.08-0.36-0.05-0.75,0.15-1.09c0.06,0.51,0.06,1.04,0,1.55c0,1.58-0.06,3.16,0,4.74
		c0,0.26,0,0.52,0,0.78C492,604.17,492,604.17,491.94,604.1z"/>
	<path d="M599.45,710.07h3c0,0,0.06,0.06,0,0.09s0,0.05-0.05,0.05h-3c-0.05,0-0.06-0.06-0.05-0.09S599.43,710.07,599.45,710.07z"/>
	<path d="M491.78,602.22c0.12,0.11,0.17,0.27,0.15,0.43c0,0.44,0,0.88,0,1.33h-0.14L491.78,602.22z"/>
	<path d="M602.43,710.21c0-0.05,0-0.09,0-0.14c0.47-0.06,0.94-0.06,1.41,0c0,0,0.06,0.07,0,0.1s0,0.05,0,0.05L602.43,710.21z"/>
	<path d="M599.45,710.07v0.14H598c0,0-0.07-0.06,0-0.09s0,0,0,0C598.48,710.04,598.97,710.02,599.45,710.07z"/>
	<path d="M603.84,710.21c0-0.05,0-0.1,0-0.15c0.42-0.07,0.84-0.07,1.26,0c0,0.06,0,0.12,0,0.18L603.84,710.21z"/>
	<path d="M598,710.07v0.14h-1.25c0-0.06,0-0.11,0-0.17C597.17,709.98,597.59,709.99,598,710.07z"/>
	<path d="M491.92,598.13c0,0.37,0,0.73,0,1.09c0,0.09-0.08,0.1-0.13,0v-1.09H491.92z"/>
	<path d="M709.5,607.72c0-0.28-0.1-0.56,0.13-0.8v0.79C709.59,607.77,709.55,607.78,709.5,607.72z"/>
	<path d="M709.63,595.32c-0.23-0.23-0.16-0.52-0.13-0.8c0,0,0.1,0,0.13,0V595.32z"/>
	<path d="M709.5,607.72h0.13v0.62c0,0.07-0.08,0.07-0.13,0V607.72z"/>
	<path d="M491.78,599.24h0.13c0,0.23,0.08,0.47-0.13,0.65V599.24z"/>
	<path d="M709.63,594.54h-0.13v-0.62c0-0.07,0.09-0.06,0.13,0V594.54z"/>
	<path d="M709.63,593.91h-0.13v-0.62h0.13V593.91z"/>
	<path d="M709.5,608.34h0.13v0.47h-0.13V608.34z"/>
	<path d="M709.63,595.32c-0.16-0.26,0-0.54-0.08-0.81v-0.62c0.04-0.2,0.04-0.41,0-0.61c0-0.41,0-0.83-0.06-1.25
		c-0.18-1.66-0.36-3.32-0.56-5c-0.47-3.62-1.13-7.22-2-10.77c-8.66-36.86-35.86-66.57-71.82-78.45c-0.64-0.2-1.25-0.52-1.78-0.93
		c-2.02-1.47-3.46-3.59-4.1-6c-0.36-1.34-0.61-2.7-0.75-4.08c-0.29-2.97,0-5.97,0.84-8.83c0.45-1.42,0.99-2.8,1.64-4.14
		c0.99-2.19,2.17-4.28,3.55-6.25c1.39-1.99,2.97-3.85,4.72-5.53c0.15-0.14,0.3-0.29,0.44-0.44c0.17-0.17,0.17-0.45,0-0.62
		c-0.08-0.08-0.19-0.12-0.3-0.13c-0.18-0.02-0.37-0.02-0.55,0c-3.42-0.04-6.83,0.45-10.11,1.45c-5.06,1.45-9.48,4.57-12.55,8.85
		c-0.06,0.09-0.12,0.17-0.19,0.25c-0.32,0.39-0.69,0.33-0.88-0.15c-0.11-0.27-0.19-0.54-0.28-0.82
		c-2.69-8.41-6.72-16.33-11.95-23.44c-0.56-0.82-1.17-1.6-1.84-2.33h-0.32c-0.18,0.22-0.36,0.43-0.53,0.66
		c-0.81,1.1-1.62,2.18-2.41,3.29c-1.6,2.25-3.07,4.59-4.41,7c-1.86,3.35-3.49,6.83-4.87,10.41c-0.63,1.63-1.19,3.29-1.73,5
		c-0.08,0.25-0.16,0.51-0.46,0.58s-0.46-0.18-0.61-0.39l-0.14-0.19c-0.95-1.31-2.04-2.52-3.24-3.61c-2.13-1.92-4.61-3.42-7.3-4.42
		c-3.9-1.46-8.03-2.18-12.19-2.12h-0.47c-0.16,0-0.3,0.1-0.36,0.25c-0.08,0.17-0.05,0.37,0.08,0.51c0.13,0.14,0.27,0.25,0.4,0.38
		c3.33,3.21,6.05,7.01,8,11.2c0.85,1.7,1.54,3.48,2.07,5.31c0.64,2.4,0.89,4.89,0.75,7.37c-0.11,1.46-0.33,2.9-0.65,4.33
		c-0.56,2.86-2.23,5.37-4.64,7c-0.41,0.28-0.86,0.5-1.33,0.65c-5.68,1.86-11.19,4.2-16.47,7c-22.63,11.89-40.35,31.36-50.08,55
		c-2.39,5.79-4.26,11.77-5.6,17.89c-0.56,2.53-1,5.06-1.4,7.62c-0.3,2-0.55,4-0.73,6.06s-0.24,3.75-0.36,5.63
		c-0.24,2.31-0.09,4.64-0.13,7v1.24c0.05,3.15,0.28,6.3,0.71,9.43c1.72,13.96,6.13,27.45,13,39.72c4.31,7.71,9.54,14.87,15.57,21.32
		c3.5,3.77,7.28,7.27,11.3,10.48c7.08,5.67,14.82,10.45,23.07,14.23c7.67,3.52,15.72,6.13,24,7.77c3.79,0.71,7.62,1.23,11.46,1.55
		c2,0.18,4,0.16,5.93,0.31H605c0.29-0.01,0.57-0.04,0.86-0.08c3.21-0.02,6.41-0.27,9.58-0.74c6.27-0.82,12.45-2.21,18.47-4.13
		c6.1-1.94,12.01-4.42,17.68-7.4c4.35-2.27,8.54-4.84,12.54-7.69c5.83-4.15,11.23-8.87,16.13-14.09c2.84-3.02,5.51-6.19,8-9.51
		c9.57-12.81,16.21-27.56,19.44-43.22c1.09-4.76,1.7-9.61,1.82-14.49v-1.09c0-0.26-0.09-0.54,0.08-0.8L709.63,595.32z
		 M703.63,606.09c-0.07,1.77-0.22,3.54-0.4,5.31c-0.2,2.05-0.47,4.09-0.79,6.13c-0.5,3.15-1.15,6.26-1.94,9.34
		c-9.57,37.06-38.91,65.76-76.18,74.51c-2.9,0.68-5.82,1.22-8.77,1.64s-5.64,0.71-8.48,0.87c-3.42,0.23-6.84,0.26-10.26,0.09
		c-1.28-0.08-2.56-0.12-3.83-0.21c-1.8-0.13-3.59-0.32-5.38-0.55c-2-0.27-4.08-0.6-6.1-1c-4.06-0.77-8.07-1.79-12-3.06
		c-34.08-10.93-60.04-38.79-68.54-73.56c-0.75-3.1-1.35-6.22-1.82-9.37s-0.78-6.26-0.95-9.35c-0.11-1.93-0.14-3.86-0.15-5.79
		c0-2.38,0.08-4.75,0.23-7.12c0.22-3,0.55-5.93,1-8.87c5.2-32.85,25.96-61.16,55.72-76c6.3-3.15,12.91-5.63,19.73-7.41
		c0.1-0.04,0.2-0.07,0.3-0.09c0.31-0.05,0.57-0.26,0.69-0.56c0.54-0.97,1.01-1.97,1.42-3c1.1-2.74,1.77-5.64,2-8.58
		c0.56-6.96-1.36-13.9-5.41-19.59c-0.45-0.64-1-1.25-1.42-1.87c-0.11-0.15-0.23-0.28-0.34-0.44c-0.09-0.13-0.09-0.31,0-0.44
		c0.09-0.16,0.27-0.26,0.46-0.24c0.16,0.02,0.31,0.06,0.46,0.12c2.72,0.94,5.21,2.46,7.28,4.47c1.55,1.56,2.89,3.32,4,5.22
		c1.07,1.73,2.02,3.54,2.84,5.4c0.07,0.17,0.15,0.33,0.24,0.48c0.11,0.2,0.37,0.28,0.57,0.17c0.09-0.05,0.15-0.12,0.19-0.22
		c0.09-0.22,0.16-0.44,0.21-0.67c0.34-1.29,0.65-2.58,1-3.86c1.22-4.13,2.7-8.17,4.43-12.11c1.71-3.9,3.99-7.53,6.76-10.77
		c0.06-0.08,0.13-0.16,0.21-0.23c0.16-0.17,0.43-0.18,0.61-0.02c0.01,0.01,0.02,0.01,0.02,0.02c0.09,0.09,0.18,0.19,0.26,0.29
		c1.82,2.13,3.43,4.42,4.81,6.85c0.52,0.93,1,1.89,1.44,2.86c1.93,4.21,3.55,8.55,4.84,13c0.4,1.38,0.76,2.77,1.13,4.15l0.09,0.39
		c0.06,0.2,0.16,0.39,0.41,0.41c0.21,0.03,0.42-0.1,0.48-0.31c0.08-0.17,0.15-0.34,0.23-0.5c0.81-1.81,1.73-3.57,2.77-5.26
		c0.72-1.21,1.51-2.38,2.38-3.49c2.27-2.83,5.29-4.96,8.72-6.14c0.2-0.08,0.4-0.14,0.6-0.18c0.18-0.04,0.37,0.05,0.46,0.21
		c0.09,0.14,0.09,0.31,0,0.45c-0.15,0.22-0.31,0.42-0.48,0.62c-2.59,3.18-4.53,6.84-5.7,10.77c-2.05,7.21-1.29,14.93,2.11,21.61
		c0.04,0.07,0.08,0.14,0.11,0.21c0.18,0.54,0.65,0.92,1.21,1c15,3.93,28.92,11.21,40.69,21.3c17.76,15.22,29.82,36.02,34.19,59
		c0.49,2.62,0.9,5.25,1.18,7.89s0.48,5.46,0.56,8.21s0.03,5.23-0.08,7.87H703.63z"/>
	<path d="M491.94,604.1h0.13c0.06,0.41,0.06,0.84,0,1.25C491.93,604.95,491.88,604.52,491.94,604.1z"/>
	<path d="M586.88,599c-0.36-1.22-1.21-2.23-2.34-2.8c-0.3-0.16-0.62-0.29-0.93-0.43c-2.65-1.14-5.36-2.15-8.11-3.06
		c-2.14-0.75-4.34-1.31-6.58-1.69c-1.08-0.16-2.17-0.29-3.26-0.35c-1.52-0.14-2.92,0.8-3.38,2.25c-0.17,0.52-0.26,1.07-0.25,1.62
		v12.91c-0.01,0.39,0.03,0.79,0.12,1.17c0.27,1.65,1.75,2.82,3.42,2.7l1.71-0.15c1.97-0.2,3.92-0.59,5.82-1.17
		c3.52-1.05,6.98-2.29,10.36-3.73c0.31-0.13,0.63-0.27,0.93-0.42c1.2-0.56,2.1-1.6,2.48-2.87C587.27,601.68,587.28,600.3,586.88,599
		z M572.79,604.93c-0.07,0.65-0.14,1.3-0.26,1.93c-0.39,1.98-2.32,3.27-4.3,2.88c-1.69-0.33-2.92-1.81-2.95-3.53V601
		c0-1.72,0-3.44,0-5.16c0.01-2.02,1.65-3.65,3.67-3.65c1.74,0.01,3.24,1.24,3.58,2.95c0.27,1.61,0.43,3.23,0.47,4.86
		C573.04,601.65,572.97,603.29,572.79,604.93z"/>
	<path d="M528.25,599c-0.4-1.38-1.43-2.49-2.77-3c-2.37-1-4.77-2-7.21-2.79c-2.06-0.75-4.16-1.37-6.29-1.87
		c-1.61-0.33-3.24-0.56-4.88-0.66c-1.72-0.17-3.29,1.01-3.59,2.71c-0.07,0.36-0.11,0.72-0.11,1.08c0,2.17,0,4.33,0,6.5l0,0v6.34
		c0,0.24,0,0.48,0,0.71c0.01,1.84,1.51,3.32,3.35,3.31c0.11,0,0.23-0.01,0.34-0.02c0.52,0,1-0.08,1.55-0.13
		c1.97-0.2,3.93-0.58,5.83-1.14c2.62-0.78,5.2-1.68,7.75-2.68c1.12-0.43,2.23-0.89,3.32-1.37c1.28-0.52,2.26-1.59,2.66-2.91
		C528.64,601.76,528.65,600.33,528.25,599z M514.25,603.94c-0.07,0.78-0.14,1.55-0.22,2.33c-0.05,0.68-0.27,1.34-0.62,1.92
		c-1.1,1.7-3.37,2.18-5.06,1.08c-1.02-0.66-1.64-1.78-1.67-2.99c0-1.77-0.05-3.54-0.07-5.27s0-3.54,0.07-5.29
		c0.04-1.82,1.43-3.34,3.24-3.54c1.88-0.24,3.63,1.01,4,2.87c0.12,0.64,0.21,1.28,0.27,1.93c0.23,2.31,0.24,4.64,0.05,6.95
		L514.25,603.94z"/>
	<path d="M611.4,665.68c-0.13-2.47-0.55-4.92-1.25-7.3c-1.06-3.57-2.33-7.08-3.79-10.51c-0.16-0.36-0.31-0.72-0.5-1.06
		c-0.5-0.96-1.33-1.7-2.34-2.1c-1.3-0.5-2.72-0.6-4.07-0.26c-1.62,0.34-2.94,1.52-3.46,3.09c-0.07,0.2-0.16,0.39-0.24,0.58
		c-1.23,2.93-2.31,5.92-3.28,8.94c-0.94,2.82-1.51,5.76-1.69,8.73c-0.15,1.51,0.79,2.92,2.25,3.36c0.62,0.19,1.28,0.29,1.93,0.27
		h6.11c2.06,0,4.12,0,6.18,0c0.44,0,0.88-0.03,1.32-0.11c1.28-0.16,2.34-1.06,2.71-2.3C611.4,666.58,611.44,666.13,611.4,665.68z
		 M607.27,666.01c-0.35,0.1-0.71,0.15-1.08,0.15h-5.09v0.06l-5.24-0.06c-1.65-0.03-3.08-1.16-3.5-2.75
		c-0.48-1.95,0.7-3.91,2.64-4.41c0.64-0.14,1.28-0.24,1.93-0.3c2.05-0.21,4.11-0.26,6.17-0.17c1.23,0.05,2.45,0.16,3.66,0.35
		c2.01,0.22,3.46,2.03,3.24,4.04c-0.16,1.5-1.23,2.74-2.68,3.13L607.27,666.01z"/>
	<path d="M551,653.93c-0.62-1.1-1.54-1.99-2.65-2.59c-0.63-0.38-1.35-0.57-2.08-0.57c-0.68-0.03-1.36,0.08-2,0.33
		c-1.18,0.5-2.36,1-3.54,1.49c-2.6,1.13-5.15,2.39-7.65,3.75c-2.1,1.17-4.06,2.58-5.83,4.21c-0.57,0.52-0.93,1.23-1,2
		c-0.11,1.03,0.24,2.05,0.95,2.8c0.31,0.36,0.65,0.69,1,1l7.75,7.76l1,1c0.42,0.4,0.92,0.7,1.46,0.89c1.23,0.49,2.64,0.14,3.49-0.88
		c1.73-1.89,3.22-3.99,4.44-6.24c1.33-2.46,2.56-5,3.65-7.54c0.48-1.12,1-2.25,1.39-3.4C551.89,656.62,551.75,655.13,551,653.93z
		 M542.39,672.3c-1.19,0.67-2.67,0.58-3.77-0.23c-0.2-0.12-0.38-0.28-0.54-0.45c-1.48-1.44-3-2.87-4.42-4.33
		c-1-0.99-1.98-1.99-2.94-3c-1.4-1.47-1.34-3.79,0.12-5.19c0.65-0.62,1.5-0.98,2.4-1.01c0.82-0.04,1.62,0.21,2.27,0.71
		c1.05,0.77,2.05,1.6,3,2.48c1.72,1.56,3.3,3.28,4.71,5.12c0.26,0.31,0.5,0.65,0.71,1c0.28,0.51,0.42,1.08,0.4,1.66
		c0.03,1.37-0.73,2.63-1.96,3.24H542.39z"/>
	<path d="M688.61,640.62c-0.35-0.56-0.86-1-1.46-1.27c-2.4-1.21-4.94-2.11-7.57-2.68c-1.68-0.36-3.36-0.75-5.06-1
		c-2-0.34-4-0.62-6-0.89c-1.1-0.17-2.22,0.08-3.13,0.71c-1.61,1.06-2.64,2.81-2.79,4.74c-0.06,1.17,0.29,2.32,1,3.26
		c2.07,2.72,4.24,5.37,6.53,7.91c1.51,1.7,3.19,3.25,5,4.62c0.58,0.45,1.18,0.87,1.79,1.27c1.44,1.01,3.42,0.71,4.5-0.68
		c0.25-0.31,0.47-0.65,0.66-1c2.08-3.59,4.16-7.18,6.23-10.77c0.24-0.4,0.44-0.83,0.59-1.28
		C689.28,642.59,689.17,641.5,688.61,640.62z M685.01,643.89c-0.54,1-1.09,2-1.65,3c-1.13,2-2.32,4-3.54,6
		c-0.18,0.29-0.38,0.56-0.61,0.81c-1.4,1.45-3.71,1.49-5.16,0.09c-0.76-0.74-1.17-1.77-1.11-2.83c0-0.41,0.09-0.82,0.26-1.19
		c0.66-1.47,1.33-2.94,2.1-4.36c0.75-1.38,1.58-2.72,2.49-4l1-1.4c1.18-1.65,3.47-2.03,5.12-0.84c0.92,0.66,1.49,1.71,1.53,2.84
		c0.03,0.66-0.12,1.31-0.44,1.88H685.01z"/>
	<path d="M592.45,612.83c-0.59-1.38-1.63-2.52-2.94-3.24c-1.27-0.74-2.81-0.83-4.15-0.23c-3,1.24-6.05,2.56-9,4.08
		c-1.54,0.76-3.04,1.62-4.47,2.57c-1.24,0.83-2.41,1.75-3.51,2.76c-0.93,0.78-1.3,2.04-0.93,3.2c0.17,0.63,0.49,1.22,0.94,1.7
		l0.92,1l7.7,7.7c0.37,0.37,0.75,0.73,1.13,1.09c0.5,0.47,1.12,0.79,1.79,0.92c1.18,0.27,2.4-0.15,3.17-1.08
		c1.47-1.63,2.78-3.41,3.9-5.3c1.16-2,2.16-4.06,3.13-6.13c0.78-1.66,1.5-3.33,2.17-5c0.32-0.72,0.49-1.5,0.48-2.29
		C592.81,613.98,592.7,613.38,592.45,612.83z M584.24,630.05c-1.39,1.23-3.48,1.23-4.87,0c-0.33-0.29-0.63-0.62-1-0.93
		c-2-1.86-3.92-3.78-5.75-5.76c-0.29-0.3-0.6-0.58-0.88-0.89c-1.36-1.5-1.24-3.81,0.25-5.17c0.44-0.4,0.96-0.68,1.54-0.83
		c0.29-0.06,0.58-0.09,0.87-0.1c0.81,0,1.59,0.26,2.24,0.74c1.05,0.78,2.05,1.61,3,2.5c1.6,1.46,3.08,3.05,4.42,4.75
		c0.24,0.31,0.48,0.62,0.7,0.94C585.8,626.79,585.57,628.82,584.24,630.05z"/>
	<path d="M539.22,640.37c-0.1-1.52-0.74-2.96-1.79-4.07c-0.91-1.03-2.23-1.62-3.61-1.6h-0.31c-1.22,0.17-2.44,0.31-3.65,0.5
		c-1.64,0.27-3.29,0.56-4.92,0.89s-3,0.6-4.5,1c-1.81,0.5-3.57,1.17-5.26,2c-0.29,0.14-0.57,0.27-0.84,0.42
		c-1.2,0.66-1.86,2.01-1.63,3.37c0.14,0.64,0.37,1.25,0.7,1.81l6.42,11.11c0.11,0.2,0.24,0.4,0.37,0.59
		c1.04,1.54,3.13,1.94,4.66,0.9c0.04-0.02,0.07-0.05,0.11-0.07c2.02-1.35,3.89-2.9,5.59-4.64c2.67-2.79,5.16-5.75,7.45-8.86
		c0.21-0.27,0.4-0.55,0.57-0.85C539.03,642.12,539.26,641.25,539.22,640.37z M526.13,654.69c-1.6,0.44-3.3-0.25-4.13-1.69
		c-1.6-2.72-3.26-5.41-4.74-8.19c-0.16-0.3-0.34-0.59-0.5-0.89c-0.91-1.61-0.48-3.64,1-4.75c1.5-1.11,3.59-0.89,4.83,0.49
		c0.54,0.64,1.05,1.3,1.51,2c1.68,2.39,3.09,4.96,4.22,7.65c0.29,0.55,0.43,1.15,0.43,1.77
		C528.83,652.75,527.74,654.25,526.13,654.69L526.13,654.69z"/>
	<path d="M664.47,616.61c-0.62-0.2-1.24-0.42-1.86-0.59c-2.06-0.58-4.17-0.97-6.3-1.15c-2.37-0.18-4.73-0.35-7.76-0.44h-3.26
		c-1.41-0.03-2.75,0.59-3.64,1.67c-0.92,1.09-1.46,2.43-1.57,3.85c-0.1,1.07,0.19,2.13,0.82,3c0.26,0.36,0.54,0.69,0.86,1
		c2.54,2.56,5.18,5,8,7.31c1.71,1.41,3.55,2.66,5.5,3.71c0.44,0.24,0.88,0.47,1.33,0.68c1.33,0.67,2.94,0.35,3.91-0.78
		c0.42-0.5,0.76-1.06,1-1.67l4.75-11.49c0.19-0.43,0.33-0.88,0.42-1.34C667.01,618.74,666.06,617.11,664.47,616.61z M662.79,621.39
		c-0.64,1.65-1.27,3.31-1.95,4.94s-1.37,3.16-2.05,4.74c-0.8,1.86-2.97,2.72-4.83,1.91c-0.06-0.03-0.12-0.05-0.17-0.08
		c-1.25-0.58-2.03-1.85-2-3.22c0-0.36,0.06-0.73,0.15-1.08c0.77-2.85,1.83-5.6,3.17-8.23c0.37-0.72,0.74-1.44,1.14-2.14
		c0.75-1.3,2.22-2.01,3.71-1.79c1.47,0.24,2.65,1.35,3,2.8C663.13,619.96,663.07,620.71,662.79,621.39z"/>
	<path d="M560.24,616.28c-0.88-1.2-2.3-1.9-3.79-1.86h-3.6l-2.51,0.11c-2.24,0.13-4.49,0.25-6.71,0.54
		c-2.12,0.29-4.21,0.79-6.23,1.49c-1.65,0.51-2.63,2.21-2.24,3.89c0.1,0.46,0.24,0.91,0.43,1.34c1.61,3.87,3.22,7.75,4.82,11.63
		c0.14,0.35,0.32,0.69,0.54,1c0.92,1.46,2.8,1.98,4.33,1.19c2.19-1.05,4.26-2.34,6.16-3.86c3.08-2.49,6.01-5.17,8.78-8
		c0.44-0.44,0.8-0.96,1.07-1.53c0.2-0.4,0.32-0.83,0.38-1.27C561.82,619.27,561.3,617.59,560.24,616.28z M548.44,632.65
		c-1.67,1.13-3.95,0.69-5.08-0.98c-0.14-0.21-0.26-0.43-0.36-0.67c-0.53-1.16-1-2.34-1.52-3.52c-0.83-2-1.64-4-2.47-6.09
		c-0.7-1.75,0.04-3.75,1.71-4.62c1.67-0.89,3.74-0.33,4.75,1.27c0.53,0.83,1,1.71,1.44,2.6c1.28,2.55,2.29,5.23,3,8
		C550.32,630.15,549.73,631.76,548.44,632.65z"/>
	<path d="M611.4,695c-0.11-2.25-0.47-4.47-1.06-6.64c-0.55-2.06-1.25-4.09-2-6.09s-1.44-3.7-2.19-5.53
		c-0.48-1.33-1.53-2.36-2.86-2.83c-1.29-0.45-2.69-0.49-4-0.12c-1.53,0.39-2.77,1.51-3.29,3c-0.09,0.24-0.19,0.48-0.29,0.72
		c-1.29,3.08-2.42,6.22-3.42,9.41c-0.84,2.66-1.35,5.42-1.52,8.21c-0.11,1.52,0.84,2.91,2.29,3.36c0.55,0.16,1.13,0.23,1.7,0.21
		h12.77c0.31,0,0.63-0.02,0.94-0.06c1.34-0.15,2.45-1.09,2.82-2.39C611.4,695.84,611.44,695.42,611.4,695z M609.94,692.08
		c-0.15,1.82-1.62,3.25-3.44,3.34c-1,0.05-2,0.06-3,0.08h-2.4l0,0c-1.75,0-3.5,0-5.25-0.1c-1.48,0.01-2.81-0.91-3.33-2.3
		c-0.78-1.84,0.07-3.97,1.91-4.75c0.29-0.12,0.59-0.21,0.9-0.25c1.49-0.24,3.01-0.37,4.52-0.38c2.11-0.07,4.23,0.03,6.33,0.3
		c0.31,0,0.62,0,0.93,0.11c1.8,0.41,3.01,2.09,2.83,3.93V692.08z"/>
	<path d="M675.35,538.44c-0.19-0.57-0.51-1.09-0.94-1.52c-0.59-0.6-1.17-1.2-1.76-1.79c-2.45-2.46-4.9-4.92-7.37-7.37
		c-0.29-0.3-0.61-0.57-0.95-0.81c-0.81-0.64-1.88-0.86-2.88-0.59c-0.63,0.16-1.2,0.51-1.63,1c-0.31,0.36-0.61,0.72-0.91,1.09
		c-1.24,1.51-2.35,3.13-3.31,4.84c-1,1.8-1.91,3.65-2.76,5.53s-1.62,3.61-2.38,5.44c-0.48,1.06-0.5,2.28-0.07,3.36
		c0.62,1.63,1.86,2.95,3.46,3.65c0.57,0.27,1.19,0.4,1.81,0.38c0.87-0.02,1.72-0.22,2.51-0.59c2.43-1,4.85-2.05,7.2-3.24
		c1.4-0.7,2.8-1.4,4.13-2.22c1.78-1.06,3.46-2.3,5-3.69C675.48,541.05,675.82,539.66,675.35,538.44z M671.76,542.17
		c-0.53,1.33-1.81,2.2-3.24,2.21c-0.87,0.03-1.72-0.26-2.39-0.81c-2.59-1.96-4.94-4.22-7-6.73c-0.33-0.41-0.66-0.81-1-1.22
		c-0.58-0.75-0.85-1.7-0.76-2.65c0.09-1.36,0.97-2.53,2.24-3c1.3-0.61,2.84-0.34,3.85,0.67c2.23,2.09,4.41,4.22,6.51,6.44
		c0.38,0.4,0.77,0.78,1.13,1.19C672.11,539.31,672.37,540.86,671.76,542.17L671.76,542.17z"/>
	<path d="M530.28,618.32c-0.61-1.02-1.59-1.77-2.74-2.07c-0.35-0.09-0.72-0.16-1.08-0.2c-1.58-0.19-3.15-0.41-4.74-0.55
		c-2-0.19-4.06-0.31-6.09-0.42c-2.66-0.12-5.32,0.1-7.93,0.63c-1.62,0.24-2.81,1.64-2.78,3.28c0.01,0.58,0.09,1.15,0.26,1.7
		l3.24,12.08c0.08,0.3,0.18,0.6,0.3,0.89c0.42,1.15,1.43,1.99,2.64,2.19c0.57,0.07,1.15,0.01,1.69-0.2
		c2.69-0.91,5.27-2.15,7.66-3.69c2.81-1.8,5.55-3.7,8.18-5.76c0.39-0.31,0.76-0.64,1.11-1c0.69-0.68,1.14-1.58,1.26-2.55
		C531.43,621.14,531.09,619.61,530.28,618.32z M515.28,633.5c-1.72,0.23-3.36-0.78-3.93-2.42c-0.44-1.37-0.82-2.75-1.19-4.13
		c-0.55-2-1.07-4.09-1.59-6.14c-0.53-1.95,0.61-3.96,2.56-4.5c0.39-0.11,0.79-0.15,1.2-0.12c1.43,0.06,2.68,0.96,3.18,2.3
		c0.88,2.09,1.58,4.25,2.11,6.46c0.32,1.35,0.55,2.71,0.76,4.07c0,0.29,0.05,0.58,0.07,0.86c0,1.82-1.35,3.37-3.15,3.62H515.28z"/>
	<path d="M653.81,639.84c-1.8-1.64-3.78-3.06-5.91-4.24c-3.56-1.93-7.23-3.65-11-5.15c-0.65-0.27-1.35-0.4-2.06-0.4
		c-0.55,0-1.09,0.12-1.6,0.33c-1.29,0.54-2.37,1.47-3.1,2.66c-0.89,1.36-1.02,3.09-0.35,4.57c1.42,3.51,3.01,6.94,4.77,10.29
		c1.21,2.26,2.68,4.37,4.37,6.29c0.23,0.29,0.5,0.54,0.8,0.74c1.23,0.83,2.87,0.74,4-0.24c0.33-0.26,0.64-0.54,0.93-0.84
		c2.83-2.83,5.65-5.66,8.48-8.48c0.29-0.3,0.57-0.61,0.84-0.93c0.33-0.41,0.57-0.88,0.7-1.39
		C655.06,641.9,654.72,640.64,653.81,639.84z M650.41,643.5c-1.89,2-3.78,4-5.77,5.86c-0.55,0.52-1.1,1-1.64,1.57
		c-0.5,0.5-1.14,0.85-1.83,1c-1.41,0.34-2.89-0.21-3.73-1.4c-0.86-1.17-0.94-2.75-0.2-4c0.11-0.18,0.23-0.35,0.36-0.51
		c2.24-2.96,4.88-5.59,7.85-7.82c0.62-0.48,1.38-0.76,2.17-0.8c2.03-0.05,3.72,1.56,3.76,3.6c0,0.07,0,0.15,0,0.22
		C651.36,642.08,651.02,642.89,650.41,643.5z"/>
	<path d="M666.44,581.34c-0.17-0.46-0.36-0.92-0.55-1.38c-1.47-3.56-2.95-7.12-4.42-10.69c-0.22-0.59-0.53-1.13-0.91-1.63
		c-0.95-1.21-2.62-1.58-4-0.89c-2.29,1.09-4.43,2.45-6.39,4.06c-1.11,0.92-2.21,1.85-3.28,2.79c-1.89,1.65-3.68,3.4-5.43,5.19
		c-0.99,0.96-1.49,2.32-1.36,3.7c0.08,1.02,0.38,2.01,0.89,2.89c0.85,1.68,2.61,2.7,4.49,2.61c1.36,0,2.71,0,4.07,0
		c1.91-0.06,3.81-0.17,5.7-0.32c1.68-0.11,3.35-0.33,5-0.66c1.48-0.3,2.94-0.7,4.36-1.22c1.07-0.36,1.85-1.26,2.05-2.37
		C666.79,582.72,666.71,582,666.44,581.34z M662.83,583.6c-0.68,1.9-2.78,2.89-4.68,2.21c-0.81-0.29-1.49-0.85-1.92-1.59
		c-0.34-0.55-0.64-1.14-1-1.71c-1.47-2.79-2.61-5.75-3.4-8.81c-0.53-1.93,0.61-3.93,2.54-4.46c0.34-0.09,0.68-0.14,1.03-0.13
		c1.42-0.01,2.71,0.84,3.28,2.14c0.67,1.45,1.3,2.91,1.91,4.38c0.74,1.78,1.43,3.58,2.14,5.37
		C663.1,581.82,663.14,582.75,662.83,583.6L662.83,583.6z"/>
	<path d="M675.49,662.35c-0.16-0.83-0.62-1.58-1.28-2.1c-1.86-1.64-3.91-3.05-6.09-4.23c-3.36-1.78-6.82-3.39-10.35-4.81
		c-0.63-0.28-1.31-0.43-2-0.44c-0.6-0.04-1.2,0.06-1.75,0.29c-1.57,0.64-2.82,1.86-3.52,3.4c-0.55,1.2-0.55,2.59,0,3.79
		c1.13,2.76,2.34,5.47,3.67,8.13c1.2,2.55,2.68,4.96,4.41,7.19c0.44,0.55,0.88,1.1,1.36,1.61c0.64,0.72,1.58,1.09,2.54,1
		c0.71-0.06,1.38-0.33,1.94-0.77c0.35-0.27,0.69-0.56,1-0.87c2.79-2.78,5.58-5.57,8.37-8.37c0.34-0.31,0.65-0.65,0.94-1
		C675.39,664.39,675.67,663.36,675.49,662.35z M671.14,664.16c-0.8,0.86-1.6,1.71-2.43,2.55c-1.7,1.72-3.41,3.45-5.2,5.08
		c-1.49,1.35-3.79,1.24-5.14-0.25c-0.17-0.19-0.33-0.4-0.46-0.63c-0.33-0.54-0.5-1.17-0.49-1.81c-0.01-0.83,0.26-1.65,0.78-2.3
		c2.3-2.98,4.97-5.65,7.95-7.95c1.58-1.26,3.89-0.99,5.14,0.59c1.11,1.4,1.05,3.39-0.14,4.72H671.14z"/>
	<path d="M567.75,533.58c-0.15-1.19-0.28-2.38-0.47-3.57c-0.34-2.19-0.74-4.36-1.21-6.53c-0.38-1.89-0.9-3.75-1.57-5.56
		c-0.43-1.12-0.91-2.22-1.44-3.29c-0.62-1.26-1.97-1.99-3.36-1.8c-0.62,0.1-1.21,0.31-1.75,0.63c-3.81,2.22-7.63,4.43-11.44,6.62
		c-0.55,0.31-1.01,0.74-1.35,1.27c-0.75,1.06-0.75,2.48,0,3.54c1.42,2.21,3.09,4.25,5,6.06c2,1.86,4.05,3.61,6.17,5.31
		c0.87,0.7,1.76,1.38,2.66,2.06c0.9,0.72,2.05,1.08,3.2,1c1.34-0.12,2.6-0.64,3.63-1.5c1.21-0.91,1.92-2.34,1.91-3.86
		C567.75,533.84,567.76,533.71,567.75,533.58z M562.87,522.68c-0.15,0.14-0.3,0.28-0.47,0.41c-2.94,2.27-6.16,4.13-9.59,5.54
		c-1.21,0.57-2.64,0.42-3.7-0.4c-1.63-1.17-2.01-3.44-0.84-5.08c0.26-0.36,0.59-0.68,0.96-0.92c0.21-0.15,0.44-0.27,0.66-0.41
		c2.8-1.72,5.67-3.32,8.54-4.92c0.66-0.36,1.4-0.53,2.15-0.49c1.38,0.07,2.59,0.95,3.08,2.25
		C564.27,520.03,563.96,521.64,562.87,522.68z"/>
	<path d="M610.91,635.52c-0.18-2.24-0.58-4.46-1.22-6.61c-0.92-3.1-2-6.14-3.24-9.14c-0.28-0.7-0.57-1.4-0.91-2.08
		c-0.47-1.03-1.32-1.85-2.37-2.28c-1.37-0.56-2.88-0.65-4.3-0.26c-1.5,0.38-2.72,1.46-3.26,2.91c-1.49,3.53-2.8,7.14-3.93,10.8
		c-0.75,2.5-1.2,5.08-1.34,7.69c-0.09,1.52,0.89,2.89,2.36,3.3c0.53,0.15,1.07,0.21,1.62,0.2h12.62c0.33,0,0.67-0.02,1-0.06
		c1.56-0.14,2.82-1.35,3-2.91C610.99,636.56,610.97,636.04,610.91,635.52z M607,636.6c-0.45,0.14-0.92,0.22-1.39,0.22l-5.06,0.06
		l-5-0.07c-0.9,0.02-1.77-0.3-2.45-0.89c-1.54-1.31-1.72-3.62-0.4-5.16c0.59-0.69,1.41-1.13,2.3-1.25c1.37-0.2,2.75-0.33,4.13-0.37
		c1.38,0,2.77,0,4.15,0.05c1,0.07,2.08,0.18,3.11,0.33c2,0.28,3.39,2.12,3.11,4.12c-0.19,1.38-1.15,2.52-2.47,2.96H607z"/>
	<path d="M633.92,509.57c-0.59-0.45-1.28-0.76-2-0.92l-12.46-3.35c-0.33-0.09-0.66-0.14-1-0.15c-1.29-0.1-2.51,0.56-3.13,1.69
		c-0.17,0.37-0.28,0.76-0.33,1.16c-0.34,1.65-0.55,3.32-0.62,5c-0.05,1-0.05,1.93,0,2.9c0.08,1.3,0.13,2.61,0.23,3.91
		c0.17,2.4,0.45,4.78,0.76,7.16c0.14,1.56,1.04,2.96,2.41,3.73c1.09,0.63,2.34,0.95,3.6,0.92c1.27-0.01,2.48-0.55,3.34-1.48
		c0.27-0.28,0.52-0.58,0.76-0.89c1.42-1.85,2.8-3.71,4.1-5.64c1.38-1.97,2.62-4.03,3.71-6.17c0.66-1.36,1.23-2.77,1.71-4.2
		C635.5,511.91,635.06,510.41,633.92,509.57z M630.03,518.57c-0.12,0.04-0.25,0.07-0.38,0.09c-0.2,0-0.41,0-0.61,0
		c-0.94-0.08-1.88-0.21-2.8-0.4c-2.87-0.54-5.68-1.37-8.38-2.49c-1.9-0.68-2.89-2.78-2.21-4.68c0.42-1.16,1.38-2.03,2.58-2.32
		c0.61-0.15,1.25-0.15,1.86,0c3.34,0.81,6.66,1.72,10,2.67c1.63,0.42,2.76,1.91,2.73,3.59c0.02,1.7-1.16,3.19-2.82,3.56
		L630.03,518.57z"/>
	<path d="M529.9,577.12c-0.38-0.35-0.78-0.69-1.19-1c-2.7-2.1-5.52-4-8.41-5.87c-2.31-1.47-4.8-2.64-7.4-3.5
		c-1.35-0.48-2.86-0.01-3.69,1.16c-0.38,0.53-0.65,1.13-0.79,1.77c-0.46,1.69-0.93,3.37-1.37,5.06c-0.68,2.55-1.34,5.1-2,7.64
		c-0.13,0.51-0.16,1.04-0.08,1.56c0.14,1.2,0.96,2.21,2.1,2.61c0.22,0.08,0.45,0.14,0.68,0.18c0.79,0.14,1.59,0.28,2.39,0.4
		c1.48,0.18,2.97,0.27,4.46,0.27c1.37-0.08,2.68-0.09,4-0.18c2.37-0.16,4.74-0.39,7.09-0.69c0.57-0.07,1.14-0.16,1.7-0.29
		c1.06-0.23,2-0.84,2.63-1.72c0.87-1.19,1.33-2.63,1.31-4.1C531.33,579.17,530.81,577.97,529.9,577.12z M518.07,575.43
		c-0.54,2.89-1.37,5.72-2.5,8.44c-0.42,1.15-1.4,2.02-2.6,2.28c-1.95,0.47-3.92-0.72-4.4-2.68c-0.11-0.43-0.13-0.88-0.07-1.32
		c0.05-0.34,0.14-0.66,0.22-1c0.71-3,1.52-6,2.38-8.91l0.18-0.68c0.53-1.95,2.55-3.1,4.5-2.56c1.25,0.34,2.22,1.32,2.56,2.56
		c0.09,0.38,0.14,0.76,0.13,1.15C518.39,573.62,518.25,574.53,518.07,575.43z"/>
	<path d="M566.59,665.32c-0.92-1.05-2.14-1.78-3.5-2.09c-0.5-0.15-1.03-0.2-1.55-0.15c-0.93,0.13-1.82,0.5-2.57,1.06
		c-2.24,1.72-4.46,3.46-6.56,5.34c-1.73,1.47-3.35,3.06-4.84,4.77c-0.85,1-1.64,2.1-2.39,3.2c-0.88,1.28-0.74,2.99,0.34,4.11
		c0.32,0.35,0.69,0.64,1.1,0.87l11.31,6.57c0.33,0.2,0.69,0.37,1.06,0.49c1.63,0.59,3.43-0.18,4.14-1.75
		c1.04-2.08,1.85-4.26,2.43-6.51c0.9-3.7,1.59-7.45,2.05-11.23c0.06-0.5,0.11-1,0.15-1.39
		C567.79,667.41,567.37,666.23,566.59,665.32z M563,684.78c-1.14,1.27-3.01,1.58-4.5,0.75c-1.25-0.7-2.51-1.38-3.75-2.1
		c-1.76-1-3.5-2.08-5.25-3.11c-1.76-0.99-2.38-3.22-1.39-4.97c0.65-1.16,1.89-1.87,3.22-1.86c0.48,0,0.96,0.09,1.41,0.28
		c2.93,1.18,5.71,2.7,8.28,4.54c0.57,0.41,1.15,0.82,1.68,1.28c1.51,1.31,1.68,3.61,0.36,5.12
		C563.04,684.73,563.02,684.76,563,684.78z"/>
	<path d="M587.26,683.47c-0.1-2.37-0.41-4.73-0.7-7.08c-0.06-0.52-0.15-1.03-0.27-1.54c-0.26-1.22-1.01-2.27-2.07-2.92
		c-1-0.62-2.15-0.96-3.32-1c-1.73-0.15-3.41,0.67-4.35,2.14c-0.13,0.19-0.28,0.37-0.42,0.56c-1.65,2.12-3.23,4.3-4.69,6.55
		c-1.03,1.5-1.97,3.07-2.81,4.69c-0.73,1.44-1.34,2.94-1.83,4.48c-0.54,1.54,0.14,3.25,1.59,4c0.41,0.22,0.85,0.39,1.31,0.5
		l4.29,1.17l8.24,2.18c0.53,0.14,1.08,0.18,1.63,0.13c1.46-0.11,2.66-1.2,2.9-2.64c0.15-0.76,0.28-1.54,0.4-2.31
		c0.21-1.59,0.32-3.2,0.32-4.81C587.41,686.18,587.32,684.83,587.26,683.47z M582,693.65c-2-0.43-4.06-1-6.07-1.52
		c-1.43-0.4-2.86-0.79-4.28-1.23c-1.41-0.36-2.45-1.55-2.61-3c-0.26-1.78,0.81-3.48,2.53-4c0.35-0.12,0.72-0.18,1.09-0.17
		c0.36,0.01,0.72,0.05,1.07,0.14c3.47,0.46,6.86,1.37,10.09,2.71c1.16,0.39,2.05,1.33,2.38,2.51c0.55,1.93-0.58,3.95-2.52,4.49
		C583.14,693.74,582.56,693.76,582,693.65z"/>
	<path d="M633,619c-1.74-1.58-3.66-2.96-5.71-4.1c-3.18-1.74-6.45-3.3-9.81-4.68c-0.58-0.23-1.16-0.47-1.75-0.67
		c-1.15-0.41-2.42-0.33-3.5,0.24c-1.45,0.7-2.58,1.91-3.2,3.4c-0.23,0.5-0.33,1.04-0.31,1.58c-0.01,0.74,0.13,1.47,0.42,2.15
		c1.11,2.76,2.32,5.47,3.67,8.13c0.71,1.48,1.5,2.92,2.36,4.32c0.96,1.46,2.01,2.86,3.16,4.18c1.04,1.27,2.86,1.56,4.25,0.69
		c0.5-0.29,0.95-0.65,1.35-1.07c2.81-2.8,5.62-5.61,8.42-8.42c0.24-0.24,0.47-0.49,0.7-0.74c0.34-0.37,0.61-0.79,0.8-1.25
		C634.46,621.46,634.11,619.91,633,619z M629.7,622.74c-1,1.09-2,2.17-3.08,3.23c-1.39,1.38-2.8,2.73-4.2,4.09l-0.41,0.38
		c-0.69,0.58-1.56,0.88-2.46,0.84c-2.02-0.06-3.61-1.75-3.54-3.77c0.02-0.64,0.21-1.26,0.54-1.81c0.41-0.64,0.87-1.24,1.37-1.81
		c1.83-2.22,3.89-4.23,6.15-6c0.24-0.2,0.5-0.38,0.75-0.57c1.63-1.2,3.92-0.85,5.12,0.78c0.33,0.45,0.55,0.97,0.65,1.52
		c0.23,1.13-0.12,2.29-0.93,3.11L629.7,622.74z"/>
	<path d="M694.28,615.76c-1.09-0.22-2.21-0.39-3.32-0.51c-1.58-0.18-3.18-0.24-4.77-0.2l-4.53,0.31c-1.77,0.12-3.53,0.33-5.29,0.55
		c-0.59,0.07-1.19,0.13-1.78,0.26c-1.23,0.22-2.32,0.95-3,2c-0.82,1.22-1.22,2.68-1.13,4.15c0.06,1.27,0.65,2.45,1.61,3.28
		c0.16,0.14,0.33,0.26,0.49,0.39c2.88,2.25,5.88,4.36,9,6.31c2.28,1.41,4.72,2.56,7.26,3.42c0.52,0.2,1.07,0.25,1.62,0.17
		c1.19-0.2,2.18-1.01,2.61-2.13c0.14-0.32,0.24-0.66,0.32-1c1.08-4,2.16-8,3.23-12c0.14-0.47,0.24-0.96,0.27-1.46
		C697.07,617.62,695.94,616.07,694.28,615.76z M693.18,620.76c-0.81,3.37-1.7,6.71-2.69,10c-0.12,0.43-0.32,0.83-0.57,1.2
		c-0.92,1.3-2.58,1.85-4.1,1.37c-1.54-0.51-2.57-1.97-2.54-3.59c0.02-0.36,0.07-0.71,0.15-1.06c0.36-2.69,1.01-5.33,1.92-7.89
		c0.29-0.81,0.6-1.61,0.93-2.4c0.64-1.56,2.26-2.47,3.92-2.2c1.73,0.26,3.03,1.71,3.11,3.45c0.02,0.37-0.02,0.75-0.13,1.11
		L693.18,620.76z"/>
	<path d="M538.59,559.6c-0.19-0.32-0.39-0.62-0.62-0.91c-2.18-2.92-4.52-5.72-7-8.39c-1.82-1.95-3.86-3.67-6.08-5.14
		c-1.27-0.9-2.99-0.76-4.11,0.32c-0.36,0.34-0.67,0.73-0.91,1.16c-2.21,3.85-4.43,7.68-6.64,11.53c-0.14,0.25-0.25,0.51-0.34,0.78
		c-0.59,1.56,0.1,3.32,1.6,4.06c2.28,1.15,4.69,2.04,7.17,2.65c3.47,0.83,7,1.42,10.54,1.9c0.54,0.08,1.08,0.12,1.49,0.16
		c1.29,0.04,2.54-0.43,3.48-1.31c0.93-0.89,1.59-2.02,1.91-3.26C539.4,561.95,539.23,560.67,538.59,559.6z M528.59,552.6
		c-0.47,1.24-1.03,2.45-1.65,3.62c-1.05,2.01-2.27,3.93-3.64,5.74c-0.17,0.23-0.34,0.46-0.52,0.68c-1.32,1.54-3.64,1.71-5.18,0.39
		c-0.78-0.68-1.25-1.65-1.27-2.69c-0.02-0.65,0.15-1.3,0.47-1.87c1.58-2.82,3.16-5.64,4.86-8.39c0.13-0.22,0.24-0.46,0.37-0.68
		c1.01-1.75,3.24-2.34,4.99-1.33c1.15,0.66,1.85,1.9,1.82,3.22c-0.01,0.45-0.1,0.9-0.28,1.32L528.59,552.6z"/>
	<path d="M633.53,579c-0.23-0.28-0.48-0.55-0.74-0.81l-7-7l-2-2c-0.47-0.45-1.03-0.79-1.65-1c-1.25-0.41-2.62-0.01-3.46,1
		c-0.13,0.16-0.27,0.32-0.41,0.47c-1.42,1.64-2.66,3.42-3.71,5.32c-1.33,2.45-2.57,4.94-3.68,7.51c-0.5,1.17-1,2.34-1.49,3.52
		c-0.57,1.31-0.51,2.82,0.18,4.08c0.72,1.38,1.9,2.46,3.34,3.05c0.51,0.22,1.05,0.33,1.6,0.35l0.86-0.1
		c0.64-0.12,1.26-0.33,1.85-0.6c3.38-1.37,6.69-2.92,9.9-4.65c2.25-1.22,4.34-2.71,6.24-4.42c0.33-0.29,0.6-0.66,0.79-1.06
		C634.69,581.43,634.45,579.99,633.53,579z M630.46,584.28c-0.64,1.18-1.88,1.89-3.22,1.85c-0.76,0.01-1.51-0.24-2.12-0.7
		c-1.08-0.78-2.11-1.62-3.08-2.53c-1.82-1.65-3.47-3.48-4.95-5.44c-0.32-0.41-0.56-0.88-0.7-1.38c-0.55-1.94,0.59-3.96,2.53-4.5
		c1.23-0.34,2.54-0.03,3.47,0.84c0.61,0.54,1.18,1.11,1.77,1.67c2,1.87,3.84,3.83,5.72,5.79c1.16,1.16,1.4,2.96,0.58,4.38V584.28z"
		/>
	<path d="M656.67,521.46c-0.37-0.61-0.89-1.1-1.52-1.44l-11.44-6.62c-0.3-0.17-0.61-0.31-0.93-0.42c-1.6-0.56-3.37,0.17-4.1,1.7
		c-0.15,0.3-0.29,0.61-0.44,0.92c-0.95,2.03-1.69,4.16-2.2,6.34c-0.56,2.47-1.07,4.95-1.44,7.45c-0.21,1.37-0.41,2.74-0.57,4.11
		c-0.14,1,0.07,2.01,0.61,2.86c1.15,1.79,3.1,2.91,5.22,3c0.6,0,1.2-0.13,1.75-0.38c0.6-0.25,1.16-0.58,1.66-1
		c1.41-1.11,2.83-2.22,4.22-3.37c1.8-1.47,3.52-3.03,5.16-4.68c1.49-1.51,2.83-3.17,4-4.95
		C657.39,523.93,657.4,522.52,656.67,521.46z M654.11,525.69c-0.12,1.45-1.12,2.68-2.52,3.09c-0.85,0.28-1.77,0.24-2.59-0.13
		c-1.3-0.53-2.57-1.13-3.82-1.79c-2.07-1.1-4.05-2.37-5.9-3.81c-0.96-0.69-1.5-1.82-1.46-3c0-2,1.62-3.63,3.63-3.63
		c0.57,0,1.13,0.13,1.64,0.39c1,0.47,1.88,1,2.81,1.54c2.19,1.21,4.34,2.48,6.47,3.8C653.63,522.85,654.33,524.26,654.11,525.69z"/>
	<path d="M635,689.31c-0.82-2.5-1.94-4.9-3.32-7.14c-1.44-2.3-3-4.53-4.58-6.72c-0.68-0.93-1.37-1.85-2.09-2.74
		c-0.73-0.96-1.81-1.59-3-1.76c-1.12-0.15-2.26,0-3.3,0.42c-1.34,0.43-2.41,1.43-2.95,2.73c-0.2,0.49-0.33,1-0.38,1.52
		c-0.18,1.58-0.41,3.15-0.55,4.74c-0.19,2-0.33,4.1-0.43,6.28c0,0.07,0,0.25,0,0.43c-0.09,2.51,0.12,5.02,0.64,7.47
		c0.26,1.62,1.69,2.79,3.33,2.73c0.55-0.02,1.1-0.11,1.63-0.27l11.7-3.12c0.45-0.11,0.9-0.26,1.33-0.45
		C634.69,692.81,635.56,690.99,635,689.31z M630.49,690.78c-0.78,0.28-1.59,0.5-2.39,0.73c-2.58,0.75-5.18,1.42-7.79,2
		c-0.65,0.19-1.34,0.21-2,0.08c-1.66-0.39-2.84-1.87-2.84-3.58c-0.02-1.46,0.85-2.78,2.2-3.33c2.66-1.14,5.44-1.99,8.28-2.52
		c0.9-0.17,1.8-0.31,2.7-0.45c1.8-0.22,3.49,0.89,4,2.63c0.56,1.83-0.41,3.78-2.2,4.44L630.49,690.78z"/>
	<path d="M656.61,677.5c-1.28-1.98-2.77-3.8-4.45-5.45c-2.96-2.83-6.1-5.47-9.39-7.92c-0.27-0.2-0.56-0.38-0.86-0.53
		c-0.69-0.38-1.47-0.56-2.26-0.52c-1.55,0.12-3.01,0.78-4.12,1.86c-1.18,1.08-1.74,2.68-1.47,4.26c0.38,2.74,0.74,5.48,1.3,8.18
		c0.37,1.74,0.71,3.48,1.23,5.18c0.56,1.79,1.26,3.53,2.09,5.21c0.63,1.32,2.06,2.05,3.5,1.8c0.64-0.12,1.26-0.36,1.81-0.7
		l10.84-6.25c0.35-0.19,0.68-0.41,1-0.65c0.76-0.56,1.25-1.42,1.35-2.36C657.22,678.86,657.02,678.13,656.61,677.5z M652.37,680.27
		l-3.15,1.89c-2,1.17-4,2.3-6,3.37c-1.21,0.7-2.72,0.63-3.85-0.2c-0.96-0.62-1.55-1.68-1.57-2.83c-0.06-1.19,0.47-2.34,1.42-3.07
		c1.55-1.23,3.2-2.33,4.92-3.31c1.6-0.93,3.27-1.73,5-2.39c1.89-0.72,4,0.22,4.73,2.11c0.63,1.65,0,3.51-1.51,4.43L652.37,680.27z"
		/>
	<path d="M557.48,598.88c-0.38-1.21-1.25-2.21-2.4-2.75c-0.23-0.12-0.47-0.22-0.71-0.32c-2.09-0.88-4.19-1.72-6.34-2.45
		c-2.75-1.04-5.6-1.83-8.5-2.34c-1.08-0.18-2.17-0.29-3.27-0.35c-1.61-0.13-3.06,0.94-3.41,2.52c-0.11,0.4-0.17,0.82-0.16,1.24
		v13.15c0,0.39,0.04,0.78,0.14,1.16c0.32,1.61,1.8,2.72,3.44,2.57c0.54,0,1.09-0.09,1.63-0.14c1.95-0.19,3.87-0.56,5.75-1.11
		c3.67-1.09,7.28-2.39,10.8-3.9c0.29-0.13,0.58-0.25,0.85-0.4c0.9-0.48,1.61-1.26,2-2.21C557.92,602.07,557.98,600.41,557.48,598.88
		z M543.33,606.1c-0.04,0.34-0.1,0.67-0.18,1c-0.49,1.96-2.48,3.15-4.44,2.66c-1.6-0.4-2.74-1.82-2.77-3.47c0-1.77,0-3.55-0.06-5.28
		s0-3.54,0.07-5.28c0.03-2.02,1.68-3.63,3.7-3.6c1.74,0.02,3.23,1.28,3.54,2.99c0.29,1.7,0.44,3.41,0.46,5.13
		C543.69,602.21,543.58,604.16,543.33,606.1L543.33,606.1z"/>
	<path d="M551.64,546.25c0.01-0.74-0.13-1.48-0.43-2.16c-1-2.34-2-4.67-3.06-6.94c-0.86-1.84-1.83-3.63-2.89-5.36
		c-0.99-1.57-2.11-3.05-3.35-4.43c-0.95-1.11-2.54-1.44-3.85-0.79c-0.43,0.19-0.82,0.46-1.15,0.79c-0.64,0.65-1.31,1.28-1.95,1.93
		l-7.62,7.65c-0.46,0.44-0.81,0.98-1,1.59c-0.42,1.19-0.07,2.53,0.88,3.36c1.93,1.76,4.07,3.27,6.37,4.51
		c2.4,1.33,4.86,2.52,7.38,3.57c1.08,0.47,2.15,0.93,3.25,1.35c1.42,0.6,3.05,0.46,4.35-0.37c1.18-0.7,2.1-1.75,2.66-3
		C551.5,547.42,551.64,546.84,551.64,546.25z M543.52,535.68c-0.88,1.16-1.83,2.28-2.83,3.34c-1.53,1.61-3.18,3.1-4.94,4.45
		c-0.42,0.35-0.91,0.61-1.44,0.77c-1.96,0.51-3.95-0.67-4.46-2.63c-0.31-1.19,0-2.46,0.83-3.37c2.29-2.33,4.53-4.7,6.93-6.91
		c0.15-0.14,0.29-0.3,0.43-0.45c1.4-1.45,3.72-1.5,5.18-0.09c0.44,0.43,0.77,0.96,0.95,1.55c0.1,0.35,0.15,0.71,0.15,1.07
		C544.32,534.24,544.04,535.04,543.52,535.68z"/>
	<path d="M593.09,587.64c0.01-0.73-0.13-1.46-0.42-2.13c-1.26-3.12-2.66-6.18-4.2-9.17c-1.11-2.22-2.45-4.31-4-6.24
		c-0.38-0.47-0.76-0.94-1.17-1.38c-0.63-0.68-1.53-1.05-2.46-1c-0.89,0.02-1.74,0.38-2.38,1c-0.74,0.7-1.46,1.42-2.18,2.14
		l-5.49,5.49c-0.7,0.7-1.41,1.39-2.08,2.12c-1.33,1.3-1.35,3.43-0.05,4.75c0.09,0.09,0.18,0.17,0.27,0.25
		c1.85,1.62,3.86,3.04,6,4.23c2.38,1.3,4.81,2.5,7.31,3.56c1.13,0.47,2.25,1,3.38,1.42c1.49,0.65,3.22,0.49,4.56-0.43
		c1.18-0.75,2.09-1.85,2.61-3.15C592.99,588.64,593.09,588.14,593.09,587.64z M585.79,575c-0.03,0.76-0.31,1.49-0.78,2.09
		c-0.86,1.12-1.76,2.21-2.72,3.24c-1.61,1.71-3.36,3.29-5.23,4.71c-1.55,1.29-3.86,1.08-5.15-0.47c-1.22-1.47-1.11-3.62,0.25-4.96
		c2.3-2.32,4.53-4.69,6.93-6.9c0.15-0.15,0.29-0.3,0.43-0.46c1.43-1.44,3.75-1.45,5.19-0.02C585.44,572.96,585.84,573.97,585.79,575
		z"/>
	<path d="M572.19,634.44c-0.34-1.13-1-2.14-1.89-2.92c-1.44-1.44-3.62-1.86-5.5-1.06c-3.77,1.51-7.44,3.24-11,5.18
		c-2.08,1.16-4.02,2.55-5.78,4.14c-0.41,0.37-0.72,0.84-0.9,1.36c-0.4,1.19-0.12,2.5,0.73,3.42c0.27,0.32,0.56,0.62,0.86,0.91
		c2.67,2.67,5.33,5.33,8,8c0.35,0.35,0.7,0.71,1.07,1c1.33,1.3,3.46,1.27,4.75-0.06c0.07-0.07,0.13-0.14,0.19-0.21
		c1.74-1.98,3.25-4.15,4.5-6.47c0.61-1.16,1.19-2.32,1.76-3.49c1.05-2.18,2.03-4.4,2.94-6.65c0.29-0.67,0.43-1.39,0.41-2.11
		C572.34,635.13,572.3,634.78,572.19,634.44z M565,648.89c-0.31,2-2.18,3.36-4.18,3.05c-0.78-0.12-1.5-0.49-2.05-1.05
		c-0.81-0.78-1.63-1.55-2.42-2.34c-1.64-1.65-3.26-3.31-4.89-5c-0.75-0.77-1.14-1.81-1.08-2.88c0.05-1.3,0.83-2.45,2-3
		c1.19-0.69,2.68-0.59,3.77,0.24c0.87,0.62,1.69,1.31,2.5,2c2.06,1.81,3.93,3.82,5.59,6C564.91,646.75,565.19,647.83,565,648.89z"/>
	<path d="M561,579.73c-0.23-0.36-0.51-0.7-0.82-1c-2.49-2.57-5.13-5-7.86-7.29c-2.17-1.84-4.57-3.4-7.13-4.64
		c-1.24-0.64-2.76-0.41-3.75,0.58c-0.4,0.38-0.72,0.83-0.93,1.34l-5,12.06c-0.1,0.24-0.19,0.48-0.27,0.74
		c-0.37,1.05-0.23,2.21,0.39,3.14c0.41,0.58,1,1.02,1.67,1.24c2.24,0.79,4.56,1.32,6.92,1.6c2.64,0.29,5.3,0.47,8,0.52
		c1.49,0,3,0,4.46,0c1.22,0,2.38-0.51,3.21-1.4c0.97-1.03,1.59-2.35,1.77-3.76C561.83,581.77,561.6,580.66,561,579.73z
		 M549.81,573.73c-0.9,3.54-2.29,6.94-4.13,10.1c-0.16,0.3-0.35,0.58-0.57,0.84c-0.89,1.12-2.37,1.58-3.74,1.17
		c-1.36-0.33-2.4-1.44-2.64-2.82c-0.11-0.69-0.02-1.39,0.27-2.02c0.77-1.91,1.54-3.82,2.33-5.72c0.55-1.33,1.13-2.64,1.68-4
		c0.81-1.86,2.97-2.71,4.83-1.9c0.98,0.43,1.72,1.26,2.04,2.27c0.09,0.37,0.15,0.76,0.18,1.14c-0.06,0.32-0.12,0.66-0.21,0.99
		L549.81,573.73z"/>
	<path d="M634.32,541.61c-0.4-0.41-0.89-0.73-1.43-0.93l-12.21-5c-0.24-0.1-0.49-0.19-0.74-0.25c-1.74-0.53-3.58,0.45-4.1,2.19
		c0,0.01,0,0.01-0.01,0.02c-0.73,2.09-1.24,4.26-1.52,6.46c-0.32,2.85-0.53,5.72-0.59,8.59c0,1.39,0,2.77,0,4.15
		c0,1.06,0.37,2.08,1.06,2.89c1.23,1.39,2.99,2.18,4.84,2.19c0.87,0.01,1.72-0.23,2.45-0.71c0.4-0.25,0.76-0.55,1.09-0.88
		c2.6-2.54,5.06-5.21,7.38-8c1.66-2.01,3.09-4.21,4.25-6.54c0.11-0.21,0.21-0.43,0.29-0.65
		C635.58,543.92,635.28,542.52,634.32,541.61z M628.14,550.09c-2.43-0.62-4.79-1.46-7.07-2.5c-1.19-0.55-2.34-1.16-3.46-1.81
		c-0.48-0.27-0.91-0.64-1.24-1.08c-0.97-1.3-0.97-3.08,0-4.38c0.97-1.3,2.69-1.79,4.2-1.2c2.94,1.14,5.88,2.31,8.75,3.61
		c0.33,0.15,0.67,0.27,1,0.42c1.86,0.79,2.73,2.94,1.93,4.8c-0.69,1.62-2.44,2.52-4.16,2.14L628.14,550.09z"/>
	<path d="M586.76,507.78c-0.29-1.4-1.45-2.44-2.87-2.6c-0.55-0.05-1.1-0.01-1.63,0.13l-12.46,3.35c-0.41,0.09-0.8,0.23-1.18,0.4
		c-1.6,0.67-2.39,2.48-1.8,4.11c0.71,2.24,1.68,4.39,2.89,6.4c1.47,2.44,3.06,4.8,4.76,7.08c0.76,1,1.5,2,2.27,3
		c0.63,0.85,1.53,1.45,2.55,1.71c1.54,0.35,3.16,0.12,4.54-0.65c1.17-0.57,2.04-1.61,2.4-2.86c0.1-0.35,0.17-0.71,0.22-1.07
		c0.18-1.4,0.34-2.8,0.51-4.2c0.3-2.51,0.39-5.05,0.49-7.31C587.48,512.76,587.25,510.25,586.76,507.78z M584.19,515.69
		c-0.68,0.31-1.39,0.57-2.1,0.83c-2.65,0.97-5.39,1.66-8.18,2.05c-0.41,0-0.82,0.13-1.16,0.14c-2.02,0.06-3.71-1.53-3.77-3.55
		c-0.05-1.57,0.91-2.99,2.39-3.54c0.45-0.15,0.9-0.25,1.35-0.39c3-0.88,6-1.64,9-2.4c1.95-0.53,3.96,0.63,4.49,2.58
		c0.47,1.73-0.38,3.53-2.01,4.28H584.19z"/>
	<path d="M588.06,552.38c-0.07-1.93-0.19-3.86-0.34-5.78c-0.14-1.85-0.4-3.69-0.8-5.5c-0.28-1.25-0.64-2.48-1.07-3.68
		c-0.44-1.31-1.68-2.18-3.06-2.15c-0.55,0-1.09,0.11-1.59,0.32l-12.43,5.14c-0.34,0.13-0.66,0.31-0.95,0.54
		c-1.27,0.93-1.69,2.64-1,4.05c1.13,2.36,2.53,4.57,4.17,6.61c1.33,1.64,2.72,3.24,4.18,4.77c1.21,1.26,2.43,2.52,3.66,3.76
		c0.92,0.96,2.21,1.47,3.53,1.4c1.53-0.06,2.99-0.64,4.13-1.65c0.79-0.66,1.33-1.58,1.51-2.59c0.07-0.39,0.1-0.78,0.09-1.17
		C588.06,555.1,588.06,553.74,588.06,552.38z M584.64,545.45c-0.23,0.17-0.48,0.33-0.73,0.46c-3.09,1.78-6.4,3.15-9.85,4.07
		c-0.7,0.22-1.45,0.25-2.16,0.08c-1.7-0.48-2.83-2.08-2.73-3.84c0.08-1.36,0.94-2.56,2.21-3.06c1.9-0.84,3.82-1.64,5.75-2.44
		c1-0.41,2-0.78,3-1.17c0.27-0.11,0.54-0.21,0.79-0.33c1.83-0.85,4-0.07,4.85,1.76c0.2,0.42,0.31,0.88,0.34,1.34
		C586.21,543.55,585.65,544.74,584.64,545.45z"/>
	<path d="M696.69,582.22c-0.67-2.55-1.33-5.1-2-7.64c-0.44-1.66-0.91-3.32-1.36-5c-0.15-0.64-0.42-1.23-0.81-1.76
		c-0.86-1.14-2.37-1.58-3.71-1.08c-0.31,0.13-0.64,0.23-0.95,0.35c-1.92,0.67-3.77,1.54-5.51,2.59c-3.49,2.13-6.86,4.47-10.07,7
		c-1.14,0.87-1.82,2.22-1.82,3.66c-0.01,0.97,0.17,1.93,0.55,2.82c0.66,1.79,2.29,3.03,4.19,3.19l1.63,0.2c2,0.28,4,0.45,6.08,0.6
		c1.32,0.1,2.65,0.15,4,0.2h0.39c1.38,0,2.77-0.09,4.14-0.25c0.93-0.12,1.86-0.25,2.78-0.45c1.47-0.27,2.55-1.51,2.63-3
		C696.88,583.17,696.82,582.68,696.69,582.22z M691.69,585.59c-0.63,0.44-1.37,0.68-2.14,0.67c-1.45,0.01-2.76-0.87-3.31-2.21
		c-0.83-1.96-1.5-3.99-2-6.06c-0.4-1.57-0.66-3.16-0.92-4.76c-0.25-2.01,1.17-3.84,3.17-4.09c1.62-0.21,3.19,0.69,3.83,2.2
		c0.31,0.91,0.56,1.84,0.83,2.77c0.72,2.5,1.33,5,2,7.55c0.38,1.48-0.18,3.03-1.41,3.93L691.69,585.59z"/>
	<path d="M572.34,566.81c-0.01-0.81-0.19-1.62-0.54-2.35c-1.35-3.28-2.83-6.5-4.48-9.64c-1.19-2.26-2.64-4.39-4.31-6.33
		c-0.2-0.25-0.42-0.48-0.65-0.69c-0.88-0.83-2.15-1.08-3.28-0.64c-0.57,0.21-1.08,0.56-1.5,1l-7.72,7.69
		c-0.62,0.62-1.24,1.26-1.86,1.9c-0.61,0.59-0.98,1.37-1.06,2.21c-0.11,1.09,0.33,2.16,1.18,2.85c1.84,1.63,3.85,3.05,6,4.24
		c3.37,1.81,6.85,3.44,10.4,4.87c0.29,0.12,0.59,0.23,0.89,0.32c1.05,0.33,2.19,0.26,3.2-0.2c1.3-0.57,2.39-1.56,3.08-2.8
		C572.15,568.51,572.37,567.67,572.34,566.81z M565,554.34c-0.04,0.71-0.3,1.39-0.73,1.95c-2.29,3.05-5,5.76-8.06,8.05
		c-1.6,1.22-3.88,0.92-5.1-0.68c-0.32-0.41-0.54-0.89-0.66-1.4c-0.05-0.22-0.08-0.45-0.1-0.68c-0.05-0.99,0.31-1.95,1-2.66
		c1.76-1.81,3.55-3.61,5.33-5.41c0.66-0.66,1.35-1.3,2-2c0.59-0.6,1.36-0.98,2.19-1.1c2-0.27,3.84,1.14,4.11,3.15
		C565.02,553.82,565.02,554.08,565,554.34z"/>
	<path d="M588,645.43c-0.04-1.14-0.52-2.21-1.34-3c-0.95-0.94-2.18-1.56-3.5-1.77c-1.11-0.25-2.27-0.08-3.27,0.47
		c-0.43,0.25-0.83,0.55-1.18,0.9c-2.67,2.64-5.23,5.4-7.63,8.3c-1.7,2.05-3.15,4.3-4.29,6.71c-0.64,1.16-0.46,2.6,0.44,3.57
		c0.31,0.36,0.68,0.66,1.09,0.88c0.33,0.17,0.65,0.33,1,0.47l7.65,3.19c1.4,0.58,2.8,1.13,4.2,1.7c0.58,0.24,1.21,0.34,1.84,0.29
		c1.26-0.06,2.36-0.87,2.79-2.06c0.12-0.29,0.22-0.58,0.31-0.88c0.97-3.09,1.54-6.29,1.69-9.53c0.12-1.93,0.24-3.86,0.21-6.35
		C588,647.73,588.07,646.58,588,645.43z M582.19,663.54c-0.4-0.03-0.79-0.12-1.16-0.27c-3.29-1.25-6.53-2.58-9.74-4
		c-1.6-0.7-2.47-2.44-2.07-4.14c0.38-1.72,1.95-2.93,3.71-2.86c0.31,0.02,0.62,0.07,0.92,0.15c3.63,0.95,7.12,2.4,10.35,4.31
		c0.92,0.53,1.57,1.42,1.79,2.45c0.36,2.02-0.98,3.94-3,4.3c-0.25,0.05-0.51,0.06-0.77,0.06H582.19z"/>
	<path d="M639.73,595c0.01-0.47-0.04-0.94-0.16-1.39c-0.25-1.05-1-1.91-2-2.3c-0.51-0.2-1.06-0.28-1.61-0.23
		c-1.43,0.1-2.86,0.29-4.27,0.54c-1.91,0.39-3.8,0.92-5.64,1.57c-2.87,0.95-5.69,2-8.47,3.22c-1.26,0.49-2.24,1.51-2.69,2.79
		c-0.32,0.94-0.42,1.94-0.31,2.93c0.08,1.96,1.33,3.68,3.17,4.37c3.24,1.36,6.53,2.59,9.89,3.65c2.71,0.85,5.51,1.38,8.35,1.58
		c1.54,0.17,2.99-0.79,3.45-2.27c0.17-0.55,0.26-1.12,0.24-1.69V595H639.73z M636.45,606.75c-0.08,2.01-1.78,3.58-3.79,3.5
		c-1.69-0.07-3.11-1.29-3.44-2.95c-0.11-0.62-0.2-1.24-0.26-1.86c-0.23-2.28-0.26-4.58-0.09-6.87c0.09-1,0.17-2,0.34-3
		c0.3-1.53,1.52-2.7,3.06-2.95c2.01-0.28,3.86,1.11,4.15,3.12c0.02,0.11,0.03,0.21,0.03,0.32c0,1.8,0.09,3.6,0.13,5.39
		s-0.09,3.55-0.13,5.32L636.45,606.75z"/>
	<path d="M634.91,657c-1.03-2.17-2.31-4.22-3.81-6.1c-1.87-2.32-3.87-4.52-5.92-6.68c-0.72-0.75-1.46-1.49-2.22-2.21
		c-0.88-0.92-2.1-1.43-3.37-1.4c-1.56,0.01-3.06,0.57-4.24,1.58c-1.02,0.85-1.62,2.1-1.63,3.43c-0.05,2.08,0,4.17,0.07,6.26
		c0.1,1.7,0.24,3.39,0.37,5.08c0.22,2.71,0.79,5.37,1.68,7.94c0.45,1.52,1.94,2.49,3.51,2.27c0.62-0.07,1.23-0.24,1.79-0.51
		l11.35-4.69c0.49-0.19,0.95-0.44,1.37-0.74c0.79-0.54,1.31-1.39,1.41-2.34C635.33,658.24,635.21,657.58,634.91,657z M630.42,659.26
		c-1.51,0.7-3,1.36-4.58,2c-1.75,0.72-3.51,1.44-5.29,2.09c-1.89,0.7-3.99-0.27-4.69-2.16c-0.6-1.61,0.01-3.42,1.46-4.34
		c0.72-0.46,1.49-0.87,2.25-1.26c2.59-1.33,5.32-2.38,8.14-3.13c0.67-0.22,1.39-0.24,2.08-0.08c1.69,0.44,2.85,1.99,2.79,3.73
		c-0.04,1.37-0.89,2.6-2.16,3.12V659.26z"/>
	<path d="M689,559.36c-0.14-0.61-0.38-1.19-0.71-1.72c-2.07-3.6-4.14-7.19-6.23-10.77c-0.14-0.25-0.3-0.49-0.46-0.73
		c-0.19-0.28-0.43-0.53-0.69-0.74c-1.15-1.05-2.89-1.11-4.11-0.15l-0.9,0.62c-1.67,1.18-3.22,2.52-4.63,4
		c-2.73,2.91-5.31,5.97-7.71,9.16c-0.78,0.94-1.14,2.16-1,3.37c0.18,1.53,0.89,2.94,2,4c0.94,0.92,2.21,1.42,3.53,1.37
		c0.43-0.05,1-0.09,1.57-0.17c2.22-0.31,4.44-0.65,6.64-1.08c2.16-0.38,4.29-0.9,6.38-1.56c1.56-0.52,3.08-1.15,4.54-1.89
		C688.64,562.43,689.39,560.86,689,559.36z M684.9,562.18c-1.04,1.72-3.27,2.26-4.99,1.23c-0.36-0.22-0.68-0.5-0.94-0.83
		c-0.88-1.1-1.69-2.26-2.43-3.46c-1.26-2.04-2.36-4.18-3.29-6.39c-0.19-0.43-0.3-0.89-0.3-1.36c-0.05-1.65,1.01-3.13,2.59-3.62
		c1.52-0.48,3.18,0.1,4.06,1.43c0.73,1.12,1.4,2.27,2.08,3.41c1.15,1.93,2.24,3.89,3.3,5.87c0.68,1.16,0.64,2.6-0.09,3.72H684.9z"/>
	<path d="M654.83,560c-0.07-0.79-0.38-1.53-0.9-2.13c-0.25-0.3-0.52-0.58-0.8-0.86l-7.26-7.26l-1.38-1.38
		c-0.33-0.34-0.69-0.64-1.09-0.89c-1.37-0.9-3.19-0.66-4.28,0.56c-0.14,0.16-0.28,0.31-0.41,0.47c-1.55,1.8-2.89,3.77-4,5.87
		c-1.8,3.41-3.43,6.91-4.88,10.49c-0.26,0.64-0.39,1.31-0.4,2c-0.01,0.47,0.07,0.94,0.23,1.39c0.69,1.93,2.26,3.41,4.22,4
		c0.53,0.16,1.08,0.2,1.63,0.12c0.67-0.1,1.32-0.29,1.94-0.56c2-0.84,4-1.72,6-2.67c1.81-0.87,3.61-1.75,5.33-2.79
		c1.74-1.06,3.38-2.27,4.91-3.62C654.5,562.07,654.93,561.05,654.83,560z M649.44,564.64c-1.17,0.67-2.61,0.6-3.71-0.18
		c-0.54-0.37-1.06-0.76-1.56-1.18c-2.27-1.85-4.32-3.94-6.13-6.24c-0.26-0.32-0.51-0.65-0.74-1c-1.08-1.71-0.58-3.97,1.13-5.05
		c0.56-0.36,1.21-0.55,1.87-0.57c0.96-0.04,1.89,0.32,2.57,1c1.71,1.64,3.44,3.27,5.08,5c0.79,0.83,1.6,1.65,2.39,2.48
		c1.41,1.45,1.39,3.76-0.06,5.18c-0.25,0.24-0.53,0.45-0.84,0.61V564.64z"/>
	<path d="M698.35,601v-6.5c0.03-0.73-0.14-1.46-0.47-2.11c-0.57-1.16-1.81-1.85-3.1-1.72c-1,0-2.07,0.2-3.11,0.34
		c-2.45,0.38-4.85,1-7.18,1.84c-2.76,0.93-5.48,2-8.17,3.11c-1.32,0.49-2.33,1.56-2.76,2.9c-0.37,1.12-0.44,2.32-0.2,3.48
		c0.17,1.3,0.9,2.47,2,3.2c0.32,0.2,0.65,0.38,1,0.54c2.4,1,4.82,2,7.29,2.8c2.74,1.01,5.57,1.74,8.46,2.19
		c0.93,0.14,1.86,0.22,2.8,0.24c1.33,0.01,2.53-0.8,3-2.05c0.22-0.59,0.33-1.21,0.31-1.84L698.35,601z M695.09,606.23
		c-0.05,1.82-1.41,3.34-3.21,3.58c-1.89,0.22-3.63-1.05-4-2.91c-0.13-0.77-0.23-1.55-0.28-2.33c-0.17-1.74-0.22-3.49-0.12-5.23
		c0.1-1.35,0.19-2.71,0.37-4.05c0.13-1.45,1.18-2.66,2.6-3c1.9-0.58,3.91,0.5,4.49,2.4c0.08,0.27,0.13,0.54,0.15,0.82
		c0.08,1.85,0.14,3.7,0.15,5.56s-0.15,3.45-0.15,5.17L695.09,606.23z"/>
	<path d="M669.06,601L669.06,601v-6.65c0.01-0.21,0.01-0.42,0-0.63c-0.18-1.83-1.8-3.17-3.63-3c-1.64,0.1-3.27,0.32-4.88,0.65
		c-1.42,0.32-2.83,0.71-4.21,1.18c-3.21,1-6.34,2.24-9.43,3.55c-1.28,0.52-2.26,1.59-2.65,2.92c-0.32,1.03-0.39,2.11-0.21,3.17
		c0.15,1.4,0.93,2.65,2.11,3.41c0.36,0.22,0.73,0.41,1.11,0.57c2.5,1,5,2,7.59,2.9c2.65,0.96,5.38,1.65,8.17,2.06
		c0.88,0.1,1.77,0.22,2.65,0.24c1.32,0.07,2.55-0.7,3.06-1.92c0.25-0.55,0.37-1.15,0.35-1.75L669.06,601z M665.79,606.41
		c-0.03,1.37-0.87,2.59-2.14,3.12c-1.84,0.83-4,0.02-4.83-1.82c-0.14-0.3-0.23-0.61-0.28-0.94c-0.26-1.89-0.4-3.79-0.4-5.69
		c0-1.96,0.13-3.91,0.4-5.85c0.32-2,2.2-3.35,4.2-3.03c1.39,0.22,2.52,1.22,2.92,2.57c0.1,0.35,0.14,0.72,0.14,1.08
		c0.05,1.72,0.09,3.44,0.13,5.16S665.89,604.6,665.79,606.41L665.79,606.41z"/>
	<path d="M611.38,565.33c-0.1-1.06-0.73-2-1.68-2.48c-0.62-0.32-1.3-0.49-2-0.47h-13.11c-0.23,0-0.47,0-0.7,0
		c-1.84,0.11-3.24,1.7-3.13,3.54c0,0.03,0,0.05,0.01,0.08c0.13,2.19,0.46,4.36,1,6.48c0.46,1.71,1,3.39,1.61,5.07
		c0.8,2.34,1.72,4.64,2.69,6.92c0.51,1.31,1.6,2.31,2.95,2.71c0.77,0.23,1.58,0.33,2.39,0.3c2.1,0.03,4-1.25,4.75-3.22
		c1.3-3.11,2.49-6.25,3.52-9.45c0.79-2.4,1.32-4.88,1.6-7.4C611.4,566.72,611.43,566.02,611.38,565.33z M610,569.41
		c-0.06,1.72-1.3,3.18-3,3.49c-2.5,0.38-5.03,0.52-7.56,0.39c-1.36-0.06-2.71-0.18-4.05-0.38c-1.99-0.3-3.37-2.15-3.07-4.15
		c0.26-1.77,1.78-3.09,3.57-3.11c1.77,0,3.54-0.15,5.12-0.08s3.17,0,4.66,0.08c0.23,0,0.46,0,0.7,0c2.04,0.03,3.66,1.71,3.63,3.75
		C610,569.4,610,569.41,610,569.41z"/>
	<path d="M611.29,535.47c-0.43-1.48-1.82-2.48-3.37-2.42c-1.64,0-3.29,0-4.93,0h-8.69c-0.23,0-0.47,0.02-0.7,0.06
		c-1.69,0.22-2.92,1.7-2.83,3.4c0.11,2.4,0.5,4.78,1.16,7.09c1.15,3.93,2.54,7.78,4.16,11.54c0.53,1.36,1.68,2.38,3.09,2.76
		c0.85,0.26,1.75,0.34,2.64,0.24c1.11-0.09,2.16-0.53,3-1.26c0.58-0.56,1.04-1.25,1.34-2c1.46-3.4,2.74-6.88,3.84-10.41
		c0.75-2.43,1.22-4.94,1.4-7.47C611.46,536.49,611.42,535.97,611.29,535.47z M606.79,543.58c-2.2,0.32-4.41,0.44-6.63,0.38
		c-1.54-0.03-3.08-0.15-4.6-0.36c-2.02-0.21-3.48-2.02-3.27-4.03c0.16-1.52,1.24-2.78,2.72-3.17c0.28-0.06,0.56-0.1,0.85-0.12h5.24
		c1.75,0,3.5,0,5.24,0c2.02,0.01,3.65,1.66,3.64,3.68c-0.01,1.83-1.37,3.38-3.19,3.61V543.58z"/>
	<path d="M611.39,506.77c-0.08-1.06-0.7-2.01-1.64-2.51c-0.65-0.34-1.37-0.51-2.1-0.49h-12.92c-0.29-0.02-0.57-0.02-0.86,0
		c-1.8,0.09-3.19,1.62-3.11,3.43c0,0.07,0.01,0.14,0.02,0.2c0.08,0.68,0.12,1.36,0.19,2c0.17,1.61,0.48,3.2,0.93,4.75
		c1.15,3.98,2.56,7.88,4.2,11.69c0.48,1.23,1.49,2.19,2.75,2.61c1.44,0.51,3.01,0.51,4.45,0c1.13-0.37,2.06-1.18,2.59-2.24
		c0.15-0.28,0.28-0.56,0.4-0.85c1.46-3.43,2.74-6.93,3.82-10.5c0.62-2.1,1.03-4.26,1.23-6.44
		C611.41,507.87,611.43,507.32,611.39,506.77z M609.76,511.84c-0.41,1.35-1.6,2.32-3,2.46c-3.8,0.54-7.65,0.54-11.45,0
		c-1.99-0.32-3.34-2.2-3.02-4.19c0.27-1.65,1.63-2.91,3.3-3.05c1.83-0.06,3.65-0.11,5.48-0.12l5.24,0.1
		c2.03,0.04,3.64,1.71,3.6,3.74c-0.01,0.36-0.07,0.73-0.18,1.07L609.76,511.84z"/>
</g>
<g id="logoText">
	<path d="M747,732.18c-6.11,4.84-12.83,8.84-20,11.9c-1.72,0.72-3.51,1.25-5.34,1.59c-0.77,0.17-1.57,0.13-2.31-0.12
		c-0.72-0.24-1.38-0.59-1.39-1.44c-0.03-0.75,0.43-1.44,1.14-1.7c0.83-0.33,1.69-0.59,2.56-0.78c9.39-2,17.42-6.58,24.59-12.84
		c0.82-0.81,1.22-1.95,1.11-3.09c0.09-4.75,0.98-9.45,2.64-13.9c1.13-3.12,3.01-5.91,5.49-8.12c1.06-0.93,2.29-1.95,3.87-1.35
		s2.31,2.18,2.56,3.84c0.84,5.46-1.38,10.1-4,14.6c-0.67,1.28-1.53,2.45-2.55,3.48c-2.88,2.58-3.22,5.94-3.51,9.46
		c-0.49,6-0.24,12.11-1.29,18.11c-1.41,8.47-4.14,16.67-8.11,24.28c-0.81,1.53-1.56,3.12-2.48,4.59c-0.73,1.2-0.37,1.65,0.87,1.92
		c5.93,1.28,11.76,2.91,17.52,4.77c4.26,1.28,8.41,2.86,12.44,4.74c0.71,0.32,1.4,0.69,2.05,1.11c0.9,0.57,1.28,1.7,0.89,2.7
		c-0.31,1.08-1.31,1.82-2.43,1.8c-0.85,0-1.68-0.27-2.37-0.76c-6.08-3.81-12.83-5.88-19.73-7.59c-3.66-0.92-7.33-1.82-11-2.81
		c-0.95-0.39-2.05,0.01-2.53,0.92c-9.69,14.4-23.6,22.84-39.77,28c-4.74,1.63-9.82,1.98-14.73,1c-8.64-1.85-10.41-7.41-7.33-14.79
		c1.92-4.62,5.91-7.47,9.85-10.23c7.22-5.07,15.38-7.7,24-9.17c6.14-1.09,12.38-1.52,18.62-1.3c2.28,0.09,4.56,0.13,6.82,0.4
		c1.01,0.21,2.03-0.31,2.46-1.24c3.6-5.69,6.23-11.93,7.79-18.48c1.93-8.45,2.41-17.09,3.27-25.67
		C746.79,734.88,746.89,733.76,747,732.18z M689.53,813.38c3.79,0.03,7.53-0.75,11-2.27c6.34-2.58,12.3-6.01,17.72-10.18
		c4.45-3.3,8.55-7,11.49-11.73c0.61-1,2.19-2,1.65-2.94c-0.68-1.14-2.48-0.83-3.84-0.89c-5.57-0.04-11.14,0.19-16.68,0.71
		c-8.61,0.35-16.99,2.88-24.35,7.35c-3.09,1.76-5.7,4.25-7.6,7.26c-2.66,4.54-1.58,11.32,5.41,12.34c1.73,0.23,3.48,0.34,5.23,0.35
		H689.53z M753.21,721.79c2.88-3.71,5.07-7.67,4.92-12.53c0-0.79-0.12-1.63-1-1.89s-1.38,0.56-1.74,1.22
		c-2.26,4.11-2.69,8.55-2.15,13.2L753.21,721.79z"/>
	<path d="M609.73,813.09c0,1.56,0.32,3.44-1.74,3.84s-2.52-1.53-3.07-2.91c-2.39-6.41-4.07-13.06-5-19.83
		c-0.21-1.3-0.81-2.5-1.72-3.45c-4-4.5-9-7.53-14-10.53c-4.64-2.76-9.32-5.46-14-8.17c-1.9-1.11-2-1.13-2.94,0.94
		c-4.06,8.3-8.92,16.19-14.5,23.55c-1.82,2.54-3.94,4.84-6.32,6.87c-0.9,0.9-2.03,1.52-3.27,1.8c-0.93,0.25-1.89-0.28-2.17-1.2
		c-0.36-0.78-0.03-1.7,0.75-2.06c0.05-0.02,0.1-0.04,0.14-0.06c2.94-0.81,4.38-3.25,6.06-5.38c6.34-7.85,11.65-16.47,15.79-25.67
		c0.42-0.94,0.84-1.63-0.48-2.29c-8.43-4.19-16.74-8.64-25.87-11.21c-4.11-1.15-8.25-2.17-12.48-0.36c-0.9,0.52-2.05,0.22-2.57-0.68
		c-0.06-0.1-0.11-0.21-0.15-0.32c-0.49-1.24,0.44-1.86,1.37-2.35c3.67-1.94,7.53-1.68,11.4-0.8c10.12,2.31,19.54,6.51,28.83,11
		c2.77,1.35,2.77,1.36,4.06-1.34c4-8.38,8-16.76,12-25.14c1.33-2.75,2.87-5.4,4.61-7.92c1.59-2.32,3.24-2.53,5.38-0.72
		c1.42,1.31,2.49,2.96,3.11,4.79c4.07,10.52,6.88,21.49,8.38,32.67c1.13,8.13,2.13,16.27,3.36,24.39c0.63,4.09,2.54,7.86,3.3,11.94
		C608.81,805.98,609.39,809.52,609.73,813.09z M587.47,733c-1,1.71-1.72,2.87-2.34,4.08c-4.77,9.54-9.53,19.08-14.29,28.62
		c-0.59,1.16-0.45,1.71,0.73,2.37c6.5,3.62,13.1,7,19.43,10.94c2.52,1.56,5,3.16,7.9,5C596.25,766.68,594.25,749.63,587.47,733z"/>
	<path d="M406.56,809c0-13.74,0.39-27.46,3.19-41c1.89-9.1,4.65-17.89,10.28-25.5c4.22-5.65,9.73-10.2,16.06-13.3
		c1.19-0.55,2.17-1.5,2.76-2.67c1.55-3,3.24-6,4.82-9c0.67-1.55,2.36-2.39,4-2c3.21,0.43,6.34,1.34,9.28,2.72
		c2.7,1.36,3.59,3.33,2.76,6.25c-0.98,3.48-2.69,6.71-5,9.48c-2.1,2.52-5.11,4.1-8.38,4.41c-9,1.2-17.06,4.29-23.7,10.65
		c-5.1,4.89-7.29,11.21-8.7,17.84c-2.05,9.99-3.42,20.1-4.1,30.27c-0.69,9.21-1.14,18.42-1.65,27.63c-0.01,0.3-0.04,0.6-0.09,0.9
		c-0.06,0.36-0.16,0.79-0.58,0.76s-0.51-0.48-0.53-0.84c-0.13-2-0.33-4.06-0.36-6.1C406.51,815.91,406.56,812.43,406.56,809z"/>
	<path d="M461.28,753.65c-2-0.21-3.84,0.91-5.34,2.7c-0.23,0.27-0.44,0.58-0.68,0.84c-0.82,0.85-1.45,2.73-2.74,1.93
		c-1.14-0.7,0-2.28,0.36-3.43c0.15-0.45,0.35-0.89,0.58-1.31c3.83-7.9,8.45-10,16.8-7.35c4.23,1.37,8.1,1.38,11.84-1.14
		c0.36-0.24,0.75-0.46,1.17-0.18c0.39,0.32,0.52,0.85,0.31,1.31c-1,3.61-1.71,7.33-5.49,9.46c-2.47,1.4-3.61,4.1-4.9,6.54
		c-2.21,4.2-4.38,8.42-7.47,12.06c-2.08,2.59-4.78,4.61-7.85,5.87c-4.06,1.51-7.21,4.79-8.55,8.91c-1.2,3.39-2.58,6.72-4,10
		c-1.97,5.31-6.71,9.09-12.32,9.83c-3.43,0.55-6.85,1.14-10.29,1.69c-0.91,0.15-1.9,0.23-2.43-0.7s0.12-1.86,0.78-2.55
		c0.65-0.62,1.36-1.17,2.12-1.65c5.1-3.48,10.32-6.8,15.21-10.59c3.07-2.35,5.48-5.45,7-9c0.73-1.71,1.63-3.34,2.41-5
		c2.68-6.11,7.53-11.01,13.61-13.76c4.71-2.17,7.21-6.52,9.7-10.78c0.45-0.77,0-1.11-0.6-1.37
		C467.64,754.55,464.49,753.75,461.28,753.65z"/>
	<path d="M842.38,787.73c0.77-1.09,1.75-2.03,2.88-2.75c2.12-1.24,3.81-1,5.49,0.77c1.18,1.37,2.16,2.89,2.91,4.53
		c0.8,1.68,1.9,3.2,3.24,4.48c1,0.92,1.43,2.06,0.33,3.12s-2.14,0.45-3-0.37c-1.51-1.41-2.28-3.36-3.43-5
		c-0.38-0.54-0.68-1.13-1-1.7c-1.94-3.09-2.64-3.07-4.7,0.05c-1.3,1.89-1.92,4.17-1.77,6.46c0.14,1.08,0.09,2.17-0.15,3.23
		c-0.14,1.04-0.96,1.86-2,2c-1.14,0.1-1.74-0.68-2.15-1.59c-0.66-1.68-1.04-3.45-1.14-5.25c-0.34-3.53-0.47-7.07-0.37-10.61
		c0.06-1.44-0.29-1.87-1.71-1.14c-1,0.51-2.19,0.69-2.78-0.64c-0.44-0.91-0.06-2.02,0.85-2.46c0.13-0.06,0.27-0.11,0.41-0.14
		c3.5-0.87,3.59-3.33,3.69-6.3c0.45-13.83,2.55-27.33,9.06-39.81c1.13-2.39,2.6-4.6,4.35-6.58c3.24-3.36,8-4.41,11.19,0.91
		c3,5.06,4.07,10.68,5.37,16.31c2.16,9.22-1.42,16.38-7.42,22.86c-4.8,5.13-10.52,9.33-16.86,12.37c-0.89,0.27-1.45,1.14-1.35,2.06
		C842.34,784.08,842,785.69,842.38,787.73z M864.06,751.13c-0.01-0.7-0.06-1.4-0.15-2.09c-1.06-5.46-2.57-10.83-4.52-16.04
		c-0.28-0.73-0.68-1.4-1.18-2c-0.46-0.85-1.52-1.17-2.37-0.71c-0.15,0.08-0.29,0.18-0.41,0.31c-1.16,0.86-2.11,1.97-2.79,3.24
		c-1.68,3.11-3.12,6.34-4.3,9.67c-3.86,10.17-5,20.82-5.75,31.55c-0.1,1.35,0.41,1.41,1.43,0.82c4.84-2.8,9.52-5.85,13.33-10
		S864.07,757.38,864.06,751.13z"/>
	<path d="M338.46,794.3c0.34-7.16,1.38-14.15,2.25-21.17c1-8.26,2.2-16.51,3.82-24.69c0.93-4.68,3-9,4.74-13.36
		c0.18-0.44,0.42-1,1-0.87c0.72,0.22,0.6,1,0.52,1.54c-0.51,3.86-1.14,7.71-1.59,11.58c-1.35,11.66-3.22,23.27-3.07,35.06
		c-0.06,2.29,0.45,4.56,1.48,6.6c0.97,2.07,3.04,3.41,5.33,3.42c2.44,0,4-1.4,5-3.5c0.63-1.35,1.14-2.77,1.77-4.12
		c0.3-0.63,0.65-1.44,1.56-1.17s0.77,1,0.72,1.68c-0.44,4.66-1.48,9.24-3.1,13.63c-0.86,2.49-2.06,4.84-3.57,7
		c-0.69,0.99-1.5,1.87-2.43,2.64c-3.95,3.22-8.67,2.5-11.46-1.79C338.88,803,338.65,798.62,338.46,794.3z"/>
	<path d="M492.36,791.28l7-10.83c1.31-2,1.53-2,3.57-0.81c1.46,0.84,2.78,1.91,3.92,3.15c2.61,2.87,3.06,5.87,1.23,9.26
		c-1.45,2.62-3.33,4.99-5.55,7c-0.81,0.99-2.27,1.14-3.26,0.33c-0.08-0.07-0.16-0.14-0.24-0.22c-2.19-1.86-4.42-3.68-6.76-5.36
		c-0.84-0.6-1.13-0.46-1.62,0.32c-1.35,2.2-3,4.2-4.91,5.94c-1.23,1.06-2.32,1.23-3.63,0.09c-2.08-1.91-4.3-3.66-6.63-5.24
		c-0.63-0.28-0.91-1.03-0.62-1.65c0.06-0.13,0.14-0.24,0.23-0.35l8-12.18c0.48-0.72,1.06-1.15,2-0.69c2.93,1.55,5.43,3.53,6.81,6.65
		C492.4,788.17,492.56,789.73,492.36,791.28z"/>
	<path d="M385.93,741c-0.98,5.19-1.68,10.42-2.1,15.68c-0.49,6.63-1.12,13.24-1.69,19.87c-0.71,8.87-3.24,17.5-7.44,25.35
		c-0.64,1.36-1.53,2.59-2.61,3.63c-0.24,0.29-0.63,0.42-1,0.33c-0.52-0.22-0.37-0.72-0.28-1.09c0.49-1.85,1.12-3.68,1.53-5.54
		c1.68-8.52,2.77-17.15,3.24-25.83c0.34-5.07,0.31-10.21,1.72-15.15c1.7-5.95,4.59-11.44,6.93-17.16c0.2-0.48,0.53-1,1.19-0.9
		c0.35,0.06,0.58,0.39,0.53,0.74C385.94,740.95,385.94,740.98,385.93,741z"/>
	<path d="M303.24,810.56c-0.71,0-1.4,0-1.67-0.63s0.27-1.13,0.66-1.58c2.75-3,6.21-5.26,9.29-8c2.81-2.26,5.48-4.7,8-7.29
		c2.26-2.51,3.96-5.46,5-8.67c1.94-5.92,3.8-11.88,5.7-17.8c0.21-0.68,0.46-1.35,0.77-2c0.31-0.63,0.7-1.43,1.6-1.07
		s0.65,1.05,0.53,1.73c-0.42,2.47-0.84,5-1.28,7.44c-1.34,8.04-3.32,15.97-5.91,23.7c-1.89,5.49-5.26,9.22-10.92,11
		C311.16,808.71,307.23,809.77,303.24,810.56z"/>
	<path d="M375.33,717.9c-0.07,1.79-0.65,3.52-1.67,5c-1.46,2.42-3.34,4.56-5.56,6.3c-1.22,1-2.31,1.18-3.65,0
		c-2.06-1.93-4.27-3.69-6.63-5.24c-0.7-0.3-1.03-1.11-0.73-1.81c0.07-0.16,0.17-0.31,0.3-0.44c2.74-4.15,5.47-8.32,8.19-12.49
		c0.51-0.77,1.18-1.35,2.1-0.84c3.19,1.77,6.09,3.87,7.33,7.54c0.12,0.34,0.2,0.69,0.26,1.05
		C375.33,717.33,375.31,717.69,375.33,717.9z"/>
	<path d="M785.58,794.34c3.03-0.35,6-1.1,8.83-2.23c0.45-0.15,0.9-0.35,1.35-0.48c1.14-0.35,2.36-0.62,2.93,0.78s-0.5,2-1.47,2.49
		c-3.7,1.99-7.72,3.35-11.87,4c-4.18,0.61-6.58-0.95-7.69-5c-0.24-0.86-0.77-0.95-1.46-1c-1.44-0.02-2.86-0.37-4.15-1
		c-1-0.54-1.83-1.28-1.43-2.55c0.45-1.43,1.68-1.53,2.81-1.16c1.52,0.57,3.18,0.62,4.74,0.17c1.04-0.26,1.93-0.93,2.47-1.85
		c1.26-2.24,2.96-4.21,5-5.79c1.3-1,2.93-1.46,4.56-1.29c2.67,0.32,3.91,2.43,3,4.94c-0.86,2.23-2.67,3.49-4.61,4.59
		c-1.41,0.78-2.87,1.48-4.36,2.1c-1,0.42-2,0.76-1.71,2.11s1.42,1,2.32,1.13C785.09,794.33,785.33,794.34,785.58,794.34z"/>
	<path d="M870.33,794.36c3.6-0.17,6.73-1.4,9.9-2.48c1.29-0.43,2.83-1.23,3.61,0.51s-1,2.31-2.14,2.88
		c-3.11,1.55-6.41,2.7-9.81,3.42c-1.83,0.38-3.73,0.29-5.51-0.27c-1.89-0.39-3.29-2.01-3.4-3.94c-0.11-1.31-0.69-1.56-1.82-1.59
		c-1.39-0.01-2.75-0.34-4-0.95c-1.09-0.57-1.71-1.39-1.29-2.61s1.55-1.36,2.69-1.12c1,0.19,1.9,0.75,3,0.57
		c2-0.32,3.72-0.84,4.81-2.9c1.11-2.14,2.76-3.96,4.77-5.29c2.6-1.67,5.78-1.52,7,0.33s0.29,4.87-2.23,6.69
		c-1.91,1.36-3.97,2.48-6.15,3.34c-1.07,0.44-2.33,0.72-2,2.28S869.56,794.09,870.33,794.36z"/>
	<path d="M525.69,789.23c-0.17,1.17-0.57,2.29-1.16,3.31c-1.39,2.65-3.22,5.05-5.41,7.1c-0.87,1.08-2.45,1.25-3.53,0.37
		c-0.1-0.08-0.19-0.16-0.27-0.25c-2.08-1.79-4.29-3.44-6.48-5.1c-0.69-0.35-0.96-1.2-0.61-1.88c0.05-0.09,0.11-0.18,0.18-0.27
		c2.64-4.06,5.26-8.13,7.9-12.19c0.31-0.61,1.01-0.91,1.67-0.72c3.28,0.82,7.47,5.7,7.71,9
		C525.7,788.75,525.69,788.87,525.69,789.23z"/>
	<path d="M819.67,789.11c0.14-1.55,0.26-3.11,0.42-4.65c0.11-0.93-0.27-1.32-1.15-1.68c-1.56-0.66-1.76-2.6-0.21-3.17
		c2.94-1.08,2.86-3.49,3.16-5.82c0.15-1.12,0.2-2.28,0.41-3.39c0.11-0.98,0.99-1.69,1.98-1.58c0.03,0,0.06,0.01,0.09,0.01
		c0.94,0.03,1.68,0.82,1.65,1.76c0,0.08-0.01,0.16-0.02,0.24c-0.06,1.44-0.18,2.87-0.34,4.29s0.21,2,1.78,1.53
		c1.61-0.46,3.25-0.82,4.91-1.08c1.17-0.19,2.35-0.09,2.86,1.25s-0.64,1.92-1.53,2.46c-2.34,1.35-4.86,2.36-7.48,3
		c-1.05,0.14-1.78,1.1-1.64,2.14c0,0.01,0,0.01,0,0.02c-0.14,3.06,0.13,6.12,0.8,9.1c0.73,2.7,1.83,3.51,4.62,3.57
		c0.78-0.01,1.55,0.05,2.32,0.18c0.88,0.11,1.54,0.87,1.53,1.76c0.03,0.83-0.58,1.55-1.41,1.65c-6,1.11-11.25,0.42-12.36-7.29
		C819.84,791.99,819.71,790.55,819.67,789.11z"/>
	<path d="M799,790.49c0.12-1.41,0.63-2.76,1.47-3.89c2.51-3.51,6.41-5.77,10.71-6.21c2.47-0.34,4.88,0.93,6,3.15
		c0.53,0.86,0.31,1.98-0.5,2.58c-0.71,0.64-1.81,0.57-2.44-0.14c-0.01-0.01-0.01-0.01-0.02-0.02c-1.62-1.88-3.39-1.35-5.22-0.57
		c-1.5,0.61-2.84,1.57-3.91,2.79c-0.35,0.4-0.87,0.85-0.65,1.38c0.3,0.7,1.08,0.45,1.61,0.33c1.87-0.41,3.72-0.89,5.58-1.37
		c3.79-1,5.59,0.32,5.86,4.22c0.05,1.44,0.33,2.86,0.81,4.21c0.47,0.91,0.11,2.02-0.8,2.49c-0.11,0.06-0.23,0.1-0.35,0.14
		c-0.91,0.38-1.95-0.05-2.33-0.96c-0.04-0.1-0.07-0.2-0.09-0.3c-0.46-1.3-0.79-2.64-1-4c-0.21-1.43-0.87-1.64-2.1-1.26
		c-2.3,0.86-4.67,1.51-7.09,1.92C801.27,795.35,798.91,793.49,799,790.49z"/>
	<path d="M634.36,789.92c0.08-1.95,1.47-3.81,3.21-5.43c2.36-2.26,5.39-3.69,8.63-4.07c2.37-0.36,4.73,0.72,6,2.76
		c0.56,1.05,0.71,2.1-0.31,2.93c-0.81,0.67-2.02,0.56-2.69-0.25c-0.02-0.03-0.04-0.05-0.06-0.08c-1.3-1.41-2.76-1.25-4.27-0.65
		c-1.82,0.63-3.44,1.75-4.68,3.23c-0.29,0.36-0.72,0.75-0.41,1.27s0.87,0.41,1.31,0.32c1.87-0.41,3.72-0.89,5.58-1.34
		c4-1,5.67,0.17,6.1,4.19c0.07,1.43,0.31,2.85,0.71,4.23c0.42,0.95-0.01,2.07-0.96,2.49c-0.95,0.42-2.07-0.01-2.49-0.96
		c-0.04-0.1-0.08-0.2-0.1-0.3c-0.48-1.17-0.81-2.38-1-3.63c-0.19-1.86-1.11-1.94-2.56-1.41c-2.17,0.86-4.44,1.47-6.75,1.8
		C636.36,795.35,634.29,793.59,634.36,789.92z"/>
	<path d="M616.56,790.91c1.12-1.74,1.93-3.15,2.89-4.43c1.91-2.71,5.65-3.36,8.36-1.45c0.66,0.46,1.21,1.05,1.64,1.74
		c1.8,2.59,2.46,5.7,3.69,8.55c0.45,1-0.65,2-1.92,1.9c-1.04-0.11-1.94-0.75-2.39-1.69c-0.88-1.7-1.71-3.44-2.68-5.07
		c-1.17-1.94-2.34-1.94-3.77-0.15c-1.57,2-2.64,4.27-4.42,6.1c-2,2-4.5,1.56-5.7-1.08c-0.93-2-0.59-4.24-0.87-6.37
		c-0.26-1.94,0-4-1.64-5.52c-0.51-0.66-0.4-1.6,0.24-2.13c0.54-0.7,1.5-0.91,2.28-0.51c1.14,0.58,1.99,1.6,2.36,2.82
		c0.43,1.12,0.79,2.26,1.08,3.42C616.05,788.18,616.24,789.35,616.56,790.91z"/>
	<path d="M659.85,800.9c-1.32,0.03-2.42-1-2.48-2.31c-0.45-2.84-0.93-5.67-1.38-8.51c-0.3-2.32-0.93-4.58-1.87-6.72
		c-0.45-1-0.63-2.07,0.48-2.71s1.92,0.07,2.71,0.79s0.78,2.4,1.94,2.24c0.73-0.11,1.24-1.49,1.92-2.25c1.58-1.8,3.4-3.37,5.41-4.68
		c0.83-0.53,1.62-0.89,2.39,0c0.69,0.7,0.68,1.83-0.02,2.52c-0.07,0.07-0.14,0.13-0.22,0.18c-1.25,1.12-2.39,2.36-3.39,3.7
		c-2.76,3.62-3.92,8.21-3.23,12.71c0.14,0.94,0.16,1.9,0.06,2.85C662.09,799.94,661.08,800.89,659.85,800.9z"/>
	<path d="M889.56,784.32c1.65-2.7,3.85-5.02,6.45-6.81c1-0.69,2.07-2.17,3.37-0.64s0.08,2.52-1,3.49c-2.7,2.32-4.61,5.42-5.47,8.88
		c-0.52,1.96-0.66,3.99-0.42,6c0.13,0.95,0.18,1.9,0.16,2.86c0,1.52-0.66,2.61-2.25,2.72s-2.41-0.87-2.59-2.39
		c-0.33-2.91-0.84-5.79-1.38-8.68c-0.34-2.13-0.94-4.21-1.77-6.2c-0.48-1.06-0.86-2.32,0.48-3s2.17,0.21,2.88,1.19
		C888.55,782.51,889,783.32,889.56,784.32z"/>
</g>
</svg>
