<?xml version="1.0" encoding="utf-8"?>
<!-- Generator: Adobe Illustrator 23.0.1, SVG Export Plug-In . SVG Version: 6.00 Build 0)  -->
<svg version="1.1" id="Layer_1" xmlns="http://www.w3.org/2000/svg" xmlns:xlink="http://www.w3.org/1999/xlink" x="0px" y="0px"
	 viewBox="0 0 1201.4 1201.4" style="enable-background:new 0 0 1201.4 1201.4;" xml:space="preserve">
<style type="text/css">
	.st0{fill:none;stroke:#000000;stroke-miterlimit:10;}
	.st1{fill:#010101;}
</style>
<circle id="smallCircle_sc3" class="st0" cx="600.7" cy="818.4" r="108.5"/>
<circle id="smallCircle_sc2" class="st0" cx="600.7" cy="600.9" r="108.5"/>
<circle id="smallCircle_sc1" class="st0" cx="600.7" cy="383.5" r="108.5"/>
<path id="eye" class="st0" d="M600.8,490.6c123,0,188.5,110.5,188.5,110.5S713,711.6,600.8,711.6S412.3,601.1,412.3,601.1
	S477.7,490.6,600.8,490.6z"/>
<path id="innerCirclea" class="st0" d="M789,601.1c19.1-33,29.2-70.5,29.1-108.7c0-120.1-97.4-217.4-217.4-217.4
	s-217.4,97.3-217.4,217.4c-0.1,38.2,10,75.7,29.1,108.7l0,0c-19.1,33-29.1,70.5-29.1,108.7c0,120.1,97.3,217.4,217.4,217.4
	s217.4-97.3,217.4-217.4C818.2,671.6,808.1,634.1,789,601.1L789,601.1L789,601.1z"/>
<circle id="bigCircle" class="st0" cx="600.7" cy="600.9" r="326"/>
<polygon id="hexagon" class="st0" points="600.7,162.1 980.5,381.4 980.5,820 600.7,1039.3 220.9,820 220.9,381.4 "/>
<polygon id="triangleBig" class="st0" points="600.7,1038.6 221.5,381.8 979.9,381.8 "/>
<polygon id="triangleSmall" class="st0" points="600.7,383.3 789.2,709.8 412.3,709.8 "/>
<rect id="square" x="176.4" y="176.4" transform="matrix(0.7071 -0.7071 0.7071 0.7071 -248.8176 600.7042)" class="st0" width="848.5" height="848.5"/>
<g id="logoShape">
	<path d="M491.9,604.1c0,0,0-0.1,0-0.1c-0.2-0.6,0.1-1.2-0.1-1.8v-2.3c0.2-0.2,0-0.5,0.1-0.7c0-0.3,0-0.7,0.1-1
		c0.1-0.4,0-0.8,0.1-1.1c0.1,0.5,0.1,1,0,1.5c0,1.6-0.1,3.2,0,4.7c0,0.3,0,0.5,0,0.8C492,604.2,492,604.2,491.9,604.1z"/>
	<path d="M599.5,710.1h3c0,0,0.1,0.1,0,0.1s0,0,0,0h-3C599.4,710.2,599.3,710.2,599.5,710.1C599.4,710.1,599.4,710.1,599.5,710.1z"
		/>
	<path d="M491.8,602.2c0.1,0.1,0.2,0.3,0.1,0.4c0,0.4,0,0.9,0,1.3h-0.1L491.8,602.2z"/>
	<path d="M602.4,710.2c0,0,0-0.1,0-0.1c0.5-0.1,0.9-0.1,1.4,0c0,0,0.1,0.1,0,0.1s0,0,0,0L602.4,710.2z"/>
	<path d="M599.5,710.1v0.1H598c0,0-0.1-0.1,0-0.1s0,0,0,0C598.5,710,599,710,599.5,710.1z"/>
	<path d="M603.8,710.2c0,0,0-0.1,0-0.2c0.4-0.1,0.8-0.1,1.3,0c0,0.1,0,0.1,0,0.2L603.8,710.2z"/>
	<path d="M598,710.1v0.1h-1.3c0-0.1,0-0.1,0-0.2C597.2,710,597.6,710,598,710.1z"/>
	<path d="M491.9,598.1c0,0.4,0,0.7,0,1.1c0,0.1-0.1,0.1-0.1,0v-1.1H491.9z"/>
	<path d="M709.5,607.7c0-0.3-0.1-0.6,0.1-0.8v0.8C709.6,607.8,709.5,607.8,709.5,607.7z"/>
	<path d="M709.6,595.3c-0.2-0.2-0.2-0.5-0.1-0.8c0,0,0.1,0,0.1,0V595.3z"/>
	<path d="M709.5,607.7h0.1v0.6c0,0.1-0.1,0.1-0.1,0V607.7z"/>
	<path d="M491.8,599.2h0.1c0,0.2,0.1,0.5-0.1,0.7V599.2z"/>
	<path d="M709.6,594.5h-0.1v-0.6c0-0.1,0.1-0.1,0.1,0V594.5z"/>
	<path d="M709.6,593.9h-0.1v-0.6h0.1V593.9z"/>
	<path d="M709.5,608.3h0.1v0.5h-0.1V608.3z"/>
	<path d="M709.6,595.3c-0.2-0.3,0-0.5-0.1-0.8v-0.6c0-0.2,0-0.4,0-0.6c0-0.4,0-0.8-0.1-1.3c-0.2-1.7-0.4-3.3-0.6-5
		c-0.5-3.6-1.1-7.2-2-10.8c-8.7-36.9-35.9-66.6-71.8-78.5c-0.6-0.2-1.3-0.5-1.8-0.9c-2-1.5-3.5-3.6-4.1-6c-0.4-1.3-0.6-2.7-0.8-4.1
		c-0.3-3,0-6,0.8-8.8c0.5-1.4,1-2.8,1.6-4.1c1-2.2,2.2-4.3,3.5-6.3c1.4-2,3-3.9,4.7-5.5c0.2-0.1,0.3-0.3,0.4-0.4
		c0.2-0.2,0.2-0.5,0-0.6c-0.1-0.1-0.2-0.1-0.3-0.1c-0.2,0-0.4,0-0.5,0c-3.4,0-6.8,0.5-10.1,1.5c-5.1,1.5-9.5,4.6-12.5,8.9
		c-0.1,0.1-0.1,0.2-0.2,0.3c-0.3,0.4-0.7,0.3-0.9-0.1c-0.1-0.3-0.2-0.5-0.3-0.8c-2.7-8.4-6.7-16.3-12-23.4c-0.6-0.8-1.2-1.6-1.8-2.3
		h-0.3c-0.2,0.2-0.4,0.4-0.5,0.7c-0.8,1.1-1.6,2.2-2.4,3.3c-1.6,2.3-3.1,4.6-4.4,7c-1.9,3.4-3.5,6.8-4.9,10.4
		c-0.6,1.6-1.2,3.3-1.7,5c-0.1,0.3-0.2,0.5-0.5,0.6s-0.5-0.2-0.6-0.4l-0.1-0.2c-1-1.3-2-2.5-3.2-3.6c-2.1-1.9-4.6-3.4-7.3-4.4
		c-3.9-1.5-8-2.2-12.2-2.1h-0.5c-0.2,0-0.3,0.1-0.4,0.3c-0.1,0.2,0,0.4,0.1,0.5s0.3,0.3,0.4,0.4c3.3,3.2,6,7,8,11.2
		c0.8,1.7,1.5,3.5,2.1,5.3c0.6,2.4,0.9,4.9,0.8,7.4c-0.1,1.5-0.3,2.9-0.7,4.3c-0.6,2.9-2.2,5.4-4.6,7c-0.4,0.3-0.9,0.5-1.3,0.6
		c-5.7,1.9-11.2,4.2-16.5,7c-22.6,11.9-40.4,31.4-50.1,55c-2.4,5.8-4.3,11.8-5.6,17.9c-0.6,2.5-1,5.1-1.4,7.6c-0.3,2-0.5,4-0.7,6.1
		s-0.2,3.8-0.4,5.6c-0.2,2.3-0.1,4.6-0.1,7v1.2c0,3.2,0.3,6.3,0.7,9.4c1.7,14,6.1,27.5,13,39.7c4.3,7.7,9.5,14.9,15.6,21.3
		c3.5,3.8,7.3,7.3,11.3,10.5c7.1,5.7,14.8,10.5,23.1,14.2c7.7,3.5,15.7,6.1,24,7.8c3.8,0.7,7.6,1.2,11.5,1.5c2,0.2,4,0.2,5.9,0.3
		h8.1c0.3,0,0.6,0,0.9-0.1c3.2,0,6.4-0.3,9.6-0.7c6.3-0.8,12.5-2.2,18.5-4.1c6.1-1.9,12-4.4,17.7-7.4c4.3-2.3,8.5-4.8,12.5-7.7
		c5.8-4.2,11.2-8.9,16.1-14.1c2.8-3,5.5-6.2,8-9.5c9.6-12.8,16.2-27.6,19.4-43.2c1.1-4.8,1.7-9.6,1.8-14.5v-1.1
		c0-0.3-0.1-0.5,0.1-0.8L709.6,595.3z M703.6,606.1c-0.1,1.8-0.2,3.5-0.4,5.3c-0.2,2-0.5,4.1-0.8,6.1c-0.5,3.2-1.2,6.3-1.9,9.3
		c-9.6,37.1-38.9,65.8-76.2,74.5c-2.9,0.7-5.8,1.2-8.8,1.6s-5.6,0.7-8.5,0.9c-3.4,0.2-6.8,0.3-10.3,0.1c-1.3-0.1-2.6-0.1-3.8-0.2
		c-1.8-0.1-3.6-0.3-5.4-0.5c-2-0.3-4.1-0.6-6.1-1c-4.1-0.8-8.1-1.8-12-3.1c-34.1-10.9-60-38.8-68.5-73.6c-0.8-3.1-1.4-6.2-1.8-9.4
		s-0.8-6.3-1-9.3c-0.1-1.9-0.1-3.9-0.1-5.8c0-2.4,0.1-4.8,0.2-7.1c0.2-3,0.5-5.9,1-8.9c5.2-32.8,26-61.2,55.7-76
		c6.3-3.1,12.9-5.6,19.7-7.4c0.1,0,0.2-0.1,0.3-0.1c0.3,0,0.6-0.3,0.7-0.6c0.5-1,1-2,1.4-3c1.1-2.7,1.8-5.6,2-8.6
		c0.6-7-1.4-13.9-5.4-19.6c-0.5-0.6-1-1.3-1.4-1.9c-0.1-0.1-0.2-0.3-0.3-0.4c-0.1-0.1-0.1-0.3,0-0.4c0.1-0.2,0.3-0.3,0.5-0.2
		c0.2,0,0.3,0.1,0.5,0.1c2.7,0.9,5.2,2.5,7.3,4.5c1.5,1.6,2.9,3.3,4,5.2c1.1,1.7,2,3.5,2.8,5.4c0.1,0.2,0.2,0.3,0.2,0.5
		c0.1,0.2,0.4,0.3,0.6,0.2c0.1,0,0.2-0.1,0.2-0.2c0.1-0.2,0.2-0.4,0.2-0.7c0.3-1.3,0.7-2.6,1-3.9c1.2-4.1,2.7-8.2,4.4-12.1
		c1.7-3.9,4-7.5,6.8-10.8c0.1-0.1,0.1-0.2,0.2-0.2c0.2-0.2,0.4-0.2,0.6,0c0,0,0,0,0,0c0.1,0.1,0.2,0.2,0.3,0.3
		c1.8,2.1,3.4,4.4,4.8,6.9c0.5,0.9,1,1.9,1.4,2.9c1.9,4.2,3.5,8.5,4.8,13c0.4,1.4,0.8,2.8,1.1,4.1l0.1,0.4c0.1,0.2,0.2,0.4,0.4,0.4
		c0.2,0,0.4-0.1,0.5-0.3c0.1-0.2,0.2-0.3,0.2-0.5c0.8-1.8,1.7-3.6,2.8-5.3c0.7-1.2,1.5-2.4,2.4-3.5c2.3-2.8,5.3-5,8.7-6.1
		c0.2-0.1,0.4-0.1,0.6-0.2c0.2,0,0.4,0,0.5,0.2c0.1,0.1,0.1,0.3,0,0.5c-0.2,0.2-0.3,0.4-0.5,0.6c-2.6,3.2-4.5,6.8-5.7,10.8
		c-2,7.2-1.3,14.9,2.1,21.6c0,0.1,0.1,0.1,0.1,0.2c0.2,0.5,0.7,0.9,1.2,1c15,3.9,28.9,11.2,40.7,21.3c17.8,15.2,29.8,36,34.2,59
		c0.5,2.6,0.9,5.3,1.2,7.9s0.5,5.5,0.6,8.2S703.8,603.5,703.6,606.1L703.6,606.1L703.6,606.1z"/>
	<path d="M491.9,604.1h0.1c0.1,0.4,0.1,0.8,0,1.3C491.9,605,491.9,604.5,491.9,604.1z"/>
	<path d="M586.9,599c-0.4-1.2-1.2-2.2-2.3-2.8c-0.3-0.2-0.6-0.3-0.9-0.4c-2.7-1.1-5.4-2.2-8.1-3.1c-2.1-0.8-4.3-1.3-6.6-1.7
		c-1.1-0.2-2.2-0.3-3.3-0.3c-1.5-0.1-2.9,0.8-3.4,2.3c-0.2,0.5-0.3,1.1-0.3,1.6v12.9c0,0.4,0,0.8,0.1,1.2c0.3,1.7,1.8,2.8,3.4,2.7
		l1.7-0.2c2-0.2,3.9-0.6,5.8-1.2c3.5-1,7-2.3,10.4-3.7c0.3-0.1,0.6-0.3,0.9-0.4c1.2-0.6,2.1-1.6,2.5-2.9
		C587.3,601.7,587.3,600.3,586.9,599z M572.8,604.9c-0.1,0.7-0.1,1.3-0.3,1.9c-0.4,2-2.3,3.3-4.3,2.9c-1.7-0.3-2.9-1.8-3-3.5V601
		c0-1.7,0-3.4,0-5.2c0-2,1.7-3.7,3.7-3.7c1.7,0,3.2,1.2,3.6,3c0.3,1.6,0.4,3.2,0.5,4.9C573,601.7,573,603.3,572.8,604.9z"/>
	<path d="M528.3,599c-0.4-1.4-1.4-2.5-2.8-3c-2.4-1-4.8-2-7.2-2.8c-2.1-0.8-4.2-1.4-6.3-1.9c-1.6-0.3-3.2-0.6-4.9-0.7
		c-1.7-0.2-3.3,1-3.6,2.7c-0.1,0.4-0.1,0.7-0.1,1.1c0,2.2,0,4.3,0,6.5l0,0v6.3c0,0.2,0,0.5,0,0.7c0,1.8,1.5,3.3,3.4,3.3
		c0.1,0,0.2,0,0.3,0c0.5,0,1-0.1,1.5-0.1c2-0.2,3.9-0.6,5.8-1.1c2.6-0.8,5.2-1.7,7.8-2.7c1.1-0.4,2.2-0.9,3.3-1.4
		c1.3-0.5,2.3-1.6,2.7-2.9C528.6,601.8,528.7,600.3,528.3,599z M514.3,603.9c-0.1,0.8-0.1,1.5-0.2,2.3c0,0.7-0.3,1.3-0.6,1.9
		c-1.1,1.7-3.4,2.2-5.1,1.1c-1-0.7-1.6-1.8-1.7-3c0-1.8,0-3.5-0.1-5.3s0-3.5,0.1-5.3c0-1.8,1.4-3.3,3.2-3.5c1.9-0.2,3.6,1,4,2.9
		c0.1,0.6,0.2,1.3,0.3,1.9C514.4,599.3,514.4,601.6,514.3,603.9L514.3,603.9z"/>
	<path d="M611.4,665.7c-0.1-2.5-0.5-4.9-1.3-7.3c-1.1-3.6-2.3-7.1-3.8-10.5c-0.2-0.4-0.3-0.7-0.5-1.1c-0.5-1-1.3-1.7-2.3-2.1
		c-1.3-0.5-2.7-0.6-4.1-0.3c-1.6,0.3-2.9,1.5-3.5,3.1c-0.1,0.2-0.2,0.4-0.2,0.6c-1.2,2.9-2.3,5.9-3.3,8.9c-0.9,2.8-1.5,5.8-1.7,8.7
		c-0.2,1.5,0.8,2.9,2.3,3.4c0.6,0.2,1.3,0.3,1.9,0.3h6.1c2.1,0,4.1,0,6.2,0c0.4,0,0.9,0,1.3-0.1c1.3-0.2,2.3-1.1,2.7-2.3
		C611.4,666.6,611.4,666.1,611.4,665.7z M607.3,666c-0.3,0.1-0.7,0.2-1.1,0.2h-5.1v0.1l-5.2-0.1c-1.7,0-3.1-1.2-3.5-2.8
		c-0.5-2,0.7-3.9,2.6-4.4c0.6-0.1,1.3-0.2,1.9-0.3c2-0.2,4.1-0.3,6.2-0.2c1.2,0,2.5,0.2,3.7,0.3c2,0.2,3.5,2,3.2,4
		C609.8,664.4,608.8,665.7,607.3,666L607.3,666z"/>
	<path d="M551,653.9c-0.6-1.1-1.5-2-2.7-2.6c-0.6-0.4-1.3-0.6-2.1-0.6c-0.7,0-1.4,0.1-2,0.3c-1.2,0.5-2.4,1-3.5,1.5
		c-2.6,1.1-5.2,2.4-7.7,3.8c-2.1,1.2-4.1,2.6-5.8,4.2c-0.6,0.5-0.9,1.2-1,2c-0.1,1,0.2,2,1,2.8c0.3,0.4,0.7,0.7,1,1l7.8,7.8l1,1
		c0.4,0.4,0.9,0.7,1.5,0.9c1.2,0.5,2.6,0.1,3.5-0.9c1.7-1.9,3.2-4,4.4-6.2c1.3-2.5,2.6-5,3.7-7.5c0.5-1.1,1-2.3,1.4-3.4
		C551.9,656.6,551.8,655.1,551,653.9z M542.4,672.3c-1.2,0.7-2.7,0.6-3.8-0.2c-0.2-0.1-0.4-0.3-0.5-0.5c-1.5-1.4-3-2.9-4.4-4.3
		c-1-1-2-2-2.9-3c-1.4-1.5-1.3-3.8,0.1-5.2c0.7-0.6,1.5-1,2.4-1c0.8,0,1.6,0.2,2.3,0.7c1,0.8,2,1.6,3,2.5c1.7,1.6,3.3,3.3,4.7,5.1
		c0.3,0.3,0.5,0.7,0.7,1c0.3,0.5,0.4,1.1,0.4,1.7C544.4,670.4,543.6,671.7,542.4,672.3L542.4,672.3L542.4,672.3z"/>
	<path d="M688.6,640.6c-0.3-0.6-0.9-1-1.5-1.3c-2.4-1.2-4.9-2.1-7.6-2.7c-1.7-0.4-3.4-0.8-5.1-1c-2-0.3-4-0.6-6-0.9
		c-1.1-0.2-2.2,0.1-3.1,0.7c-1.6,1.1-2.6,2.8-2.8,4.7c-0.1,1.2,0.3,2.3,1,3.3c2.1,2.7,4.2,5.4,6.5,7.9c1.5,1.7,3.2,3.3,5,4.6
		c0.6,0.5,1.2,0.9,1.8,1.3c1.4,1,3.4,0.7,4.5-0.7c0.3-0.3,0.5-0.7,0.7-1c2.1-3.6,4.2-7.2,6.2-10.8c0.2-0.4,0.4-0.8,0.6-1.3
		C689.3,642.6,689.2,641.5,688.6,640.6z M685,643.9c-0.5,1-1.1,2-1.7,3c-1.1,2-2.3,4-3.5,6c-0.2,0.3-0.4,0.6-0.6,0.8
		c-1.4,1.5-3.7,1.5-5.2,0.1c-0.8-0.7-1.2-1.8-1.1-2.8c0-0.4,0.1-0.8,0.3-1.2c0.7-1.5,1.3-2.9,2.1-4.4c0.8-1.4,1.6-2.7,2.5-4l1-1.4
		c1.2-1.7,3.5-2,5.1-0.8c0.9,0.7,1.5,1.7,1.5,2.8C685.5,642.7,685.3,643.3,685,643.9L685,643.9z"/>
	<path d="M592.5,612.8c-0.6-1.4-1.6-2.5-2.9-3.2c-1.3-0.7-2.8-0.8-4.2-0.2c-3,1.2-6,2.6-9,4.1c-1.5,0.8-3,1.6-4.5,2.6
		c-1.2,0.8-2.4,1.8-3.5,2.8c-0.9,0.8-1.3,2-0.9,3.2c0.2,0.6,0.5,1.2,0.9,1.7l0.9,1l7.7,7.7c0.4,0.4,0.8,0.7,1.1,1.1
		c0.5,0.5,1.1,0.8,1.8,0.9c1.2,0.3,2.4-0.2,3.2-1.1c1.5-1.6,2.8-3.4,3.9-5.3c1.2-2,2.2-4.1,3.1-6.1c0.8-1.7,1.5-3.3,2.2-5
		c0.3-0.7,0.5-1.5,0.5-2.3C592.8,614,592.7,613.4,592.5,612.8z M584.2,630c-1.4,1.2-3.5,1.2-4.9,0c-0.3-0.3-0.6-0.6-1-0.9
		c-2-1.9-3.9-3.8-5.8-5.8c-0.3-0.3-0.6-0.6-0.9-0.9c-1.4-1.5-1.2-3.8,0.3-5.2c0.4-0.4,1-0.7,1.5-0.8c0.3-0.1,0.6-0.1,0.9-0.1
		c0.8,0,1.6,0.3,2.2,0.7c1,0.8,2,1.6,3,2.5c1.6,1.5,3.1,3,4.4,4.8c0.2,0.3,0.5,0.6,0.7,0.9C585.8,626.8,585.6,628.8,584.2,630z"/>
	<path d="M539.2,640.4c-0.1-1.5-0.7-3-1.8-4.1c-0.9-1-2.2-1.6-3.6-1.6h-0.3c-1.2,0.2-2.4,0.3-3.7,0.5c-1.6,0.3-3.3,0.6-4.9,0.9
		s-3,0.6-4.5,1c-1.8,0.5-3.6,1.2-5.3,2c-0.3,0.1-0.6,0.3-0.8,0.4c-1.2,0.7-1.9,2-1.6,3.4c0.1,0.6,0.4,1.3,0.7,1.8l6.4,11.1
		c0.1,0.2,0.2,0.4,0.4,0.6c1,1.5,3.1,1.9,4.7,0.9c0,0,0.1,0,0.1-0.1c2-1.3,3.9-2.9,5.6-4.6c2.7-2.8,5.2-5.8,7.5-8.9
		c0.2-0.3,0.4-0.5,0.6-0.8C539,642.1,539.3,641.3,539.2,640.4z M526.1,654.7c-1.6,0.4-3.3-0.3-4.1-1.7c-1.6-2.7-3.3-5.4-4.7-8.2
		c-0.2-0.3-0.3-0.6-0.5-0.9c-0.9-1.6-0.5-3.6,1-4.8c1.5-1.1,3.6-0.9,4.8,0.5c0.5,0.6,1,1.3,1.5,2c1.7,2.4,3.1,5,4.2,7.7
		c0.3,0.5,0.4,1.2,0.4,1.8C528.8,652.8,527.7,654.3,526.1,654.7L526.1,654.7z"/>
	<path d="M664.5,616.6c-0.6-0.2-1.2-0.4-1.9-0.6c-2.1-0.6-4.2-1-6.3-1.2c-2.4-0.2-4.7-0.3-7.8-0.4h-3.3c-1.4,0-2.8,0.6-3.6,1.7
		c-0.9,1.1-1.5,2.4-1.6,3.8c-0.1,1.1,0.2,2.1,0.8,3c0.3,0.4,0.5,0.7,0.9,1c2.5,2.6,5.2,5,8,7.3c1.7,1.4,3.5,2.7,5.5,3.7
		c0.4,0.2,0.9,0.5,1.3,0.7c1.3,0.7,2.9,0.3,3.9-0.8c0.4-0.5,0.8-1.1,1-1.7l4.8-11.5c0.2-0.4,0.3-0.9,0.4-1.3
		C667,618.7,666.1,617.1,664.5,616.6z M662.8,621.4c-0.6,1.7-1.3,3.3-2,4.9s-1.4,3.2-2,4.7c-0.8,1.9-3,2.7-4.8,1.9
		c-0.1,0-0.1,0-0.2-0.1c-1.3-0.6-2-1.8-2-3.2c0-0.4,0.1-0.7,0.2-1.1c0.8-2.8,1.8-5.6,3.2-8.2c0.4-0.7,0.7-1.4,1.1-2.1
		c0.8-1.3,2.2-2,3.7-1.8c1.5,0.2,2.7,1.3,3,2.8C663.1,620,663.1,620.7,662.8,621.4z"/>
	<path d="M560.2,616.3c-0.9-1.2-2.3-1.9-3.8-1.9h-3.6l-2.5,0.1c-2.2,0.1-4.5,0.3-6.7,0.5c-2.1,0.3-4.2,0.8-6.2,1.5
		c-1.7,0.5-2.6,2.2-2.2,3.9c0.1,0.5,0.2,0.9,0.4,1.3c1.6,3.9,3.2,7.8,4.8,11.6c0.1,0.3,0.3,0.7,0.5,1c0.9,1.5,2.8,2,4.3,1.2
		c2.2-1,4.3-2.3,6.2-3.9c3.1-2.5,6-5.2,8.8-8c0.4-0.4,0.8-1,1.1-1.5c0.2-0.4,0.3-0.8,0.4-1.3C561.8,619.3,561.3,617.6,560.2,616.3z
		 M548.4,632.7c-1.7,1.1-4,0.7-5.1-1c-0.1-0.2-0.3-0.4-0.4-0.7c-0.5-1.2-1-2.3-1.5-3.5c-0.8-2-1.6-4-2.5-6.1c-0.7-1.8,0-3.8,1.7-4.6
		c1.7-0.9,3.7-0.3,4.8,1.3c0.5,0.8,1,1.7,1.4,2.6c1.3,2.5,2.3,5.2,3,8C550.3,630.2,549.7,631.8,548.4,632.7z"/>
	<path d="M611.4,695c-0.1-2.3-0.5-4.5-1.1-6.6c-0.5-2.1-1.3-4.1-2-6.1s-1.4-3.7-2.2-5.5c-0.5-1.3-1.5-2.4-2.9-2.8
		c-1.3-0.5-2.7-0.5-4-0.1c-1.5,0.4-2.8,1.5-3.3,3c-0.1,0.2-0.2,0.5-0.3,0.7c-1.3,3.1-2.4,6.2-3.4,9.4c-0.8,2.7-1.3,5.4-1.5,8.2
		c-0.1,1.5,0.8,2.9,2.3,3.4c0.5,0.2,1.1,0.2,1.7,0.2h12.8c0.3,0,0.6,0,0.9-0.1c1.3-0.2,2.5-1.1,2.8-2.4
		C611.4,695.8,611.4,695.4,611.4,695z M609.9,692.1c-0.2,1.8-1.6,3.3-3.4,3.3c-1,0-2,0.1-3,0.1h-2.4l0,0c-1.8,0-3.5,0-5.3-0.1
		c-1.5,0-2.8-0.9-3.3-2.3c-0.8-1.8,0.1-4,1.9-4.8c0.3-0.1,0.6-0.2,0.9-0.3c1.5-0.2,3-0.4,4.5-0.4c2.1-0.1,4.2,0,6.3,0.3
		c0.3,0,0.6,0,0.9,0.1C608.9,688.5,610.1,690.2,609.9,692.1L609.9,692.1z"/>
	<path d="M675.3,538.4c-0.2-0.6-0.5-1.1-0.9-1.5c-0.6-0.6-1.2-1.2-1.8-1.8c-2.5-2.5-4.9-4.9-7.4-7.4c-0.3-0.3-0.6-0.6-1-0.8
		c-0.8-0.6-1.9-0.9-2.9-0.6c-0.6,0.2-1.2,0.5-1.6,1c-0.3,0.4-0.6,0.7-0.9,1.1c-1.2,1.5-2.3,3.1-3.3,4.8c-1,1.8-1.9,3.7-2.8,5.5
		s-1.6,3.6-2.4,5.4c-0.5,1.1-0.5,2.3-0.1,3.4c0.6,1.6,1.9,3,3.5,3.7c0.6,0.3,1.2,0.4,1.8,0.4c0.9,0,1.7-0.2,2.5-0.6
		c2.4-1,4.8-2,7.2-3.2c1.4-0.7,2.8-1.4,4.1-2.2c1.8-1.1,3.5-2.3,5-3.7C675.5,541,675.8,539.7,675.3,538.4z M671.8,542.2
		c-0.5,1.3-1.8,2.2-3.2,2.2c-0.9,0-1.7-0.3-2.4-0.8c-2.6-2-4.9-4.2-7-6.7c-0.3-0.4-0.7-0.8-1-1.2c-0.6-0.8-0.8-1.7-0.8-2.7
		c0.1-1.4,1-2.5,2.2-3c1.3-0.6,2.8-0.3,3.8,0.7c2.2,2.1,4.4,4.2,6.5,6.4c0.4,0.4,0.8,0.8,1.1,1.2
		C672.1,539.3,672.4,540.9,671.8,542.2L671.8,542.2z"/>
	<path d="M530.3,618.3c-0.6-1-1.6-1.8-2.7-2.1c-0.3-0.1-0.7-0.2-1.1-0.2c-1.6-0.2-3.2-0.4-4.7-0.5c-2-0.2-4.1-0.3-6.1-0.4
		c-2.7-0.1-5.3,0.1-7.9,0.6c-1.6,0.2-2.8,1.6-2.8,3.3c0,0.6,0.1,1.2,0.3,1.7l3.2,12.1c0.1,0.3,0.2,0.6,0.3,0.9
		c0.4,1.2,1.4,2,2.6,2.2c0.6,0.1,1.1,0,1.7-0.2c2.7-0.9,5.3-2.2,7.7-3.7c2.8-1.8,5.5-3.7,8.2-5.8c0.4-0.3,0.8-0.6,1.1-1
		c0.7-0.7,1.1-1.6,1.3-2.5C531.4,621.1,531.1,619.6,530.3,618.3z M515.3,633.5c-1.7,0.2-3.4-0.8-3.9-2.4c-0.4-1.4-0.8-2.8-1.2-4.1
		c-0.5-2-1.1-4.1-1.6-6.1c-0.5-2,0.6-4,2.6-4.5c0.4-0.1,0.8-0.2,1.2-0.1c1.4,0.1,2.7,1,3.2,2.3c0.9,2.1,1.6,4.3,2.1,6.5
		c0.3,1.3,0.5,2.7,0.8,4.1c0,0.3,0,0.6,0.1,0.9C518.5,631.7,517.1,633.3,515.3,633.5L515.3,633.5z"/>
	<path d="M653.8,639.8c-1.8-1.6-3.8-3.1-5.9-4.2c-3.6-1.9-7.2-3.7-11-5.2c-0.7-0.3-1.3-0.4-2.1-0.4c-0.5,0-1.1,0.1-1.6,0.3
		c-1.3,0.5-2.4,1.5-3.1,2.7c-0.9,1.4-1,3.1-0.3,4.6c1.4,3.5,3,6.9,4.8,10.3c1.2,2.3,2.7,4.4,4.4,6.3c0.2,0.3,0.5,0.5,0.8,0.7
		c1.2,0.8,2.9,0.7,4-0.2c0.3-0.3,0.6-0.5,0.9-0.8c2.8-2.8,5.7-5.7,8.5-8.5c0.3-0.3,0.6-0.6,0.8-0.9c0.3-0.4,0.6-0.9,0.7-1.4
		C655.1,641.9,654.7,640.6,653.8,639.8z M650.4,643.5c-1.9,2-3.8,4-5.8,5.9c-0.5,0.5-1.1,1-1.6,1.6c-0.5,0.5-1.1,0.8-1.8,1
		c-1.4,0.3-2.9-0.2-3.7-1.4c-0.9-1.2-0.9-2.8-0.2-4c0.1-0.2,0.2-0.3,0.4-0.5c2.2-3,4.9-5.6,7.8-7.8c0.6-0.5,1.4-0.8,2.2-0.8
		c2,0,3.7,1.6,3.8,3.6c0,0.1,0,0.2,0,0.2C651.4,642.1,651,642.9,650.4,643.5z"/>
	<path d="M666.4,581.3c-0.2-0.5-0.4-0.9-0.5-1.4c-1.5-3.6-3-7.1-4.4-10.7c-0.2-0.6-0.5-1.1-0.9-1.6c-1-1.2-2.6-1.6-4-0.9
		c-2.3,1.1-4.4,2.5-6.4,4.1c-1.1,0.9-2.2,1.8-3.3,2.8c-1.9,1.7-3.7,3.4-5.4,5.2c-1,1-1.5,2.3-1.4,3.7c0.1,1,0.4,2,0.9,2.9
		c0.8,1.7,2.6,2.7,4.5,2.6c1.4,0,2.7,0,4.1,0c1.9-0.1,3.8-0.2,5.7-0.3c1.7-0.1,3.3-0.3,5-0.7c1.5-0.3,2.9-0.7,4.4-1.2
		c1.1-0.4,1.8-1.3,2-2.4C666.8,582.7,666.7,582,666.4,581.3z M662.8,583.6c-0.7,1.9-2.8,2.9-4.7,2.2c-0.8-0.3-1.5-0.8-1.9-1.6
		c-0.3-0.5-0.6-1.1-1-1.7c-1.5-2.8-2.6-5.8-3.4-8.8c-0.5-1.9,0.6-3.9,2.5-4.5c0.3-0.1,0.7-0.1,1-0.1c1.4,0,2.7,0.8,3.3,2.1
		c0.7,1.5,1.3,2.9,1.9,4.4c0.7,1.8,1.4,3.6,2.1,5.4C663.1,581.8,663.1,582.8,662.8,583.6L662.8,583.6z"/>
	<path d="M675.5,662.3c-0.2-0.8-0.6-1.6-1.3-2.1c-1.9-1.6-3.9-3-6.1-4.2c-3.4-1.8-6.8-3.4-10.3-4.8c-0.6-0.3-1.3-0.4-2-0.4
		c-0.6,0-1.2,0.1-1.8,0.3c-1.6,0.6-2.8,1.9-3.5,3.4c-0.5,1.2-0.5,2.6,0,3.8c1.1,2.8,2.3,5.5,3.7,8.1c1.2,2.5,2.7,5,4.4,7.2
		c0.4,0.5,0.9,1.1,1.4,1.6c0.6,0.7,1.6,1.1,2.5,1c0.7-0.1,1.4-0.3,1.9-0.8c0.3-0.3,0.7-0.6,1-0.9c2.8-2.8,5.6-5.6,8.4-8.4
		c0.3-0.3,0.7-0.7,0.9-1C675.4,664.4,675.7,663.4,675.5,662.3z M671.1,664.2c-0.8,0.9-1.6,1.7-2.4,2.5c-1.7,1.7-3.4,3.5-5.2,5.1
		c-1.5,1.3-3.8,1.2-5.1-0.3c-0.2-0.2-0.3-0.4-0.5-0.6c-0.3-0.5-0.5-1.2-0.5-1.8c0-0.8,0.3-1.7,0.8-2.3c2.3-3,5-5.7,8-8
		c1.6-1.3,3.9-1,5.1,0.6C672.4,660.8,672.3,662.8,671.1,664.2L671.1,664.2z"/>
	<path d="M567.8,533.6c-0.2-1.2-0.3-2.4-0.5-3.6c-0.3-2.2-0.7-4.4-1.2-6.5c-0.4-1.9-0.9-3.8-1.6-5.6c-0.4-1.1-0.9-2.2-1.4-3.3
		c-0.6-1.3-2-2-3.4-1.8c-0.6,0.1-1.2,0.3-1.8,0.6c-3.8,2.2-7.6,4.4-11.4,6.6c-0.5,0.3-1,0.7-1.3,1.3c-0.8,1.1-0.8,2.5,0,3.5
		c1.4,2.2,3.1,4.3,5,6.1c2,1.9,4,3.6,6.2,5.3c0.9,0.7,1.8,1.4,2.7,2.1c0.9,0.7,2,1.1,3.2,1c1.3-0.1,2.6-0.6,3.6-1.5
		c1.2-0.9,1.9-2.3,1.9-3.9C567.8,533.8,567.8,533.7,567.8,533.6z M562.9,522.7c-0.2,0.1-0.3,0.3-0.5,0.4c-2.9,2.3-6.2,4.1-9.6,5.5
		c-1.2,0.6-2.6,0.4-3.7-0.4c-1.6-1.2-2-3.4-0.8-5.1c0.3-0.4,0.6-0.7,1-0.9c0.2-0.2,0.4-0.3,0.7-0.4c2.8-1.7,5.7-3.3,8.5-4.9
		c0.7-0.4,1.4-0.5,2.2-0.5c1.4,0.1,2.6,1,3.1,2.3C564.3,520,564,521.6,562.9,522.7z"/>
	<path d="M610.9,635.5c-0.2-2.2-0.6-4.5-1.2-6.6c-0.9-3.1-2-6.1-3.2-9.1c-0.3-0.7-0.6-1.4-0.9-2.1c-0.5-1-1.3-1.8-2.4-2.3
		c-1.4-0.6-2.9-0.7-4.3-0.3c-1.5,0.4-2.7,1.5-3.3,2.9c-1.5,3.5-2.8,7.1-3.9,10.8c-0.8,2.5-1.2,5.1-1.3,7.7c-0.1,1.5,0.9,2.9,2.4,3.3
		c0.5,0.2,1.1,0.2,1.6,0.2h12.6c0.3,0,0.7,0,1-0.1c1.6-0.1,2.8-1.3,3-2.9C611,636.6,611,636,610.9,635.5z M607,636.6
		c-0.5,0.1-0.9,0.2-1.4,0.2l-5.1,0.1l-5-0.1c-0.9,0-1.8-0.3-2.5-0.9c-1.5-1.3-1.7-3.6-0.4-5.2c0.6-0.7,1.4-1.1,2.3-1.3
		c1.4-0.2,2.8-0.3,4.1-0.4c1.4,0,2.8,0,4.2,0c1,0.1,2.1,0.2,3.1,0.3c2,0.3,3.4,2.1,3.1,4.1C609.3,635,608.3,636.2,607,636.6
		L607,636.6z"/>
	<path d="M633.9,509.6c-0.6-0.5-1.3-0.8-2-0.9l-12.5-3.4c-0.3-0.1-0.7-0.1-1-0.1c-1.3-0.1-2.5,0.6-3.1,1.7c-0.2,0.4-0.3,0.8-0.3,1.2
		c-0.3,1.6-0.5,3.3-0.6,5c0,1,0,1.9,0,2.9c0.1,1.3,0.1,2.6,0.2,3.9c0.2,2.4,0.5,4.8,0.8,7.2c0.1,1.6,1,3,2.4,3.7
		c1.1,0.6,2.3,1,3.6,0.9c1.3,0,2.5-0.5,3.3-1.5c0.3-0.3,0.5-0.6,0.8-0.9c1.4-1.8,2.8-3.7,4.1-5.6c1.4-2,2.6-4,3.7-6.2
		c0.7-1.4,1.2-2.8,1.7-4.2C635.5,511.9,635.1,510.4,633.9,509.6z M630,518.6c-0.1,0-0.3,0.1-0.4,0.1c-0.2,0-0.4,0-0.6,0
		c-0.9-0.1-1.9-0.2-2.8-0.4c-2.9-0.5-5.7-1.4-8.4-2.5c-1.9-0.7-2.9-2.8-2.2-4.7c0.4-1.2,1.4-2,2.6-2.3c0.6-0.1,1.3-0.1,1.9,0
		c3.3,0.8,6.7,1.7,10,2.7c1.6,0.4,2.8,1.9,2.7,3.6C632.8,516.7,631.7,518.2,630,518.6L630,518.6z"/>
	<path d="M529.9,577.1c-0.4-0.3-0.8-0.7-1.2-1c-2.7-2.1-5.5-4-8.4-5.9c-2.3-1.5-4.8-2.6-7.4-3.5c-1.4-0.5-2.9,0-3.7,1.2
		c-0.4,0.5-0.6,1.1-0.8,1.8c-0.5,1.7-0.9,3.4-1.4,5.1c-0.7,2.5-1.3,5.1-2,7.6c-0.1,0.5-0.2,1-0.1,1.6c0.1,1.2,1,2.2,2.1,2.6
		c0.2,0.1,0.5,0.1,0.7,0.2c0.8,0.1,1.6,0.3,2.4,0.4c1.5,0.2,3,0.3,4.5,0.3c1.4-0.1,2.7-0.1,4-0.2c2.4-0.2,4.7-0.4,7.1-0.7
		c0.6-0.1,1.1-0.2,1.7-0.3c1.1-0.2,2-0.8,2.6-1.7c0.9-1.2,1.3-2.6,1.3-4.1C531.3,579.2,530.8,578,529.9,577.1z M518.1,575.4
		c-0.5,2.9-1.4,5.7-2.5,8.4c-0.4,1.2-1.4,2-2.6,2.3c-2,0.5-3.9-0.7-4.4-2.7c-0.1-0.4-0.1-0.9-0.1-1.3c0-0.3,0.1-0.7,0.2-1
		c0.7-3,1.5-6,2.4-8.9l0.2-0.7c0.5-2,2.5-3.1,4.5-2.6c1.3,0.3,2.2,1.3,2.6,2.6c0.1,0.4,0.1,0.8,0.1,1.2
		C518.4,573.6,518.3,574.5,518.1,575.4z"/>
	<path d="M566.6,665.3c-0.9-1-2.1-1.8-3.5-2.1c-0.5-0.2-1-0.2-1.5-0.2c-0.9,0.1-1.8,0.5-2.6,1.1c-2.2,1.7-4.5,3.5-6.6,5.3
		c-1.7,1.5-3.3,3.1-4.8,4.8c-0.8,1-1.6,2.1-2.4,3.2c-0.9,1.3-0.7,3,0.3,4.1c0.3,0.3,0.7,0.6,1.1,0.9l11.3,6.6
		c0.3,0.2,0.7,0.4,1.1,0.5c1.6,0.6,3.4-0.2,4.1-1.8c1-2.1,1.8-4.3,2.4-6.5c0.9-3.7,1.6-7.5,2-11.2c0.1-0.5,0.1-1,0.2-1.4
		C567.8,667.4,567.4,666.2,566.6,665.3z M563,684.8c-1.1,1.3-3,1.6-4.5,0.8c-1.3-0.7-2.5-1.4-3.8-2.1c-1.8-1-3.5-2.1-5.3-3.1
		c-1.8-1-2.4-3.2-1.4-5c0.7-1.2,1.9-1.9,3.2-1.9c0.5,0,1,0.1,1.4,0.3c2.9,1.2,5.7,2.7,8.3,4.5c0.6,0.4,1.2,0.8,1.7,1.3
		C564.2,680.9,564.4,683.2,563,684.8C563,684.7,563,684.8,563,684.8z"/>
	<path d="M587.3,683.5c-0.1-2.4-0.4-4.7-0.7-7.1c-0.1-0.5-0.2-1-0.3-1.5c-0.3-1.2-1-2.3-2.1-2.9c-1-0.6-2.2-1-3.3-1
		c-1.7-0.2-3.4,0.7-4.3,2.1c-0.1,0.2-0.3,0.4-0.4,0.6c-1.7,2.1-3.2,4.3-4.7,6.5c-1,1.5-2,3.1-2.8,4.7c-0.7,1.4-1.3,2.9-1.8,4.5
		c-0.5,1.5,0.1,3.3,1.6,4c0.4,0.2,0.8,0.4,1.3,0.5l4.3,1.2l8.2,2.2c0.5,0.1,1.1,0.2,1.6,0.1c1.5-0.1,2.7-1.2,2.9-2.6
		c0.2-0.8,0.3-1.5,0.4-2.3c0.2-1.6,0.3-3.2,0.3-4.8C587.4,686.2,587.3,684.8,587.3,683.5z M582,693.7c-2-0.4-4.1-1-6.1-1.5
		c-1.4-0.4-2.9-0.8-4.3-1.2c-1.4-0.4-2.5-1.5-2.6-3c-0.3-1.8,0.8-3.5,2.5-4c0.3-0.1,0.7-0.2,1.1-0.2c0.4,0,0.7,0,1.1,0.1
		c3.5,0.5,6.9,1.4,10.1,2.7c1.2,0.4,2,1.3,2.4,2.5c0.5,1.9-0.6,4-2.5,4.5C583.1,693.7,582.6,693.8,582,693.7z"/>
	<path d="M633,619c-1.7-1.6-3.7-3-5.7-4.1c-3.2-1.7-6.5-3.3-9.8-4.7c-0.6-0.2-1.2-0.5-1.8-0.7c-1.2-0.4-2.4-0.3-3.5,0.2
		c-1.5,0.7-2.6,1.9-3.2,3.4c-0.2,0.5-0.3,1-0.3,1.6c0,0.7,0.1,1.5,0.4,2.2c1.1,2.8,2.3,5.5,3.7,8.1c0.7,1.5,1.5,2.9,2.4,4.3
		c1,1.5,2,2.9,3.2,4.2c1,1.3,2.9,1.6,4.3,0.7c0.5-0.3,1-0.7,1.3-1.1c2.8-2.8,5.6-5.6,8.4-8.4c0.2-0.2,0.5-0.5,0.7-0.7
		c0.3-0.4,0.6-0.8,0.8-1.3C634.5,621.5,634.1,619.9,633,619z M629.7,622.7c-1,1.1-2,2.2-3.1,3.2c-1.4,1.4-2.8,2.7-4.2,4.1l-0.4,0.4
		c-0.7,0.6-1.6,0.9-2.5,0.8c-2-0.1-3.6-1.8-3.5-3.8c0-0.6,0.2-1.3,0.5-1.8c0.4-0.6,0.9-1.2,1.4-1.8c1.8-2.2,3.9-4.2,6.2-6
		c0.2-0.2,0.5-0.4,0.8-0.6c1.6-1.2,3.9-0.8,5.1,0.8c0.3,0.5,0.5,1,0.7,1.5C630.8,620.8,630.5,621.9,629.7,622.7L629.7,622.7z"/>
	<path d="M694.3,615.8c-1.1-0.2-2.2-0.4-3.3-0.5c-1.6-0.2-3.2-0.2-4.8-0.2l-4.5,0.3c-1.8,0.1-3.5,0.3-5.3,0.5
		c-0.6,0.1-1.2,0.1-1.8,0.3c-1.2,0.2-2.3,1-3,2c-0.8,1.2-1.2,2.7-1.1,4.2c0.1,1.3,0.7,2.5,1.6,3.3c0.2,0.1,0.3,0.3,0.5,0.4
		c2.9,2.3,5.9,4.4,9,6.3c2.3,1.4,4.7,2.6,7.3,3.4c0.5,0.2,1.1,0.3,1.6,0.2c1.2-0.2,2.2-1,2.6-2.1c0.1-0.3,0.2-0.7,0.3-1
		c1.1-4,2.2-8,3.2-12c0.1-0.5,0.2-1,0.3-1.5C697.1,617.6,695.9,616.1,694.3,615.8z M693.2,620.8c-0.8,3.4-1.7,6.7-2.7,10
		c-0.1,0.4-0.3,0.8-0.6,1.2c-0.9,1.3-2.6,1.8-4.1,1.4c-1.5-0.5-2.6-2-2.5-3.6c0-0.4,0.1-0.7,0.2-1.1c0.4-2.7,1-5.3,1.9-7.9
		c0.3-0.8,0.6-1.6,0.9-2.4c0.6-1.6,2.3-2.5,3.9-2.2c1.7,0.3,3,1.7,3.1,3.5C693.3,620,693.3,620.4,693.2,620.8L693.2,620.8z"/>
	<path d="M538.6,559.6c-0.2-0.3-0.4-0.6-0.6-0.9c-2.2-2.9-4.5-5.7-7-8.4c-1.8-2-3.9-3.7-6.1-5.1c-1.3-0.9-3-0.8-4.1,0.3
		c-0.4,0.3-0.7,0.7-0.9,1.2c-2.2,3.8-4.4,7.7-6.6,11.5c-0.1,0.3-0.3,0.5-0.3,0.8c-0.6,1.6,0.1,3.3,1.6,4.1c2.3,1.2,4.7,2,7.2,2.7
		c3.5,0.8,7,1.4,10.5,1.9c0.5,0.1,1.1,0.1,1.5,0.2c1.3,0,2.5-0.4,3.5-1.3c0.9-0.9,1.6-2,1.9-3.3C539.4,562,539.2,560.7,538.6,559.6z
		 M528.6,552.6c-0.5,1.2-1,2.5-1.7,3.6c-1,2-2.3,3.9-3.6,5.7c-0.2,0.2-0.3,0.5-0.5,0.7c-1.3,1.5-3.6,1.7-5.2,0.4
		c-0.8-0.7-1.3-1.7-1.3-2.7c0-0.7,0.2-1.3,0.5-1.9c1.6-2.8,3.2-5.6,4.9-8.4c0.1-0.2,0.2-0.5,0.4-0.7c1-1.8,3.2-2.3,5-1.3
		c1.2,0.7,1.8,1.9,1.8,3.2C528.8,551.7,528.7,552.2,528.6,552.6L528.6,552.6z"/>
	<path d="M633.5,579c-0.2-0.3-0.5-0.5-0.7-0.8l-7-7l-2-2c-0.5-0.5-1-0.8-1.7-1c-1.3-0.4-2.6,0-3.5,1c-0.1,0.2-0.3,0.3-0.4,0.5
		c-1.4,1.6-2.7,3.4-3.7,5.3c-1.3,2.5-2.6,4.9-3.7,7.5c-0.5,1.2-1,2.3-1.5,3.5c-0.6,1.3-0.5,2.8,0.2,4.1c0.7,1.4,1.9,2.5,3.3,3
		c0.5,0.2,1,0.3,1.6,0.3l0.9-0.1c0.6-0.1,1.3-0.3,1.8-0.6c3.4-1.4,6.7-2.9,9.9-4.7c2.3-1.2,4.3-2.7,6.2-4.4c0.3-0.3,0.6-0.7,0.8-1.1
		C634.7,581.4,634.5,580,633.5,579z M630.5,584.3c-0.6,1.2-1.9,1.9-3.2,1.8c-0.8,0-1.5-0.2-2.1-0.7c-1.1-0.8-2.1-1.6-3.1-2.5
		c-1.8-1.7-3.5-3.5-5-5.4c-0.3-0.4-0.6-0.9-0.7-1.4c-0.5-1.9,0.6-4,2.5-4.5c1.2-0.3,2.5,0,3.5,0.8c0.6,0.5,1.2,1.1,1.8,1.7
		c2,1.9,3.8,3.8,5.7,5.8C631,581,631.3,582.8,630.5,584.3L630.5,584.3z"/>
	<path d="M656.7,521.5c-0.4-0.6-0.9-1.1-1.5-1.4l-11.4-6.6c-0.3-0.2-0.6-0.3-0.9-0.4c-1.6-0.6-3.4,0.2-4.1,1.7
		c-0.2,0.3-0.3,0.6-0.4,0.9c-1,2-1.7,4.2-2.2,6.3c-0.6,2.5-1.1,5-1.4,7.5c-0.2,1.4-0.4,2.7-0.6,4.1c-0.1,1,0.1,2,0.6,2.9
		c1.2,1.8,3.1,2.9,5.2,3c0.6,0,1.2-0.1,1.8-0.4c0.6-0.3,1.2-0.6,1.7-1c1.4-1.1,2.8-2.2,4.2-3.4c1.8-1.5,3.5-3,5.2-4.7
		c1.5-1.5,2.8-3.2,4-5C657.4,523.9,657.4,522.5,656.7,521.5z M654.1,525.7c-0.1,1.5-1.1,2.7-2.5,3.1c-0.8,0.3-1.8,0.2-2.6-0.1
		c-1.3-0.5-2.6-1.1-3.8-1.8c-2.1-1.1-4-2.4-5.9-3.8c-1-0.7-1.5-1.8-1.5-3c0-2,1.6-3.6,3.6-3.6c0.6,0,1.1,0.1,1.6,0.4
		c1,0.5,1.9,1,2.8,1.5c2.2,1.2,4.3,2.5,6.5,3.8C653.6,522.8,654.3,524.3,654.1,525.7z"/>
	<path d="M635,689.3c-0.8-2.5-1.9-4.9-3.3-7.1c-1.4-2.3-3-4.5-4.6-6.7c-0.7-0.9-1.4-1.8-2.1-2.7c-0.7-1-1.8-1.6-3-1.8
		c-1.1-0.2-2.3,0-3.3,0.4c-1.3,0.4-2.4,1.4-3,2.7c-0.2,0.5-0.3,1-0.4,1.5c-0.2,1.6-0.4,3.2-0.5,4.7c-0.2,2-0.3,4.1-0.4,6.3
		c0,0.1,0,0.3,0,0.4c-0.1,2.5,0.1,5,0.6,7.5c0.3,1.6,1.7,2.8,3.3,2.7c0.5,0,1.1-0.1,1.6-0.3l11.7-3.1c0.5-0.1,0.9-0.3,1.3-0.5
		C634.7,692.8,635.6,691,635,689.3z M630.5,690.8c-0.8,0.3-1.6,0.5-2.4,0.7c-2.6,0.8-5.2,1.4-7.8,2c-0.7,0.2-1.3,0.2-2,0.1
		c-1.7-0.4-2.8-1.9-2.8-3.6c0-1.5,0.8-2.8,2.2-3.3c2.7-1.1,5.4-2,8.3-2.5c0.9-0.2,1.8-0.3,2.7-0.5c1.8-0.2,3.5,0.9,4,2.6
		C633.2,688.2,632.2,690.1,630.5,690.8L630.5,690.8z"/>
	<path d="M656.6,677.5c-1.3-2-2.8-3.8-4.5-5.5c-3-2.8-6.1-5.5-9.4-7.9c-0.3-0.2-0.6-0.4-0.9-0.5c-0.7-0.4-1.5-0.6-2.3-0.5
		c-1.5,0.1-3,0.8-4.1,1.9c-1.2,1.1-1.7,2.7-1.5,4.3c0.4,2.7,0.7,5.5,1.3,8.2c0.4,1.7,0.7,3.5,1.2,5.2c0.6,1.8,1.3,3.5,2.1,5.2
		c0.6,1.3,2.1,2,3.5,1.8c0.6-0.1,1.3-0.4,1.8-0.7l10.8-6.3c0.3-0.2,0.7-0.4,1-0.7c0.8-0.6,1.3-1.4,1.3-2.4
		C657.2,678.9,657,678.1,656.6,677.5z M652.4,680.3l-3.2,1.9c-2,1.2-4,2.3-6,3.4c-1.2,0.7-2.7,0.6-3.8-0.2c-1-0.6-1.5-1.7-1.6-2.8
		c-0.1-1.2,0.5-2.3,1.4-3.1c1.5-1.2,3.2-2.3,4.9-3.3c1.6-0.9,3.3-1.7,5-2.4c1.9-0.7,4,0.2,4.7,2.1
		C654.5,677.5,653.9,679.3,652.4,680.3L652.4,680.3z"/>
	<path d="M557.5,598.9c-0.4-1.2-1.3-2.2-2.4-2.8c-0.2-0.1-0.5-0.2-0.7-0.3c-2.1-0.9-4.2-1.7-6.3-2.5c-2.8-1-5.6-1.8-8.5-2.3
		c-1.1-0.2-2.2-0.3-3.3-0.3c-1.6-0.1-3.1,0.9-3.4,2.5c-0.1,0.4-0.2,0.8-0.2,1.2v13.2c0,0.4,0,0.8,0.1,1.2c0.3,1.6,1.8,2.7,3.4,2.6
		c0.5,0,1.1-0.1,1.6-0.1c2-0.2,3.9-0.6,5.8-1.1c3.7-1.1,7.3-2.4,10.8-3.9c0.3-0.1,0.6-0.3,0.8-0.4c0.9-0.5,1.6-1.3,2-2.2
		C557.9,602.1,558,600.4,557.5,598.9z M543.3,606.1c0,0.3-0.1,0.7-0.2,1c-0.5,2-2.5,3.2-4.4,2.7c-1.6-0.4-2.7-1.8-2.8-3.5
		c0-1.8,0-3.5-0.1-5.3s0-3.5,0.1-5.3c0-2,1.7-3.6,3.7-3.6c1.7,0,3.2,1.3,3.5,3c0.3,1.7,0.4,3.4,0.5,5.1
		C543.7,602.2,543.6,604.2,543.3,606.1L543.3,606.1z"/>
	<path d="M551.6,546.3c0-0.7-0.1-1.5-0.4-2.2c-1-2.3-2-4.7-3.1-6.9c-0.9-1.8-1.8-3.6-2.9-5.4c-1-1.6-2.1-3-3.3-4.4
		c-1-1.1-2.5-1.4-3.8-0.8c-0.4,0.2-0.8,0.5-1.2,0.8c-0.6,0.7-1.3,1.3-2,1.9l-7.6,7.7c-0.5,0.4-0.8,1-1,1.6c-0.4,1.2-0.1,2.5,0.9,3.4
		c1.9,1.8,4.1,3.3,6.4,4.5c2.4,1.3,4.9,2.5,7.4,3.6c1.1,0.5,2.2,0.9,3.3,1.3c1.4,0.6,3,0.5,4.3-0.4c1.2-0.7,2.1-1.8,2.7-3
		C551.5,547.4,551.6,546.8,551.6,546.3z M543.5,535.7c-0.9,1.2-1.8,2.3-2.8,3.3c-1.5,1.6-3.2,3.1-4.9,4.5c-0.4,0.3-0.9,0.6-1.4,0.8
		c-2,0.5-4-0.7-4.5-2.6c-0.3-1.2,0-2.5,0.8-3.4c2.3-2.3,4.5-4.7,6.9-6.9c0.2-0.1,0.3-0.3,0.4-0.5c1.4-1.5,3.7-1.5,5.2-0.1
		c0.4,0.4,0.8,1,1,1.5c0.1,0.3,0.2,0.7,0.2,1.1C544.3,534.2,544,535,543.5,535.7z"/>
	<path d="M593.1,587.6c0-0.7-0.1-1.5-0.4-2.1c-1.3-3.1-2.7-6.2-4.2-9.2c-1.1-2.2-2.5-4.3-4-6.2c-0.4-0.5-0.8-0.9-1.2-1.4
		c-0.6-0.7-1.5-1-2.5-1c-0.9,0-1.7,0.4-2.4,1c-0.7,0.7-1.5,1.4-2.2,2.1l-5.5,5.5c-0.7,0.7-1.4,1.4-2.1,2.1c-1.3,1.3-1.3,3.4,0,4.8
		c0.1,0.1,0.2,0.2,0.3,0.3c1.8,1.6,3.9,3,6,4.2c2.4,1.3,4.8,2.5,7.3,3.6c1.1,0.5,2.3,1,3.4,1.4c1.5,0.7,3.2,0.5,4.6-0.4
		c1.2-0.8,2.1-1.8,2.6-3.2C593,588.6,593.1,588.1,593.1,587.6z M585.8,575c0,0.8-0.3,1.5-0.8,2.1c-0.9,1.1-1.8,2.2-2.7,3.2
		c-1.6,1.7-3.4,3.3-5.2,4.7c-1.5,1.3-3.9,1.1-5.2-0.5c-1.2-1.5-1.1-3.6,0.3-5c2.3-2.3,4.5-4.7,6.9-6.9c0.2-0.2,0.3-0.3,0.4-0.5
		c1.4-1.4,3.8-1.5,5.2,0C585.4,573,585.8,574,585.8,575z"/>
	<path d="M572.2,634.4c-0.3-1.1-1-2.1-1.9-2.9c-1.4-1.4-3.6-1.9-5.5-1.1c-3.8,1.5-7.4,3.2-11,5.2c-2.1,1.2-4,2.5-5.8,4.1
		c-0.4,0.4-0.7,0.8-0.9,1.4c-0.4,1.2-0.1,2.5,0.7,3.4c0.3,0.3,0.6,0.6,0.9,0.9c2.7,2.7,5.3,5.3,8,8c0.3,0.3,0.7,0.7,1.1,1
		c1.3,1.3,3.5,1.3,4.8-0.1c0.1-0.1,0.1-0.1,0.2-0.2c1.7-2,3.3-4.2,4.5-6.5c0.6-1.2,1.2-2.3,1.8-3.5c1-2.2,2-4.4,2.9-6.7
		c0.3-0.7,0.4-1.4,0.4-2.1C572.3,635.1,572.3,634.8,572.2,634.4z M565,648.9c-0.3,2-2.2,3.4-4.2,3c-0.8-0.1-1.5-0.5-2-1
		c-0.8-0.8-1.6-1.5-2.4-2.3c-1.6-1.7-3.3-3.3-4.9-5c-0.8-0.8-1.1-1.8-1.1-2.9c0-1.3,0.8-2.5,2-3c1.2-0.7,2.7-0.6,3.8,0.2
		c0.9,0.6,1.7,1.3,2.5,2c2.1,1.8,3.9,3.8,5.6,6C564.9,646.8,565.2,647.8,565,648.9z"/>
	<path d="M561,579.7c-0.2-0.4-0.5-0.7-0.8-1c-2.5-2.6-5.1-5-7.9-7.3c-2.2-1.8-4.6-3.4-7.1-4.6c-1.2-0.6-2.8-0.4-3.8,0.6
		c-0.4,0.4-0.7,0.8-0.9,1.3l-5,12.1c-0.1,0.2-0.2,0.5-0.3,0.7c-0.4,1-0.2,2.2,0.4,3.1c0.4,0.6,1,1,1.7,1.2c2.2,0.8,4.6,1.3,6.9,1.6
		c2.6,0.3,5.3,0.5,8,0.5c1.5,0,3,0,4.5,0c1.2,0,2.4-0.5,3.2-1.4c1-1,1.6-2.3,1.8-3.8C561.8,581.8,561.6,580.7,561,579.7z
		 M549.8,573.7c-0.9,3.5-2.3,6.9-4.1,10.1c-0.2,0.3-0.3,0.6-0.6,0.8c-0.9,1.1-2.4,1.6-3.7,1.2c-1.4-0.3-2.4-1.4-2.6-2.8
		c-0.1-0.7,0-1.4,0.3-2c0.8-1.9,1.5-3.8,2.3-5.7c0.5-1.3,1.1-2.6,1.7-4c0.8-1.9,3-2.7,4.8-1.9c1,0.4,1.7,1.3,2,2.3
		c0.1,0.4,0.2,0.8,0.2,1.1C550,573.1,549.9,573.4,549.8,573.7L549.8,573.7z"/>
	<path d="M634.3,541.6c-0.4-0.4-0.9-0.7-1.4-0.9l-12.2-5c-0.2-0.1-0.5-0.2-0.7-0.3c-1.7-0.5-3.6,0.5-4.1,2.2c0,0,0,0,0,0
		c-0.7,2.1-1.2,4.3-1.5,6.5c-0.3,2.8-0.5,5.7-0.6,8.6c0,1.4,0,2.8,0,4.2c0,1.1,0.4,2.1,1.1,2.9c1.2,1.4,3,2.2,4.8,2.2
		c0.9,0,1.7-0.2,2.5-0.7c0.4-0.3,0.8-0.5,1.1-0.9c2.6-2.5,5.1-5.2,7.4-8c1.7-2,3.1-4.2,4.3-6.5c0.1-0.2,0.2-0.4,0.3-0.7
		C635.6,543.9,635.3,542.5,634.3,541.6z M628.1,550.1c-2.4-0.6-4.8-1.5-7.1-2.5c-1.2-0.5-2.3-1.2-3.5-1.8c-0.5-0.3-0.9-0.6-1.2-1.1
		c-1-1.3-1-3.1,0-4.4s2.7-1.8,4.2-1.2c2.9,1.1,5.9,2.3,8.8,3.6c0.3,0.2,0.7,0.3,1,0.4c1.9,0.8,2.7,2.9,1.9,4.8
		C631.6,549.6,629.8,550.5,628.1,550.1L628.1,550.1z"/>
	<path d="M586.8,507.8c-0.3-1.4-1.5-2.4-2.9-2.6c-0.5,0-1.1,0-1.6,0.1l-12.5,3.4c-0.4,0.1-0.8,0.2-1.2,0.4c-1.6,0.7-2.4,2.5-1.8,4.1
		c0.7,2.2,1.7,4.4,2.9,6.4c1.5,2.4,3.1,4.8,4.8,7.1c0.8,1,1.5,2,2.3,3c0.6,0.8,1.5,1.5,2.5,1.7c1.5,0.3,3.2,0.1,4.5-0.7
		c1.2-0.6,2-1.6,2.4-2.9c0.1-0.3,0.2-0.7,0.2-1.1c0.2-1.4,0.3-2.8,0.5-4.2c0.3-2.5,0.4-5,0.5-7.3
		C587.5,512.8,587.3,510.3,586.8,507.8z M584.2,515.7c-0.7,0.3-1.4,0.6-2.1,0.8c-2.7,1-5.4,1.7-8.2,2c-0.4,0-0.8,0.1-1.2,0.1
		c-2,0.1-3.7-1.5-3.8-3.5c0-1.6,0.9-3,2.4-3.5c0.5-0.1,0.9-0.3,1.3-0.4c3-0.9,6-1.6,9-2.4c2-0.5,4,0.6,4.5,2.6
		C586.7,513.1,585.8,514.9,584.2,515.7L584.2,515.7z"/>
	<path d="M588.1,552.4c-0.1-1.9-0.2-3.9-0.3-5.8c-0.1-1.8-0.4-3.7-0.8-5.5c-0.3-1.3-0.6-2.5-1.1-3.7c-0.4-1.3-1.7-2.2-3.1-2.2
		c-0.5,0-1.1,0.1-1.6,0.3l-12.4,5.1c-0.3,0.1-0.7,0.3-1,0.5c-1.3,0.9-1.7,2.6-1,4c1.1,2.4,2.5,4.6,4.2,6.6c1.3,1.6,2.7,3.2,4.2,4.8
		c1.2,1.3,2.4,2.5,3.7,3.8c0.9,1,2.2,1.5,3.5,1.4c1.5-0.1,3-0.6,4.1-1.7c0.8-0.7,1.3-1.6,1.5-2.6c0.1-0.4,0.1-0.8,0.1-1.2
		C588.1,555.1,588.1,553.7,588.1,552.4z M584.6,545.5c-0.2,0.2-0.5,0.3-0.7,0.5c-3.1,1.8-6.4,3.2-9.8,4.1c-0.7,0.2-1.5,0.3-2.2,0.1
		c-1.7-0.5-2.8-2.1-2.7-3.8c0.1-1.4,0.9-2.6,2.2-3.1c1.9-0.8,3.8-1.6,5.8-2.4c1-0.4,2-0.8,3-1.2c0.3-0.1,0.5-0.2,0.8-0.3
		c1.8-0.8,4-0.1,4.8,1.8c0.2,0.4,0.3,0.9,0.3,1.3C586.2,543.5,585.7,544.7,584.6,545.5z"/>
	<path d="M696.7,582.2c-0.7-2.5-1.3-5.1-2-7.6c-0.4-1.7-0.9-3.3-1.4-5c-0.2-0.6-0.4-1.2-0.8-1.8c-0.9-1.1-2.4-1.6-3.7-1.1
		c-0.3,0.1-0.6,0.2-1,0.3c-1.9,0.7-3.8,1.5-5.5,2.6c-3.5,2.1-6.9,4.5-10.1,7c-1.1,0.9-1.8,2.2-1.8,3.7c0,1,0.2,1.9,0.5,2.8
		c0.7,1.8,2.3,3,4.2,3.2l1.6,0.2c2,0.3,4,0.5,6.1,0.6c1.3,0.1,2.7,0.2,4,0.2h0.4c1.4,0,2.8-0.1,4.1-0.3c0.9-0.1,1.9-0.3,2.8-0.5
		c1.5-0.3,2.5-1.5,2.6-3C696.9,583.2,696.8,582.7,696.7,582.2z M691.7,585.6c-0.6,0.4-1.4,0.7-2.1,0.7c-1.5,0-2.8-0.9-3.3-2.2
		c-0.8-2-1.5-4-2-6.1c-0.4-1.6-0.7-3.2-0.9-4.8c-0.3-2,1.2-3.8,3.2-4.1c1.6-0.2,3.2,0.7,3.8,2.2c0.3,0.9,0.6,1.8,0.8,2.8
		c0.7,2.5,1.3,5,2,7.5C693.5,583.1,693,584.7,691.7,585.6L691.7,585.6z"/>
	<path d="M572.3,566.8c0-0.8-0.2-1.6-0.5-2.3c-1.3-3.3-2.8-6.5-4.5-9.6c-1.2-2.3-2.6-4.4-4.3-6.3c-0.2-0.3-0.4-0.5-0.7-0.7
		c-0.9-0.8-2.2-1.1-3.3-0.6c-0.6,0.2-1.1,0.6-1.5,1l-7.7,7.7c-0.6,0.6-1.2,1.3-1.9,1.9c-0.6,0.6-1,1.4-1.1,2.2
		c-0.1,1.1,0.3,2.2,1.2,2.8c1.8,1.6,3.8,3,6,4.2c3.4,1.8,6.8,3.4,10.4,4.9c0.3,0.1,0.6,0.2,0.9,0.3c1,0.3,2.2,0.3,3.2-0.2
		c1.3-0.6,2.4-1.6,3.1-2.8C572.2,568.5,572.4,567.7,572.3,566.8z M565,554.3c0,0.7-0.3,1.4-0.7,2c-2.3,3-5,5.8-8.1,8
		c-1.6,1.2-3.9,0.9-5.1-0.7c-0.3-0.4-0.5-0.9-0.7-1.4c0-0.2-0.1-0.5-0.1-0.7c0-1,0.3-2,1-2.7c1.8-1.8,3.5-3.6,5.3-5.4
		c0.7-0.7,1.3-1.3,2-2c0.6-0.6,1.4-1,2.2-1.1c2-0.3,3.8,1.1,4.1,3.2C565,553.8,565,554.1,565,554.3z"/>
	<path d="M588,645.4c0-1.1-0.5-2.2-1.3-3c-1-0.9-2.2-1.6-3.5-1.8c-1.1-0.3-2.3-0.1-3.3,0.5c-0.4,0.3-0.8,0.5-1.2,0.9
		c-2.7,2.6-5.2,5.4-7.6,8.3c-1.7,2-3.2,4.3-4.3,6.7c-0.6,1.2-0.5,2.6,0.4,3.6c0.3,0.4,0.7,0.7,1.1,0.9c0.3,0.2,0.7,0.3,1,0.5
		l7.7,3.2c1.4,0.6,2.8,1.1,4.2,1.7c0.6,0.2,1.2,0.3,1.8,0.3c1.3-0.1,2.4-0.9,2.8-2.1c0.1-0.3,0.2-0.6,0.3-0.9c1-3.1,1.5-6.3,1.7-9.5
		c0.1-1.9,0.2-3.9,0.2-6.3C588,647.7,588.1,646.6,588,645.4z M582.2,663.5c-0.4,0-0.8-0.1-1.2-0.3c-3.3-1.3-6.5-2.6-9.7-4
		c-1.6-0.7-2.5-2.4-2.1-4.1c0.4-1.7,2-2.9,3.7-2.9c0.3,0,0.6,0.1,0.9,0.2c3.6,1,7.1,2.4,10.3,4.3c0.9,0.5,1.6,1.4,1.8,2.5
		c0.4,2-1,3.9-3,4.3C582.7,663.5,582.5,663.5,582.2,663.5L582.2,663.5z"/>
	<path d="M639.7,595c0-0.5,0-0.9-0.2-1.4c-0.3-1-1-1.9-2-2.3c-0.5-0.2-1.1-0.3-1.6-0.2c-1.4,0.1-2.9,0.3-4.3,0.5
		c-1.9,0.4-3.8,0.9-5.6,1.6c-2.9,1-5.7,2-8.5,3.2c-1.3,0.5-2.2,1.5-2.7,2.8c-0.3,0.9-0.4,1.9-0.3,2.9c0.1,2,1.3,3.7,3.2,4.4
		c3.2,1.4,6.5,2.6,9.9,3.7c2.7,0.8,5.5,1.4,8.3,1.6c1.5,0.2,3-0.8,3.5-2.3c0.2-0.5,0.3-1.1,0.2-1.7L639.7,595L639.7,595z
		 M636.5,606.8c-0.1,2-1.8,3.6-3.8,3.5c-1.7-0.1-3.1-1.3-3.4-3c-0.1-0.6-0.2-1.2-0.3-1.9c-0.2-2.3-0.3-4.6-0.1-6.9
		c0.1-1,0.2-2,0.3-3c0.3-1.5,1.5-2.7,3.1-3c2-0.3,3.9,1.1,4.2,3.1c0,0.1,0,0.2,0,0.3c0,1.8,0.1,3.6,0.1,5.4S636.5,605,636.5,606.8
		L636.5,606.8z"/>
	<path d="M634.9,657c-1-2.2-2.3-4.2-3.8-6.1c-1.9-2.3-3.9-4.5-5.9-6.7c-0.7-0.8-1.5-1.5-2.2-2.2c-0.9-0.9-2.1-1.4-3.4-1.4
		c-1.6,0-3.1,0.6-4.2,1.6c-1,0.8-1.6,2.1-1.6,3.4c0,2.1,0,4.2,0.1,6.3c0.1,1.7,0.2,3.4,0.4,5.1c0.2,2.7,0.8,5.4,1.7,7.9
		c0.5,1.5,1.9,2.5,3.5,2.3c0.6-0.1,1.2-0.2,1.8-0.5l11.3-4.7c0.5-0.2,1-0.4,1.4-0.7c0.8-0.5,1.3-1.4,1.4-2.3
		C635.3,658.2,635.2,657.6,634.9,657z M630.4,659.3c-1.5,0.7-3,1.4-4.6,2c-1.8,0.7-3.5,1.4-5.3,2.1c-1.9,0.7-4-0.3-4.7-2.2
		c-0.6-1.6,0-3.4,1.5-4.3c0.7-0.5,1.5-0.9,2.3-1.3c2.6-1.3,5.3-2.4,8.1-3.1c0.7-0.2,1.4-0.2,2.1-0.1c1.7,0.4,2.8,2,2.8,3.7
		C632.5,657.5,631.7,658.7,630.4,659.3L630.4,659.3L630.4,659.3z"/>
	<path d="M689,559.4c-0.1-0.6-0.4-1.2-0.7-1.7c-2.1-3.6-4.1-7.2-6.2-10.8c-0.1-0.3-0.3-0.5-0.5-0.7c-0.2-0.3-0.4-0.5-0.7-0.7
		c-1.2-1-2.9-1.1-4.1-0.2l-0.9,0.6c-1.7,1.2-3.2,2.5-4.6,4c-2.7,2.9-5.3,6-7.7,9.2c-0.8,0.9-1.1,2.2-1,3.4c0.2,1.5,0.9,2.9,2,4
		c0.9,0.9,2.2,1.4,3.5,1.4c0.4,0,1-0.1,1.6-0.2c2.2-0.3,4.4-0.7,6.6-1.1c2.2-0.4,4.3-0.9,6.4-1.6c1.6-0.5,3.1-1.2,4.5-1.9
		C688.6,562.4,689.4,560.9,689,559.4z M684.9,562.2c-1,1.7-3.3,2.3-5,1.2c-0.4-0.2-0.7-0.5-0.9-0.8c-0.9-1.1-1.7-2.3-2.4-3.5
		c-1.3-2-2.4-4.2-3.3-6.4c-0.2-0.4-0.3-0.9-0.3-1.4c0-1.7,1-3.1,2.6-3.6c1.5-0.5,3.2,0.1,4.1,1.4c0.7,1.1,1.4,2.3,2.1,3.4
		c1.2,1.9,2.2,3.9,3.3,5.9C685.7,559.6,685.6,561.1,684.9,562.2L684.9,562.2L684.9,562.2z"/>
	<path d="M654.8,560c-0.1-0.8-0.4-1.5-0.9-2.1c-0.3-0.3-0.5-0.6-0.8-0.9l-7.3-7.3l-1.4-1.4c-0.3-0.3-0.7-0.6-1.1-0.9
		c-1.4-0.9-3.2-0.7-4.3,0.6c-0.1,0.2-0.3,0.3-0.4,0.5c-1.5,1.8-2.9,3.8-4,5.9c-1.8,3.4-3.4,6.9-4.9,10.5c-0.3,0.6-0.4,1.3-0.4,2
		c0,0.5,0.1,0.9,0.2,1.4c0.7,1.9,2.3,3.4,4.2,4c0.5,0.2,1.1,0.2,1.6,0.1c0.7-0.1,1.3-0.3,1.9-0.6c2-0.8,4-1.7,6-2.7
		c1.8-0.9,3.6-1.8,5.3-2.8c1.7-1.1,3.4-2.3,4.9-3.6C654.5,562.1,654.9,561,654.8,560z M649.4,564.6c-1.2,0.7-2.6,0.6-3.7-0.2
		c-0.5-0.4-1.1-0.8-1.6-1.2c-2.3-1.8-4.3-3.9-6.1-6.2c-0.3-0.3-0.5-0.7-0.7-1c-1.1-1.7-0.6-4,1.1-5c0.6-0.4,1.2-0.5,1.9-0.6
		c1,0,1.9,0.3,2.6,1c1.7,1.6,3.4,3.3,5.1,5c0.8,0.8,1.6,1.7,2.4,2.5c1.4,1.5,1.4,3.8-0.1,5.2C650,564.3,649.8,564.5,649.4,564.6
		L649.4,564.6z"/>
	<path d="M698.3,601v-6.5c0-0.7-0.1-1.5-0.5-2.1c-0.6-1.2-1.8-1.8-3.1-1.7c-1,0-2.1,0.2-3.1,0.3c-2.5,0.4-4.8,1-7.2,1.8
		c-2.8,0.9-5.5,2-8.2,3.1c-1.3,0.5-2.3,1.6-2.8,2.9c-0.4,1.1-0.4,2.3-0.2,3.5c0.2,1.3,0.9,2.5,2,3.2c0.3,0.2,0.7,0.4,1,0.5
		c2.4,1,4.8,2,7.3,2.8c2.7,1,5.6,1.7,8.5,2.2c0.9,0.1,1.9,0.2,2.8,0.2c1.3,0,2.5-0.8,3-2c0.2-0.6,0.3-1.2,0.3-1.8L698.3,601z
		 M695.1,606.2c0,1.8-1.4,3.3-3.2,3.6c-1.9,0.2-3.6-1-4-2.9c-0.1-0.8-0.2-1.5-0.3-2.3c-0.2-1.7-0.2-3.5-0.1-5.2
		c0.1-1.3,0.2-2.7,0.4-4c0.1-1.5,1.2-2.7,2.6-3c1.9-0.6,3.9,0.5,4.5,2.4c0.1,0.3,0.1,0.5,0.2,0.8c0.1,1.8,0.1,3.7,0.2,5.6
		S695.1,604.5,695.1,606.2L695.1,606.2z"/>
	<path d="M669.1,601L669.1,601v-6.7c0-0.2,0-0.4,0-0.6c-0.2-1.8-1.8-3.2-3.6-3c-1.6,0.1-3.3,0.3-4.9,0.7c-1.4,0.3-2.8,0.7-4.2,1.2
		c-3.2,1-6.3,2.2-9.4,3.5c-1.3,0.5-2.3,1.6-2.7,2.9c-0.3,1-0.4,2.1-0.2,3.2c0.2,1.4,0.9,2.7,2.1,3.4c0.4,0.2,0.7,0.4,1.1,0.6
		c2.5,1,5,2,7.6,2.9c2.7,1,5.4,1.7,8.2,2.1c0.9,0.1,1.8,0.2,2.7,0.2c1.3,0.1,2.5-0.7,3.1-1.9c0.3-0.5,0.4-1.2,0.3-1.8L669.1,601z
		 M665.8,606.4c0,1.4-0.9,2.6-2.1,3.1c-1.8,0.8-4,0-4.8-1.8c-0.1-0.3-0.2-0.6-0.3-0.9c-0.3-1.9-0.4-3.8-0.4-5.7c0-2,0.1-3.9,0.4-5.8
		c0.3-2,2.2-3.3,4.2-3c1.4,0.2,2.5,1.2,2.9,2.6c0.1,0.3,0.1,0.7,0.1,1.1c0,1.7,0.1,3.4,0.1,5.2S665.9,604.6,665.8,606.4L665.8,606.4
		z"/>
	<path d="M611.4,565.3c-0.1-1.1-0.7-2-1.7-2.5c-0.6-0.3-1.3-0.5-2-0.5h-13.1c-0.2,0-0.5,0-0.7,0c-1.8,0.1-3.2,1.7-3.1,3.5
		c0,0,0,0,0,0.1c0.1,2.2,0.5,4.4,1,6.5c0.5,1.7,1,3.4,1.6,5.1c0.8,2.3,1.7,4.6,2.7,6.9c0.5,1.3,1.6,2.3,3,2.7
		c0.8,0.2,1.6,0.3,2.4,0.3c2.1,0,4-1.3,4.8-3.2c1.3-3.1,2.5-6.3,3.5-9.5c0.8-2.4,1.3-4.9,1.6-7.4C611.4,566.7,611.4,566,611.4,565.3
		z M610,569.4c-0.1,1.7-1.3,3.2-3,3.5c-2.5,0.4-5,0.5-7.6,0.4c-1.4-0.1-2.7-0.2-4-0.4c-2-0.3-3.4-2.2-3.1-4.2
		c0.3-1.8,1.8-3.1,3.6-3.1c1.8,0,3.5-0.2,5.1-0.1s3.2,0,4.7,0.1c0.2,0,0.5,0,0.7,0C608.4,565.7,610,567.4,610,569.4
		C610,569.4,610,569.4,610,569.4z"/>
	<path d="M611.3,535.5c-0.4-1.5-1.8-2.5-3.4-2.4c-1.6,0-3.3,0-4.9,0h-8.7c-0.2,0-0.5,0-0.7,0.1c-1.7,0.2-2.9,1.7-2.8,3.4
		c0.1,2.4,0.5,4.8,1.2,7.1c1.2,3.9,2.5,7.8,4.2,11.5c0.5,1.4,1.7,2.4,3.1,2.8c0.8,0.3,1.8,0.3,2.6,0.2c1.1-0.1,2.2-0.5,3-1.3
		c0.6-0.6,1-1.3,1.3-2c1.5-3.4,2.7-6.9,3.8-10.4c0.8-2.4,1.2-4.9,1.4-7.5C611.5,536.5,611.4,536,611.3,535.5z M606.8,543.6
		c-2.2,0.3-4.4,0.4-6.6,0.4c-1.5,0-3.1-0.2-4.6-0.4c-2-0.2-3.5-2-3.3-4c0.2-1.5,1.2-2.8,2.7-3.2c0.3-0.1,0.6-0.1,0.8-0.1h5.2
		c1.8,0,3.5,0,5.2,0c2,0,3.7,1.7,3.6,3.7C610,541.8,608.6,543.3,606.8,543.6L606.8,543.6L606.8,543.6z"/>
	<path d="M611.4,506.8c-0.1-1.1-0.7-2-1.6-2.5c-0.7-0.3-1.4-0.5-2.1-0.5h-12.9c-0.3,0-0.6,0-0.9,0c-1.8,0.1-3.2,1.6-3.1,3.4
		c0,0.1,0,0.1,0,0.2c0.1,0.7,0.1,1.4,0.2,2c0.2,1.6,0.5,3.2,0.9,4.8c1.2,4,2.6,7.9,4.2,11.7c0.5,1.2,1.5,2.2,2.8,2.6
		c1.4,0.5,3,0.5,4.5,0c1.1-0.4,2.1-1.2,2.6-2.2c0.2-0.3,0.3-0.6,0.4-0.8c1.5-3.4,2.7-6.9,3.8-10.5c0.6-2.1,1-4.3,1.2-6.4
		C611.4,507.9,611.4,507.3,611.4,506.8z M609.8,511.8c-0.4,1.4-1.6,2.3-3,2.5c-3.8,0.5-7.7,0.5-11.5,0c-2-0.3-3.3-2.2-3-4.2
		c0.3-1.6,1.6-2.9,3.3-3c1.8-0.1,3.7-0.1,5.5-0.1l5.2,0.1c2,0,3.6,1.7,3.6,3.7C609.9,511.1,609.8,511.5,609.8,511.8L609.8,511.8z"/>
</g>
<g id="logoText">
	<path d="M747,732.2c-6.1,4.8-12.8,8.8-20,11.9c-1.7,0.7-3.5,1.3-5.3,1.6c-0.8,0.2-1.6,0.1-2.3-0.1c-0.7-0.2-1.4-0.6-1.4-1.4
		c0-0.8,0.4-1.4,1.1-1.7c0.8-0.3,1.7-0.6,2.6-0.8c9.4-2,17.4-6.6,24.6-12.8c0.8-0.8,1.2-2,1.1-3.1c0.1-4.8,1-9.5,2.6-13.9
		c1.1-3.1,3-5.9,5.5-8.1c1.1-0.9,2.3-2,3.9-1.3s2.3,2.2,2.6,3.8c0.8,5.5-1.4,10.1-4,14.6c-0.7,1.3-1.5,2.5-2.5,3.5
		c-2.9,2.6-3.2,5.9-3.5,9.5c-0.5,6-0.2,12.1-1.3,18.1c-1.4,8.5-4.1,16.7-8.1,24.3c-0.8,1.5-1.6,3.1-2.5,4.6
		c-0.7,1.2-0.4,1.7,0.9,1.9c5.9,1.3,11.8,2.9,17.5,4.8c4.3,1.3,8.4,2.9,12.4,4.7c0.7,0.3,1.4,0.7,2,1.1c0.9,0.6,1.3,1.7,0.9,2.7
		c-0.3,1.1-1.3,1.8-2.4,1.8c-0.8,0-1.7-0.3-2.4-0.8c-6.1-3.8-12.8-5.9-19.7-7.6c-3.7-0.9-7.3-1.8-11-2.8c-1-0.4-2,0-2.5,0.9
		c-9.7,14.4-23.6,22.8-39.8,28c-4.7,1.6-9.8,2-14.7,1c-8.6-1.8-10.4-7.4-7.3-14.8c1.9-4.6,5.9-7.5,9.8-10.2c7.2-5.1,15.4-7.7,24-9.2
		c6.1-1.1,12.4-1.5,18.6-1.3c2.3,0.1,4.6,0.1,6.8,0.4c1,0.2,2-0.3,2.5-1.2c3.6-5.7,6.2-11.9,7.8-18.5c1.9-8.5,2.4-17.1,3.3-25.7
		C746.8,734.9,746.9,733.8,747,732.2z M689.5,813.4c3.8,0,7.5-0.8,11-2.3c6.3-2.6,12.3-6,17.7-10.2c4.5-3.3,8.5-7,11.5-11.7
		c0.6-1,2.2-2,1.7-2.9c-0.7-1.1-2.5-0.8-3.8-0.9c-5.6,0-11.1,0.2-16.7,0.7c-8.6,0.3-17,2.9-24.3,7.3c-3.1,1.8-5.7,4.3-7.6,7.3
		c-2.7,4.5-1.6,11.3,5.4,12.3C686.1,813.3,687.8,813.4,689.5,813.4L689.5,813.4z M753.2,721.8c2.9-3.7,5.1-7.7,4.9-12.5
		c0-0.8-0.1-1.6-1-1.9s-1.4,0.6-1.7,1.2C753.1,712.7,752.7,717.1,753.2,721.8L753.2,721.8z"/>
	<path d="M609.7,813.1c0,1.6,0.3,3.4-1.7,3.8s-2.5-1.5-3.1-2.9c-2.4-6.4-4.1-13.1-5-19.8c-0.2-1.3-0.8-2.5-1.7-3.5
		c-4-4.5-9-7.5-14-10.5c-4.6-2.8-9.3-5.5-14-8.2c-1.9-1.1-2-1.1-2.9,0.9c-4.1,8.3-8.9,16.2-14.5,23.5c-1.8,2.5-3.9,4.8-6.3,6.9
		c-0.9,0.9-2,1.5-3.3,1.8c-0.9,0.3-1.9-0.3-2.2-1.2c-0.4-0.8,0-1.7,0.8-2.1c0,0,0.1,0,0.1-0.1c2.9-0.8,4.4-3.3,6.1-5.4
		c6.3-7.8,11.7-16.5,15.8-25.7c0.4-0.9,0.8-1.6-0.5-2.3c-8.4-4.2-16.7-8.6-25.9-11.2c-4.1-1.2-8.3-2.2-12.5-0.4
		c-0.9,0.5-2,0.2-2.6-0.7c-0.1-0.1-0.1-0.2-0.2-0.3c-0.5-1.2,0.4-1.9,1.4-2.3c3.7-1.9,7.5-1.7,11.4-0.8c10.1,2.3,19.5,6.5,28.8,11
		c2.8,1.3,2.8,1.4,4.1-1.3c4-8.4,8-16.8,12-25.1c1.3-2.8,2.9-5.4,4.6-7.9c1.6-2.3,3.2-2.5,5.4-0.7c1.4,1.3,2.5,3,3.1,4.8
		c4.1,10.5,6.9,21.5,8.4,32.7c1.1,8.1,2.1,16.3,3.4,24.4c0.6,4.1,2.5,7.9,3.3,11.9C608.8,806,609.4,809.5,609.7,813.1z M587.5,733
		c-1,1.7-1.7,2.9-2.3,4.1c-4.8,9.5-9.5,19.1-14.3,28.6c-0.6,1.2-0.5,1.7,0.7,2.4c6.5,3.6,13.1,7,19.4,10.9c2.5,1.6,5,3.2,7.9,5
		C596.3,766.7,594.3,749.6,587.5,733z"/>
	<path d="M406.6,809c0-13.7,0.4-27.5,3.2-41c1.9-9.1,4.6-17.9,10.3-25.5c4.2-5.7,9.7-10.2,16.1-13.3c1.2-0.5,2.2-1.5,2.8-2.7
		c1.5-3,3.2-6,4.8-9c0.7-1.5,2.4-2.4,4-2c3.2,0.4,6.3,1.3,9.3,2.7c2.7,1.4,3.6,3.3,2.8,6.3c-1,3.5-2.7,6.7-5,9.5
		c-2.1,2.5-5.1,4.1-8.4,4.4c-9,1.2-17.1,4.3-23.7,10.7c-5.1,4.9-7.3,11.2-8.7,17.8c-2,10-3.4,20.1-4.1,30.3
		c-0.7,9.2-1.1,18.4-1.6,27.6c0,0.3,0,0.6-0.1,0.9c-0.1,0.4-0.2,0.8-0.6,0.8s-0.5-0.5-0.5-0.8c-0.1-2-0.3-4.1-0.4-6.1
		C406.5,815.9,406.6,812.4,406.6,809z"/>
	<path d="M461.3,753.7c-2-0.2-3.8,0.9-5.3,2.7c-0.2,0.3-0.4,0.6-0.7,0.8c-0.8,0.8-1.5,2.7-2.7,1.9c-1.1-0.7,0-2.3,0.4-3.4
		c0.1-0.5,0.4-0.9,0.6-1.3c3.8-7.9,8.5-10,16.8-7.3c4.2,1.4,8.1,1.4,11.8-1.1c0.4-0.2,0.8-0.5,1.2-0.2c0.4,0.3,0.5,0.8,0.3,1.3
		c-1,3.6-1.7,7.3-5.5,9.5c-2.5,1.4-3.6,4.1-4.9,6.5c-2.2,4.2-4.4,8.4-7.5,12.1c-2.1,2.6-4.8,4.6-7.9,5.9c-4.1,1.5-7.2,4.8-8.5,8.9
		c-1.2,3.4-2.6,6.7-4,10c-2,5.3-6.7,9.1-12.3,9.8c-3.4,0.5-6.9,1.1-10.3,1.7c-0.9,0.2-1.9,0.2-2.4-0.7s0.1-1.9,0.8-2.5
		c0.6-0.6,1.4-1.2,2.1-1.7c5.1-3.5,10.3-6.8,15.2-10.6c3.1-2.3,5.5-5.5,7-9c0.7-1.7,1.6-3.3,2.4-5c2.7-6.1,7.5-11,13.6-13.8
		c4.7-2.2,7.2-6.5,9.7-10.8c0.5-0.8,0-1.1-0.6-1.4C467.6,754.5,464.5,753.8,461.3,753.7z"/>
	<path d="M842.4,787.7c0.8-1.1,1.8-2,2.9-2.8c2.1-1.2,3.8-1,5.5,0.8c1.2,1.4,2.2,2.9,2.9,4.5c0.8,1.7,1.9,3.2,3.2,4.5
		c1,0.9,1.4,2.1,0.3,3.1s-2.1,0.5-3-0.4c-1.5-1.4-2.3-3.4-3.4-5c-0.4-0.5-0.7-1.1-1-1.7c-1.9-3.1-2.6-3.1-4.7,0
		c-1.3,1.9-1.9,4.2-1.8,6.5c0.1,1.1,0.1,2.2-0.2,3.2c-0.1,1-1,1.9-2,2c-1.1,0.1-1.7-0.7-2.2-1.6c-0.7-1.7-1-3.5-1.1-5.3
		c-0.3-3.5-0.5-7.1-0.4-10.6c0.1-1.4-0.3-1.9-1.7-1.1c-1,0.5-2.2,0.7-2.8-0.6c-0.4-0.9-0.1-2,0.8-2.5c0.1-0.1,0.3-0.1,0.4-0.1
		c3.5-0.9,3.6-3.3,3.7-6.3c0.5-13.8,2.5-27.3,9.1-39.8c1.1-2.4,2.6-4.6,4.3-6.6c3.2-3.4,8-4.4,11.2,0.9c3,5.1,4.1,10.7,5.4,16.3
		c2.2,9.2-1.4,16.4-7.4,22.9c-4.8,5.1-10.5,9.3-16.9,12.4c-0.9,0.3-1.5,1.1-1.3,2.1C842.3,784.1,842,785.7,842.4,787.7z
		 M864.1,751.1c0-0.7-0.1-1.4-0.2-2.1c-1.1-5.5-2.6-10.8-4.5-16c-0.3-0.7-0.7-1.4-1.2-2c-0.5-0.8-1.5-1.2-2.4-0.7
		c-0.2,0.1-0.3,0.2-0.4,0.3c-1.2,0.9-2.1,2-2.8,3.2c-1.7,3.1-3.1,6.3-4.3,9.7c-3.9,10.2-5,20.8-5.8,31.5c-0.1,1.3,0.4,1.4,1.4,0.8
		c4.8-2.8,9.5-5.8,13.3-10S864.1,757.4,864.1,751.1z"/>
	<path d="M338.5,794.3c0.3-7.2,1.4-14.2,2.3-21.2c1-8.3,2.2-16.5,3.8-24.7c0.9-4.7,3-9,4.7-13.4c0.2-0.4,0.4-1,1-0.9
		c0.7,0.2,0.6,1,0.5,1.5c-0.5,3.9-1.1,7.7-1.6,11.6c-1.4,11.7-3.2,23.3-3.1,35.1c-0.1,2.3,0.5,4.6,1.5,6.6c1,2.1,3,3.4,5.3,3.4
		c2.4,0,4-1.4,5-3.5c0.6-1.3,1.1-2.8,1.8-4.1c0.3-0.6,0.6-1.4,1.6-1.2s0.8,1,0.7,1.7c-0.4,4.7-1.5,9.2-3.1,13.6
		c-0.9,2.5-2.1,4.8-3.6,7c-0.7,1-1.5,1.9-2.4,2.6c-4,3.2-8.7,2.5-11.5-1.8C338.9,803,338.6,798.6,338.5,794.3z"/>
	<path d="M492.4,791.3l7-10.8c1.3-2,1.5-2,3.6-0.8c1.5,0.8,2.8,1.9,3.9,3.2c2.6,2.9,3.1,5.9,1.2,9.3c-1.5,2.6-3.3,5-5.5,7
		c-0.8,1-2.3,1.1-3.3,0.3c-0.1-0.1-0.2-0.1-0.2-0.2c-2.2-1.9-4.4-3.7-6.8-5.4c-0.8-0.6-1.1-0.5-1.6,0.3c-1.4,2.2-3,4.2-4.9,5.9
		c-1.2,1.1-2.3,1.2-3.6,0.1c-2.1-1.9-4.3-3.7-6.6-5.2c-0.6-0.3-0.9-1-0.6-1.7c0.1-0.1,0.1-0.2,0.2-0.3l8-12.2c0.5-0.7,1.1-1.2,2-0.7
		c2.9,1.5,5.4,3.5,6.8,6.7C492.4,788.2,492.6,789.7,492.4,791.3z"/>
	<path d="M385.9,741c-1,5.2-1.7,10.4-2.1,15.7c-0.5,6.6-1.1,13.2-1.7,19.9c-0.7,8.9-3.2,17.5-7.4,25.3c-0.6,1.4-1.5,2.6-2.6,3.6
		c-0.2,0.3-0.6,0.4-1,0.3c-0.5-0.2-0.4-0.7-0.3-1.1c0.5-1.8,1.1-3.7,1.5-5.5c1.7-8.5,2.8-17.2,3.2-25.8c0.3-5.1,0.3-10.2,1.7-15.2
		c1.7-6,4.6-11.4,6.9-17.2c0.2-0.5,0.5-1,1.2-0.9C385.8,740.2,386,740.6,385.9,741C385.9,741,385.9,741,385.9,741z"/>
	<path d="M303.2,810.6c-0.7,0-1.4,0-1.7-0.6s0.3-1.1,0.7-1.6c2.8-3,6.2-5.3,9.3-8c2.8-2.3,5.5-4.7,8-7.3c2.3-2.5,4-5.5,5-8.7
		c1.9-5.9,3.8-11.9,5.7-17.8c0.2-0.7,0.5-1.3,0.8-2c0.3-0.6,0.7-1.4,1.6-1.1s0.6,1,0.5,1.7c-0.4,2.5-0.8,5-1.3,7.4
		c-1.3,8-3.3,16-5.9,23.7c-1.9,5.5-5.3,9.2-10.9,11C311.2,808.7,307.2,809.8,303.2,810.6z"/>
	<path d="M375.3,717.9c-0.1,1.8-0.6,3.5-1.7,5c-1.5,2.4-3.3,4.6-5.6,6.3c-1.2,1-2.3,1.2-3.6,0c-2.1-1.9-4.3-3.7-6.6-5.2
		c-0.7-0.3-1-1.1-0.7-1.8c0.1-0.2,0.2-0.3,0.3-0.4c2.7-4.2,5.5-8.3,8.2-12.5c0.5-0.8,1.2-1.3,2.1-0.8c3.2,1.8,6.1,3.9,7.3,7.5
		c0.1,0.3,0.2,0.7,0.3,1C375.3,717.3,375.3,717.7,375.3,717.9z"/>
	<path d="M785.6,794.3c3-0.3,6-1.1,8.8-2.2c0.5-0.2,0.9-0.3,1.3-0.5c1.1-0.3,2.4-0.6,2.9,0.8s-0.5,2-1.5,2.5c-3.7,2-7.7,3.3-11.9,4
		c-4.2,0.6-6.6-1-7.7-5c-0.2-0.9-0.8-1-1.5-1c-1.4,0-2.9-0.4-4.2-1c-1-0.5-1.8-1.3-1.4-2.5c0.5-1.4,1.7-1.5,2.8-1.2
		c1.5,0.6,3.2,0.6,4.7,0.2c1-0.3,1.9-0.9,2.5-1.8c1.3-2.2,3-4.2,5-5.8c1.3-1,2.9-1.5,4.6-1.3c2.7,0.3,3.9,2.4,3,4.9
		c-0.9,2.2-2.7,3.5-4.6,4.6c-1.4,0.8-2.9,1.5-4.4,2.1c-1,0.4-2,0.8-1.7,2.1s1.4,1,2.3,1.1C785.1,794.3,785.3,794.3,785.6,794.3z"/>
	<path d="M870.3,794.4c3.6-0.2,6.7-1.4,9.9-2.5c1.3-0.4,2.8-1.2,3.6,0.5s-1,2.3-2.1,2.9c-3.1,1.5-6.4,2.7-9.8,3.4
		c-1.8,0.4-3.7,0.3-5.5-0.3c-1.9-0.4-3.3-2-3.4-3.9c-0.1-1.3-0.7-1.6-1.8-1.6c-1.4,0-2.8-0.3-4-1c-1.1-0.6-1.7-1.4-1.3-2.6
		s1.5-1.4,2.7-1.1c1,0.2,1.9,0.8,3,0.6c2-0.3,3.7-0.8,4.8-2.9c1.1-2.1,2.8-4,4.8-5.3c2.6-1.7,5.8-1.5,7,0.3s0.3,4.9-2.2,6.7
		c-1.9,1.4-4,2.5-6.2,3.3c-1.1,0.4-2.3,0.7-2,2.3S869.6,794.1,870.3,794.4z"/>
	<path d="M525.7,789.2c-0.2,1.2-0.6,2.3-1.2,3.3c-1.4,2.7-3.2,5-5.4,7.1c-0.9,1.1-2.5,1.3-3.5,0.4c-0.1-0.1-0.2-0.2-0.3-0.3
		c-2.1-1.8-4.3-3.4-6.5-5.1c-0.7-0.3-1-1.2-0.6-1.9c0-0.1,0.1-0.2,0.2-0.3c2.6-4.1,5.3-8.1,7.9-12.2c0.3-0.6,1-0.9,1.7-0.7
		c3.3,0.8,7.5,5.7,7.7,9C525.7,788.8,525.7,788.9,525.7,789.2z"/>
	<path d="M819.7,789.1c0.1-1.5,0.3-3.1,0.4-4.7c0.1-0.9-0.3-1.3-1.2-1.7c-1.6-0.7-1.8-2.6-0.2-3.2c2.9-1.1,2.9-3.5,3.2-5.8
		c0.2-1.1,0.2-2.3,0.4-3.4c0.1-1,1-1.7,2-1.6c0,0,0.1,0,0.1,0c0.9,0,1.7,0.8,1.7,1.8c0,0.1,0,0.2,0,0.2c-0.1,1.4-0.2,2.9-0.3,4.3
		s0.2,2,1.8,1.5c1.6-0.5,3.3-0.8,4.9-1.1c1.2-0.2,2.3-0.1,2.9,1.3s-0.6,1.9-1.5,2.5c-2.3,1.3-4.9,2.4-7.5,3c-1,0.1-1.8,1.1-1.6,2.1
		c0,0,0,0,0,0c-0.1,3.1,0.1,6.1,0.8,9.1c0.7,2.7,1.8,3.5,4.6,3.6c0.8,0,1.5,0,2.3,0.2c0.9,0.1,1.5,0.9,1.5,1.8
		c0,0.8-0.6,1.5-1.4,1.7c-6,1.1-11.3,0.4-12.4-7.3C819.8,792,819.7,790.5,819.7,789.1z"/>
	<path d="M799,790.5c0.1-1.4,0.6-2.8,1.5-3.9c2.5-3.5,6.4-5.8,10.7-6.2c2.5-0.3,4.9,0.9,6,3.2c0.5,0.9,0.3,2-0.5,2.6
		c-0.7,0.6-1.8,0.6-2.4-0.1c0,0,0,0,0,0c-1.6-1.9-3.4-1.3-5.2-0.6c-1.5,0.6-2.8,1.6-3.9,2.8c-0.3,0.4-0.9,0.8-0.7,1.4
		c0.3,0.7,1.1,0.5,1.6,0.3c1.9-0.4,3.7-0.9,5.6-1.4c3.8-1,5.6,0.3,5.9,4.2c0,1.4,0.3,2.9,0.8,4.2c0.5,0.9,0.1,2-0.8,2.5
		c-0.1,0.1-0.2,0.1-0.3,0.1c-0.9,0.4-2,0-2.3-1c0-0.1-0.1-0.2-0.1-0.3c-0.5-1.3-0.8-2.6-1-4c-0.2-1.4-0.9-1.6-2.1-1.3
		c-2.3,0.9-4.7,1.5-7.1,1.9C801.3,795.3,798.9,793.5,799,790.5z"/>
	<path d="M634.4,789.9c0.1-2,1.5-3.8,3.2-5.4c2.4-2.3,5.4-3.7,8.6-4.1c2.4-0.4,4.7,0.7,6,2.8c0.6,1,0.7,2.1-0.3,2.9
		c-0.8,0.7-2,0.6-2.7-0.3c0,0,0,0-0.1-0.1c-1.3-1.4-2.8-1.3-4.3-0.7c-1.8,0.6-3.4,1.8-4.7,3.2c-0.3,0.4-0.7,0.8-0.4,1.3
		s0.9,0.4,1.3,0.3c1.9-0.4,3.7-0.9,5.6-1.3c4-1,5.7,0.2,6.1,4.2c0.1,1.4,0.3,2.8,0.7,4.2c0.4,1,0,2.1-1,2.5s-2.1,0-2.5-1
		c0-0.1-0.1-0.2-0.1-0.3c-0.5-1.2-0.8-2.4-1-3.6c-0.2-1.9-1.1-1.9-2.6-1.4c-2.2,0.9-4.4,1.5-6.8,1.8
		C636.4,795.3,634.3,793.6,634.4,789.9z"/>
	<path d="M616.6,790.9c1.1-1.7,1.9-3.2,2.9-4.4c1.9-2.7,5.7-3.4,8.4-1.5c0.7,0.5,1.2,1,1.6,1.7c1.8,2.6,2.5,5.7,3.7,8.5
		c0.5,1-0.7,2-1.9,1.9c-1-0.1-1.9-0.8-2.4-1.7c-0.9-1.7-1.7-3.4-2.7-5.1c-1.2-1.9-2.3-1.9-3.8-0.2c-1.6,2-2.6,4.3-4.4,6.1
		c-2,2-4.5,1.6-5.7-1.1c-0.9-2-0.6-4.2-0.9-6.4c-0.3-1.9,0-4-1.6-5.5c-0.5-0.7-0.4-1.6,0.2-2.1c0.5-0.7,1.5-0.9,2.3-0.5
		c1.1,0.6,2,1.6,2.4,2.8c0.4,1.1,0.8,2.3,1.1,3.4C616,788.2,616.2,789.3,616.6,790.9z"/>
	<path d="M659.8,800.9c-1.3,0-2.4-1-2.5-2.3c-0.5-2.8-0.9-5.7-1.4-8.5c-0.3-2.3-0.9-4.6-1.9-6.7c-0.5-1-0.6-2.1,0.5-2.7
		s1.9,0.1,2.7,0.8s0.8,2.4,1.9,2.2c0.7-0.1,1.2-1.5,1.9-2.3c1.6-1.8,3.4-3.4,5.4-4.7c0.8-0.5,1.6-0.9,2.4,0c0.7,0.7,0.7,1.8,0,2.5
		c-0.1,0.1-0.1,0.1-0.2,0.2c-1.3,1.1-2.4,2.4-3.4,3.7c-2.8,3.6-3.9,8.2-3.2,12.7c0.1,0.9,0.2,1.9,0.1,2.8
		C662.1,799.9,661.1,800.9,659.8,800.9z"/>
	<path d="M889.6,784.3c1.7-2.7,3.8-5,6.5-6.8c1-0.7,2.1-2.2,3.4-0.6s0.1,2.5-1,3.5c-2.7,2.3-4.6,5.4-5.5,8.9c-0.5,2-0.7,4-0.4,6
		c0.1,1,0.2,1.9,0.2,2.9c0,1.5-0.7,2.6-2.3,2.7s-2.4-0.9-2.6-2.4c-0.3-2.9-0.8-5.8-1.4-8.7c-0.3-2.1-0.9-4.2-1.8-6.2
		c-0.5-1.1-0.9-2.3,0.5-3s2.2,0.2,2.9,1.2C888.5,782.5,889,783.3,889.6,784.3z"/>
</g>
<g id="beauty">
	<path d="M628.2,878.5c-5.4,6.3-11.3,12.1-18.3,16.7c-4.3,2.8-9.1,4.4-14.3,3.3c-5.4-1.1-8.5-5.9-8.6-13.1
		c-0.3-15,6.2-26.9,16.4-37.2c4.5-4.6,9.7-8.2,16.2-9.4c8.2-1.5,12.3,1.9,11.8,10.2c-0.3,5.4-2.5,10.1-5.8,14.7
		c-0.8-1.4,0.1-2.1,0.5-2.8c2-4.2,3.2-8.5,2.7-13.1c-0.6-5.6-3.7-7.5-8.7-4.9c-9.8,4.9-16.6,12.8-21.8,22.1
		c-3.6,6.5-5.9,13.5-5.6,21.2c0.3,7,4.7,10.2,11.2,7.8c7.8-2.7,14.3-7.4,20.3-13c1.1-1,2.3-2.1,3.4-3.1
		C628.1,877.8,628.3,878,628.2,878.5z"/>
	<path d="M507.4,866.3c-2.1-1.7-1.2-3.6-0.3-5.4c1.9-3.9,5-6.8,8.2-9.7c7.7-7,16.1-13,26.3-15.6c9.9-2.6,11.7,2.4,10.2,10.4
		c-1.5,7.9-5,15.1-8.8,22.2c-3.5,6.6-7.2,13.1-10.9,19.7c-0.8,1.4-1.7,2.7-1.7,4.5c0,0.8-0.6,1.6-1,2.3c-1.2,2-3.2,2.3-5,1.4
		c-1.9-0.9-0.6-2.6-0.1-3.8c3.6-7.5,8.2-14.6,12.3-21.9c4.4-7.8,9-15.5,11.5-24.2c2.2-7.7-0.5-10.6-8.3-8.4
		c-9.2,2.6-16.7,8.1-23.8,14.3c-2.7,2.4-5.2,4.9-7.2,8c-1.1,1.7-2.3,3.4-1,5.6C507.8,866,507.7,866.2,507.4,866.3z"/>
	<path class="st1" d="M497.4,875.1c-1.8,1.1-3.1,2.9-5,3.9c-1.3,0.6-2.7,1.2-4.1,0.3c-1.4-0.9-1.3-2.5-1.1-4
		c0.3-2.2,1.3-4.2,2.2-6.2c0.7-1.5,1.8-1.3,2.9-1c1.4,0.4,1.3,1.4,0.9,2.5c-0.7,1.9-1.2,3.8-1.9,5.9c1.8,0.1,2.9-0.9,3.7-1.9
		c1.9-2.3,3.7-4.7,5.4-7.1c0.5-0.7,1.1-1.5,2.1-1.1c0.9,0.4,1.2,1.3,1,2.2c-1.8,8.1-4.4,15.8-11.1,21.2c-3.1,2.5-6.2,2-8.6-1
		c2,1.1,4,1.5,6,0c1.7-1.3,3.2-2.8,4.2-4.7C495.5,881.4,496.9,878.5,497.4,875.1z"/>
	<path class="st1" d="M338.6,871.8c0,2.7-3.9,8.2-6,8.9c-0.5,0.2-0.9,0.1-1.3-0.2c-0.5-0.5-1-0.9-1.5-1.4c-1.3-1.4-4.1-2-4.1-3.7
		c0-1.6,1.9-3.2,2.9-4.8c0.5-0.7,1-1.4,1.4-2.2c2.5-3.9,3.4-3.9,6.6-0.4C337.9,869.2,338.6,870.5,338.6,871.8z"/>
	<path class="st1" d="M875.6,872c0,2.1-4,7.8-6,8.6c-0.5,0.2-0.9,0.2-1.3-0.2c-0.4-0.4-0.8-0.8-1.3-1.2c-1.5-1.2-3.9-2.3-4.2-3.7
		c-0.3-1.9,2-3.5,3-5.4c0.3-0.5,0.6-1,1-1.4c1.2-1.1,1.1-3.6,3.4-3.4C872.4,865.7,875.6,869.9,875.6,872z"/>
	<path d="M489.2,862.7c1.8-2.9,3.3-5.4,4.8-7.8c0.5-0.8,1-1.5,0.1-2.3c-0.8-0.7-1.6-1-2.6-0.5c-0.9,0.4-1.6,1.1-2.2,1.8
		c-1.7,2-3.2,4.2-4.2,6.6c-0.8,1.9-1.9,2.2-3.8,2.1c-3-0.2-6-0.6-9,0.1c-0.7,0.2-1.6,0.2-1.4,1.4c0.2,1,0.9,1.2,1.7,1.1
		c0.9-0.1,1.7-0.2,2.6-0.3c2.4-0.1,4.9-0.2,7.8-0.4c-2.7,4.2-5.6,7.4-8.7,10.4c-1,1-2.3,2.5-3.6,1.6c-1-0.7-0.4-2.5,0-3.8
		c0.1-0.4,0.2-0.8,0.2-1.1c-0.1-0.8,0.7-2-0.8-2.3c-1.2-0.2-1.7,0.6-2,1.6c-0.7,2.3-2.1,4.1-3.9,5.6c-0.7,0.6-1.5,1.6-2.5,0.9
		c-1.1-0.8-0.2-1.8,0.1-2.6c0.8-2,1.9-3.8,2.7-5.7c0.4-0.9,0.4-1.9-0.9-2.4c-1.2-0.5-2-0.3-2.6,0.9c-0.3,0.6-0.7,1.2-0.9,1.8
		c-1.4,3.8-4.8,5.3-8.1,6.8c-0.8,0.4-2,0.8-2.5-0.5c-0.9-2.7-2.7-1.9-4.4-1.1c-3.5,1.5-3.5,1.5-4.8,1.2c2.1-2.3,4.4-4.1,7.5-4.5
		c0.8-0.1,1.8,0.8,2.1-0.6c0.3-1.1-0.3-1.9-1-2.5c-1.3-1.1-2.8-1.3-4.4-1c-2.8,0.5-5.2,1.9-7.2,4c-2.6,2.9-6,4.9-9.5,6.4
		c-1.3,0.6-2.7,1.1-3.9-0.4c0.9-1.1,2.3-1.1,3.3-1.8c2.5-1.6,3.7-4.1,2.4-5.4c-2-1.9-3.7-0.2-5.3,0.9c-0.2,0.2-0.5,0.3-0.6,0.6
		c-1.3,2.4-3.6,1.4-5.6,1.8c-2.9,0.6-3.4-1.2-4.1-3.3c-1.2-3.5-4.3-5.5-7.6-7.3c8-3,12.7-8.1,13.9-14.8c0.7-4.1-1.6-7.2-5.7-7.8
		c-2.7-0.3-5.1,0.1-7.4,1.8c-2.6,1.9-4.5,4.5-6.5,7c-0.3,0-0.5,0.7-0.7,0.4c-0.2-0.1-0.1-0.7,0.1-1.1c0.8-3.2,2-6.2,1.9-9.5
		c-0.1-3.5-1.8-5-5.2-4.2c-1.4,0.3-2.7,0.9-4,1.6c-6.1,3.1-11.1,7.6-15.4,12.9c-2.9,3.6-5.7,7.3-6.4,12c-0.2,0.7-0.8,1.5,0.5,1.8
		c1-5.4,4.1-9.8,7.5-13.8c4.3-5,9.1-9.5,15.4-11.9c3.8-1.4,4.8-0.5,4,3.5c-2.5,11.4-7.3,22-11.8,32.7c-1.2,2.8-3.2,4.9-6.5,6.2
		c-5.9,2.3-10.8,6.2-14.3,11.7c-3.7,5.8-3,12.4,1.7,16.2c1.9,1.6,4.3,2,6.5,3c2.3,0,4.6,0,7,0c0.1-0.1,0.2-0.4,0.4-0.4
		c10.3-1.5,18.5-6.8,25.5-14.3c4.6-5,7.9-10.9,8.1-17.8c0.1-3.7,1.5-4.2,4.3-4c0.4,0,0.8,0,1.2,0c1.3-0.2,1.4,0.4,1.2,1.5
		c-0.9,4.4,2.5,5.6,5.9,4.4c2.6-1,4.8-2.8,7.1-4.3c0.4,4.2,1.8,5.1,5.7,3.9c1.3-0.4,2.5-0.9,3.7-1.6c1.5-0.9,2.7-1.7,4.1,0.2
		c0.8,1.1,2.3,0.5,3.5,0.1c2.5-0.8,4.3-2.5,6.5-4.2c-0.2,1-0.4,1.7-0.5,2.5c-0.1,1.5-0.2,2.9,1.3,3.9c1.5,0.9,2.8,0.2,4.1-0.5
		c1.7-0.8,2.8-2.3,4.2-3.5c1.9,4.1,3.6,3.5,11.8-3.8c0.5,1.3-0.4,2.2-0.8,3.3c-1.7,5.5-4.2,10.8-3.9,16.8c0.2,3.4,1.6,4.8,5.4,4.8
		c-4.1-1.8-2.9-5.1-2.3-7.6c2.1-8.7,6-16.6,10.3-24.4c0.7-1.3,1.7-1.3,2.9-1.3c4.4-0.1,8.8,0,13.2-1.3
		C499.1,862.7,494.4,862.7,489.2,862.7z M393,867.5c2.7-6.9,5.5-13.7,9.9-19.8c1.6-2.2,3.3-4.2,5.9-5.3c2-0.8,4-0.9,5.7,0.5
		c1.6,1.3,1.8,3.1,1.3,5c-1.8,7.1-7.2,10.8-13.1,14.1c-1.2,0.6-2.4,1.2-3.5,1.9c-1.5,1.1-2.1,2.6-1.3,4.5c1-4.1,3.8-5.1,7.2-2.8
		c0.6,0.4,1.1,0.8,1.5,1.3c1.5,1.7,3.2,3.8,2.6,5.8c-0.4,1.3-3.3,0.8-5.1,0.9c-4.7,0.4-9.3,1.3-14.2,2.4
		C390.7,873.1,391.9,870.3,393,867.5z M409.8,877.2c-0.8,5.8-3.5,10.7-7.3,15.1c-6.4,7.3-14.1,12.8-23.7,15
		c-2.1,0.5-4.2,0.5-6.3,0.2c-6.1-0.9-9.2-6.5-6.8-12.6c3.2-8,10-12,18-15.5c-0.8,2.1-1.3,3.6-1.9,5c-0.7,1.7-0.1,2.3,1.6,2.2
		c1.7-0.1,3.1-0.7,3.4-2.5c0.9-6,5.1-7.5,10.3-8.2c3.5-0.5,7.1-0.8,10.6-1.4C410.1,874.1,410.1,875.6,409.8,877.2z"/>
	<path d="M766.9,873.3c-2,0.4-3.9,1.2-5.5,2.4c-2.7,1.9-5.2,1.1-8,0.1c1.4-2.9,3.9-4.2,6.4-5.4c1.2-0.6,2-1,1.3-2.5
		c-0.8-1.6-1.9-0.9-2.9-0.4c-2.3,1.1-4.4,2.4-6.4,3.8c-2.6,1.8-4.7,4.3-7.8,5.4c-0.8,0.3-1.8,1-2.7,0.1c-0.8-0.8-0.6-1.7-0.3-2.7
		c0.3-1.1,0.6-2.2,0.9-3.4c0.1-0.5,0.2-1.2-0.5-1.5c-0.7-0.3-1.4-0.3-1.9,0.3c-0.5,0.6-0.8,1.3-1.1,2c-0.9,2.1-2.5,3.7-4.3,5
		c-0.5,0.4-1.2,1-1.8,0.5c-0.6-0.5-0.2-1.3,0.1-1.9c0.8-1.8,1.7-3.6,2.5-5.5c0.4-0.9,1.5-2.2-0.2-3c-1.6-0.7-2.8-0.2-3.4,1.5
		c-0.4,1.1-0.9,2.1-1.4,3.1c-0.7,1.3-1.9,1-3.1,1c-0.6,0-0.9-0.3-1.1-1c-0.9-3.5-4.1-4.4-6.7-1.9c-1,0.9-1.8,2-2.6,3.1
		c-1.5,2-3.5,3.3-5.7,4.2c-0.9,0.3-2,0.7-2.7-0.1c-0.6-0.7-0.2-1.6,0.3-2.4c0.2-0.4,0.4-0.9,0.5-1.3c0.1-0.7,1.1-1.7-0.1-2.2
		c-1-0.4-1.9-0.2-2.7,0.9c-3,3.7-7.2,5.6-11.7,6.9c-1.3,0.4-2-0.2-2.2-1.5c-0.4-3.1,3.6-6.5,6.5-5.6c0.9,0.3,1.4-0.1,1.6-0.7
		c0.4-1.1,0.8-2.2,0.1-3.4c-0.6-1.2-1.7-1.1-2.8-1.1c-2.7,0.1-4.7,1.7-6.3,3.7c-1.3,1.8-2.9,3-4.9,3.7c0,0.4,0,0.8,0.6,0.4
		c1.2-0.3,1.7-0.2,1.7,1.4c-0.2,4.9,2.1,6.5,6.7,4.9c3.5-1.2,6.4-3.5,9.4-5.6c0.4,4.4,1.7,5.2,5.7,3.7c1.4-0.5,2.7-1.3,4.1-2
		c0.4,1.7-0.6,3.6,1.4,4.5c1.7,0.8,3.4,0.4,4.9-0.8c1.3-1,2.6-2.2,3-3.8c0.9-3.1,2.8-3.3,5.4-2.7c-0.2,0.8-0.5,1.4-0.5,2.1
		c-0.1,1.6-0.8,3.5,1.1,4.4c1.7,0.8,3.4,0.2,4.9-0.9c1.2-0.9,2.3-2,3.5-3c1.2,3,2.4,3.5,5.3,2.5c2.3-0.9,4-2.5,6.2-4
		c-0.2,3.7,2.9,3.5,5.2,4.4c-2.4,1.8-4.7,3.4-6.7,5.1c-1.9,1.7-1.3,3.9,1,4.6c3.8,1.2,11.3-4,10.7-7.9c-0.5-3.1,1.1-3.7,3-4.7
		c1.6-0.8,3.1-1.6,4.6-2.3C767.5,873.3,767.5,873,766.9,873.3z M718,879c-0.9-0.2-0.6-1-0.4-1.5c0.7-2.1,1.8-4,3.3-5.6
		c1.1-1.2,1.8-0.2,2.2,0.5C724,873.7,719.8,879.2,718,879z M749.9,885.4c1.8-2.6,4.4-4,7.1-5.5C755.2,882.6,753.2,884.8,749.9,885.4
		z"/>
	<path class="st1" d="M686.2,873.4c-1.1,0.4-2.2,0.8-3.2,1.3c-3,1.6-6,3.4-9.7,0.9c1.2-2.7,3.8-4,6.4-5.3c1.2-0.6,2-1.1,1.3-2.6
		c-0.7-1.4-1.6-0.9-2.6-0.5c-2.9,1.4-5.7,2.9-8,5.2c-2,2-4.2,3.7-6.6,5.1c-0.7,0.4-1.4,0.9-2.1,0.4c-0.9-0.6,0-1.4,0.2-2.1
		c0.2-0.8,0.8-1.6,0.9-2.4c0.3-1.3,1.2-3-0.3-4c-1.4-0.9-2.6,0.2-3.6,1.1c-1.8,1.5-3.4,3.2-5.1,4.9c0.5-2.7,1.5-5.2,2.3-7.7
		c0.6-1.9,1.3-3.9-0.6-5.3c-1.8-1.3-3.7-0.3-5.4,0.6c-2.6,1.4-5,3.2-7.4,5.1c-0.6,0.5-1.1,1.4-2.2,0.5c-1.9-1.5-3.5-0.3-4.9,0.9
		c-2.9,2.5-5.5,5.4-8,8.3c0.2,0.2,0.4,0.4,0.6,0.6c1-1.1,2.1-2.2,3.5-3.8c-0.2,1.1-0.3,1.5-0.4,2c-0.3,1.9-0.5,3.8,1.5,4.9
		c1.9,1,3.5,0,5-1.2c2.5-2.2,3.9-5,4.3-8.2c0.1-1,0.2-1.9,1-2.6c2.5-2.1,5.2-3.9,8.2-5.3c0.6-0.3,1.3-0.6,1.9-0.1
		c0.8,0.6,0.2,1.3,0,1.8c-0.6,1.6-1.3,3.2-2.1,4.8c-1.3,2.7-2.6,5.3-3.5,8.2c-0.4,1.4-0.7,2.8,0.8,3.6c1.6,0.9,2.7-0.1,3.7-1.3
		c1.1-1.3,2.2-2.7,3.4-3.9c1-1,1.6-2.6,3.6-2.8c-0.4,2-1.9,4.2,0.2,5.5c2.2,1.3,4.2-0.3,6-1.6c1.3-1,2.5-2.1,3.9-3.2
		c0.4,3,2.9,3.2,5.2,3.7c-0.8,1.3-2.2,1.8-3.2,2.6c-1,0.9-2.1,1.7-3.2,2.5c-1.2,0.9-1.4,2.1-1,3.3c0.4,1.2,1.7,1.6,2.8,1.6
		c1,0,2.1-0.3,3.1-0.6c4.6-1.7,6.3-4.3,6.3-9.5c0-1,0.7-1.1,1.2-1.4c2.1-1.2,4.2-2.3,6.3-3.5C686.6,873.7,686.4,873.6,686.2,873.4z
		 M636.1,879.6c-0.4,0.2-0.9,0.4-1.3,0c-0.6-0.6-0.3-1.3-0.1-1.9c0.5-1.8,3.4-5.5,5.5-7C640.8,873.3,638.5,878.6,636.1,879.6z
		 M669.8,885.4c1.8-2.5,4.3-4.1,7-5.4C675.1,882.6,673.1,884.8,669.8,885.4z"/>
	<path class="st1" d="M818,873.3c-2,0.4-3.9,1.2-5.5,2.3c-2.7,1.9-5.2,1.1-8,0.1c1.4-2.9,3.9-4.1,6.4-5.4c1.1-0.6,2-1,1.3-2.5
		c-0.8-1.6-1.9-0.9-2.9-0.4c-2.3,1.1-4.4,2.4-6.4,3.8c-3.1,2.3-6.1,4.7-9.7,6.2c-1.4,0.6-2.8,1.3-4.3-0.4c1-0.5,1.8-0.9,2.6-1.3
		c1.3-0.6,2.4-1.4,3.1-2.5c0.6-1,1-2.2,0.1-3.2c-1-1.1-2.2-0.9-3.4-0.3c-1.7,0.8-3.3,1.9-4,3.7c-0.8,2.2-2.5,3.1-4.3,4
		c-0.6,0.3-1.4,1.1-2.1,0.3c-0.5-0.6,0-1.3,0.3-1.9c0.5-1.2,1-2.5,1.5-3.7c0.4-1,0.4-2-0.5-2.7c-0.9-0.8-2.1-0.4-3,0.2
		c-1.6,0.9-2.9,2.3-4.1,3.6c-0.4,0.5-0.7,1.5-1.9,1.1c1.2-2.6,2.4-5.2,3.6-7.7c0.7-1.3,0.2-2.3-1-2.8c-1.3-0.5-1.7,0.3-2.3,1.5
		c-1.2,2.6-2.3,5.3-4.5,7.2c-0.3,0.4-0.4,0.7,0,1.1c-0.7,1.9-1.6,3.7-2.2,5.6c-0.4,1.3-0.2,2.7,1.2,3.5c1.3,0.7,2.1-0.3,2.9-1.1
		c2.7-3,5.4-6,8.1-9c-0.1,1.3-0.6,2.4-1,3.5c-0.5,1.1-0.7,2.3,0.1,3.3c1,1.2,2.4,0.9,3.5,0.4c1.6-0.6,3-1.7,4.5-2.5
		c1,3,2.6,3.9,5.7,2.9c2.6-0.8,4.8-2.4,6.9-4.1c0.5-0.4,1.2-1.6,1.6-0.2c0.8,2.6,3,2.5,5.3,3.2c-2.4,1.8-4.7,3.4-6.7,5.2
		c-1.9,1.7-1.3,3.9,1.1,4.6c3.9,1.1,11.3-4.1,10.7-7.9c-0.5-3,1-3.6,2.8-4.5c1.6-0.8,3.3-1.6,4.9-2.5
		C818.6,873.3,818.5,873,818,873.3z M801,885.4c1.8-2.6,4.3-4.1,7-5.5C806.3,882.6,804.2,884.7,801,885.4z"/>
	<path class="st1" d="M831.5,877.3c2.1-1.2,4.2-2.3,6.2-3.5c-0.1-0.3-0.3-0.4-0.6-0.5c-1.5,0.6-3.1,1.1-4.4,1.9
		c-2.8,1.8-5.5,1.9-8.5,0.3c1.3-2.8,3.8-4,6.3-5.2c1.3-0.6,2.2-1.2,1.4-2.7c-0.8-1.5-1.9-0.7-2.9-0.2c-3.8,1.7-6.9,4.6-11,5.8
		c0.2,0.2,0.4,0.3,0.6,0.5c0.6-0.2,1.3-0.3,2.1-0.6c-0.3,1.6-0.7,3,0.6,4.2c1.1,1,2.7,1,4.3,1.6c-2.4,1.8-4.4,3.3-6.5,4.9
		c-1.3,0.9-1.6,2.2-1,3.6c0.6,1.3,1.9,1.6,3.2,1.5c1.7-0.1,3.4-0.7,4.8-1.7c2.7-2,5.7-4,4.3-8.1C830,877.8,830.9,877.7,831.5,877.3z
		 M820.7,885.4c1.8-2.5,4.4-4,7.1-5.4C826,882.6,824.1,884.8,820.7,885.4z"/>
	<path d="M565.5,873.4c-1,0.4-2,0.7-2.9,1.1c-3.1,1.6-6.2,3.6-9.9,1c1.3-2.8,4-4.1,6.6-5.3c1.2-0.5,1.6-1.2,1-2.4
		c-0.6-1.3-1.5-1.1-2.4-0.6c-1.9,1-3.7,2-5.5,3.1c-2,1.2-4,2.6-3.7,5.4c0.4,2.7,2.9,2.5,4.9,3.1c-0.8,1.3-2.2,1.7-3.2,2.6
		c-1,0.9-2.1,1.7-3.2,2.5c-1.2,0.9-1.4,2.1-1,3.3c0.4,1.2,1.7,1.6,2.8,1.6c1,0,2.1-0.3,3.1-0.6c4.6-1.7,6.3-4.3,6.3-9.5
		c0-1,0.7-1.1,1.2-1.4c2.1-1.2,4.2-2.3,6.3-3.5c0.9,0,1.6-0.3,2.1-1C567.1,872.3,566.3,873,565.5,873.4z M549.1,885.4
		c1.7-2.6,4.4-4.1,7-5.5C554.4,882.6,552.3,884.7,549.1,885.4z"/>
</g>
</svg>
