<svg id="leatherTriangle" class="leatherTriangle" name="leatherTriangle" xmlns="http://www.w3.org/2000/svg" viewBox="0 0 695.82 603">
    <g id="anar"><path class="cls-1" d="M339.58,479c-2.79-.54-5.59-1-8.37-1.64a79.41,79.41,0,0,1-54-41.91A80.08,80.08,0,0,1,270,412.75a72.05,72.05,0,0,1-.44-20.57,77.29,77.29,0,0,1,17.56-40.78,80.12,80.12,0,0,1,27.12-21.09,47.7,47.7,0,0,1,7.66-3.08c3.49-1,5.08-3.49,5.69-6.77.91-4.95-.42-9.42-3.15-13.52a26.38,26.38,0,0,0-4-5c-.31-.28-.75-.58-.57-1.06s.8-.4,1.25-.41a19.32,19.32,0,0,1,15.5,6.51c1,1.12,1.06,1.1,1.6-.34a65.83,65.83,0,0,1,9.34-17.38c.38-.49.72-.85,1.17-.12,1.49,2.48,3.39,4.69,4.75,7.26A90.09,90.09,0,0,1,358.11,307c.35,1,.57,1.13,1.33.28A19,19,0,0,1,375,300.51c.5,0,1.15-.23,1.42.35s-.39.86-.73,1.22c-4.43,4.64-7.7,9.78-7.29,16.55a12.32,12.32,0,0,0,.5,3.09,7.87,7.87,0,0,0,5.23,5.51,78.57,78.57,0,0,1,51.64,60.24c.32,1.82.72,3.63,1.09,5.44v16.26c-.1.36-.23.72-.3,1.09-.63,3.16-1.09,6.37-1.89,9.49a79.17,79.17,0,0,1-59.59,57.58c-2.87.62-5.77,1.13-8.65,1.69ZM327.92,305.7a25.18,25.18,0,0,1,3.45,5.82,20,20,0,0,1-1.21,18.85A3.62,3.62,0,0,1,328,332.1a72.93,72.93,0,0,0-33.6,20.82,70.94,70.94,0,0,0-17.3,61.89A68.74,68.74,0,0,0,294.36,449a70.51,70.51,0,0,0,41.09,22.5,72,72,0,0,0,33.68-2C386,464.25,399.4,454.31,409,439.43a68.08,68.08,0,0,0,11.2-35.71,70.09,70.09,0,0,0-3.38-24.85,72.52,72.52,0,0,0-16.55-27.47,73.28,73.28,0,0,0-32-19.25,2.94,2.94,0,0,1-1.81-1c-2.77-4.46-4.21-9.22-3.22-14.52a24.56,24.56,0,0,1,5-10.85,10.9,10.9,0,0,0-4.68,2.6,23.55,23.55,0,0,0-5.05,8c-.15.41-.28.87-.81.87s-.62-.46-.75-.88c-.92-2.9-1.79-5.81-2.82-8.67a33.41,33.41,0,0,0-4-8.3c-1.92-2.7-2.2-2.7-4.05.05-3.42,5.1-5,10.92-6.72,16.71-.14.46-.12,1-.71,1.11s-.86-.47-1-1a26.65,26.65,0,0,0-2.94-5.53A11.76,11.76,0,0,0,327.92,305.7Z"/><path class="cls-1" d="M371.36,393.16c3.78,0,4.61.59,4.79,3.48a52.35,52.35,0,0,1,0,9.2c-.23,1.94-1.2,2.68-3.12,2.8-2.94.16-5.59-1-8.29-1.82a26.52,26.52,0,0,1-4.9-1.89,4.39,4.39,0,0,1-2.56-3.81,4,4,0,0,1,2.33-4.06A41.77,41.77,0,0,1,371.36,393.16Zm1.56,7.83h0c0-1.29,0-2.57,0-3.85a1.74,1.74,0,0,0-1.6-1.87,2,2,0,0,0-2.41,1.32,17.08,17.08,0,0,0,0,8.58,2,2,0,0,0,2.38,1.35,1.78,1.78,0,0,0,1.65-2C373,403.36,372.92,402.17,372.92,401Z"/><path class="cls-1" d="M392.19,393.16c3.75,0,4.58.61,4.77,3.4a53.09,53.09,0,0,1,0,9.35c-.19,1.83-1.16,2.64-3,2.72a12.82,12.82,0,0,1-3.95-.43,77.1,77.1,0,0,1-8.75-3,4.43,4.43,0,0,1-3-4.37,4.14,4.14,0,0,1,2.77-4.09C384.85,395.11,388.81,393.51,392.19,393.16Zm1.5,7.73c0-1.28.06-2.55,0-3.83a1.73,1.73,0,0,0-1.79-1.82,2.08,2.08,0,0,0-2.34,1.64,21.06,21.06,0,0,0,0,8,2.05,2.05,0,0,0,2.34,1.63,1.72,1.72,0,0,0,1.78-1.82C393.75,403.45,393.69,402.17,393.69,400.89Z"/><path class="cls-1" d="M347.72,331.63a27.88,27.88,0,0,1,5.19.25c2,.43,3.26,1.81,2.85,3.86a54.85,54.85,0,0,1-3.93,12.31,4.11,4.11,0,0,1-4.31,2.39,4.15,4.15,0,0,1-3.87-2.63,55.6,55.6,0,0,1-3.7-11.49c-.59-2.71.55-4.1,3.3-4.53A37.62,37.62,0,0,1,347.72,331.63Zm.12,3.44v0c-1.24,0-2.47,0-3.71,0a1.94,1.94,0,0,0-2.16,1.66,2,2,0,0,0,1.61,2.38,17.23,17.23,0,0,0,8.59,0,2,2,0,0,0,1.36-2.38,1.69,1.69,0,0,0-1.85-1.59C350.4,335,349.12,335.07,347.84,335.07Z"/><path class="cls-1" d="M298.87,400.89a26.23,26.23,0,0,1,.15-5.39,2.56,2.56,0,0,1,2.62-2.33,12,12,0,0,1,3.82.29,66.43,66.43,0,0,1,9.29,3.16A4.34,4.34,0,0,1,317.7,401a4.22,4.22,0,0,1-3,4.19c-3.94,1.49-7.8,3.32-12.12,3.42-2.52.06-3.44-.76-3.66-3.31C298.76,403.84,298.87,402.36,298.87,400.89Zm7.61.08h0c0-1.23.08-2.46,0-3.68a2.1,2.1,0,0,0-2.29-2c-1.24,0-1.78.73-1.94,1.85a27.63,27.63,0,0,0,0,7.49c.16,1.21.67,2.08,2.09,2a2.15,2.15,0,0,0,2.18-2.17C306.54,403.25,306.48,402.11,306.48,401Z"/><path class="cls-1" d="M319.63,400.81c0-1.47-.07-2.94,0-4.41.12-2.17,1.31-3.31,3.48-3.23a31.11,31.11,0,0,1,13.72,4.27c2.26,1.23,2.32,5,.36,6.69a8.39,8.39,0,0,1-2.86,1.55c-3.64,1.2-7.14,2.91-11.08,2.94-2.47,0-3.55-1-3.64-3.54-.05-1.42,0-2.84,0-4.27Zm7.63.11a15.52,15.52,0,0,0-.12-4,2.12,2.12,0,0,0-2.32-1.69,1.81,1.81,0,0,0-1.83,1.81,30.8,30.8,0,0,0-.05,7.37c.12,1.19.57,2.13,2,2.12a2.2,2.2,0,0,0,2.3-2.23C327.35,403.2,327.26,402.06,327.26,400.92Z"/><path class="cls-1" d="M348,469.93c-1.56,0-3.13.05-4.69,0-2.15-.09-3.16-1.22-3.16-3.38a5.32,5.32,0,0,1,.12-1.27,67.24,67.24,0,0,1,3.46-10.83c.88-2,2.28-3.19,4.61-3.08s3.4,1.33,4.21,3.25a74.93,74.93,0,0,1,3.36,10.56c.78,3.06-.6,4.72-3.78,4.78-1.37,0-2.75,0-4.13,0Zm.14-3.18h0c1.18,0,2.37,0,3.55,0s2-.36,2.13-1.63a2,2,0,0,0-1.65-2.45,17.85,17.85,0,0,0-8.16,0,2,2,0,0,0-1.74,2.28c.1,1.27,1,1.76,2.17,1.81S346.9,466.75,348.13,466.75Z"/><path class="cls-1" d="M347.75,352.15a28.43,28.43,0,0,1,5.32.24,2.87,2.87,0,0,1,2.52,3,9.2,9.2,0,0,1-.33,3,68.1,68.1,0,0,1-3.14,9.46c-.73,1.66-1.75,3.06-3.83,3.16a4.17,4.17,0,0,1-4.63-2.81A51.76,51.76,0,0,1,340,356.49c-.42-2.23.74-3.78,3-4.2A36.45,36.45,0,0,1,347.75,352.15Zm0,3.43h0c-1.28,0-2.56,0-3.83,0-1.12,0-2,.49-2,1.72a2,2,0,0,0,1.62,2.33,19.52,19.52,0,0,0,8.3.06,2.16,2.16,0,0,0,1.82-2.5c-.19-1.2-1.1-1.59-2.18-1.62C350.25,355.56,349,355.58,347.79,355.58Z"/><path class="cls-1" d="M417.71,400.94c0,1.42,0,2.84,0,4.27a3.12,3.12,0,0,1-3.49,3.4,22.74,22.74,0,0,1-7.31-1.67c-1.76-.59-3.5-1.21-5.2-1.93a4.19,4.19,0,0,1-2.84-3.89,4,4,0,0,1,2.57-4.18,44,44,0,0,1,11.61-3.71c3.33-.49,4.66.8,4.66,4.15Zm-3.13.63a37.21,37.21,0,0,0-.19-4.64c-.19-1-.7-1.74-1.88-1.74s-2.07.43-2.27,1.68a26.12,26.12,0,0,0,0,8c.2,1.25,1.1,1.68,2.27,1.69a1.75,1.75,0,0,0,1.87-1.74C414.53,403.59,414.54,402.31,414.58,401.57Z"/><path class="cls-1" d="M278.26,400.77c0-1.47,0-2.94,0-4.41a3,3,0,0,1,3.22-3.2,14.49,14.49,0,0,1,4.75.8,42.91,42.91,0,0,1,8.65,3.24,4.16,4.16,0,0,1,.17,7.34,22.47,22.47,0,0,1-5.26,2.12,35.93,35.93,0,0,1-6.84,1.89c-3.36.43-4.7-.71-4.7-4.08v-3.7Zm3.19.07h0c0,1.23,0,2.47,0,3.7.05,1.08.43,2,1.72,2s2.22-.28,2.47-1.61a22,22,0,0,0,0-8.2c-.25-1.33-1.28-1.66-2.49-1.58s-1.62.9-1.67,1.93C281.4,398.36,281.45,399.6,281.45,400.84Z"/><path class="cls-1" d="M410.17,392.07a91.53,91.53,0,0,1-9.48-1c-2.12-.42-3.08-1.77-3.55-3.76-.41-1.78.38-2.92,1.65-3.92A57.31,57.31,0,0,1,409.07,377c2.85-1.4,4.62-.48,5.45,2.59.72,2.61,1.41,5.23,2,7.87.5,2.12,0,3-2,3.92a7.42,7.42,0,0,1-1.21.39A12.1,12.1,0,0,1,410.17,392.07Zm3-4.1a41.34,41.34,0,0,0-1.63-7.21c-.32-1.2-1-2-2.47-1.79a2,2,0,0,0-1.83,2.59,37.18,37.18,0,0,0,1.58,6.63,3.33,3.33,0,0,0,.55,1,2.14,2.14,0,0,0,2.59.94C413.06,389.77,413.22,388.94,413.17,388Z"/><path class="cls-1" d="M285.45,409.77c3.06.31,6.15.22,9.19.8,1.88.36,3.3,1.1,3.89,3.2a4.19,4.19,0,0,1-1.75,5A64.19,64.19,0,0,1,286.45,425c-2.39,1.14-4,.49-4.8-2-1-3.06-1.7-6.21-2.42-9.35-.32-1.41.51-2.54,2-3.2A13.89,13.89,0,0,1,285.45,409.77Zm3.09,9.91a25.44,25.44,0,0,0-2-7,2.1,2.1,0,0,0-2.78-1.05c-1.11.37-1.29,1.3-1.14,2.31a48.35,48.35,0,0,0,1.71,7c.35,1.11.88,2.18,2.37,1.93S288.57,421.94,288.54,419.68Z"/><path class="cls-1" d="M348.05,428.85c-1.52,0-3,.06-4.56,0-2.22-.1-3.59-1.58-3.25-3.76a46.34,46.34,0,0,1,4-12.58,4,4,0,0,1,4.08-2.27,3.87,3.87,0,0,1,3.71,2.41,47.47,47.47,0,0,1,3.77,11.47c.62,3.29-.7,4.72-4,4.76-1.23,0-2.47,0-3.7,0Zm-.48-3.11a30.43,30.43,0,0,0,4.59-.2c.93-.2,1.79-.52,1.79-1.68a2.1,2.1,0,0,0-1.77-2.39,23.58,23.58,0,0,0-8.21,0,2,2,0,0,0-1.76,2.25c0,1.2.85,1.68,1.85,1.8C345.37,425.71,346.71,425.7,347.57,425.74Z"/><path class="cls-1" d="M285.66,392.05c-1.05-.09-2.94.38-4.67-.62-1.58-.91-2.09-1.72-1.68-3.49.66-2.86,1.36-5.73,2.18-8.55.78-2.65,2.35-3.48,4.9-2.34a51.17,51.17,0,0,1,11.35,7c2.15,1.76.74,6.52-2,7.05A43.28,43.28,0,0,1,285.66,392.05Zm2.88-9.67c0-2.4-.4-3-1.8-3.3-1.19-.22-2,.34-2.44,2a48.3,48.3,0,0,0-1.67,6.91,2,2,0,0,0,2.73,2.3,3,3,0,0,0,1.66-1.87A41.3,41.3,0,0,0,288.54,382.38Z"/><path class="cls-1" d="M409.41,409.69a18,18,0,0,1,4.52.29c2.35.64,3.18,1.87,2.62,4.2-.68,2.86-1.43,5.71-2.28,8.52-.7,2.3-2.19,3.15-4.39,2.2a42.75,42.75,0,0,1-11.58-7.13,4.18,4.18,0,0,1,1.66-7C403.2,409.72,406.62,409.94,409.41,409.69Zm3.78,4.11c0-1,.05-2.05-1.28-2.37a2.17,2.17,0,0,0-2.78,1.34,25.15,25.15,0,0,0-1.89,7.68,2.11,2.11,0,0,0,1.9,2.29c1.16.26,1.8-.47,2.16-1.4A37.68,37.68,0,0,0,413.19,413.8Z"/><path class="cls-1" d="M338.42,462.13a12.69,12.69,0,0,1-.38,4.51c-.68,1.9-1.71,2.56-3.69,2.19a62.62,62.62,0,0,1-9.06-2.4c-2.39-.82-3-2.27-2-4.57a37.46,37.46,0,0,1,7.31-11.11,4.24,4.24,0,0,1,7.13,2c.69,2.5.41,5.1.7,7.63A13.94,13.94,0,0,1,338.42,462.13Zm-9.9-2.51c-2.22,0-3,.46-3.17,1.76s.38,2,2,2.43c2.14.6,4.3,1.13,6.46,1.64,1.12.26,2.24.26,2.77-1a2.32,2.32,0,0,0-1.49-3.11A26.72,26.72,0,0,0,328.52,459.62Z"/><path class="cls-1" d="M349.79,372.92c1.07,0,2.15,0,3.22,0,1.83.08,2.63,1.25,2.59,3.71a25.5,25.5,0,0,1-.88,5.12,59,59,0,0,1-2,7.22c-.66,1.8-1.7,2.67-3.26,2.58-1.36-.08-2.24-1-2.76-2.5a58.92,58.92,0,0,1-2.91-12.31c-.26-2.18.76-3.66,2.43-3.81.6-.06,1.21,0,1.82,0h1.71Zm-.44,7.69a12.92,12.92,0,0,0,3.31-.24,2.13,2.13,0,0,0,1.49-2.38,1.61,1.61,0,0,0-1.6-1.83c-1.89-.07-3.77-.08-5.66,0-.84,0-1.55.57-1.58,1.86a2.07,2.07,0,0,0,1.4,2.31A8.23,8.23,0,0,0,349.35,380.61Z"/><path class="cls-1" d="M348,449.4c-1.52,0-3,.05-4.55,0-2.22-.09-3.59-1.56-3.24-3.75a45.37,45.37,0,0,1,4-12.44,4,4,0,0,1,4.3-2.38,4.21,4.21,0,0,1,3.69,2.71,63.9,63.9,0,0,1,3.55,10.81,7.76,7.76,0,0,1,.12,2.26,2.71,2.71,0,0,1-2.71,2.76c-1.7.09-3.42,0-5.12,0Zm-1-2.94a28,28,0,0,1,4.37-.22c1.21,0,2.32-.25,2.61-1.66.24-1.19-.58-2.23-2.12-2.54a20.08,20.08,0,0,0-7.61,0,3.4,3.4,0,0,0-1.05.42,2,2,0,0,0-.95,2.19,1.69,1.69,0,0,0,1.62,1.52C344.84,446.3,345.83,446.36,347,446.46Z"/><path class="cls-1" d="M357.49,462.81c.5-3,.14-6.06.62-9.07a4.51,4.51,0,0,1,2.83-3.91,3.87,3.87,0,0,1,4.95,1.14,47,47,0,0,1,6.91,10.72c1.05,2.35.31,3.95-2.19,4.73q-4,1.24-8.09,2.21c-2.9.68-4.25-.3-4.77-3.27C357.61,464.52,357.57,463.66,357.49,462.81Zm4.65,2.54a34.38,34.38,0,0,0,7.56-2.11,1.64,1.64,0,0,0,1.15-1.64,2.17,2.17,0,0,0-1.27-1.92,2.6,2.6,0,0,0-1.52-.27,32.54,32.54,0,0,0-7.28,1.91,2.22,2.22,0,0,0-1.41,2.78C359.66,465.42,360.74,465.34,362.14,465.35Z"/><path class="cls-1" d="M313.91,392.63c-3.53-.39-7.13-.06-10.56-1.26a5.84,5.84,0,0,1-2.18-1.3,2.31,2.31,0,0,1-.67-2.7c1.13-3,2.39-6,3.81-8.9,1.09-2.21,2.59-2.6,4.82-1.34a42.42,42.42,0,0,1,6.29,4.89,36.06,36.06,0,0,1,3.37,3.06,3.91,3.91,0,0,1,1,4.65,4.28,4.28,0,0,1-4.13,2.9Zm-3.06-10.9c0-1.13-.24-2-1.41-2.38a2,2,0,0,0-2.6,1.15,38.66,38.66,0,0,0-2.89,6.94c-.27,1-.31,1.9.73,2.48a2.09,2.09,0,0,0,2.92-.57A23.29,23.29,0,0,0,310.85,381.73Z"/><path class="cls-1" d="M373,338.37a4.59,4.59,0,0,1-.67,2.34,49.85,49.85,0,0,1-6.57,10c-1.12,1.29-2.39,2-4.26,1.45a4.45,4.45,0,0,1-3.46-3.72,54.77,54.77,0,0,1-.44-12.07c.18-2.76,1.9-3.91,4.6-3.28s5.35,1.33,8,2.1C372.17,335.73,373,336.73,373,338.37Zm-5.82,3.79c2.3,0,3.16-.45,3.39-1.69.29-1.59-.92-2.07-2-2.44a41.37,41.37,0,0,0-7-1.81,1.82,1.82,0,0,0-2.3,1.37,2.07,2.07,0,0,0,1.23,2.7A27.38,27.38,0,0,0,367.16,342.16Z"/><path class="cls-1" d="M314.4,409.18c3.68,0,5.11,1.05,5.88,3.93a2.83,2.83,0,0,1-.52,2.66c-2.32,3-5.45,5.11-8.31,7.52a11.63,11.63,0,0,1-2.87,1.82c-1.62.69-2.95.37-3.78-1.16a75.7,75.7,0,0,1-4.18-9.66,2.44,2.44,0,0,1,1.06-2.86,7.83,7.83,0,0,1,3.55-1.37C308.36,409.48,311.55,409.46,314.4,409.18Zm-3.28,11.18a24.59,24.59,0,0,0-3.41-8,1.92,1.92,0,0,0-1.21-.7,1.94,1.94,0,0,0-2.47,2.22,27,27,0,0,0,3.27,7.84,1.71,1.71,0,0,0,2.15.94A2.26,2.26,0,0,0,311.12,420.36Z"/><path class="cls-1" d="M381.92,409.11a76.61,76.61,0,0,1,9,.88,9.8,9.8,0,0,1,2.19.63c2.44,1.11,2.92,2.29,1.9,4.75-1.12,2.67-2.27,5.33-3.51,7.95-1.06,2.23-2.55,2.73-4.63,1.41A47.76,47.76,0,0,1,376.6,416c-2-2.3-.36-6.28,2.74-6.78A24.05,24.05,0,0,1,381.92,409.11ZM385,419.8a2.4,2.4,0,0,0,1.62,2.76,1.81,1.81,0,0,0,2.24-1.07A30.07,30.07,0,0,0,392,414a1.76,1.76,0,0,0-1-2.35,2.11,2.11,0,0,0-2.68.7A24.5,24.5,0,0,0,385,419.8Z"/><path class="cls-1" d="M381,392.62c-1.56-.22-3.41-.06-4.48-1.92-1.53-2.67-1.43-3.83.78-6a69.6,69.6,0,0,1,8.25-7,7.44,7.44,0,0,1,1.48-.84c2-.89,3.32-.59,4.28,1.38,1.41,2.9,2.65,5.88,3.84,8.88.62,1.59.18,2.54-1.32,3.48a10.06,10.06,0,0,1-4.3,1.4C386.72,392.27,383.93,392.41,381,392.62Zm5.85-13.57a5.38,5.38,0,0,0-1,.42c-1.16.72-1.05,1.91-.78,2.93a25.82,25.82,0,0,0,2.65,6.41,2.25,2.25,0,0,0,.56.63,2.42,2.42,0,0,0,2.91.29c1-.55.84-1.46.59-2.37a45.59,45.59,0,0,0-2.78-6.84A2.35,2.35,0,0,0,386.83,379.05Z"/><path class="cls-1" d="M339.07,434.42c-.28,2.85-.58,6-.93,9.16a6.29,6.29,0,0,1-.94,2.67,2.62,2.62,0,0,1-3.48,1.31,73.27,73.27,0,0,1-9-3.62c-2.07-1-2.47-2.19-1.53-4.3a19.65,19.65,0,0,1,3.38-4.9,42.39,42.39,0,0,1,5.16-5.47,4.38,4.38,0,0,1,7.17,2.84C339,432.76,339,433.44,339.07,434.42Zm-5,9.82c2.13,0,3-1.41,2.28-2.92A2.77,2.77,0,0,0,335,440a37.81,37.81,0,0,0-6.08-2.39,4.19,4.19,0,0,0-1.83-.09,2,2,0,0,0-1.6,1.63,1.51,1.51,0,0,0,.56,1.78A31.7,31.7,0,0,0,334.11,444.24Z"/><path class="cls-1" d="M338.73,366.94c0,4.27-.8,5.51-3.7,6.56a2.72,2.72,0,0,1-2.58-.25,9.63,9.63,0,0,1-2-1.6c-2.53-2.82-5.25-5.49-7.16-8.83-1.43-2.52-1.07-4,1.53-5.15s5.52-2.31,8.33-3.33c2.05-.74,3.31-.07,4.16,2a14.37,14.37,0,0,1,.87,4.31C338.39,363,338.59,365.36,338.73,366.94ZM328,364.35a23.84,23.84,0,0,0,7.45-3.07,1.9,1.9,0,0,0,.9-2c-.2-1.58-1.11-2.16-3.06-1.64a37.45,37.45,0,0,0-6.83,2.77,1.87,1.87,0,0,0-1.24,2.28C325.5,363.9,326.34,364.4,328,364.35Z"/><path class="cls-1" d="M361.23,354a8.94,8.94,0,0,1,1.34.35c2.61,1,5.22,2,7.81,3.08a6.14,6.14,0,0,1,1.36.78c1.57,1.18,1.78,2,1,3.8-1.31,2.91-3.56,5.13-5.6,7.5-1,1.11-2.06,2.09-3.11,3.12a3.29,3.29,0,0,1-3.91.73c-1.62-.69-3-1.6-3.11-3.52a52.65,52.65,0,0,1,1-12.59C358.35,355.21,359.7,354,361.23,354Zm.17,3.48c-.74.07-1.51,0-1.87.82a2.41,2.41,0,0,0,.19,2.57,2.59,2.59,0,0,0,1,.8c1.78.8,3.55,1.6,5.37,2.3a5.64,5.64,0,0,0,2.52.38,2,2,0,0,0,1.8-1.58,1.48,1.48,0,0,0-.61-1.87A28.57,28.57,0,0,0,361.4,357.48Z"/><path class="cls-1" d="M357.22,434.74c0-.83,0-1.36,0-1.88-.19-3.17,2.2-4.26,4.63-4.81a2.45,2.45,0,0,1,2.06.8,44,44,0,0,1,8.6,10c1.67,2.77,1.22,4.09-1.7,5.37-2.61,1.15-5.26,2.2-7.92,3.19-2.19.81-3.64.07-4.43-2.14a11.55,11.55,0,0,1-.67-3.2C357.65,439.54,357.18,437,357.22,434.74Zm4.33,9.56a28.07,28.07,0,0,0,8.51-3.36,1.5,1.5,0,0,0,.64-2,2.1,2.1,0,0,0-2.17-1.51,18.92,18.92,0,0,0-8.24,3.17,2.1,2.1,0,0,0-.58,2.59C360,444.08,360.72,444.26,361.55,444.3Z"/><path class="cls-1" d="M299.31,378.28a50.7,50.7,0,0,1-12-2.69,6.76,6.76,0,0,1-1.57-1c-1.57-1.26-1.76-2-.85-3.81a82.31,82.31,0,0,1,4.6-7.86c1.54-2.36,2.91-2.49,5.22-.78a40.14,40.14,0,0,1,4.33,4.32,36.67,36.67,0,0,1,4.43,5.2,3.32,3.32,0,0,1,.14,3.86C302.77,377,301.8,378.35,299.31,378.28Zm-9.37-3.63a2.27,2.27,0,0,0,1.88-.91,24.8,24.8,0,0,0,3.91-6.9,2,2,0,0,0-1.15-2.61,1.85,1.85,0,0,0-2.51.66A29.48,29.48,0,0,0,288,372C287.43,373.46,288.31,374.61,289.94,374.65Z"/><path class="cls-1" d="M396.55,378.18c-2.78.27-4.06-1.38-5-4.17-.34-1,.33-2,.93-2.74a59.17,59.17,0,0,1,8.53-9.15c2.17-1.84,3.81-1.57,5.31.82,1.61,2.58,3.12,5.22,4.58,7.89.86,1.57.65,2.26-.68,3.5a6.59,6.59,0,0,1-2.19,1.3A53.49,53.49,0,0,1,396.55,378.18Zm3.5-11.82a2.05,2.05,0,0,0,.12.78,24.89,24.89,0,0,0,3.78,6.45,3.76,3.76,0,0,0,1.14.83,2,2,0,0,0,2.13-.3,1.5,1.5,0,0,0,.69-1.73,25.33,25.33,0,0,0-4.44-7.85,1.71,1.71,0,0,0-2.2-.43A2.12,2.12,0,0,0,400.05,366.36Z"/><path class="cls-1" d="M338.17,340.87a42.91,42.91,0,0,1-.51,7.51,4.45,4.45,0,0,1-3.62,3.87c-2,.55-3.21-.37-4.3-1.73a48.57,48.57,0,0,1-6.36-9.74c-1.44-3-.66-4.75,2.57-5.69q3.69-1.06,7.44-1.92c2.95-.68,4.53.51,4.76,3.58C338.26,338.12,338.17,339.5,338.17,340.87Zm-10.06,1.52a36.26,36.26,0,0,0,7.18-2,2.13,2.13,0,0,0,1.11-2.87c-.42-1.18-1.34-1.34-2.42-1.15a54.53,54.53,0,0,0-7,1.82c-1.14.37-2.11.94-1.86,2.41C325.32,341.77,326.27,342.4,328.11,342.39Z"/><path class="cls-1" d="M396.38,423.48c4.12.72,8.55,1.12,12.63,2.94,2.49,1.12,3,2.66,1.69,5-1.42,2.57-2.9,5.12-4.5,7.58-1.37,2.09-2.79,2.28-4.78.73-3.4-2.64-6.09-6-8.8-9.27a3.41,3.41,0,0,1-.45-4.21C393.22,424.51,394.5,423.5,396.38,423.48ZM408,429a1.57,1.57,0,0,0-1.08-1.66,2.37,2.37,0,0,0-2.93.78,23.14,23.14,0,0,0-3.79,6.61,2.16,2.16,0,0,0,1,2.79c1.12.71,2,.1,2.58-.71a28.79,28.79,0,0,0,4.06-7.11A3.1,3.1,0,0,0,408,429Z"/><path class="cls-1" d="M357.86,405.82a8.44,8.44,0,0,1,3,.93c3.29,1.58,6.68,3,9.65,5.14,2.46,1.8,2.67,3.13.64,5.38s-4.19,4.39-6.41,6.45c-1.55,1.45-2.49,1.35-4-.13a10.87,10.87,0,0,1-1.7-1.9,49.23,49.23,0,0,1-5.26-10.23C352.81,409,355.17,405.79,357.86,405.82Zm3.78,15.6a2.92,2.92,0,0,0,2.13-1c1.47-1.41,2.92-2.85,4.33-4.31a4.55,4.55,0,0,0,.9-1.43,2,2,0,0,0-2.31-2.76,3.34,3.34,0,0,0-1.76.87c-1.42,1.4-2.84,2.79-4.21,4.23a3.87,3.87,0,0,0-1,2A2,2,0,0,0,361.64,421.42Z"/><path class="cls-1" d="M318.31,362.59a3.18,3.18,0,0,1,2,.94,15.41,15.41,0,0,1,3,3.81,68.25,68.25,0,0,1,4,8.05,3.68,3.68,0,0,1-.94,4.41c-1.37,1.32-2.77,2.22-4.82,1.29a106.61,106.61,0,0,1-10.28-5.22,6.88,6.88,0,0,1-1-.79c-2.11-1.92-2.2-3.08-.23-5.13s4.15-4.18,6.23-6.26A3.48,3.48,0,0,1,318.31,362.59Zm3,5.25a1.76,1.76,0,0,0-.9-1.7,2,2,0,0,0-2.4.23,30.93,30.93,0,0,0-5.7,5.73,1.81,1.81,0,0,0,0,2.49,2,2,0,0,0,2.8.47,23.92,23.92,0,0,0,5.78-5.62A2.52,2.52,0,0,0,321.34,367.84Z"/><path class="cls-1" d="M371.55,448.28c0-3.1,4-5.59,6.42-4a41.47,41.47,0,0,1,9.81,8.59c2,2.52,1.85,3.65-.85,5.43-2.53,1.67-5.19,3.15-7.84,4.64a2.4,2.4,0,0,1-3.42-.65,5.31,5.31,0,0,1-1-1.52A67.51,67.51,0,0,1,371.55,448.28Zm12.37,3.6a17.69,17.69,0,0,0-8,4.5,2.12,2.12,0,0,0,0,2.77,1.79,1.79,0,0,0,2.42.47,34.68,34.68,0,0,0,7-4.08,1.84,1.84,0,0,0,.74-2.24A2,2,0,0,0,383.92,451.88Z"/><path class="cls-1" d="M387.53,434.7c2.32.22,4.27,1.59,6.37,2.53,1.81.82,3.51,1.89,5.25,2.85a6.76,6.76,0,0,1,.72.46c2.79,2.15,2.9,3.61.43,6.12-1.77,1.8-3.54,3.58-5.34,5.34-2.12,2.08-3.55,2-5.48-.26a20.28,20.28,0,0,1-2.94-4.52c-1.14-2.4-2.58-4.65-3.31-7.24C382.6,437.77,385.12,434.61,387.53,434.7Zm1.73,13.45a2,2,0,0,0,2.87,1.86,21.59,21.59,0,0,0,6.41-6.36,1.67,1.67,0,0,0-.77-2.53,2.69,2.69,0,0,0-3.27.59,46.66,46.66,0,0,0-3.79,3.65A4.66,4.66,0,0,0,389.26,448.15Z"/><path class="cls-1" d="M324.43,449.16c-.7,3.57-1.37,7.9-3.12,11.93-1.09,2.52-2.68,3-5,1.64s-4.69-2.7-7-4.12c-2.61-1.61-3-3.24-1-5.61a45.54,45.54,0,0,1,9.7-8.51,3,3,0,0,1,3.7-.13C323.19,445.35,324.65,446.31,324.43,449.16ZM312.3,452c-1.11.09-1.88.41-2.23,1.31a1.86,1.86,0,0,0,.62,2.3,30.37,30.37,0,0,0,7.36,4.26,1.67,1.67,0,0,0,2-.35,2.2,2.2,0,0,0,.54-2.24,3.05,3.05,0,0,0-1.38-1.75c-1.66-1-3.33-2-5-2.93A9.86,9.86,0,0,0,312.3,452Z"/><path class="cls-1" d="M338.2,406c2.66.06,5,3.19,4.1,5.56a49.48,49.48,0,0,1-5.63,10.82,3.92,3.92,0,0,1-.27.33c-2.32,2.76-3.63,2.85-6.17.31a71.53,71.53,0,0,1-5.9-6.16c-1.24-1.58-1.18-2.38.15-3.87a7.47,7.47,0,0,1,2.09-1.71c3.11-1.62,6.16-3.36,9.4-4.72A7,7,0,0,1,338.2,406Zm-1.89,13.5a1.26,1.26,0,0,0-.08-.46,14.52,14.52,0,0,0-6.87-6.88,1.85,1.85,0,0,0-2.15.73A1.65,1.65,0,0,0,327,415a22,22,0,0,0,6.39,6.38A2,2,0,0,0,336.31,419.51Z"/><path class="cls-1" d="M371.42,353.09c.77-4.14,1.32-8.38,3.08-12.24,1.39-3.05,2.88-3.1,5.2-1.72s4.92,2.87,7.31,4.42c2.21,1.43,2.37,2.67.87,4.87a29.44,29.44,0,0,1-5.54,5.5c-1.27,1.07-2.61,2.06-3.94,3.05a3.53,3.53,0,0,1-4.24.4C372.52,356.4,371.18,355.29,371.42,353.09ZM386,347.63a2.11,2.11,0,0,0-1-1.65,43.39,43.39,0,0,0-6.69-4c-1-.48-1.95-.57-2.64.48a2.14,2.14,0,0,0,.21,3,19.56,19.56,0,0,0,7.59,4.26A2.24,2.24,0,0,0,386,347.63Z"/><path class="cls-1" d="M324.26,353.51c.24,2.27-1.32,3.21-2.92,4.16a3.32,3.32,0,0,1-3.85-.38,47.39,47.39,0,0,1-9.27-8.15c-2.09-2.45-1.86-4,.84-5.71,2.44-1.54,5-3,7.51-4.36,1.94-1,2.95-.68,4.18,1.18a4.38,4.38,0,0,1,.5.86A60.32,60.32,0,0,1,324.26,353.51Zm-12.37-3.65c1.61,0,7.36-3.12,8.2-4.51a2.37,2.37,0,0,0-.16-2.8,1.78,1.78,0,0,0-2.33-.41,34.32,34.32,0,0,0-7.09,4.16,1.72,1.72,0,0,0-.69,2.13A2,2,0,0,0,311.89,349.86Z"/><path class="cls-1" d="M402,357.92a3.61,3.61,0,0,1-1.26,2.24c-1.7,1.75-4,2.59-6,3.72a39.39,39.39,0,0,1-6.35,2.86c-2,.67-3.13-.63-4.33-1.74a3.09,3.09,0,0,1-.87-3.63,48.74,48.74,0,0,1,5.72-10.94,8.41,8.41,0,0,1,1.25-1.35c1.6-1.39,2.54-1.46,4.09,0,2.27,2.16,4.45,4.41,6.63,6.66A3.65,3.65,0,0,1,402,357.92Zm-3.43.83a2.16,2.16,0,0,0-.59-1.56c-1.69-1.71-3.12-3.68-5.09-5.12-1-.71-2-1.23-3.05-.18a2.29,2.29,0,0,0-.1,3.22,27.52,27.52,0,0,0,4.94,5.06,3,3,0,0,0,1.71.64A2,2,0,0,0,398.6,358.75Z"/><path class="cls-1" d="M387.21,372.3a3.71,3.71,0,0,1-1.51,2.48,47.41,47.41,0,0,1-12.64,6.43c-2.1.7-5.56-2.72-4.83-4.85,1.64-4.72,3.67-9.28,7.22-12.94,1.33-1.36,2.5-1.42,3.87-.13,2.31,2.18,4.53,4.46,6.74,6.75A3.54,3.54,0,0,1,387.21,372.3Zm-10.81-6.71c-1.72,0-2.61,2-1.59,3.57a22.79,22.79,0,0,0,5.21,5.39,2.49,2.49,0,0,0,3.49-.19c.71-.81.57-2-.56-3.18-1.46-1.56-3-3.05-4.52-4.53A3.59,3.59,0,0,0,376.4,365.59Z"/><path class="cls-1" d="M299.57,423.66c1.95-.18,3.1.86,4,2.42a3.67,3.67,0,0,1-.22,4.5,62.15,62.15,0,0,1-8.24,8.84c-2.54,2.21-4,1.88-5.83-1-1.32-2.14-2.63-4.29-3.87-6.48-1.54-2.72-.94-4.42,2-5.61C291.29,424.72,295.44,424.2,299.57,423.66Zm-3.66,12c0-1.63-3.26-7.28-4.6-8.08a3.48,3.48,0,0,0-.52-.24,2.19,2.19,0,0,0-2.27.39,1.59,1.59,0,0,0-.45,1.94,27.24,27.24,0,0,0,4.26,7.51,1.68,1.68,0,0,0,2.18.51A2.06,2.06,0,0,0,295.91,435.7Z"/><path class="cls-1" d="M312.83,362.66c0,2.44-3.14,5-5.21,4.29a45.94,45.94,0,0,1-12.26-6.25c-2.09-1.46-2.12-3-.34-4.89q3.09-3.26,6.33-6.36c1.76-1.68,2.66-1.59,4.49.1,2.55,2.36,3.71,5.58,5.27,8.55A11.63,11.63,0,0,1,312.83,362.66Zm-6.32-9.1a2,2,0,0,0-1.13-1.94,1.82,1.82,0,0,0-2.11.35,35.56,35.56,0,0,0-5.64,5.6,1.94,1.94,0,0,0-.18,2.51,2.15,2.15,0,0,0,2.55.77,4,4,0,0,0,1.49-.79q2.16-2.07,4.21-4.25A3,3,0,0,0,306.51,353.56Z"/><path class="cls-1" d="M372.85,420.3a7.05,7.05,0,0,1,1,.26,58.12,58.12,0,0,1,11.24,5.75c2.66,1.78,2.8,3.34.65,5.7-1.85,2-3.81,4-5.81,5.85s-3.1,1.86-4.93-.2a34.23,34.23,0,0,1-6.65-12.28C367.74,423.4,370.47,420.3,372.85,420.3ZM384,428.4a1.8,1.8,0,0,0-1-1.62,2.35,2.35,0,0,0-2.69.13A22.21,22.21,0,0,0,375,432.3a2.22,2.22,0,0,0,.18,3.1c1,1,2,.59,2.95-.13a35.08,35.08,0,0,0,5.31-5.31A2.49,2.49,0,0,0,384,428.4Z"/><path class="cls-1" d="M342.45,391.68c0,2.34-3.1,4.81-5.3,4.08a47.58,47.58,0,0,1-11.79-5.92c-2.54-1.73-2.59-3.32-.48-5.5s4-4.09,6-6c1.84-1.73,2.76-1.64,4.61.14a17.85,17.85,0,0,1,3,4.3,57.78,57.78,0,0,1,3.45,7A5.69,5.69,0,0,1,342.45,391.68Zm-6.3-9.1a2.15,2.15,0,0,0-1-2.05,2,2,0,0,0-2.38.34,32.14,32.14,0,0,0-5.19,5c-.79.94-1.32,2.06-.36,3.21a2.57,2.57,0,0,0,3.5,0,25.87,25.87,0,0,0,4.72-4.69A2.93,2.93,0,0,0,336.15,382.58Z"/><path class="cls-1" d="M357.87,395.75c-2.82,0-5.25-3.22-4.27-5.61,1.73-4.21,3.45-8.46,6.67-11.83,1.8-1.89,2.82-1.89,4.7-.1q3.18,3,6.22,6.26c1.73,1.82,1.64,3.29-.33,4.8a52.23,52.23,0,0,1-11.53,6.12A8.52,8.52,0,0,1,357.87,395.75Zm9.07-6.07a2,2,0,0,0,1.65-3.35c-1.53-2.38-3.76-4.09-5.9-5.87a1.7,1.7,0,0,0-2.13,0,2,2,0,0,0-.94,2.08,3.59,3.59,0,0,0,.54,1.44,26.09,26.09,0,0,0,5.19,5.2A2.79,2.79,0,0,0,366.94,389.68Z"/><path class="cls-1" d="M327.66,425.21a6.15,6.15,0,0,1-.32,1.34A52.82,52.82,0,0,1,322,436.72a10.1,10.1,0,0,1-1.43,1.57c-1.57,1.43-2.47,1.45-4.1.08a80,80,0,0,1-6.79-6.87c-1.52-1.6-1.39-2.58.17-4.15,1.87-1.9,4.38-2.78,6.65-4.05a27,27,0,0,1,5.7-2.56C324.59,420.05,327.66,422.4,327.66,425.21Zm-13.41,1.4c-1.72,0-2.85,1.56-2,2.91a20.35,20.35,0,0,0,6.38,6.38,1.65,1.65,0,0,0,2-.1,2,2,0,0,0,.88-2,2.94,2.94,0,0,0-.56-1.45,28.17,28.17,0,0,0-4.85-5A3.34,3.34,0,0,0,314.25,426.61Z"/><path class="cls-1" d="M303.76,453.68a2.91,2.91,0,0,1-2-.9c-2.29-2.28-4.62-4.51-6.82-6.86-1.58-1.69-1.5-3,.37-4.45A44.41,44.41,0,0,1,307.74,435c1.83-.66,3,.73,4.13,1.88a2.94,2.94,0,0,1,.86,3.47,47.3,47.3,0,0,1-6,11.25A4.54,4.54,0,0,1,303.76,453.68Zm-4.43-12.75a2,2,0,0,0-1.78,3.17,24.74,24.74,0,0,0,6,6,1.93,1.93,0,0,0,3.08-1.07,2.81,2.81,0,0,0-.64-2.52,30.16,30.16,0,0,0-4.3-4.52A4.3,4.3,0,0,0,299.33,440.93Z"/></g>
    <g id="accessories"><polygon class="cls-2" points="694.31 601.5 1.51 601.5 347.91 401.5 694.31 601.5"/><path d="M694.31,603H1.51a1.5,1.5,0,0,1-.75-2.8l346.4-200a1.49,1.49,0,0,1,1.5,0l346.4,200a1.5,1.5,0,0,1-.75,2.8ZM7.11,600h681.6L347.91,403.23Z"/><g id="Layer_79_Image" data-name="Layer 79 Image"><path class="cls-3" d="M409.14,449.86c-2.61,6.09-7.37,10.4-12.41,14.35-3.48,2.73-7.36,4.94-11.09,7.35-12.59,8.14-25.59,15.62-38.11,23.88-4.87,3.22-9.54,6.73-14.13,10.33a6,6,0,0,1-1.71,1.1c-.26.08-.53.3-.78.05s-.06-.54,0-.79a15.64,15.64,0,0,1,2.51-3.78,71.26,71.26,0,0,1,10-9.11c7.93-6.33,16.7-11.4,25.19-16.9,8.89-5.76,17.89-11.35,26.77-17.14a103.29,103.29,0,0,0,11.86-9.53,4.23,4.23,0,0,1,1.86-1.26Z"/><path class="cls-3" d="M242.82,588.59c-1.66-1-1.89-2.33-.62-3.84a11.23,11.23,0,0,1,3-2.31,43.22,43.22,0,0,0,6.12-4.18c2.94-2.47,4.6-5.78,6.09-9.2.68-1.57,1.36-3.16,2.07-4.72.15-.34.34-.86.81-.71s.31.71.21,1c-2.07,7.17-4.38,14.22-9.54,19.9a14.69,14.69,0,0,1-6,4Z"/><path class="cls-3" d="M227,582.12a10.46,10.46,0,0,1-3.24-.35c-4.35-1.09-7-4.54-7.38-9.39-.6-7,1.23-13.4,4.08-19.61a111.07,111.07,0,0,1,9.95-16.93c.36-.51.79-1.57,1.38-1.19s-.19,1.19-.51,1.74c-2.62,4.54-5.27,9.05-7.62,13.73a23.1,23.1,0,0,0-2.76,9.37,13.1,13.1,0,0,0,1.87,8.15,7.91,7.91,0,0,0,6.55,3.63c6.13.3,11-2.35,15-6.71,1.47-1.58,1.09-2.79-.92-3.47l-.58-.16c-3.77-1-5.22-3.2-4.46-7a34.73,34.73,0,0,1,5.34-12.49,34.36,34.36,0,0,1,11.15-10.54,6.59,6.59,0,0,1,3.62-1.08c1.3,0,2,.71,1.81,2a10.14,10.14,0,0,1-3.09,6.08,2.78,2.78,0,0,1-1.84.81c-3.73.13-6.36,2.34-8.92,4.67a10.4,10.4,0,0,0-2.18,2.84c-1.05,2-.58,3.24,1.47,4.12.66.28,1.33.56,2,.88,2.24,1.11,2.81,2.24,2.49,4.74a30.07,30.07,0,0,1-4.4,12.08,37.13,37.13,0,0,1-11,11.83A12.91,12.91,0,0,1,227,582.12Z"/><path class="cls-3" d="M325.61,525.83c-.61-4,.41-8.39,2.16-12.72.52-1.3.92-2.64,1.4-4,.14-.38.14-1.08.67-1s.37.8.36,1.24c-.06,1.92-.11,3.84-.28,5.74-.3,3.31-.1,6.63-.22,10A47.82,47.82,0,0,1,327,539.88a17.77,17.77,0,0,1-4.9,7,8.76,8.76,0,0,1-2.17,1.22,21.78,21.78,0,0,0-3.8,2.21,3.19,3.19,0,0,1-2.29.56,3.4,3.4,0,0,0-3.38,1.8,7.7,7.7,0,0,1-4.06,3.39,5.29,5.29,0,0,1-4.2-.15,1.26,1.26,0,0,0-1.76.37,14.56,14.56,0,0,1-6.58,4.48,13,13,0,0,0-2.54,1.57,9,9,0,0,1-4,1.52,1.42,1.42,0,0,0-.58.15c-3,1.67-6.27,2.79-9.23,4.55a2,2,0,0,0-.84,1.5,24.4,24.4,0,0,1-7,12.47,14.68,14.68,0,0,1-7.4,3.71,1.86,1.86,0,0,1-2.07-.54,2.06,2.06,0,0,1,.1-2.27,4.87,4.87,0,0,1,1.8-1.72,46.49,46.49,0,0,0,8.52-6.39,6.68,6.68,0,0,0,1.44-2.05c.16-.4.41-.84.07-1.23s-.81-.27-1.22-.11a4.16,4.16,0,0,1-1.89.13c-2.51-.36-3.44-1.67-2.74-4.06a36.34,36.34,0,0,1,4.37-9.31c1.11-1.74,2.79-1.93,4.41-.64a5.86,5.86,0,0,1,2.11,4c.11.88.46,1.11,1.26.84,2-.71,4.16-1.25,5.39-3.29a.8.8,0,0,1,1.1-.4c1.75.65,2.61.44,3.66-1.06a2,2,0,0,1,2.34-1.1c1.28.28,2.07-.63,2.71-1.6a2,2,0,0,1,2.39-1.1,3.49,3.49,0,0,0,4.26-3.66,8.89,8.89,0,0,1,2.56-6.66c.35-.37.75-.88,1.31-.67s.22.84.2,1.27c-.18,2.66,2.76,4.44,5.5,3.32a6.72,6.72,0,0,0,2.82-2.35c.55-.74,1-1.19,1.88-.29a1.47,1.47,0,0,0,2.16-.05c.24-.2.56-.41.67-.68.64-1.59,2-1.61,3.34-1.49a1.31,1.31,0,0,0,1.05-.36c2.52-2,3.26-4.91,3.66-8C325.74,532.08,325.51,529.32,325.61,525.83Z"/><path class="cls-3" d="M327.34,562.94c-.44-.1-1.24.29-1.44-.29s.59-.94,1-1.31a60.42,60.42,0,0,0,6.18-5.47,17.8,17.8,0,0,0,4.52-11.45c.17-3.72.31-7.43.76-11.11A36.75,36.75,0,0,1,342.12,522c.11-.23.24-.6.58-.49s.23.47.19.74c-1,7.4-1,14.91-2.39,22.26a40.88,40.88,0,0,1-5.26,13.83C333.18,561.66,331.11,562.88,327.34,562.94Z"/></g><g id="Accessory_Image" data-name="Accessory Image"><path class="cls-3" d="M466.91,547.56l-3.12,2.78a3.93,3.93,0,0,1-1.46.83,1.71,1.71,0,0,1-2.42-1.4c-.13-.84-.28-1.06-1.17-.71-2.63,1-4.14-.18-3.93-3,0-.39.44-1-.18-1.14s-1.4-.72-2.06-.19a16.42,16.42,0,0,1-4.28,2.36c-.62.24-.78,1-1.16,1.49a6.2,6.2,0,0,1-6.17,2.26,3.28,3.28,0,0,1-2.56-2.11c-.22-.61-.47-.6-.92-.18-1,.9-1.86,1.69-1.87,3.34a6.49,6.49,0,0,1-3.31,5.41c-1.92,1.24-3.23.9-4.58-1.16-.44.65-.84,1.24-1.27,1.85a6.55,6.55,0,0,1-2.87,2.28c-1.92.81-3.38.11-4-1.88a7.5,7.5,0,0,1,.93-6.09,11.25,11.25,0,0,1,3.07-3.34c.63-.5.35-2.67-.41-3-.52-.19-.65.35-.88.63a13.35,13.35,0,0,1-8.19,5c-2.72.46-4.52-.79-4.89-3.54-.12-.92-.43-.63-.87-.27a19.23,19.23,0,0,1-7.85,4.22,14.32,14.32,0,0,1-2.6.39A4.43,4.43,0,0,1,393,549c-.24-.82-.42-.85-1.05-.32a17.79,17.79,0,0,1-8.37,4.2,9.23,9.23,0,0,1-3.1.07,4.94,4.94,0,0,1-3.74-3.12l-.51,5.43c-.16,1.67-.33,3.34-.5,5-.08.8-.28,1.52-1.25,1.64a1.63,1.63,0,0,1-1.86-1.18c-.81-2-1.22-4.21-1.84-6.32a18.87,18.87,0,0,0-9.52-11.93c-.14-.07-.28-.15-.43-.21-2.36-1.16-2.71-1.07-3.74,1.29a84.62,84.62,0,0,0-5.67,16.52c-.14.7-.1,1.43-.19,2.14s-.46,1.45-1.29,1.51-1.23-.66-1.4-1.39a6.19,6.19,0,0,1,.08-2.74,94.12,94.12,0,0,1,5.48-16.6c.11-.26.21-.52.33-.77.32-.7.15-1.05-.67-1-1.2,0-2.4,0-3.6,0-.69,0-1.33-.09-1.43-.92s.52-1.22,1.24-1.31a13.94,13.94,0,0,1,4.41-.2,1.84,1.84,0,0,0,2.27-1.17,39,39,0,0,1,7.7-10.63,16.66,16.66,0,0,1,4.15-3,5.23,5.23,0,0,1,7.28,2.52,18.2,18.2,0,0,1,1.38,6,77.71,77.71,0,0,1,0,11.62c0,.51,0,1,0,1.57.51-.06.52-.44.66-.69a18.33,18.33,0,0,1,3.92-5,4.56,4.56,0,0,1,4.88-1.07,2,2,0,0,1,1.28,2.52,1.61,1.61,0,0,1-2.7.86.93.93,0,0,0-1.43-.12,12.36,12.36,0,0,0-4.35,6.58c-.32,1.06.42,1.64,1.39,1.85a6.78,6.78,0,0,0,3.88-.37c3.2-1.16,5.67-3.38,8.17-5.58,1.32-1.16,2.6-2.37,4-3.45a5,5,0,0,1,5-1.06,1.78,1.78,0,0,1,1.14,2.14,2.08,2.08,0,0,1-1.67,1.95,1.3,1.3,0,0,1-1.46-.59c-.37-.66-.77-.56-1.26-.22a8,8,0,0,0-3.15,4.4c-.39,1.26.29,2.09,1.73,2.29a7.8,7.8,0,0,0,4-.58,26.07,26.07,0,0,0,10.19-7.77c1.16-1.36,2.26-2.68,4.07-3.18a2.34,2.34,0,0,1,2.52.61,2.11,2.11,0,0,1,.36,2.56,10.38,10.38,0,0,1-5.2,4.92c-.39.18-.89.21-1.06.7a1.73,1.73,0,0,0-.08,1.61c.33.52.9.47,1.41.4a9.12,9.12,0,0,0,5.55-3.28c.51-.56.94-1.19,1.43-1.78a4.68,4.68,0,0,0,1.33-3.65,3,3,0,0,1,2.91-3.51,2.52,2.52,0,0,1,2.52,3.33,3.52,3.52,0,0,1-1,1.76c-.83.7-.77,1.39-.36,2.32,1.1,2.54,1,2.5,3.15.82a2.6,2.6,0,0,0,1.18-3.12,2.64,2.64,0,0,1,1.1-2.86,1.86,1.86,0,0,1,3,1.2,2.5,2.5,0,0,1-.24,2c-.85,1.11-.5,2.13-.06,3.24.89,2.23.87,2.24,2.55.55.53-.54,1-1.11,1.55-1.67a1.62,1.62,0,0,0,.42-1.31,4.25,4.25,0,0,1,2.59-4.45c2-1,3.73-.41,5.35.84A5.15,5.15,0,0,1,448.3,543c.09.43.11,1.27.91.79s2-.39,1.48-1.72a6.6,6.6,0,0,1-.51-2.8,3.66,3.66,0,0,1,.36-1.38c.67-1.3,2-2.13,3.09-1.77,1.34.46,1.34,1.64,1.33,2.78a8.23,8.23,0,0,1-.27,2.26c-.21.7.1,1,.79.88.24,0,.47-.09.71-.12a1.86,1.86,0,0,1,1.85.58c.47.6.11,1.2-.15,1.8a13.3,13.3,0,0,0-.77,2.14c-.19.77.13,1.09.91.7a9.88,9.88,0,0,0,3.75-3.62,9.3,9.3,0,0,1,.57-.91,1,1,0,0,1,1.27-.38,1,1,0,0,1,.51,1.31c-.36.93-.77,1.84-1.17,2.75-.24.54-.5,1.07-.89,1.89a5.6,5.6,0,0,0,1.64-1.54,31,31,0,0,0,5.13-6,1.34,1.34,0,0,1,2-.47,1.84,1.84,0,0,1,1.12,2.44,40.91,40.91,0,0,0-2.32,8.17c-.09.37-.09.76-.17,1.45.83-.67,1.48-1.13,2-1.67,2.43-2.33,4.79-4.72,6.08-7.93.24-.59.71-.94,1.33-.64a1.14,1.14,0,0,1,.55,1.52,16.54,16.54,0,0,1-3.84,6,49.05,49.05,0,0,1-5.89,5.27,5.28,5.28,0,0,0-1.91,2.64,27.61,27.61,0,0,1-6.72,11.48,5.47,5.47,0,0,1-4.46,1.65,2.22,2.22,0,0,1-2.16-2.89,10,10,0,0,1,2.93-4.86,79.78,79.78,0,0,1,7.25-7,2.8,2.8,0,0,0,1-1.59c.5-2.21,1-4.41,1.55-6.62A.61.61,0,0,1,466.91,547.56Zm-93.57,6.56c.17-.48.27-.66.3-.83a117.68,117.68,0,0,0,.47-24c-.11-1.38-.26-2.9-1.78-3.56s-2.8.29-3.89,1.22c-3.87,3.22-6.53,7.4-9,11.71-.35.61-.17.92.49,1.13,5.62,1.83,9.16,5.91,11.78,11C372.22,551.75,372.7,552.8,373.34,554.12Zm52.15-1.39c0-1.54-.16-1.87-.74-1.67-1.69.59-3.82,4.24-3.51,6,.2,1.14.72,1.35,1.62.62A7,7,0,0,0,425.49,552.73Zm2.94.23c.71-.56,1.27-1.05,1.87-1.48,2.3-1.66,2.3-1.65,1.26-4.33l0-.12c-.17-.62-.46-.66-.93-.24-.74.67-1.51,1.31-2.27,2-.25.21-.54.43-.43.79A20.11,20.11,0,0,1,428.43,553ZM463,560.73a23.89,23.89,0,0,0-5.65,5.7c-.28.41-.91,1-.42,1.44s1.12,0,1.61-.39a3.49,3.49,0,0,0,.47-.37A19.27,19.27,0,0,0,463,560.73ZM443.5,541a2.86,2.86,0,0,1-.11,2c-.74,1.78-.73,1.78,1.22,1.71H445c.63,0,.88-.29.7-.9A4.23,4.23,0,0,0,443.5,541Z"/></g></g>
    <g id="men"><polygon class="cls-2" points="347.91 1.5 347.91 401.5 1.51 601.5 1.5 601.5 347.91 1.5"/><path d="M1.51,603A1.5,1.5,0,0,1,.2,600.75L346.61.75a1.5,1.5,0,0,1,2.8.75v400a1.51,1.51,0,0,1-.75,1.3L2.26,602.8A1.53,1.53,0,0,1,1.51,603ZM346.41,7.1,5.59,597.41,346.41,400.63Z"/><g id="men-2" data-name="men"><g id="Man_Image" data-name="Man Image"><path class="cls-3" d="M276.63,293.74a30.84,30.84,0,0,0-5.11,7.86,72,72,0,0,1-4.27,7.62,79.67,79.67,0,0,0-4.15,7.52c-.59,1.19-1.27,2.41-2.81,2.39s-2.3-1.13-3-2.3c-1.69-3.1-1.84-6.55-2-10-.12-2.61,0-5.23,0-7.84a15.33,15.33,0,0,0-.38-3.45c-.11-.48-.2-1.13-.71-1.24s-.84.46-1.13.85c-2.83,3.77-4.69,8.07-6.59,12.35-4.79,10.81-7.6,22.23-10,33.76-.06.29-.12.59-.17.88-.19,1.17-.62,2-2.06,1.75a2,2,0,0,1-1.68-2.68q1.44-6.54,3-13.09c2-8.61,4.37-17.14,6.61-25.69.19-.73.33-1.47.48-2.2.27-1.4,1.16-1.94,2.38-1.22.88.52,1.18.26,1.56-.51a29,29,0,0,1,3.05-5.36c1.31-1.7,2.91-2.87,5.15-2.45s3.5,2,4.07,4.16a22.35,22.35,0,0,1,.57,5.53c0,4-.19,8.05.61,12,.08.34.1.71.2,1s0,.92.53,1,.62-.45.84-.76a29.3,29.3,0,0,0,2.46-4.67c1.88-4.11,3.53-8.32,5.67-12.32a40,40,0,0,1,4.64-6.68,6.47,6.47,0,0,1,1.58-1.37c2.59-1.56,4.68-.43,4.89,2.6a11,11,0,0,1-.46,3.42c-1.41,5.77-3.51,11.33-5.14,17a133.06,133.06,0,0,0-4.68,24.7c-.07.65,0,1.3,0,2s-.24,1.52-1.17,1.69a1.78,1.78,0,0,1-2.1-1.06,7,7,0,0,1-.41-3.7c1.07-12,4.24-23.62,7.88-35.08.59-1.87,1.15-3.75,1.7-5.64A2.75,2.75,0,0,0,276.63,293.74Z"/><path class="cls-3" d="M305.91,315.9a25.35,25.35,0,0,0-5.21,6.18c-.48.79-.89,1.67-2,1.5a1.94,1.94,0,0,1-1.75-1.79c-.1-.71-.45-.68-.91-.32a13.43,13.43,0,0,1-3.25,1.9c-2.69,1.07-4.42.45-5.67-2.15-.38-.78-.67-.89-1.28-.3a12.35,12.35,0,0,1-3.45,2.4c-3.27,1.52-5.64-.1-5.42-3.72.19-3,4-7.5,6.89-8.1a3.82,3.82,0,0,1,3.68.82A2.83,2.83,0,0,0,289,313a2.41,2.41,0,0,1,1.8,3.44c-.41,1.23-1.21,2.79-.09,3.66s2.29-.47,3.33-1.09a16.39,16.39,0,0,0,3.83-3.37c1.7-1.91,2.24-2,4.56-.94.51.25.73-.11,1-.34a10.94,10.94,0,0,1,2.76-1.8c1-.39,2.08-.69,3,.17a2.8,2.8,0,0,1,.62,3.07c-.37,1.14-.68,2.31-1,3.47-.08.29-.2.61,0,.85s.66,0,1-.09a10.55,10.55,0,0,0,3.54-3c.54-.67,1-1.37,1.54-2s1.22-1.13,2.09-.63a1.59,1.59,0,0,1,.57,2.24,9.92,9.92,0,0,1-1.31,2,16.11,16.11,0,0,1-6.65,5c-3.16,1.24-5.25-.5-4.63-3.83C305.13,318.67,305.49,317.52,305.91,315.9Zm-25.5,5a1.65,1.65,0,0,0,.26-.14,28.47,28.47,0,0,0,4.48-4.83c.37-.5,0-.7-.53-.64-1.4.18-4.63,3.66-4.64,5C280,320.58,279.92,320.93,280.41,320.88Z"/></g><g id="Layer_73_Image" data-name="Layer 73 Image"><path class="cls-3" d="M292.39,370.53a50.06,50.06,0,0,1-5.31,10.28c-1.52,2.3-3.34,3.59-6.32,3.38-8.28-.55-14.71,3.16-20,9.22-.22.27-.43.74-.75.67-1.06-.27-1.29.56-1.68,1.14-3.62,5.37-7,10.91-11.17,15.89a66.14,66.14,0,0,1-18.29,15c-2.88,1.66-6,2.9-8.89,4.43h-.9c-.86-1.06-.1-1.81.55-2.48a45,45,0,0,1,6.63-5.44c9.15-6.34,17-13.95,22.68-23.62a174,174,0,0,1,10.27-15.78,40.48,40.48,0,0,1,11.9-10.94,5.32,5.32,0,0,0,1.95-2c2.58-4.43,5.16-8.86,7.8-13.26,1-1.62,1.35-1.64,2.72-.27a56.3,56.3,0,0,1,8.82,11Z"/><path class="cls-3" d="M245.59,367.86a39.58,39.58,0,0,1-4.14,17.29,43.86,43.86,0,0,1-4.84,8.5,12.22,12.22,0,0,1-4.89,3.66A98.42,98.42,0,0,1,221,401c-.52.16-1.15.46-1.49-.2s.22-1.05.63-1.39c2.63-2.11,5.33-4.13,7.91-6.29a49,49,0,0,0,7.3-7.39c2.32-3.05,2.33-4.88.17-8.09a34.12,34.12,0,0,0-8.08-8.05,1.94,1.94,0,0,1-.73-2.79c2.16-4.75,4.23-9.56,6.35-14.33.83-1.88,1.25-1.94,2.81-.56a55.61,55.61,0,0,1,5.67,5.61A16.14,16.14,0,0,1,245.59,367.86Z"/><path class="cls-3" d="M184,385.69c-1.34-.17-2.69-.34-4-.54a11.83,11.83,0,0,0-10.12,2.72c-.95.81-2,1.57-3,2.31-.44.31-1,.7-1.51.28a1.34,1.34,0,0,1-.29-1.54,22.9,22.9,0,0,1,2.48-5.48,61.94,61.94,0,0,1,7.59-10.29c4-4.37,8.67-6.23,14.59-5a9,9,0,0,0,10.08-4.35c.66-1,1.32-2,2-3,.4-.56.83-1.32,1.66-1s.75,1.24.68,2a19.41,19.41,0,0,1-1.64,5.62A48.77,48.77,0,0,1,195.12,380C192.17,383.44,188.67,385.65,184,385.69Z"/><path class="cls-3" d="M223,320.49c-.45,2.93-.92,5.65-1.3,8.39-.84,6.17-1.24,12.38-1.72,18.6-.84,10.72-1.51,21.47-6,31.51a59.65,59.65,0,0,1-3.78,7.54,13.72,13.72,0,0,1-1,1.49c-.42.48-.89,1.27-1.55.92s-.2-1.19,0-1.76c2.07-6.15,2.74-12.55,3.6-18.92,1.19-8.81,1.13-17.73,2.36-26.54.59-4.27,2.47-8.05,4.1-11.94,1.18-2.83,2.4-5.64,3.61-8.46a10.8,10.8,0,0,1,.55-1.07c.17-.26.41-.5.75-.41A.57.57,0,0,1,223,320.49Z"/><path class="cls-3" d="M205.81,326.07a6.41,6.41,0,0,1-.27,2.44,21.42,21.42,0,0,1-7.93,10,2,2,0,0,1-2.71-.15,61.41,61.41,0,0,0-7.59-5.93,1.07,1.07,0,0,1-.44-1.65q4.63-7.08,9.27-14.12a1.09,1.09,0,0,1,1.56-.45c3.33,1.87,6.4,4,7.76,7.83a5.91,5.91,0,0,1,.3,1.17A7.44,7.44,0,0,1,205.81,326.07Z"/></g></g></g>
    <g onclick="location.href='https://google.com';" id="women"><polygon class="cls-2" points="694.32 601.5 694.31 601.5 347.91 401.5 347.91 1.5 694.32 601.5"/><path d="M694.32,603h0a1.5,1.5,0,0,1-.75-.2l-346.4-200a1.49,1.49,0,0,1-.75-1.3V1.5a1.5,1.5,0,0,1,2.8-.75l346.41,600a1.49,1.49,0,0,1,0,1.5A1.52,1.52,0,0,1,694.32,603ZM349.41,400.63,690.23,597.41,349.41,7.1Z"/><g id="Women-2" data-name="Women"><g id="Woman_Image" data-name="Woman Image"><path class="cls-3" d="M441.3,385.16a18.35,18.35,0,0,1,1.77-1.89c3.55-2.8,8.67-.84,9.95,3.78.48,1.73.48,1.74,2.08.76a3.74,3.74,0,0,0,1.65-1.37,2,2,0,0,1,2.4-1.17c1.18.25,1.42,1.18,1.56,2.18,0,.28,0,.56.06,1,1.28-1,2.43-1.93,3.63-2.8a9,9,0,0,1,1.89-1.07c2-.78,3.33.33,3.61,2.95,2.92-1,3.17-.86,4.93,1.76,1.31,1.93,1.68,2,3.77.87a35.8,35.8,0,0,0,5.52-4.46,8.44,8.44,0,0,1,3.94-2.35,3.62,3.62,0,0,1,1.57,0c1.58.4,2.83,1.49,4.31,2.11,1,.41,1.09,1.54.67,2.55a7.2,7.2,0,0,0-.52,2.84c0,1,.49,1.28,1.4.91a15.05,15.05,0,0,0,5.84-4.45c1.64-2,1.75-2.07,4-.81.55.3.71-.1.95-.33a8.68,8.68,0,0,1,2.77-1.83,2.45,2.45,0,0,1,2.86.28,2.66,2.66,0,0,1,.61,2.82c-.35,1.17-.7,2.32-1,3.48-.09.3-.29.72.07.91.18.1.56-.07.8-.21a13.21,13.21,0,0,0,4.22-3.93,12,12,0,0,1,1-1.28,1.52,1.52,0,0,1,1.73-.36,1.44,1.44,0,0,1,.85,1.54,2.39,2.39,0,0,1-.46,1.36,16.52,16.52,0,0,1-7.45,6.26c-3.07,1.27-5-.25-4.57-3.55.15-1.14.52-2.25.86-3.68a19.83,19.83,0,0,0-3.78,4.14,11.41,11.41,0,0,0-1.18,1.83,1.71,1.71,0,0,1-1.94,1.16,1.74,1.74,0,0,1-1.61-1.61,1.35,1.35,0,0,0-.18-.36c-6.41,3.12-7.63,3-9.3-1.25a14,14,0,0,1-4.08,3,4.27,4.27,0,0,1-3.21.47,2.33,2.33,0,0,1-1.62-1.72c-.27-1.44-.85-1.22-1.82-.63a6.31,6.31,0,0,1-3.72,1,4.94,4.94,0,0,1-3.61-2.19c-.62-.8-1.06-.72-1.73-.14s-1.54,1.18-2.3,1.77a2.43,2.43,0,0,1-3.1.11,2.23,2.23,0,0,1-.71-2.86,13.28,13.28,0,0,0,.72-2.34c-2.29,2-4.95,3.61-6.28,6.51a1.88,1.88,0,0,1-2.59.92,2,2,0,0,1-1.53-2.45c.09-.51.26-1,.44-1.68-1.43.41-2.61.74-3.36,2.09a7,7,0,0,1-5.74,3.48c-4,.44-6.57-2.59-5.42-6.43a6,6,0,0,0,0-3.7c-.68,2-1.27,3.89-1.94,5.73a70.52,70.52,0,0,1-10.11,18.87,11.69,11.69,0,0,1-2.43,2.28,5.45,5.45,0,0,1-6,.69c-2.06-1-2.72-2.79-2.89-4.86a45.52,45.52,0,0,1,.44-7.1,28.61,28.61,0,0,0,0-6.67c-.25-1.51-.51-1.62-1.7-.69-2.77,2.17-4.87,5-7.16,7.6-1.75,2-3.16,4.3-5.06,6.17a3.54,3.54,0,0,1-3.68,1.16,2.31,2.31,0,0,1-1.79-3.09,65.08,65.08,0,0,1,3.68-9.62,69.24,69.24,0,0,0,4.95-15.3,8.44,8.44,0,0,0,0-3.32,1.38,1.38,0,0,0-1.89-1.22,13.19,13.19,0,0,0-4.71,2.19,157.85,157.85,0,0,0-12.61,10c-.45.37-.88.76-1.35,1.11a2.21,2.21,0,0,1-3.1-.14c-.8-1-.68-2.07.51-3,4.08-3.27,8-6.77,12.32-9.69a24,24,0,0,1,8.07-3.88,9.85,9.85,0,0,1,2.59-.24,3.82,3.82,0,0,1,4.06,3.39,18.19,18.19,0,0,1-.74,8.6c-1.23,4.53-3,8.89-4.58,13.33a3.72,3.72,0,0,0-.28,1.65c1.2-1.26,2.4-2.52,3.59-3.8a39.86,39.86,0,0,1,5.94-5.53c2.63-1.87,5.31-.75,5.74,2.37.47,3.33-.07,6.68-.07,10,0,2.25.77,4.36.92,6.59.07,1.07,1.07,1.38,2.13.83a8.5,8.5,0,0,0,3.14-3c6.05-9.43,10.59-19.45,11.93-30.72a25.3,25.3,0,0,0,0-8.1c-.83-4.08-3.41-6.73-7-8.56-.3-.16-.63-.26-.93-.4a1.33,1.33,0,0,1-.8-1.67c.2-.77.87-.85,1.51-.8a11.34,11.34,0,0,1,7.48,3.75c3.72,3.83,4.08,8.59,3.85,13.54A54,54,0,0,1,441.3,385.16Zm42.79,7.63a35,35,0,0,0,5-5.11c.12-.15.27-.32.12-.5a.57.57,0,0,0-.65-.11C486.79,387.53,484.19,390.73,484.09,392.79ZM447.22,385a4,4,0,0,1-.32,3.09c-.76,1.29-.67,1.43.82,1.47a11.2,11.2,0,0,0,1.3-.09c.61,0,.89-.31.69-.93A6.09,6.09,0,0,0,447.22,385Z"/></g><g id="Layer_72_Image" data-name="Layer 72 Image"><path class="cls-3" d="M452.9,368.9c-.57-1.3.4-2,1.15-2.7,2.27-2,4.63-3.82,6.93-5.76,2.14-1.8,4.29-3.62,6.37-5.51a24.87,24.87,0,0,0,7-11.19c1.66-5.27,3.32-10.52,5-15.8a6,6,0,0,1,.89-2c.3-.39.64-.8,1.21-.56s.58.74.51,1.25c-.16,1-.34,2.11-.52,3.15-1.41,8.36-3,16.7-5.75,24.74-.31.92-.66,1.82-1,2.73a13.39,13.39,0,0,1-8.34,8.32,96.42,96.42,0,0,1-11.12,3.3Z"/><path class="cls-3" d="M485.18,303.17a25.51,25.51,0,0,1-4.72,6.38c-.53.49-1.1.95-1.67,1.4a2.31,2.31,0,0,1-3.36-.15,49.34,49.34,0,0,0-6.16-4.82c-.85-.53-.89-1.13-.35-1.93q3.88-5.87,7.73-11.76a1.44,1.44,0,0,1,2.3-.5,16.21,16.21,0,0,1,6.21,6.14C485.18,299.68,485.18,301.42,485.18,303.17Z"/><path class="cls-3" d="M443.61,336c.25-4.43,1-10,1.68-15.58,1-8.31,2.17-16.61,3.72-24.85.86-4.57,2.75-8.76,4.47-13,.19-.49.34-1.34,1.09-1.09s.45,1,.38,1.55c-.6,4.55-1.29,9.11-1.83,13.68-1.14,9.65-2.6,19.3-2.47,29.06a12.13,12.13,0,0,0,1.84,7.2c2.47,3.51,7,3.31,9-.47.7-1.32,1.17-2.76,1.8-4.12.27-.58.51-1.42,1.41-1.16.72.21.79,1,.7,1.59-1,7.17-2.4,14.18-6.95,20.07-3.83,5-9.6,4.46-12.7-1a13.1,13.1,0,0,1-1.29-3.38A31.43,31.43,0,0,1,443.61,336Z"/><path class="cls-3" d="M420.52,352.14c-1.24-.14-2.52-.2-3.74-.45a9.91,9.91,0,0,0-8.51,2.39,29.72,29.72,0,0,1-2.76,2.12c-1,.65-1.56.33-1.51-.87a4,4,0,0,1,.34-1.55,40.33,40.33,0,0,1,10.88-14.88,9.6,9.6,0,0,1,8.62-2.41,18.36,18.36,0,0,0,3.47.31,7.72,7.72,0,0,0,6.89-3.6c.72-1,1.38-2.1,2.14-3.12.36-.5.77-1.13,1.52-.83s.57.95.57,1.53a12.74,12.74,0,0,1-1.29,5c-1.94,4.35-4,8.58-7.37,12.1A12.3,12.3,0,0,1,420.52,352.14Z"/><path class="cls-3" d="M477.8,266.48a6.71,6.71,0,0,1-.61,2.59,21.24,21.24,0,0,1-6.1,7.65c-1.19.88-2.2,1.08-3.46-.06a42.87,42.87,0,0,0-6.15-4.85,1.16,1.16,0,0,1-.43-1.83l7.88-12a1.25,1.25,0,0,1,1.86-.5,16.55,16.55,0,0,1,5.93,5.25A7.17,7.17,0,0,1,477.8,266.48Z"/><path class="cls-3" d="M439.89,299.92c0,2.73-1.48,4.7-2.91,6.64a17.24,17.24,0,0,1-4.23,4.16,2,2,0,0,1-2.75-.15,53.45,53.45,0,0,0-6.52-5.1,1.07,1.07,0,0,1-.39-1.71l8-12.14c.34-.52.83-.94,1.46-.61,3.3,1.8,6.28,3.92,7.24,7.87A9.76,9.76,0,0,1,439.89,299.92Z"/></g></g></g>
</svg>